<svg viewBox="0 0 1024 1024" version="1.1" xmlns="http://www.w3.org/2000/svg" p-id="2581" data-spm-anchor-id="a313x.7781069.0.i12" width="24" height="24">
  <path d="M512 981.333333a466.261333 466.261333 0 0 1-331.861333-137.472A466.218667 466.218667 0 0 1 42.666667 512a466.218667 466.218667 0 0 1 137.472-331.861333A466.261333 466.261333 0 0 1 512 42.666667a466.261333 466.261333 0 0 1 331.861333 137.472A466.261333 466.261333 0 0 1 981.333333 512a466.261333 466.261333 0 0 1-137.472 331.861333A466.261333 466.261333 0 0 1 512 981.333333zM361.514667 470.101333a73.429333 73.429333 0 0 0-28.672 6.912c-66.432 29.013333-104.32 70.229333-106.666667 116.053334a167.594667 167.594667 0 0 0 157.866667 180.053333h5.717333a172.8 172.8 0 0 0 111.402667-44.501333 151.978667 151.978667 0 0 0 54.442666-103.253334c1.792-50.517333 1.450667-102.4 1.109334-152.277333v-0.682667c0-19.797333-0.256-40.32-0.256-60.373333a72.533333 72.533333 0 0 1 69.973333-78.506667 140.032 140.032 0 0 1 18.005333-1.194666 71.808 71.808 0 0 1 73.344 46.464c17.834667 44.629333-14.805333 70.4-45.226666 87.893333a111.573333 111.573333 0 0 0-23.893334 14.506667c-15.189333 12.501333-27.989333 26.837333-18.773333 46.933333a38.4 38.4 0 0 0 37.546667 22.826667 77.184 77.184 0 0 0 14.464-1.493334 149.034667 149.034667 0 0 0 107.477333-98.645333 148.096 148.096 0 0 0-18.688-143.701333 178.261333 178.261333 0 0 0-133.802667-58.368 168.874667 168.874667 0 0 0-54.784 8.874666 149.333333 149.333333 0 0 0-107.52 151.850667c-0.853333 64.896-0.853333 128 0 192.853333a73.770667 73.770667 0 0 1-50.346666 81.066667 116.992 116.992 0 0 1-38.144 6.912 72.021333 72.021333 0 0 1-68.522667-43.605333 66.389333 66.389333 0 0 1-4.693333-52.437334 87.082667 87.082667 0 0 1 50.773333-44.8l1.664-0.725333c14.464-6.4 30.805333-13.696 35.797333-27.093333a35.072 35.072 0 0 0-3.370666-27.648 39.125333 39.125333 0 0 0-36.224-23.893334z" p-id="2582" data-spm-anchor-id="a313x.7781069.0.i13" class="selected" fill="#00C773"></path>
</svg>