<svg width="160" height="160" viewBox="0 0 160 160" fill="none" xmlns="http://www.w3.org/2000/svg" role="img" aria-labelledby="qr-1906855052-title qr-1906855052-desc"><title id="qr-1906855052-title">QR code for https://u.wechat.com/EAVzgOGBnATKcePfVWr_QyQ</title><desc id="qr-1906855052-desc">Stylized SVG QR code generated locally.</desc><defs><linearGradient id="qr-1906855052-frame" x1="0" y1="0" x2="160" y2="160" gradientUnits="userSpaceOnUse"><stop offset="0%" stop-color="#0B1220" /><stop offset="55%" stop-color="#172554" /><stop offset="100%" stop-color="#0F172A" /></linearGradient><radialGradient id="qr-1906855052-halo" cx="0" cy="0" r="1" gradientUnits="userSpaceOnUse" gradientTransform="translate(28.8 19.2) rotate(40) scale(67.2 60.8)"><stop offset="0%" stop-color="#FFD166" stop-opacity="0.34" /><stop offset="100%" stop-color="#FF8A5B" stop-opacity="0" /></radialGradient><filter id="qr-1906855052-frame-glow" x="-20%" y="-20%" width="140%" height="140%"><feGaussianBlur stdDeviation="10" /></filter></defs><rect width="160" height="160" rx="26" fill="url(#qr-1906855052-frame)" /><rect width="160" height="160" rx="26" fill="url(#qr-1906855052-halo)" /><rect x="8" y="8" width="144" height="144" rx="18.72" fill="#F8FAFC" /><rect x="8" y="8" width="144" height="144" rx="18.72" fill="none" stroke="#E2E8F0" /><rect x="49.45" y="20.26" width="2.72" height="2.72" rx="1.2" fill="#111827" /><rect x="52.69" y="20.26" width="2.72" height="2.72" rx="1.2" fill="#111827" /><rect x="59.18" y="20.26" width="2.72" height="2.72" rx="1.2" fill="#111827" /><rect x="62.42" y="20.26" width="2.72" height="2.72" rx="1.2" fill="#111827" /><rect x="78.64" y="20.26" width="2.72" height="2.72" rx="1.2" fill="#111827" /><rect x="81.88" y="20.26" width="2.72" height="2.72" rx="1.2" fill="#111827" /><rect x="85.12" y="20.26" width="2.72" height="2.72" rx="1.2" fill="#111827" /><rect x="98.1" y="20.26" width="2.72" height="2.72" rx="1.2" fill="#111827" /><rect x="101.34" y="20.26" width="2.72" height="2.72" rx="1.2" fill="#111827" /><rect x="104.58" y="20.26" width="2.72" height="2.72" rx="1.2" fill="#111827" /><rect x="52.69" y="23.5" width="2.72" height="2.72" rx="1.2" fill="#111827" /><rect x="55.94" y="23.5" width="2.72" height="2.72" rx="1.2" fill="#111827" /><rect x="65.66" y="23.5" width="2.72" height="2.72" rx="1.2" fill="#111827" /><rect x="75.39" y="23.5" width="2.72" height="2.72" rx="1.2" fill="#111827" /><rect x="78.64" y="23.5" width="2.72" height="2.72" rx="1.2" fill="#111827" /><rect x="85.12" y="23.5" width="2.72" height="2.72" rx="1.2" fill="#111827" /><rect x="104.58" y="23.5" width="2.72" height="2.72" rx="1.2" fill="#111827" /><rect x="111.07" y="23.5" width="2.72" height="2.72" rx="1.2" fill="#111827" /><rect x="46.21" y="26.75" width="2.72" height="2.72" rx="1.2" fill="#111827" /><rect x="49.45" y="26.75" width="2.72" height="2.72" rx="1.2" fill="#111827" /><rect x="59.18" y="26.75" width="2.72" height="2.72" rx="1.2" fill="#111827" /><rect x="65.66" y="26.75" width="2.72" height="2.72" rx="1.2" fill="#111827" /><rect x="68.91" y="26.75" width="2.72" height="2.72" rx="1.2" fill="#111827" /><rect x="78.64" y="26.75" width="2.72" height="2.72" rx="1.2" fill="#111827" /><rect x="81.88" y="26.75" width="2.72" height="2.72" rx="1.2" fill="#111827" /><rect x="85.12" y="26.75" width="2.72" height="2.72" rx="1.2" fill="#111827" /><rect x="88.37" y="26.75" width="2.72" height="2.72" rx="1.2" fill="#111827" /><rect x="101.34" y="26.75" width="2.72" height="2.72" rx="1.2" fill="#111827" /><rect x="111.07" y="26.75" width="2.72" height="2.72" rx="1.2" fill="#111827" /><rect x="46.21" y="29.99" width="2.72" height="2.72" rx="1.2" fill="#111827" /><rect x="55.94" y="29.99" width="2.72" height="2.72" rx="1.2" fill="#111827" /><rect x="75.39" y="29.99" width="2.72" height="2.72" rx="1.2" fill="#111827" /><rect x="78.64" y="29.99" width="2.72" height="2.72" rx="1.2" fill="#111827" /><rect x="85.12" y="29.99" width="2.72" height="2.72" rx="1.2" fill="#111827" /><rect x="88.37" y="29.99" width="2.72" height="2.72" rx="1.2" fill="#111827" /><rect x="91.61" y="29.99" width="2.72" height="2.72" rx="1.2" fill="#111827" /><rect x="94.85" y="29.99" width="2.72" height="2.72" rx="1.2" fill="#111827" /><rect x="98.1" y="29.99" width="2.72" height="2.72" rx="1.2" fill="#111827" /><rect x="101.34" y="29.99" width="2.72" height="2.72" rx="1.2" fill="#111827" /><rect x="111.07" y="29.99" width="2.72" height="2.72" rx="1.2" fill="#111827" /><rect x="52.69" y="33.23" width="2.72" height="2.72" rx="1.2" fill="#111827" /><rect x="55.94" y="33.23" width="2.72" height="2.72" rx="1.2" fill="#111827" /><rect x="59.18" y="33.23" width="2.72" height="2.72" rx="1.2" fill="#111827" /><rect x="65.66" y="33.23" width="2.72" height="2.72" rx="1.2" fill="#111827" /><rect x="75.39" y="33.23" width="2.72" height="2.72" rx="1.2" fill="#111827" /><rect x="78.64" y="33.23" width="2.72" height="2.72" rx="1.2" fill="#111827" /><rect x="85.12" y="33.23" width="2.72" height="2.72" rx="1.2" fill="#111827" /><rect x="88.37" y="33.23" width="2.72" height="2.72" rx="1.2" fill="#111827" /><rect x="94.85" y="33.23" width="2.72" height="2.72" rx="1.2" fill="#111827" /><rect x="101.34" y="33.23" width="2.72" height="2.72" rx="1.2" fill="#111827" /><rect x="104.58" y="33.23" width="2.72" height="2.72" rx="1.2" fill="#111827" /><rect x="49.45" y="36.48" width="2.72" height="2.72" rx="1.2" fill="#111827" /><rect x="52.69" y="36.48" width="2.72" height="2.72" rx="1.2" fill="#111827" /><rect x="55.94" y="36.48" width="2.72" height="2.72" rx="1.2" fill="#111827" /><rect x="68.91" y="36.48" width="2.72" height="2.72" rx="1.2" fill="#111827" /><rect x="72.15" y="36.48" width="2.72" height="2.72" rx="1.2" fill="#111827" /><rect x="75.39" y="36.48" width="2.72" height="2.72" rx="1.2" fill="#111827" /><rect x="78.64" y="36.48" width="2.72" height="2.72" rx="1.2" fill="#111827" /><rect x="81.88" y="36.48" width="2.72" height="2.72" rx="1.2" fill="#111827" /><rect x="88.37" y="36.48" width="2.72" height="2.72" rx="1.2" fill="#111827" /><rect x="94.85" y="36.48" width="2.72" height="2.72" rx="1.2" fill="#111827" /><rect x="98.1" y="36.48" width="2.72" height="2.72" rx="1.2" fill="#111827" /><rect x="101.34" y="36.48" width="2.72" height="2.72" rx="1.2" fill="#111827" /><rect x="104.58" y="36.48" width="2.72" height="2.72" rx="1.2" fill="#111827" /><rect x="46.21" y="39.72" width="2.72" height="2.72" rx="1.2" fill="#111827" /><rect x="52.69" y="39.72" width="2.72" height="2.72" rx="1.2" fill="#111827" /><rect x="59.18" y="39.72" width="2.72" height="2.72" rx="1.2" fill="#111827" /><rect x="65.66" y="39.72" width="2.72" height="2.72" rx="1.2" fill="#111827" /><rect x="72.15" y="39.72" width="2.72" height="2.72" rx="1.2" fill="#111827" /><rect x="78.64" y="39.72" width="2.72" height="2.72" rx="1.2" fill="#111827" /><rect x="85.12" y="39.72" width="2.72" height="2.72" rx="1.2" fill="#111827" /><rect x="91.61" y="39.72" width="2.72" height="2.72" rx="1.2" fill="#111827" /><rect x="98.1" y="39.72" width="2.72" height="2.72" rx="1.2" fill="#111827" /><rect x="104.58" y="39.72" width="2.72" height="2.72" rx="1.2" fill="#111827" /><rect x="111.07" y="39.72" width="2.72" height="2.72" rx="1.2" fill="#111827" /><rect x="49.45" y="42.96" width="2.72" height="2.72" rx="1.2" fill="#111827" /><rect x="75.39" y="42.96" width="2.72" height="2.72" rx="1.2" fill="#111827" /><rect x="81.88" y="42.96" width="2.72" height="2.72" rx="1.2" fill="#111827" /><rect x="88.37" y="42.96" width="2.72" height="2.72" rx="1.2" fill="#111827" /><rect x="98.1" y="42.96" width="2.72" height="2.72" rx="1.2" fill="#111827" /><rect x="101.34" y="42.96" width="2.72" height="2.72" rx="1.2" fill="#111827" /><rect x="107.83" y="42.96" width="2.72" height="2.72" rx="1.2" fill="#111827" /><rect x="111.07" y="42.96" width="2.72" height="2.72" rx="1.2" fill="#111827" /><rect x="29.99" y="46.21" width="2.72" height="2.72" rx="1.2" fill="#111827" /><rect x="33.23" y="46.21" width="2.72" height="2.72" rx="1.2" fill="#111827" /><rect x="39.72" y="46.21" width="2.72" height="2.72" rx="1.2" fill="#111827" /><rect x="42.96" y="46.21" width="2.72" height="2.72" rx="1.2" fill="#111827" /><rect x="49.45" y="46.21" width="2.72" height="2.72" rx="1.2" fill="#111827" /><rect x="52.69" y="46.21" width="2.72" height="2.72" rx="1.2" fill="#111827" /><rect x="55.94" y="46.21" width="2.72" height="2.72" rx="1.2" fill="#111827" /><rect x="62.42" y="46.21" width="2.72" height="2.72" rx="1.2" fill="#111827" /><rect x="68.91" y="46.21" width="2.72" height="2.72" rx="1.2" fill="#111827" /><rect x="78.64" y="46.21" width="2.72" height="2.72" rx="1.2" fill="#111827" /><rect x="88.37" y="46.21" width="2.72" height="2.72" rx="1.2" fill="#111827" /><rect x="101.34" y="46.21" width="2.72" height="2.72" rx="1.2" fill="#111827" /><rect x="104.58" y="46.21" width="2.72" height="2.72" rx="1.2" fill="#111827" /><rect x="127.29" y="46.21" width="2.72" height="2.72" rx="1.2" fill="#111827" /><rect x="130.53" y="46.21" width="2.72" height="2.72" rx="1.2" fill="#111827" /><rect x="20.26" y="49.45" width="2.72" height="2.72" rx="1.2" fill="#111827" /><rect x="26.75" y="49.45" width="2.72" height="2.72" rx="1.2" fill="#111827" /><rect x="36.48" y="49.45" width="2.72" height="2.72" rx="1.2" fill="#111827" /><rect x="46.21" y="49.45" width="2.72" height="2.72" rx="1.2" fill="#111827" /><rect x="52.69" y="49.45" width="2.72" height="2.72" rx="1.2" fill="#111827" /><rect x="65.66" y="49.45" width="2.72" height="2.72" rx="1.2" fill="#111827" /><rect x="68.91" y="49.45" width="2.72" height="2.72" rx="1.2" fill="#111827" /><rect x="88.37" y="49.45" width="2.72" height="2.72" rx="1.2" fill="#111827" /><rect x="94.85" y="49.45" width="2.72" height="2.72" rx="1.2" fill="#111827" /><rect x="98.1" y="49.45" width="2.72" height="2.72" rx="1.2" fill="#111827" /><rect x="101.34" y="49.45" width="2.72" height="2.72" rx="1.2" fill="#111827" /><rect x="114.31" y="49.45" width="2.72" height="2.72" rx="1.2" fill="#111827" /><rect x="117.56" y="49.45" width="2.72" height="2.72" rx="1.2" fill="#111827" /><rect x="120.8" y="49.45" width="2.72" height="2.72" rx="1.2" fill="#111827" /><rect x="124.04" y="49.45" width="2.72" height="2.72" rx="1.2" fill="#111827" /><rect x="130.53" y="49.45" width="2.72" height="2.72" rx="1.2" fill="#111827" /><rect x="137.02" y="49.45" width="2.72" height="2.72" rx="1.2" fill="#111827" /><rect x="26.75" y="52.69" width="2.72" height="2.72" rx="1.2" fill="#111827" /><rect x="39.72" y="52.69" width="2.72" height="2.72" rx="1.2" fill="#111827" /><rect x="49.45" y="52.69" width="2.72" height="2.72" rx="1.2" fill="#111827" /><rect x="52.69" y="52.69" width="2.72" height="2.72" rx="1.2" fill="#111827" /><rect x="62.42" y="52.69" width="2.72" height="2.72" rx="1.2" fill="#111827" /><rect x="78.64" y="52.69" width="2.72" height="2.72" rx="1.2" fill="#111827" /><rect x="91.61" y="52.69" width="2.72" height="2.72" rx="1.2" fill="#111827" /><rect x="94.85" y="52.69" width="2.72" height="2.72" rx="1.2" fill="#111827" /><rect x="98.1" y="52.69" width="2.72" height="2.72" rx="1.2" fill="#111827" /><rect x="101.34" y="52.69" width="2.72" height="2.72" rx="1.2" fill="#111827" /><rect x="107.83" y="52.69" width="2.72" height="2.72" rx="1.2" fill="#111827" /><rect x="114.31" y="52.69" width="2.72" height="2.72" rx="1.2" fill="#111827" /><rect x="117.56" y="52.69" width="2.72" height="2.72" rx="1.2" fill="#111827" /><rect x="130.53" y="52.69" width="2.72" height="2.72" rx="1.2" fill="#111827" /><rect x="137.02" y="52.69" width="2.72" height="2.72" rx="1.2" fill="#111827" /><rect x="20.26" y="55.94" width="2.72" height="2.72" rx="1.2" fill="#111827" /><rect x="23.5" y="55.94" width="2.72" height="2.72" rx="1.2" fill="#111827" /><rect x="26.75" y="55.94" width="2.72" height="2.72" rx="1.2" fill="#111827" /><rect x="29.99" y="55.94" width="2.72" height="2.72" rx="1.2" fill="#111827" /><rect x="33.23" y="55.94" width="2.72" height="2.72" rx="1.2" fill="#111827" /><rect x="36.48" y="55.94" width="2.72" height="2.72" rx="1.2" fill="#111827" /><rect x="52.69" y="55.94" width="2.72" height="2.72" rx="1.2" fill="#111827" /><rect x="55.94" y="55.94" width="2.72" height="2.72" rx="1.2" fill="#111827" /><rect x="59.18" y="55.94" width="2.72" height="2.72" rx="1.2" fill="#111827" /><rect x="72.15" y="55.94" width="2.72" height="2.72" rx="1.2" fill="#111827" /><rect x="75.39" y="55.94" width="2.72" height="2.72" rx="1.2" fill="#111827" /><rect x="78.64" y="55.94" width="2.72" height="2.72" rx="1.2" fill="#111827" /><rect x="81.88" y="55.94" width="2.72" height="2.72" rx="1.2" fill="#111827" /><rect x="98.1" y="55.94" width="2.72" height="2.72" rx="1.2" fill="#111827" /><rect x="104.58" y="55.94" width="2.72" height="2.72" rx="1.2" fill="#111827" /><rect x="107.83" y="55.94" width="2.72" height="2.72" rx="1.2" fill="#111827" /><rect x="111.07" y="55.94" width="2.72" height="2.72" rx="1.2" fill="#111827" /><rect x="114.31" y="55.94" width="2.72" height="2.72" rx="1.2" fill="#111827" /><rect x="117.56" y="55.94" width="2.72" height="2.72" rx="1.2" fill="#111827" /><rect x="120.8" y="55.94" width="2.72" height="2.72" rx="1.2" fill="#111827" /><rect x="127.29" y="55.94" width="2.72" height="2.72" rx="1.2" fill="#111827" /><rect x="130.53" y="55.94" width="2.72" height="2.72" rx="1.2" fill="#111827" /><rect x="137.02" y="55.94" width="2.72" height="2.72" rx="1.2" fill="#111827" /><rect x="20.26" y="59.18" width="2.72" height="2.72" rx="1.2" fill="#111827" /><rect x="26.75" y="59.18" width="2.72" height="2.72" rx="1.2" fill="#111827" /><rect x="29.99" y="59.18" width="2.72" height="2.72" rx="1.2" fill="#111827" /><rect x="39.72" y="59.18" width="2.72" height="2.72" rx="1.2" fill="#111827" /><rect x="42.96" y="59.18" width="2.72" height="2.72" rx="1.2" fill="#111827" /><rect x="55.94" y="59.18" width="2.72" height="2.72" rx="1.2" fill="#111827" /><rect x="65.66" y="59.18" width="2.72" height="2.72" rx="1.2" fill="#111827" /><rect x="68.91" y="59.18" width="2.72" height="2.72" rx="1.2" fill="#111827" /><rect x="72.15" y="59.18" width="2.72" height="2.72" rx="1.2" fill="#111827" /><rect x="78.64" y="59.18" width="2.72" height="2.72" rx="1.2" fill="#111827" /><rect x="91.61" y="59.18" width="2.72" height="2.72" rx="1.2" fill="#111827" /><rect x="94.85" y="59.18" width="2.72" height="2.72" rx="1.2" fill="#111827" /><rect x="107.83" y="59.18" width="2.72" height="2.72" rx="1.2" fill="#111827" /><rect x="111.07" y="59.18" width="2.72" height="2.72" rx="1.2" fill="#111827" /><rect x="117.56" y="59.18" width="2.72" height="2.72" rx="1.2" fill="#111827" /><rect x="120.8" y="59.18" width="2.72" height="2.72" rx="1.2" fill="#111827" /><rect x="127.29" y="59.18" width="2.72" height="2.72" rx="1.2" fill="#111827" /><rect x="137.02" y="59.18" width="2.72" height="2.72" rx="1.2" fill="#111827" /><rect x="23.5" y="62.42" width="2.72" height="2.72" rx="1.2" fill="#111827" /><rect x="26.75" y="62.42" width="2.72" height="2.72" rx="1.2" fill="#111827" /><rect x="29.99" y="62.42" width="2.72" height="2.72" rx="1.2" fill="#111827" /><rect x="36.48" y="62.42" width="2.72" height="2.72" rx="1.2" fill="#111827" /><rect x="42.96" y="62.42" width="2.72" height="2.72" rx="1.2" fill="#111827" /><rect x="52.69" y="62.42" width="2.72" height="2.72" rx="1.2" fill="#111827" /><rect x="59.18" y="62.42" width="2.72" height="2.72" rx="1.2" fill="#111827" /><rect x="62.42" y="62.42" width="2.72" height="2.72" rx="1.2" fill="#111827" /><rect x="65.66" y="62.42" width="2.72" height="2.72" rx="1.2" fill="#111827" /><rect x="68.91" y="62.42" width="2.72" height="2.72" rx="1.2" fill="#111827" /><rect x="72.15" y="62.42" width="2.72" height="2.72" rx="1.2" fill="#111827" /><rect x="75.39" y="62.42" width="2.72" height="2.72" rx="1.2" fill="#111827" /><rect x="85.12" y="62.42" width="2.72" height="2.72" rx="1.2" fill="#111827" /><rect x="88.37" y="62.42" width="2.72" height="2.72" rx="1.2" fill="#111827" /><rect x="94.85" y="62.42" width="2.72" height="2.72" rx="1.2" fill="#111827" /><rect x="111.07" y="62.42" width="2.72" height="2.72" rx="1.2" fill="#111827" /><rect x="114.31" y="62.42" width="2.72" height="2.72" rx="1.2" fill="#111827" /><rect x="124.04" y="62.42" width="2.72" height="2.72" rx="1.2" fill="#111827" /><rect x="130.53" y="62.42" width="2.72" height="2.72" rx="1.2" fill="#111827" /><rect x="20.26" y="65.66" width="2.72" height="2.72" rx="1.2" fill="#111827" /><rect x="23.5" y="65.66" width="2.72" height="2.72" rx="1.2" fill="#111827" /><rect x="29.99" y="65.66" width="2.72" height="2.72" rx="1.2" fill="#111827" /><rect x="33.23" y="65.66" width="2.72" height="2.72" rx="1.2" fill="#111827" /><rect x="36.48" y="65.66" width="2.72" height="2.72" rx="1.2" fill="#111827" /><rect x="39.72" y="65.66" width="2.72" height="2.72" rx="1.2" fill="#111827" /><rect x="46.21" y="65.66" width="2.72" height="2.72" rx="1.2" fill="#111827" /><rect x="52.69" y="65.66" width="2.72" height="2.72" rx="1.2" fill="#111827" /><rect x="55.94" y="65.66" width="2.72" height="2.72" rx="1.2" fill="#111827" /><rect x="65.66" y="65.66" width="2.72" height="2.72" rx="1.2" fill="#111827" /><rect x="78.64" y="65.66" width="2.72" height="2.72" rx="1.2" fill="#111827" /><rect x="88.37" y="65.66" width="2.72" height="2.72" rx="1.2" fill="#111827" /><rect x="94.85" y="65.66" width="2.72" height="2.72" rx="1.2" fill="#111827" /><rect x="104.58" y="65.66" width="2.72" height="2.72" rx="1.2" fill="#111827" /><rect x="107.83" y="65.66" width="2.72" height="2.72" rx="1.2" fill="#111827" /><rect x="117.56" y="65.66" width="2.72" height="2.72" rx="1.2" fill="#111827" /><rect x="120.8" y="65.66" width="2.72" height="2.72" rx="1.2" fill="#111827" /><rect x="124.04" y="65.66" width="2.72" height="2.72" rx="1.2" fill="#111827" /><rect x="127.29" y="65.66" width="2.72" height="2.72" rx="1.2" fill="#111827" /><rect x="130.53" y="65.66" width="2.72" height="2.72" rx="1.2" fill="#111827" /><rect x="133.77" y="65.66" width="2.72" height="2.72" rx="1.2" fill="#111827" /><rect x="137.02" y="65.66" width="2.72" height="2.72" rx="1.2" fill="#111827" /><rect x="20.26" y="68.91" width="2.72" height="2.72" rx="1.2" fill="#111827" /><rect x="23.5" y="68.91" width="2.72" height="2.72" rx="1.2" fill="#111827" /><rect x="26.75" y="68.91" width="2.72" height="2.72" rx="1.2" fill="#111827" /><rect x="36.48" y="68.91" width="2.72" height="2.72" rx="1.2" fill="#111827" /><rect x="46.21" y="68.91" width="2.72" height="2.72" rx="1.2" fill="#111827" /><rect x="52.69" y="68.91" width="2.72" height="2.72" rx="1.2" fill="#111827" /><rect x="72.15" y="68.91" width="2.72" height="2.72" rx="1.2" fill="#111827" /><rect x="75.39" y="68.91" width="2.72" height="2.72" rx="1.2" fill="#111827" /><rect x="78.64" y="68.91" width="2.72" height="2.72" rx="1.2" fill="#111827" /><rect x="85.12" y="68.91" width="2.72" height="2.72" rx="1.2" fill="#111827" /><rect x="88.37" y="68.91" width="2.72" height="2.72" rx="1.2" fill="#111827" /><rect x="91.61" y="68.91" width="2.72" height="2.72" rx="1.2" fill="#111827" /><rect x="98.1" y="68.91" width="2.72" height="2.72" rx="1.2" fill="#111827" /><rect x="107.83" y="68.91" width="2.72" height="2.72" rx="1.2" fill="#111827" /><rect x="114.31" y="68.91" width="2.72" height="2.72" rx="1.2" fill="#111827" /><rect x="117.56" y="68.91" width="2.72" height="2.72" rx="1.2" fill="#111827" /><rect x="127.29" y="68.91" width="2.72" height="2.72" rx="1.2" fill="#111827" /><rect x="130.53" y="68.91" width="2.72" height="2.72" rx="1.2" fill="#111827" /><rect x="133.77" y="68.91" width="2.72" height="2.72" rx="1.2" fill="#111827" /><rect x="26.75" y="72.15" width="2.72" height="2.72" rx="1.2" fill="#111827" /><rect x="33.23" y="72.15" width="2.72" height="2.72" rx="1.2" fill="#111827" /><rect x="39.72" y="72.15" width="2.72" height="2.72" rx="1.2" fill="#111827" /><rect x="49.45" y="72.15" width="2.72" height="2.72" rx="1.2" fill="#111827" /><rect x="52.69" y="72.15" width="2.72" height="2.72" rx="1.2" fill="#111827" /><rect x="55.94" y="72.15" width="2.72" height="2.72" rx="1.2" fill="#111827" /><rect x="68.91" y="72.15" width="2.72" height="2.72" rx="1.2" fill="#111827" /><rect x="78.64" y="72.15" width="2.72" height="2.72" rx="1.2" fill="#111827" /><rect x="88.37" y="72.15" width="2.72" height="2.72" rx="1.2" fill="#111827" /><rect x="91.61" y="72.15" width="2.72" height="2.72" rx="1.2" fill="#111827" /><rect x="98.1" y="72.15" width="2.72" height="2.72" rx="1.2" fill="#111827" /><rect x="101.34" y="72.15" width="2.72" height="2.72" rx="1.2" fill="#111827" /><rect x="107.83" y="72.15" width="2.72" height="2.72" rx="1.2" fill="#111827" /><rect x="117.56" y="72.15" width="2.72" height="2.72" rx="1.2" fill="#111827" /><rect x="130.53" y="72.15" width="2.72" height="2.72" rx="1.2" fill="#111827" /><rect x="137.02" y="72.15" width="2.72" height="2.72" rx="1.2" fill="#111827" /><rect x="23.5" y="75.39" width="2.72" height="2.72" rx="1.2" fill="#111827" /><rect x="26.75" y="75.39" width="2.72" height="2.72" rx="1.2" fill="#111827" /><rect x="42.96" y="75.39" width="2.72" height="2.72" rx="1.2" fill="#111827" /><rect x="49.45" y="75.39" width="2.72" height="2.72" rx="1.2" fill="#111827" /><rect x="52.69" y="75.39" width="2.72" height="2.72" rx="1.2" fill="#111827" /><rect x="65.66" y="75.39" width="2.72" height="2.72" rx="1.2" fill="#111827" /><rect x="72.15" y="75.39" width="2.72" height="2.72" rx="1.2" fill="#111827" /><rect x="75.39" y="75.39" width="2.72" height="2.72" rx="1.2" fill="#111827" /><rect x="78.64" y="75.39" width="2.72" height="2.72" rx="1.2" fill="#111827" /><rect x="85.12" y="75.39" width="2.72" height="2.72" rx="1.2" fill="#111827" /><rect x="88.37" y="75.39" width="2.72" height="2.72" rx="1.2" fill="#111827" /><rect x="101.34" y="75.39" width="2.72" height="2.72" rx="1.2" fill="#111827" /><rect x="107.83" y="75.39" width="2.72" height="2.72" rx="1.2" fill="#111827" /><rect x="120.8" y="75.39" width="2.72" height="2.72" rx="1.2" fill="#111827" /><rect x="127.29" y="75.39" width="2.72" height="2.72" rx="1.2" fill="#111827" /><rect x="130.53" y="75.39" width="2.72" height="2.72" rx="1.2" fill="#111827" /><rect x="133.77" y="75.39" width="2.72" height="2.72" rx="1.2" fill="#111827" /><rect x="20.26" y="78.64" width="2.72" height="2.72" rx="1.2" fill="#111827" /><rect x="36.48" y="78.64" width="2.72" height="2.72" rx="1.2" fill="#111827" /><rect x="39.72" y="78.64" width="2.72" height="2.72" rx="1.2" fill="#111827" /><rect x="62.42" y="78.64" width="2.72" height="2.72" rx="1.2" fill="#111827" /><rect x="75.39" y="78.64" width="2.72" height="2.72" rx="1.2" fill="#111827" /><rect x="81.88" y="78.64" width="2.72" height="2.72" rx="1.2" fill="#111827" /><rect x="85.12" y="78.64" width="2.72" height="2.72" rx="1.2" fill="#111827" /><rect x="91.61" y="78.64" width="2.72" height="2.72" rx="1.2" fill="#111827" /><rect x="107.83" y="78.64" width="2.72" height="2.72" rx="1.2" fill="#111827" /><rect x="111.07" y="78.64" width="2.72" height="2.72" rx="1.2" fill="#111827" /><rect x="117.56" y="78.64" width="2.72" height="2.72" rx="1.2" fill="#111827" /><rect x="120.8" y="78.64" width="2.72" height="2.72" rx="1.2" fill="#111827" /><rect x="124.04" y="78.64" width="2.72" height="2.72" rx="1.2" fill="#111827" /><rect x="130.53" y="78.64" width="2.72" height="2.72" rx="1.2" fill="#111827" /><rect x="137.02" y="78.64" width="2.72" height="2.72" rx="1.2" fill="#111827" /><rect x="20.26" y="81.88" width="2.72" height="2.72" rx="1.2" fill="#111827" /><rect x="23.5" y="81.88" width="2.72" height="2.72" rx="1.2" fill="#111827" /><rect x="26.75" y="81.88" width="2.72" height="2.72" rx="1.2" fill="#111827" /><rect x="36.48" y="81.88" width="2.72" height="2.72" rx="1.2" fill="#111827" /><rect x="46.21" y="81.88" width="2.72" height="2.72" rx="1.2" fill="#111827" /><rect x="62.42" y="81.88" width="2.72" height="2.72" rx="1.2" fill="#111827" /><rect x="65.66" y="81.88" width="2.72" height="2.72" rx="1.2" fill="#111827" /><rect x="75.39" y="81.88" width="2.72" height="2.72" rx="1.2" fill="#111827" /><rect x="81.88" y="81.88" width="2.72" height="2.72" rx="1.2" fill="#111827" /><rect x="85.12" y="81.88" width="2.72" height="2.72" rx="1.2" fill="#111827" /><rect x="98.1" y="81.88" width="2.72" height="2.72" rx="1.2" fill="#111827" /><rect x="101.34" y="81.88" width="2.72" height="2.72" rx="1.2" fill="#111827" /><rect x="104.58" y="81.88" width="2.72" height="2.72" rx="1.2" fill="#111827" /><rect x="107.83" y="81.88" width="2.72" height="2.72" rx="1.2" fill="#111827" /><rect x="111.07" y="81.88" width="2.72" height="2.72" rx="1.2" fill="#111827" /><rect x="114.31" y="81.88" width="2.72" height="2.72" rx="1.2" fill="#111827" /><rect x="120.8" y="81.88" width="2.72" height="2.72" rx="1.2" fill="#111827" /><rect x="127.29" y="81.88" width="2.72" height="2.72" rx="1.2" fill="#111827" /><rect x="137.02" y="81.88" width="2.72" height="2.72" rx="1.2" fill="#111827" /><rect x="20.26" y="85.12" width="2.72" height="2.72" rx="1.2" fill="#111827" /><rect x="33.23" y="85.12" width="2.72" height="2.72" rx="1.2" fill="#111827" /><rect x="36.48" y="85.12" width="2.72" height="2.72" rx="1.2" fill="#111827" /><rect x="39.72" y="85.12" width="2.72" height="2.72" rx="1.2" fill="#111827" /><rect x="42.96" y="85.12" width="2.72" height="2.72" rx="1.2" fill="#111827" /><rect x="49.45" y="85.12" width="2.72" height="2.72" rx="1.2" fill="#111827" /><rect x="52.69" y="85.12" width="2.72" height="2.72" rx="1.2" fill="#111827" /><rect x="59.18" y="85.12" width="2.72" height="2.72" rx="1.2" fill="#111827" /><rect x="62.42" y="85.12" width="2.72" height="2.72" rx="1.2" fill="#111827" /><rect x="65.66" y="85.12" width="2.72" height="2.72" rx="1.2" fill="#111827" /><rect x="91.61" y="85.12" width="2.72" height="2.72" rx="1.2" fill="#111827" /><rect x="94.85" y="85.12" width="2.72" height="2.72" rx="1.2" fill="#111827" /><rect x="98.1" y="85.12" width="2.72" height="2.72" rx="1.2" fill="#111827" /><rect x="101.34" y="85.12" width="2.72" height="2.72" rx="1.2" fill="#111827" /><rect x="104.58" y="85.12" width="2.72" height="2.72" rx="1.2" fill="#111827" /><rect x="111.07" y="85.12" width="2.72" height="2.72" rx="1.2" fill="#111827" /><rect x="114.31" y="85.12" width="2.72" height="2.72" rx="1.2" fill="#111827" /><rect x="117.56" y="85.12" width="2.72" height="2.72" rx="1.2" fill="#111827" /><rect x="124.04" y="85.12" width="2.72" height="2.72" rx="1.2" fill="#111827" /><rect x="127.29" y="85.12" width="2.72" height="2.72" rx="1.2" fill="#111827" /><rect x="133.77" y="85.12" width="2.72" height="2.72" rx="1.2" fill="#111827" /><rect x="29.99" y="88.37" width="2.72" height="2.72" rx="1.2" fill="#111827" /><rect x="36.48" y="88.37" width="2.72" height="2.72" rx="1.2" fill="#111827" /><rect x="42.96" y="88.37" width="2.72" height="2.72" rx="1.2" fill="#111827" /><rect x="46.21" y="88.37" width="2.72" height="2.72" rx="1.2" fill="#111827" /><rect x="52.69" y="88.37" width="2.72" height="2.72" rx="1.2" fill="#111827" /><rect x="55.94" y="88.37" width="2.72" height="2.72" rx="1.2" fill="#111827" /><rect x="65.66" y="88.37" width="2.72" height="2.72" rx="1.2" fill="#111827" /><rect x="68.91" y="88.37" width="2.72" height="2.72" rx="1.2" fill="#111827" /><rect x="72.15" y="88.37" width="2.72" height="2.72" rx="1.2" fill="#111827" /><rect x="75.39" y="88.37" width="2.72" height="2.72" rx="1.2" fill="#111827" /><rect x="78.64" y="88.37" width="2.72" height="2.72" rx="1.2" fill="#111827" /><rect x="81.88" y="88.37" width="2.72" height="2.72" rx="1.2" fill="#111827" /><rect x="88.37" y="88.37" width="2.72" height="2.72" rx="1.2" fill="#111827" /><rect x="98.1" y="88.37" width="2.72" height="2.72" rx="1.2" fill="#111827" /><rect x="104.58" y="88.37" width="2.72" height="2.72" rx="1.2" fill="#111827" /><rect x="107.83" y="88.37" width="2.72" height="2.72" rx="1.2" fill="#111827" /><rect x="111.07" y="88.37" width="2.72" height="2.72" rx="1.2" fill="#111827" /><rect x="117.56" y="88.37" width="2.72" height="2.72" rx="1.2" fill="#111827" /><rect x="120.8" y="88.37" width="2.72" height="2.72" rx="1.2" fill="#111827" /><rect x="124.04" y="88.37" width="2.72" height="2.72" rx="1.2" fill="#111827" /><rect x="130.53" y="88.37" width="2.72" height="2.72" rx="1.2" fill="#111827" /><rect x="20.26" y="91.61" width="2.72" height="2.72" rx="1.2" fill="#111827" /><rect x="26.75" y="91.61" width="2.72" height="2.72" rx="1.2" fill="#111827" /><rect x="33.23" y="91.61" width="2.72" height="2.72" rx="1.2" fill="#111827" /><rect x="39.72" y="91.61" width="2.72" height="2.72" rx="1.2" fill="#111827" /><rect x="46.21" y="91.61" width="2.72" height="2.72" rx="1.2" fill="#111827" /><rect x="59.18" y="91.61" width="2.72" height="2.72" rx="1.2" fill="#111827" /><rect x="62.42" y="91.61" width="2.72" height="2.72" rx="1.2" fill="#111827" /><rect x="68.91" y="91.61" width="2.72" height="2.72" rx="1.2" fill="#111827" /><rect x="78.64" y="91.61" width="2.72" height="2.72" rx="1.2" fill="#111827" /><rect x="81.88" y="91.61" width="2.72" height="2.72" rx="1.2" fill="#111827" /><rect x="85.12" y="91.61" width="2.72" height="2.72" rx="1.2" fill="#111827" /><rect x="98.1" y="91.61" width="2.72" height="2.72" rx="1.2" fill="#111827" /><rect x="104.58" y="91.61" width="2.72" height="2.72" rx="1.2" fill="#111827" /><rect x="107.83" y="91.61" width="2.72" height="2.72" rx="1.2" fill="#111827" /><rect x="117.56" y="91.61" width="2.72" height="2.72" rx="1.2" fill="#111827" /><rect x="124.04" y="91.61" width="2.72" height="2.72" rx="1.2" fill="#111827" /><rect x="137.02" y="91.61" width="2.72" height="2.72" rx="1.2" fill="#111827" /><rect x="23.5" y="94.85" width="2.72" height="2.72" rx="1.2" fill="#111827" /><rect x="26.75" y="94.85" width="2.72" height="2.72" rx="1.2" fill="#111827" /><rect x="29.99" y="94.85" width="2.72" height="2.72" rx="1.2" fill="#111827" /><rect x="36.48" y="94.85" width="2.72" height="2.72" rx="1.2" fill="#111827" /><rect x="42.96" y="94.85" width="2.72" height="2.72" rx="1.2" fill="#111827" /><rect x="46.21" y="94.85" width="2.72" height="2.72" rx="1.2" fill="#111827" /><rect x="49.45" y="94.85" width="2.72" height="2.72" rx="1.2" fill="#111827" /><rect x="59.18" y="94.85" width="2.72" height="2.72" rx="1.2" fill="#111827" /><rect x="62.42" y="94.85" width="2.72" height="2.72" rx="1.2" fill="#111827" /><rect x="68.91" y="94.85" width="2.72" height="2.72" rx="1.2" fill="#111827" /><rect x="72.15" y="94.85" width="2.72" height="2.72" rx="1.2" fill="#111827" /><rect x="88.37" y="94.85" width="2.72" height="2.72" rx="1.2" fill="#111827" /><rect x="91.61" y="94.85" width="2.72" height="2.72" rx="1.2" fill="#111827" /><rect x="98.1" y="94.85" width="2.72" height="2.72" rx="1.2" fill="#111827" /><rect x="104.58" y="94.85" width="2.72" height="2.72" rx="1.2" fill="#111827" /><rect x="107.83" y="94.85" width="2.72" height="2.72" rx="1.2" fill="#111827" /><rect x="111.07" y="94.85" width="2.72" height="2.72" rx="1.2" fill="#111827" /><rect x="114.31" y="94.85" width="2.72" height="2.72" rx="1.2" fill="#111827" /><rect x="120.8" y="94.85" width="2.72" height="2.72" rx="1.2" fill="#111827" /><rect x="127.29" y="94.85" width="2.72" height="2.72" rx="1.2" fill="#111827" /><rect x="130.53" y="94.85" width="2.72" height="2.72" rx="1.2" fill="#111827" /><rect x="20.26" y="98.1" width="2.72" height="2.72" rx="1.2" fill="#111827" /><rect x="23.5" y="98.1" width="2.72" height="2.72" rx="1.2" fill="#111827" /><rect x="26.75" y="98.1" width="2.72" height="2.72" rx="1.2" fill="#111827" /><rect x="33.23" y="98.1" width="2.72" height="2.72" rx="1.2" fill="#111827" /><rect x="36.48" y="98.1" width="2.72" height="2.72" rx="1.2" fill="#111827" /><rect x="39.72" y="98.1" width="2.72" height="2.72" rx="1.2" fill="#111827" /><rect x="42.96" y="98.1" width="2.72" height="2.72" rx="1.2" fill="#111827" /><rect x="72.15" y="98.1" width="2.72" height="2.72" rx="1.2" fill="#111827" /><rect x="78.64" y="98.1" width="2.72" height="2.72" rx="1.2" fill="#111827" /><rect x="81.88" y="98.1" width="2.72" height="2.72" rx="1.2" fill="#111827" /><rect x="88.37" y="98.1" width="2.72" height="2.72" rx="1.2" fill="#111827" /><rect x="94.85" y="98.1" width="2.72" height="2.72" rx="1.2" fill="#111827" /><rect x="98.1" y="98.1" width="2.72" height="2.72" rx="1.2" fill="#111827" /><rect x="117.56" y="98.1" width="2.72" height="2.72" rx="1.2" fill="#111827" /><rect x="120.8" y="98.1" width="2.72" height="2.72" rx="1.2" fill="#111827" /><rect x="130.53" y="98.1" width="2.72" height="2.72" rx="1.2" fill="#111827" /><rect x="133.77" y="98.1" width="2.72" height="2.72" rx="1.2" fill="#111827" /><rect x="20.26" y="101.34" width="2.72" height="2.72" rx="1.2" fill="#111827" /><rect x="23.5" y="101.34" width="2.72" height="2.72" rx="1.2" fill="#111827" /><rect x="36.48" y="101.34" width="2.72" height="2.72" rx="1.2" fill="#111827" /><rect x="42.96" y="101.34" width="2.72" height="2.72" rx="1.2" fill="#111827" /><rect x="52.69" y="101.34" width="2.72" height="2.72" rx="1.2" fill="#111827" /><rect x="55.94" y="101.34" width="2.72" height="2.72" rx="1.2" fill="#111827" /><rect x="68.91" y="101.34" width="2.72" height="2.72" rx="1.2" fill="#111827" /><rect x="75.39" y="101.34" width="2.72" height="2.72" rx="1.2" fill="#111827" /><rect x="78.64" y="101.34" width="2.72" height="2.72" rx="1.2" fill="#111827" /><rect x="85.12" y="101.34" width="2.72" height="2.72" rx="1.2" fill="#111827" /><rect x="91.61" y="101.34" width="2.72" height="2.72" rx="1.2" fill="#111827" /><rect x="98.1" y="101.34" width="2.72" height="2.72" rx="1.2" fill="#111827" /><rect x="101.34" y="101.34" width="2.72" height="2.72" rx="1.2" fill="#111827" /><rect x="107.83" y="101.34" width="2.72" height="2.72" rx="1.2" fill="#111827" /><rect x="111.07" y="101.34" width="2.72" height="2.72" rx="1.2" fill="#111827" /><rect x="114.31" y="101.34" width="2.72" height="2.72" rx="1.2" fill="#111827" /><rect x="117.56" y="101.34" width="2.72" height="2.72" rx="1.2" fill="#111827" /><rect x="124.04" y="101.34" width="2.72" height="2.72" rx="1.2" fill="#111827" /><rect x="127.29" y="101.34" width="2.72" height="2.72" rx="1.2" fill="#111827" /><rect x="137.02" y="101.34" width="2.72" height="2.72" rx="1.2" fill="#111827" /><rect x="20.26" y="104.58" width="2.72" height="2.72" rx="1.2" fill="#111827" /><rect x="23.5" y="104.58" width="2.72" height="2.72" rx="1.2" fill="#111827" /><rect x="36.48" y="104.58" width="2.72" height="2.72" rx="1.2" fill="#111827" /><rect x="39.72" y="104.58" width="2.72" height="2.72" rx="1.2" fill="#111827" /><rect x="42.96" y="104.58" width="2.72" height="2.72" rx="1.2" fill="#111827" /><rect x="46.21" y="104.58" width="2.72" height="2.72" rx="1.2" fill="#111827" /><rect x="49.45" y="104.58" width="2.72" height="2.72" rx="1.2" fill="#111827" /><rect x="59.18" y="104.58" width="2.72" height="2.72" rx="1.2" fill="#111827" /><rect x="62.42" y="104.58" width="2.72" height="2.72" rx="1.2" fill="#111827" /><rect x="68.91" y="104.58" width="2.72" height="2.72" rx="1.2" fill="#111827" /><rect x="91.61" y="104.58" width="2.72" height="2.72" rx="1.2" fill="#111827" /><rect x="101.34" y="104.58" width="2.72" height="2.72" rx="1.2" fill="#111827" /><rect x="104.58" y="104.58" width="2.72" height="2.72" rx="1.2" fill="#111827" /><rect x="107.83" y="104.58" width="2.72" height="2.72" rx="1.2" fill="#111827" /><rect x="117.56" y="104.58" width="2.72" height="2.72" rx="1.2" fill="#111827" /><rect x="120.8" y="104.58" width="2.72" height="2.72" rx="1.2" fill="#111827" /><rect x="130.53" y="104.58" width="2.72" height="2.72" rx="1.2" fill="#111827" /><rect x="133.77" y="104.58" width="2.72" height="2.72" rx="1.2" fill="#111827" /><rect x="137.02" y="104.58" width="2.72" height="2.72" rx="1.2" fill="#111827" /><rect x="20.26" y="107.83" width="2.72" height="2.72" rx="1.2" fill="#111827" /><rect x="29.99" y="107.83" width="2.72" height="2.72" rx="1.2" fill="#111827" /><rect x="49.45" y="107.83" width="2.72" height="2.72" rx="1.2" fill="#111827" /><rect x="52.69" y="107.83" width="2.72" height="2.72" rx="1.2" fill="#111827" /><rect x="68.91" y="107.83" width="2.72" height="2.72" rx="1.2" fill="#111827" /><rect x="72.15" y="107.83" width="2.72" height="2.72" rx="1.2" fill="#111827" /><rect x="78.64" y="107.83" width="2.72" height="2.72" rx="1.2" fill="#111827" /><rect x="81.88" y="107.83" width="2.72" height="2.72" rx="1.2" fill="#111827" /><rect x="88.37" y="107.83" width="2.72" height="2.72" rx="1.2" fill="#111827" /><rect x="98.1" y="107.83" width="2.72" height="2.72" rx="1.2" fill="#111827" /><rect x="107.83" y="107.83" width="2.72" height="2.72" rx="1.2" fill="#111827" /><rect x="114.31" y="107.83" width="2.72" height="2.72" rx="1.2" fill="#111827" /><rect x="124.04" y="107.83" width="2.72" height="2.72" rx="1.2" fill="#111827" /><rect x="127.29" y="107.83" width="2.72" height="2.72" rx="1.2" fill="#111827" /><rect x="130.53" y="107.83" width="2.72" height="2.72" rx="1.2" fill="#111827" /><rect x="133.77" y="107.83" width="2.72" height="2.72" rx="1.2" fill="#111827" /><rect x="20.26" y="111.07" width="2.72" height="2.72" rx="1.2" fill="#111827" /><rect x="26.75" y="111.07" width="2.72" height="2.72" rx="1.2" fill="#111827" /><rect x="29.99" y="111.07" width="2.72" height="2.72" rx="1.2" fill="#111827" /><rect x="39.72" y="111.07" width="2.72" height="2.72" rx="1.2" fill="#111827" /><rect x="42.96" y="111.07" width="2.72" height="2.72" rx="1.2" fill="#111827" /><rect x="49.45" y="111.07" width="2.72" height="2.72" rx="1.2" fill="#111827" /><rect x="55.94" y="111.07" width="2.72" height="2.72" rx="1.2" fill="#111827" /><rect x="72.15" y="111.07" width="2.72" height="2.72" rx="1.2" fill="#111827" /><rect x="75.39" y="111.07" width="2.72" height="2.72" rx="1.2" fill="#111827" /><rect x="81.88" y="111.07" width="2.72" height="2.72" rx="1.2" fill="#111827" /><rect x="85.12" y="111.07" width="2.72" height="2.72" rx="1.2" fill="#111827" /><rect x="88.37" y="111.07" width="2.72" height="2.72" rx="1.2" fill="#111827" /><rect x="94.85" y="111.07" width="2.72" height="2.72" rx="1.2" fill="#111827" /><rect x="98.1" y="111.07" width="2.72" height="2.72" rx="1.2" fill="#111827" /><rect x="101.34" y="111.07" width="2.72" height="2.72" rx="1.2" fill="#111827" /><rect x="104.58" y="111.07" width="2.72" height="2.72" rx="1.2" fill="#111827" /><rect x="107.83" y="111.07" width="2.72" height="2.72" rx="1.2" fill="#111827" /><rect x="111.07" y="111.07" width="2.72" height="2.72" rx="1.2" fill="#111827" /><rect x="114.31" y="111.07" width="2.72" height="2.72" rx="1.2" fill="#111827" /><rect x="117.56" y="111.07" width="2.72" height="2.72" rx="1.2" fill="#111827" /><rect x="120.8" y="111.07" width="2.72" height="2.72" rx="1.2" fill="#111827" /><rect x="124.04" y="111.07" width="2.72" height="2.72" rx="1.2" fill="#111827" /><rect x="46.21" y="114.31" width="2.72" height="2.72" rx="1.2" fill="#111827" /><rect x="49.45" y="114.31" width="2.72" height="2.72" rx="1.2" fill="#111827" /><rect x="75.39" y="114.31" width="2.72" height="2.72" rx="1.2" fill="#111827" /><rect x="78.64" y="114.31" width="2.72" height="2.72" rx="1.2" fill="#111827" /><rect x="81.88" y="114.31" width="2.72" height="2.72" rx="1.2" fill="#111827" /><rect x="85.12" y="114.31" width="2.72" height="2.72" rx="1.2" fill="#111827" /><rect x="88.37" y="114.31" width="2.72" height="2.72" rx="1.2" fill="#111827" /><rect x="91.61" y="114.31" width="2.72" height="2.72" rx="1.2" fill="#111827" /><rect x="94.85" y="114.31" width="2.72" height="2.72" rx="1.2" fill="#111827" /><rect x="101.34" y="114.31" width="2.72" height="2.72" rx="1.2" fill="#111827" /><rect x="111.07" y="114.31" width="2.72" height="2.72" rx="1.2" fill="#111827" /><rect x="124.04" y="114.31" width="2.72" height="2.72" rx="1.2" fill="#111827" /><rect x="127.29" y="114.31" width="2.72" height="2.72" rx="1.2" fill="#111827" /><rect x="130.53" y="114.31" width="2.72" height="2.72" rx="1.2" fill="#111827" /><rect x="46.21" y="117.56" width="2.72" height="2.72" rx="1.2" fill="#111827" /><rect x="49.45" y="117.56" width="2.72" height="2.72" rx="1.2" fill="#111827" /><rect x="55.94" y="117.56" width="2.72" height="2.72" rx="1.2" fill="#111827" /><rect x="59.18" y="117.56" width="2.72" height="2.72" rx="1.2" fill="#111827" /><rect x="65.66" y="117.56" width="2.72" height="2.72" rx="1.2" fill="#111827" /><rect x="68.91" y="117.56" width="2.72" height="2.72" rx="1.2" fill="#111827" /><rect x="72.15" y="117.56" width="2.72" height="2.72" rx="1.2" fill="#111827" /><rect x="75.39" y="117.56" width="2.72" height="2.72" rx="1.2" fill="#111827" /><rect x="85.12" y="117.56" width="2.72" height="2.72" rx="1.2" fill="#111827" /><rect x="88.37" y="117.56" width="2.72" height="2.72" rx="1.2" fill="#111827" /><rect x="94.85" y="117.56" width="2.72" height="2.72" rx="1.2" fill="#111827" /><rect x="98.1" y="117.56" width="2.72" height="2.72" rx="1.2" fill="#111827" /><rect x="101.34" y="117.56" width="2.72" height="2.72" rx="1.2" fill="#111827" /><rect x="107.83" y="117.56" width="2.72" height="2.72" rx="1.2" fill="#111827" /><rect x="111.07" y="117.56" width="2.72" height="2.72" rx="1.2" fill="#111827" /><rect x="117.56" y="117.56" width="2.72" height="2.72" rx="1.2" fill="#111827" /><rect x="124.04" y="117.56" width="2.72" height="2.72" rx="1.2" fill="#111827" /><rect x="127.29" y="117.56" width="2.72" height="2.72" rx="1.2" fill="#111827" /><rect x="130.53" y="117.56" width="2.72" height="2.72" rx="1.2" fill="#111827" /><rect x="137.02" y="117.56" width="2.72" height="2.72" rx="1.2" fill="#111827" /><rect x="52.69" y="120.8" width="2.72" height="2.72" rx="1.2" fill="#111827" /><rect x="68.91" y="120.8" width="2.72" height="2.72" rx="1.2" fill="#111827" /><rect x="75.39" y="120.8" width="2.72" height="2.72" rx="1.2" fill="#111827" /><rect x="88.37" y="120.8" width="2.72" height="2.72" rx="1.2" fill="#111827" /><rect x="101.34" y="120.8" width="2.72" height="2.72" rx="1.2" fill="#111827" /><rect x="107.83" y="120.8" width="2.72" height="2.72" rx="1.2" fill="#111827" /><rect x="111.07" y="120.8" width="2.72" height="2.72" rx="1.2" fill="#111827" /><rect x="124.04" y="120.8" width="2.72" height="2.72" rx="1.2" fill="#111827" /><rect x="127.29" y="120.8" width="2.72" height="2.72" rx="1.2" fill="#111827" /><rect x="46.21" y="124.04" width="2.72" height="2.72" rx="1.2" fill="#111827" /><rect x="52.69" y="124.04" width="2.72" height="2.72" rx="1.2" fill="#111827" /><rect x="55.94" y="124.04" width="2.72" height="2.72" rx="1.2" fill="#111827" /><rect x="65.66" y="124.04" width="2.72" height="2.72" rx="1.2" fill="#111827" /><rect x="68.91" y="124.04" width="2.72" height="2.72" rx="1.2" fill="#111827" /><rect x="75.39" y="124.04" width="2.72" height="2.72" rx="1.2" fill="#111827" /><rect x="88.37" y="124.04" width="2.72" height="2.72" rx="1.2" fill="#111827" /><rect x="107.83" y="124.04" width="2.72" height="2.72" rx="1.2" fill="#111827" /><rect x="111.07" y="124.04" width="2.72" height="2.72" rx="1.2" fill="#111827" /><rect x="114.31" y="124.04" width="2.72" height="2.72" rx="1.2" fill="#111827" /><rect x="117.56" y="124.04" width="2.72" height="2.72" rx="1.2" fill="#111827" /><rect x="120.8" y="124.04" width="2.72" height="2.72" rx="1.2" fill="#111827" /><rect x="124.04" y="124.04" width="2.72" height="2.72" rx="1.2" fill="#111827" /><rect x="133.77" y="124.04" width="2.72" height="2.72" rx="1.2" fill="#111827" /><rect x="46.21" y="127.29" width="2.72" height="2.72" rx="1.2" fill="#111827" /><rect x="49.45" y="127.29" width="2.72" height="2.72" rx="1.2" fill="#111827" /><rect x="59.18" y="127.29" width="2.72" height="2.72" rx="1.2" fill="#111827" /><rect x="68.91" y="127.29" width="2.72" height="2.72" rx="1.2" fill="#111827" /><rect x="72.15" y="127.29" width="2.72" height="2.72" rx="1.2" fill="#111827" /><rect x="78.64" y="127.29" width="2.72" height="2.72" rx="1.2" fill="#111827" /><rect x="81.88" y="127.29" width="2.72" height="2.72" rx="1.2" fill="#111827" /><rect x="85.12" y="127.29" width="2.72" height="2.72" rx="1.2" fill="#111827" /><rect x="88.37" y="127.29" width="2.72" height="2.72" rx="1.2" fill="#111827" /><rect x="91.61" y="127.29" width="2.72" height="2.72" rx="1.2" fill="#111827" /><rect x="104.58" y="127.29" width="2.72" height="2.72" rx="1.2" fill="#111827" /><rect x="107.83" y="127.29" width="2.72" height="2.72" rx="1.2" fill="#111827" /><rect x="117.56" y="127.29" width="2.72" height="2.72" rx="1.2" fill="#111827" /><rect x="120.8" y="127.29" width="2.72" height="2.72" rx="1.2" fill="#111827" /><rect x="130.53" y="127.29" width="2.72" height="2.72" rx="1.2" fill="#111827" /><rect x="52.69" y="130.53" width="2.72" height="2.72" rx="1.2" fill="#111827" /><rect x="55.94" y="130.53" width="2.72" height="2.72" rx="1.2" fill="#111827" /><rect x="59.18" y="130.53" width="2.72" height="2.72" rx="1.2" fill="#111827" /><rect x="72.15" y="130.53" width="2.72" height="2.72" rx="1.2" fill="#111827" /><rect x="75.39" y="130.53" width="2.72" height="2.72" rx="1.2" fill="#111827" /><rect x="81.88" y="130.53" width="2.72" height="2.72" rx="1.2" fill="#111827" /><rect x="91.61" y="130.53" width="2.72" height="2.72" rx="1.2" fill="#111827" /><rect x="94.85" y="130.53" width="2.72" height="2.72" rx="1.2" fill="#111827" /><rect x="104.58" y="130.53" width="2.72" height="2.72" rx="1.2" fill="#111827" /><rect x="111.07" y="130.53" width="2.72" height="2.72" rx="1.2" fill="#111827" /><rect x="120.8" y="130.53" width="2.72" height="2.72" rx="1.2" fill="#111827" /><rect x="124.04" y="130.53" width="2.72" height="2.72" rx="1.2" fill="#111827" /><rect x="130.53" y="130.53" width="2.72" height="2.72" rx="1.2" fill="#111827" /><rect x="133.77" y="130.53" width="2.72" height="2.72" rx="1.2" fill="#111827" /><rect x="137.02" y="130.53" width="2.72" height="2.72" rx="1.2" fill="#111827" /><rect x="49.45" y="133.77" width="2.72" height="2.72" rx="1.2" fill="#111827" /><rect x="52.69" y="133.77" width="2.72" height="2.72" rx="1.2" fill="#111827" /><rect x="55.94" y="133.77" width="2.72" height="2.72" rx="1.2" fill="#111827" /><rect x="59.18" y="133.77" width="2.72" height="2.72" rx="1.2" fill="#111827" /><rect x="62.42" y="133.77" width="2.72" height="2.72" rx="1.2" fill="#111827" /><rect x="65.66" y="133.77" width="2.72" height="2.72" rx="1.2" fill="#111827" /><rect x="72.15" y="133.77" width="2.72" height="2.72" rx="1.2" fill="#111827" /><rect x="78.64" y="133.77" width="2.72" height="2.72" rx="1.2" fill="#111827" /><rect x="88.37" y="133.77" width="2.72" height="2.72" rx="1.2" fill="#111827" /><rect x="94.85" y="133.77" width="2.72" height="2.72" rx="1.2" fill="#111827" /><rect x="98.1" y="133.77" width="2.72" height="2.72" rx="1.2" fill="#111827" /><rect x="104.58" y="133.77" width="2.72" height="2.72" rx="1.2" fill="#111827" /><rect x="117.56" y="133.77" width="2.72" height="2.72" rx="1.2" fill="#111827" /><rect x="124.04" y="133.77" width="2.72" height="2.72" rx="1.2" fill="#111827" /><rect x="127.29" y="133.77" width="2.72" height="2.72" rx="1.2" fill="#111827" /><rect x="130.53" y="133.77" width="2.72" height="2.72" rx="1.2" fill="#111827" /><rect x="133.77" y="133.77" width="2.72" height="2.72" rx="1.2" fill="#111827" /><rect x="137.02" y="133.77" width="2.72" height="2.72" rx="1.2" fill="#111827" /><rect x="62.42" y="137.02" width="2.72" height="2.72" rx="1.2" fill="#111827" /><rect x="72.15" y="137.02" width="2.72" height="2.72" rx="1.2" fill="#111827" /><rect x="85.12" y="137.02" width="2.72" height="2.72" rx="1.2" fill="#111827" /><rect x="91.61" y="137.02" width="2.72" height="2.72" rx="1.2" fill="#111827" /><rect x="101.34" y="137.02" width="2.72" height="2.72" rx="1.2" fill="#111827" /><rect x="107.83" y="137.02" width="2.72" height="2.72" rx="1.2" fill="#111827" /><rect x="111.07" y="137.02" width="2.72" height="2.72" rx="1.2" fill="#111827" /><rect x="114.31" y="137.02" width="2.72" height="2.72" rx="1.2" fill="#111827" /><rect x="117.56" y="137.02" width="2.72" height="2.72" rx="1.2" fill="#111827" /><rect x="124.04" y="137.02" width="2.72" height="2.72" rx="1.2" fill="#111827" /><rect x="127.29" y="137.02" width="2.72" height="2.72" rx="1.2" fill="#111827" /><rect x="137.02" y="137.02" width="2.72" height="2.72" rx="1.2" fill="#111827" /><g transform="translate(20 20)"><rect width="22.7" height="22.7" rx="2.92" fill="#111827" /><rect x="3.24" y="3.24" width="16.22" height="16.22" rx="2.1" fill="#FFFFFF" /><rect x="6.49" y="6.49" width="9.73" height="9.73" rx="1.82" fill="#111827" /></g><g transform="translate(117.3 20)"><rect width="22.7" height="22.7" rx="2.92" fill="#111827" /><rect x="3.24" y="3.24" width="16.22" height="16.22" rx="2.1" fill="#FFFFFF" /><rect x="6.49" y="6.49" width="9.73" height="9.73" rx="1.82" fill="#111827" /></g><g transform="translate(20 117.3)"><rect width="22.7" height="22.7" rx="2.92" fill="#111827" /><rect x="3.24" y="3.24" width="16.22" height="16.22" rx="2.1" fill="#FFFFFF" /><rect x="6.49" y="6.49" width="9.73" height="9.73" rx="1.82" fill="#111827" /></g><circle cx="19.2" cy="19.2" r="3.84" fill="#FF8A5B" opacity="0.9" filter="url(#qr-1906855052-frame-glow)"><animate attributeName="opacity" values="0.72;1;0.72" dur="3.6s" repeatCount="indefinite" /></circle><circle cx="140.8" cy="140.8" r="4.16" fill="#FFD166" opacity="0.86" filter="url(#qr-1906855052-frame-glow)"><animate attributeName="opacity" values="0.68;0.96;0.68" dur="4.2s" repeatCount="indefinite" /></circle><path d="M 25.6 145.6 H 54.4" stroke="#FF8A5B" stroke-width="3" stroke-linecap="round" opacity="0.88" /><path d="M 105.6 14.4 H 134.4" stroke="#FFD166" stroke-width="3" stroke-linecap="round" opacity="0.88" /></svg>