<svg width="320" height="236" viewBox="0 0 320 236" fill="none" xmlns="http://www.w3.org/2000/svg" role="img" aria-labelledby="contact-1767252757-title contact-1767252757-desc"><title id="contact-1767252757-title">Website</title><desc id="contact-1767252757-desc"> contact card with a scannable QR code.</desc><defs><linearGradient id="contact-1767252757-bg" x1="0" y1="0" x2="320" y2="236" gradientUnits="userSpaceOnUse"><stop offset="0%" stop-color="#030711" /><stop offset="40%" stop-color="#0A1B3D" /><stop offset="78%" stop-color="#15104A" /><stop offset="100%" stop-color="#02050D" /></linearGradient><radialGradient id="contact-1767252757-glow-a" cx="0" cy="0" r="1" gradientUnits="userSpaceOnUse" gradientTransform="translate(72 42) rotate(38) scale(134.4 136.88)"><stop offset="0%" stop-color="#2BFFCF" stop-opacity="0.34" /><stop offset="100%" stop-color="#31D0AA" stop-opacity="0" /></radialGradient><radialGradient id="contact-1767252757-glow-b" cx="0" cy="0" r="1" gradientUnits="userSpaceOnUse" gradientTransform="translate(268.8 42.48) rotate(120) scale(83.2 99.12)"><stop offset="0%" stop-color="#7A7CFF" stop-opacity="0.42" /><stop offset="100%" stop-color="#5DA9FF" stop-opacity="0" /></radialGradient><filter id="contact-1767252757-blur" x="-20%" y="-20%" width="140%" height="140%"><feGaussianBlur stdDeviation="14" /></filter></defs><rect width="320" height="236" rx="28" fill="url(#contact-1767252757-bg)" /><rect width="320" height="236" rx="28" fill="url(#contact-1767252757-glow-a)" /><rect width="320" height="236" rx="28" fill="url(#contact-1767252757-glow-b)" /><path d="M24 0V236M48 0V236M72 0V236M96 0V236M120 0V236M144 0V236M168 0V236M192 0V236M216 0V236M240 0V236M264 0V236M288 0V236M312 0V236M0 24H320M0 48H320M0 72H320M0 96H320M0 120H320M0 144H320M0 168H320M0 192H320M0 216H320" stroke="rgba(133,164,255,0.08)" stroke-width="1" /><rect x="24" y="70" width="88" height="88" rx="24" fill="rgba(248,250,252,0.08)" stroke="rgba(226,232,240,0.16)" /><circle cx="68" cy="114" r="28" fill="rgba(10,16,36,0.78)" stroke="#7A7CFF" stroke-width="1.5" /><image href="../svg/chorme.svg" x="48" y="94" width="40" height="40" preserveAspectRatio="xMidYMid meet" /><text x="24" y="206" fill="rgba(148,163,184,0.88)" font-family="'IBM Plex Sans', 'Segoe UI', sans-serif" font-size="12">Website</text><path d="M 24 188 H 124" stroke="#2BFFCF" stroke-width="3" stroke-linecap="round" opacity="0.82" /><circle cx="290" cy="34" r="5" fill="#FFD166"><animate attributeName="opacity" values="0.62;1;0.62" dur="2.2s" repeatCount="indefinite" /></circle><circle cx="266" cy="34" r="5" fill="#2BFFCF"><animate attributeName="opacity" values="0.52;0.92;0.52" dur="2.8s" repeatCount="indefinite" /></circle><path d="M 146 92 L 146 186" stroke="rgba(248,250,252,0.2)" stroke-width="1.5" stroke-linecap="round" /><path d="M 176 62 L 270 62" stroke="rgba(248,250,252,0.2)" stroke-width="1.5" stroke-linecap="round" /><g filter="url(#contact-1767252757-blur)" opacity="0.35"><circle cx="243.2" cy="179.36" r="28" fill="#2BFFCF" /></g><svg x="154" y="70" width="138" height="138" viewBox="0 0 138 138"><svg width="138" height="138" viewBox="0 0 138 138" fill="none" xmlns="http://www.w3.org/2000/svg" role="img" aria-labelledby="qr-1478937422-title qr-1478937422-desc"><title id="qr-1478937422-title">QR code for https://www.icebreaker.top</title><desc id="qr-1478937422-desc">Stylized SVG QR code generated locally.</desc><defs><linearGradient id="qr-1478937422-frame" x1="0" y1="0" x2="138" y2="138" gradientUnits="userSpaceOnUse"><stop offset="0%" stop-color="#0B1220" /><stop offset="55%" stop-color="#172554" /><stop offset="100%" stop-color="#0F172A" /></linearGradient><radialGradient id="qr-1478937422-halo" cx="0" cy="0" r="1" gradientUnits="userSpaceOnUse" gradientTransform="translate(24.84 16.56) rotate(40) scale(57.96 52.44)"><stop offset="0%" stop-color="#7A7CFF" stop-opacity="0.34" /><stop offset="100%" stop-color="#2BFFCF" stop-opacity="0" /></radialGradient><filter id="qr-1478937422-frame-glow" x="-20%" y="-20%" width="140%" height="140%"><feGaussianBlur stdDeviation="10" /></filter></defs><rect width="138" height="138" rx="22" fill="url(#qr-1478937422-frame)" /><rect width="138" height="138" rx="22" fill="url(#qr-1478937422-halo)" /><rect x="8" y="8" width="122" height="122" rx="16" fill="#F8FAFC" /><rect x="8" y="8" width="122" height="122" rx="16" fill="none" stroke="rgba(15, 23, 42, 0.12)" /><rect x="42.97" y="18.25" width="2.6" height="2.6" rx="1.2" fill="#020617" /><rect x="52.25" y="18.25" width="2.6" height="2.6" rx="1.2" fill="#020617" /><rect x="55.34" y="18.25" width="2.6" height="2.6" rx="1.2" fill="#020617" /><rect x="61.52" y="18.25" width="2.6" height="2.6" rx="1.2" fill="#020617" /><rect x="76.97" y="18.25" width="2.6" height="2.6" rx="1.2" fill="#020617" /><rect x="83.16" y="18.25" width="2.6" height="2.6" rx="1.2" fill="#020617" /><rect x="86.25" y="18.25" width="2.6" height="2.6" rx="1.2" fill="#020617" /><rect x="92.43" y="18.25" width="2.6" height="2.6" rx="1.2" fill="#020617" /><rect x="49.16" y="21.34" width="2.6" height="2.6" rx="1.2" fill="#020617" /><rect x="55.34" y="21.34" width="2.6" height="2.6" rx="1.2" fill="#020617" /><rect x="58.43" y="21.34" width="2.6" height="2.6" rx="1.2" fill="#020617" /><rect x="67.7" y="21.34" width="2.6" height="2.6" rx="1.2" fill="#020617" /><rect x="70.79" y="21.34" width="2.6" height="2.6" rx="1.2" fill="#020617" /><rect x="73.88" y="21.34" width="2.6" height="2.6" rx="1.2" fill="#020617" /><rect x="76.97" y="21.34" width="2.6" height="2.6" rx="1.2" fill="#020617" /><rect x="86.25" y="21.34" width="2.6" height="2.6" rx="1.2" fill="#020617" /><rect x="92.43" y="21.34" width="2.6" height="2.6" rx="1.2" fill="#020617" /><rect x="42.97" y="24.43" width="2.6" height="2.6" rx="1.2" fill="#020617" /><rect x="49.16" y="24.43" width="2.6" height="2.6" rx="1.2" fill="#020617" /><rect x="52.25" y="24.43" width="2.6" height="2.6" rx="1.2" fill="#020617" /><rect x="55.34" y="24.43" width="2.6" height="2.6" rx="1.2" fill="#020617" /><rect x="58.43" y="24.43" width="2.6" height="2.6" rx="1.2" fill="#020617" /><rect x="61.52" y="24.43" width="2.6" height="2.6" rx="1.2" fill="#020617" /><rect x="64.61" y="24.43" width="2.6" height="2.6" rx="1.2" fill="#020617" /><rect x="80.07" y="24.43" width="2.6" height="2.6" rx="1.2" fill="#020617" /><rect x="83.16" y="24.43" width="2.6" height="2.6" rx="1.2" fill="#020617" /><rect x="86.25" y="24.43" width="2.6" height="2.6" rx="1.2" fill="#020617" /><rect x="89.34" y="24.43" width="2.6" height="2.6" rx="1.2" fill="#020617" /><rect x="92.43" y="24.43" width="2.6" height="2.6" rx="1.2" fill="#020617" /><rect x="46.07" y="27.52" width="2.6" height="2.6" rx="1.2" fill="#020617" /><rect x="55.34" y="27.52" width="2.6" height="2.6" rx="1.2" fill="#020617" /><rect x="67.7" y="27.52" width="2.6" height="2.6" rx="1.2" fill="#020617" /><rect x="73.88" y="27.52" width="2.6" height="2.6" rx="1.2" fill="#020617" /><rect x="80.07" y="27.52" width="2.6" height="2.6" rx="1.2" fill="#020617" /><rect x="83.16" y="27.52" width="2.6" height="2.6" rx="1.2" fill="#020617" /><rect x="89.34" y="27.52" width="2.6" height="2.6" rx="1.2" fill="#020617" /><rect x="42.97" y="30.61" width="2.6" height="2.6" rx="1.2" fill="#020617" /><rect x="49.16" y="30.61" width="2.6" height="2.6" rx="1.2" fill="#020617" /><rect x="52.25" y="30.61" width="2.6" height="2.6" rx="1.2" fill="#020617" /><rect x="55.34" y="30.61" width="2.6" height="2.6" rx="1.2" fill="#020617" /><rect x="58.43" y="30.61" width="2.6" height="2.6" rx="1.2" fill="#020617" /><rect x="61.52" y="30.61" width="2.6" height="2.6" rx="1.2" fill="#020617" /><rect x="67.7" y="30.61" width="2.6" height="2.6" rx="1.2" fill="#020617" /><rect x="70.79" y="30.61" width="2.6" height="2.6" rx="1.2" fill="#020617" /><rect x="76.97" y="30.61" width="2.6" height="2.6" rx="1.2" fill="#020617" /><rect x="83.16" y="30.61" width="2.6" height="2.6" rx="1.2" fill="#020617" /><rect x="92.43" y="30.61" width="2.6" height="2.6" rx="1.2" fill="#020617" /><rect x="46.07" y="33.7" width="2.6" height="2.6" rx="1.2" fill="#020617" /><rect x="49.16" y="33.7" width="2.6" height="2.6" rx="1.2" fill="#020617" /><rect x="55.34" y="33.7" width="2.6" height="2.6" rx="1.2" fill="#020617" /><rect x="58.43" y="33.7" width="2.6" height="2.6" rx="1.2" fill="#020617" /><rect x="61.52" y="33.7" width="2.6" height="2.6" rx="1.2" fill="#020617" /><rect x="64.61" y="33.7" width="2.6" height="2.6" rx="1.2" fill="#020617" /><rect x="67.7" y="33.7" width="2.6" height="2.6" rx="1.2" fill="#020617" /><rect x="76.97" y="33.7" width="2.6" height="2.6" rx="1.2" fill="#020617" /><rect x="86.25" y="33.7" width="2.6" height="2.6" rx="1.2" fill="#020617" /><rect x="42.97" y="36.79" width="2.6" height="2.6" rx="1.2" fill="#020617" /><rect x="49.16" y="36.79" width="2.6" height="2.6" rx="1.2" fill="#020617" /><rect x="55.34" y="36.79" width="2.6" height="2.6" rx="1.2" fill="#020617" /><rect x="61.52" y="36.79" width="2.6" height="2.6" rx="1.2" fill="#020617" /><rect x="67.7" y="36.79" width="2.6" height="2.6" rx="1.2" fill="#020617" /><rect x="73.88" y="36.79" width="2.6" height="2.6" rx="1.2" fill="#020617" /><rect x="80.07" y="36.79" width="2.6" height="2.6" rx="1.2" fill="#020617" /><rect x="86.25" y="36.79" width="2.6" height="2.6" rx="1.2" fill="#020617" /><rect x="92.43" y="36.79" width="2.6" height="2.6" rx="1.2" fill="#020617" /><rect x="42.97" y="39.88" width="2.6" height="2.6" rx="1.2" fill="#020617" /><rect x="52.25" y="39.88" width="2.6" height="2.6" rx="1.2" fill="#020617" /><rect x="73.88" y="39.88" width="2.6" height="2.6" rx="1.2" fill="#020617" /><rect x="92.43" y="39.88" width="2.6" height="2.6" rx="1.2" fill="#020617" /><rect x="33.7" y="42.97" width="2.6" height="2.6" rx="1.2" fill="#020617" /><rect x="36.79" y="42.97" width="2.6" height="2.6" rx="1.2" fill="#020617" /><rect x="46.07" y="42.97" width="2.6" height="2.6" rx="1.2" fill="#020617" /><rect x="49.16" y="42.97" width="2.6" height="2.6" rx="1.2" fill="#020617" /><rect x="61.52" y="42.97" width="2.6" height="2.6" rx="1.2" fill="#020617" /><rect x="70.79" y="42.97" width="2.6" height="2.6" rx="1.2" fill="#020617" /><rect x="86.25" y="42.97" width="2.6" height="2.6" rx="1.2" fill="#020617" /><rect x="98.61" y="42.97" width="2.6" height="2.6" rx="1.2" fill="#020617" /><rect x="104.79" y="42.97" width="2.6" height="2.6" rx="1.2" fill="#020617" /><rect x="110.97" y="42.97" width="2.6" height="2.6" rx="1.2" fill="#020617" /><rect x="117.16" y="42.97" width="2.6" height="2.6" rx="1.2" fill="#020617" /><rect x="18.25" y="46.07" width="2.6" height="2.6" rx="1.2" fill="#020617" /><rect x="30.61" y="46.07" width="2.6" height="2.6" rx="1.2" fill="#020617" /><rect x="33.7" y="46.07" width="2.6" height="2.6" rx="1.2" fill="#020617" /><rect x="42.97" y="46.07" width="2.6" height="2.6" rx="1.2" fill="#020617" /><rect x="46.07" y="46.07" width="2.6" height="2.6" rx="1.2" fill="#020617" /><rect x="58.43" y="46.07" width="2.6" height="2.6" rx="1.2" fill="#020617" /><rect x="64.61" y="46.07" width="2.6" height="2.6" rx="1.2" fill="#020617" /><rect x="70.79" y="46.07" width="2.6" height="2.6" rx="1.2" fill="#020617" /><rect x="76.97" y="46.07" width="2.6" height="2.6" rx="1.2" fill="#020617" /><rect x="83.16" y="46.07" width="2.6" height="2.6" rx="1.2" fill="#020617" /><rect x="86.25" y="46.07" width="2.6" height="2.6" rx="1.2" fill="#020617" /><rect x="89.34" y="46.07" width="2.6" height="2.6" rx="1.2" fill="#020617" /><rect x="95.52" y="46.07" width="2.6" height="2.6" rx="1.2" fill="#020617" /><rect x="101.7" y="46.07" width="2.6" height="2.6" rx="1.2" fill="#020617" /><rect x="104.79" y="46.07" width="2.6" height="2.6" rx="1.2" fill="#020617" /><rect x="107.88" y="46.07" width="2.6" height="2.6" rx="1.2" fill="#020617" /><rect x="110.97" y="46.07" width="2.6" height="2.6" rx="1.2" fill="#020617" /><rect x="114.07" y="46.07" width="2.6" height="2.6" rx="1.2" fill="#020617" /><rect x="18.25" y="49.16" width="2.6" height="2.6" rx="1.2" fill="#020617" /><rect x="21.34" y="49.16" width="2.6" height="2.6" rx="1.2" fill="#020617" /><rect x="27.52" y="49.16" width="2.6" height="2.6" rx="1.2" fill="#020617" /><rect x="33.7" y="49.16" width="2.6" height="2.6" rx="1.2" fill="#020617" /><rect x="36.79" y="49.16" width="2.6" height="2.6" rx="1.2" fill="#020617" /><rect x="39.88" y="49.16" width="2.6" height="2.6" rx="1.2" fill="#020617" /><rect x="42.97" y="49.16" width="2.6" height="2.6" rx="1.2" fill="#020617" /><rect x="46.07" y="49.16" width="2.6" height="2.6" rx="1.2" fill="#020617" /><rect x="49.16" y="49.16" width="2.6" height="2.6" rx="1.2" fill="#020617" /><rect x="55.34" y="49.16" width="2.6" height="2.6" rx="1.2" fill="#020617" /><rect x="61.52" y="49.16" width="2.6" height="2.6" rx="1.2" fill="#020617" /><rect x="76.97" y="49.16" width="2.6" height="2.6" rx="1.2" fill="#020617" /><rect x="86.25" y="49.16" width="2.6" height="2.6" rx="1.2" fill="#020617" /><rect x="92.43" y="49.16" width="2.6" height="2.6" rx="1.2" fill="#020617" /><rect x="95.52" y="49.16" width="2.6" height="2.6" rx="1.2" fill="#020617" /><rect x="98.61" y="49.16" width="2.6" height="2.6" rx="1.2" fill="#020617" /><rect x="101.7" y="49.16" width="2.6" height="2.6" rx="1.2" fill="#020617" /><rect x="107.88" y="49.16" width="2.6" height="2.6" rx="1.2" fill="#020617" /><rect x="110.97" y="49.16" width="2.6" height="2.6" rx="1.2" fill="#020617" /><rect x="114.07" y="49.16" width="2.6" height="2.6" rx="1.2" fill="#020617" /><rect x="30.61" y="52.25" width="2.6" height="2.6" rx="1.2" fill="#020617" /><rect x="33.7" y="52.25" width="2.6" height="2.6" rx="1.2" fill="#020617" /><rect x="39.88" y="52.25" width="2.6" height="2.6" rx="1.2" fill="#020617" /><rect x="49.16" y="52.25" width="2.6" height="2.6" rx="1.2" fill="#020617" /><rect x="61.52" y="52.25" width="2.6" height="2.6" rx="1.2" fill="#020617" /><rect x="67.7" y="52.25" width="2.6" height="2.6" rx="1.2" fill="#020617" /><rect x="70.79" y="52.25" width="2.6" height="2.6" rx="1.2" fill="#020617" /><rect x="73.88" y="52.25" width="2.6" height="2.6" rx="1.2" fill="#020617" /><rect x="76.97" y="52.25" width="2.6" height="2.6" rx="1.2" fill="#020617" /><rect x="80.07" y="52.25" width="2.6" height="2.6" rx="1.2" fill="#020617" /><rect x="83.16" y="52.25" width="2.6" height="2.6" rx="1.2" fill="#020617" /><rect x="89.34" y="52.25" width="2.6" height="2.6" rx="1.2" fill="#020617" /><rect x="98.61" y="52.25" width="2.6" height="2.6" rx="1.2" fill="#020617" /><rect x="101.7" y="52.25" width="2.6" height="2.6" rx="1.2" fill="#020617" /><rect x="107.88" y="52.25" width="2.6" height="2.6" rx="1.2" fill="#020617" /><rect x="110.97" y="52.25" width="2.6" height="2.6" rx="1.2" fill="#020617" /><rect x="114.07" y="52.25" width="2.6" height="2.6" rx="1.2" fill="#020617" /><rect x="117.16" y="52.25" width="2.6" height="2.6" rx="1.2" fill="#020617" /><rect x="21.34" y="55.34" width="2.6" height="2.6" rx="1.2" fill="#020617" /><rect x="24.43" y="55.34" width="2.6" height="2.6" rx="1.2" fill="#020617" /><rect x="36.79" y="55.34" width="2.6" height="2.6" rx="1.2" fill="#020617" /><rect x="55.34" y="55.34" width="2.6" height="2.6" rx="1.2" fill="#020617" /><rect x="64.61" y="55.34" width="2.6" height="2.6" rx="1.2" fill="#020617" /><rect x="73.88" y="55.34" width="2.6" height="2.6" rx="1.2" fill="#020617" /><rect x="76.97" y="55.34" width="2.6" height="2.6" rx="1.2" fill="#020617" /><rect x="83.16" y="55.34" width="2.6" height="2.6" rx="1.2" fill="#020617" /><rect x="92.43" y="55.34" width="2.6" height="2.6" rx="1.2" fill="#020617" /><rect x="98.61" y="55.34" width="2.6" height="2.6" rx="1.2" fill="#020617" /><rect x="101.7" y="55.34" width="2.6" height="2.6" rx="1.2" fill="#020617" /><rect x="104.79" y="55.34" width="2.6" height="2.6" rx="1.2" fill="#020617" /><rect x="107.88" y="55.34" width="2.6" height="2.6" rx="1.2" fill="#020617" /><rect x="117.16" y="55.34" width="2.6" height="2.6" rx="1.2" fill="#020617" /><rect x="18.25" y="58.43" width="2.6" height="2.6" rx="1.2" fill="#020617" /><rect x="21.34" y="58.43" width="2.6" height="2.6" rx="1.2" fill="#020617" /><rect x="39.88" y="58.43" width="2.6" height="2.6" rx="1.2" fill="#020617" /><rect x="42.97" y="58.43" width="2.6" height="2.6" rx="1.2" fill="#020617" /><rect x="49.16" y="58.43" width="2.6" height="2.6" rx="1.2" fill="#020617" /><rect x="55.34" y="58.43" width="2.6" height="2.6" rx="1.2" fill="#020617" /><rect x="61.52" y="58.43" width="2.6" height="2.6" rx="1.2" fill="#020617" /><rect x="67.7" y="58.43" width="2.6" height="2.6" rx="1.2" fill="#020617" /><rect x="70.79" y="58.43" width="2.6" height="2.6" rx="1.2" fill="#020617" /><rect x="73.88" y="58.43" width="2.6" height="2.6" rx="1.2" fill="#020617" /><rect x="83.16" y="58.43" width="2.6" height="2.6" rx="1.2" fill="#020617" /><rect x="89.34" y="58.43" width="2.6" height="2.6" rx="1.2" fill="#020617" /><rect x="98.61" y="58.43" width="2.6" height="2.6" rx="1.2" fill="#020617" /><rect x="101.7" y="58.43" width="2.6" height="2.6" rx="1.2" fill="#020617" /><rect x="104.79" y="58.43" width="2.6" height="2.6" rx="1.2" fill="#020617" /><rect x="107.88" y="58.43" width="2.6" height="2.6" rx="1.2" fill="#020617" /><rect x="117.16" y="58.43" width="2.6" height="2.6" rx="1.2" fill="#020617" /><rect x="18.25" y="61.52" width="2.6" height="2.6" rx="1.2" fill="#020617" /><rect x="21.34" y="61.52" width="2.6" height="2.6" rx="1.2" fill="#020617" /><rect x="36.79" y="61.52" width="2.6" height="2.6" rx="1.2" fill="#020617" /><rect x="42.97" y="61.52" width="2.6" height="2.6" rx="1.2" fill="#020617" /><rect x="46.07" y="61.52" width="2.6" height="2.6" rx="1.2" fill="#020617" /><rect x="58.43" y="61.52" width="2.6" height="2.6" rx="1.2" fill="#020617" /><rect x="61.52" y="61.52" width="2.6" height="2.6" rx="1.2" fill="#020617" /><rect x="64.61" y="61.52" width="2.6" height="2.6" rx="1.2" fill="#020617" /><rect x="67.7" y="61.52" width="2.6" height="2.6" rx="1.2" fill="#020617" /><rect x="76.97" y="61.52" width="2.6" height="2.6" rx="1.2" fill="#020617" /><rect x="86.25" y="61.52" width="2.6" height="2.6" rx="1.2" fill="#020617" /><rect x="95.52" y="61.52" width="2.6" height="2.6" rx="1.2" fill="#020617" /><rect x="101.7" y="61.52" width="2.6" height="2.6" rx="1.2" fill="#020617" /><rect x="104.79" y="61.52" width="2.6" height="2.6" rx="1.2" fill="#020617" /><rect x="114.07" y="61.52" width="2.6" height="2.6" rx="1.2" fill="#020617" /><rect x="18.25" y="64.61" width="2.6" height="2.6" rx="1.2" fill="#020617" /><rect x="27.52" y="64.61" width="2.6" height="2.6" rx="1.2" fill="#020617" /><rect x="33.7" y="64.61" width="2.6" height="2.6" rx="1.2" fill="#020617" /><rect x="39.88" y="64.61" width="2.6" height="2.6" rx="1.2" fill="#020617" /><rect x="52.25" y="64.61" width="2.6" height="2.6" rx="1.2" fill="#020617" /><rect x="55.34" y="64.61" width="2.6" height="2.6" rx="1.2" fill="#020617" /><rect x="58.43" y="64.61" width="2.6" height="2.6" rx="1.2" fill="#020617" /><rect x="67.7" y="64.61" width="2.6" height="2.6" rx="1.2" fill="#020617" /><rect x="73.88" y="64.61" width="2.6" height="2.6" rx="1.2" fill="#020617" /><rect x="89.34" y="64.61" width="2.6" height="2.6" rx="1.2" fill="#020617" /><rect x="92.43" y="64.61" width="2.6" height="2.6" rx="1.2" fill="#020617" /><rect x="95.52" y="64.61" width="2.6" height="2.6" rx="1.2" fill="#020617" /><rect x="98.61" y="64.61" width="2.6" height="2.6" rx="1.2" fill="#020617" /><rect x="101.7" y="64.61" width="2.6" height="2.6" rx="1.2" fill="#020617" /><rect x="107.88" y="64.61" width="2.6" height="2.6" rx="1.2" fill="#020617" /><rect x="21.34" y="67.7" width="2.6" height="2.6" rx="1.2" fill="#020617" /><rect x="24.43" y="67.7" width="2.6" height="2.6" rx="1.2" fill="#020617" /><rect x="30.61" y="67.7" width="2.6" height="2.6" rx="1.2" fill="#020617" /><rect x="33.7" y="67.7" width="2.6" height="2.6" rx="1.2" fill="#020617" /><rect x="36.79" y="67.7" width="2.6" height="2.6" rx="1.2" fill="#020617" /><rect x="39.88" y="67.7" width="2.6" height="2.6" rx="1.2" fill="#020617" /><rect x="42.97" y="67.7" width="2.6" height="2.6" rx="1.2" fill="#020617" /><rect x="46.07" y="67.7" width="2.6" height="2.6" rx="1.2" fill="#020617" /><rect x="55.34" y="67.7" width="2.6" height="2.6" rx="1.2" fill="#020617" /><rect x="58.43" y="67.7" width="2.6" height="2.6" rx="1.2" fill="#020617" /><rect x="61.52" y="67.7" width="2.6" height="2.6" rx="1.2" fill="#020617" /><rect x="67.7" y="67.7" width="2.6" height="2.6" rx="1.2" fill="#020617" /><rect x="70.79" y="67.7" width="2.6" height="2.6" rx="1.2" fill="#020617" /><rect x="73.88" y="67.7" width="2.6" height="2.6" rx="1.2" fill="#020617" /><rect x="76.97" y="67.7" width="2.6" height="2.6" rx="1.2" fill="#020617" /><rect x="95.52" y="67.7" width="2.6" height="2.6" rx="1.2" fill="#020617" /><rect x="101.7" y="67.7" width="2.6" height="2.6" rx="1.2" fill="#020617" /><rect x="104.79" y="67.7" width="2.6" height="2.6" rx="1.2" fill="#020617" /><rect x="110.97" y="67.7" width="2.6" height="2.6" rx="1.2" fill="#020617" /><rect x="117.16" y="67.7" width="2.6" height="2.6" rx="1.2" fill="#020617" /><rect x="18.25" y="70.79" width="2.6" height="2.6" rx="1.2" fill="#020617" /><rect x="24.43" y="70.79" width="2.6" height="2.6" rx="1.2" fill="#020617" /><rect x="27.52" y="70.79" width="2.6" height="2.6" rx="1.2" fill="#020617" /><rect x="30.61" y="70.79" width="2.6" height="2.6" rx="1.2" fill="#020617" /><rect x="33.7" y="70.79" width="2.6" height="2.6" rx="1.2" fill="#020617" /><rect x="39.88" y="70.79" width="2.6" height="2.6" rx="1.2" fill="#020617" /><rect x="49.16" y="70.79" width="2.6" height="2.6" rx="1.2" fill="#020617" /><rect x="55.34" y="70.79" width="2.6" height="2.6" rx="1.2" fill="#020617" /><rect x="58.43" y="70.79" width="2.6" height="2.6" rx="1.2" fill="#020617" /><rect x="64.61" y="70.79" width="2.6" height="2.6" rx="1.2" fill="#020617" /><rect x="67.7" y="70.79" width="2.6" height="2.6" rx="1.2" fill="#020617" /><rect x="70.79" y="70.79" width="2.6" height="2.6" rx="1.2" fill="#020617" /><rect x="76.97" y="70.79" width="2.6" height="2.6" rx="1.2" fill="#020617" /><rect x="80.07" y="70.79" width="2.6" height="2.6" rx="1.2" fill="#020617" /><rect x="89.34" y="70.79" width="2.6" height="2.6" rx="1.2" fill="#020617" /><rect x="92.43" y="70.79" width="2.6" height="2.6" rx="1.2" fill="#020617" /><rect x="95.52" y="70.79" width="2.6" height="2.6" rx="1.2" fill="#020617" /><rect x="98.61" y="70.79" width="2.6" height="2.6" rx="1.2" fill="#020617" /><rect x="101.7" y="70.79" width="2.6" height="2.6" rx="1.2" fill="#020617" /><rect x="18.25" y="73.88" width="2.6" height="2.6" rx="1.2" fill="#020617" /><rect x="27.52" y="73.88" width="2.6" height="2.6" rx="1.2" fill="#020617" /><rect x="30.61" y="73.88" width="2.6" height="2.6" rx="1.2" fill="#020617" /><rect x="36.79" y="73.88" width="2.6" height="2.6" rx="1.2" fill="#020617" /><rect x="39.88" y="73.88" width="2.6" height="2.6" rx="1.2" fill="#020617" /><rect x="42.97" y="73.88" width="2.6" height="2.6" rx="1.2" fill="#020617" /><rect x="46.07" y="73.88" width="2.6" height="2.6" rx="1.2" fill="#020617" /><rect x="67.7" y="73.88" width="2.6" height="2.6" rx="1.2" fill="#020617" /><rect x="73.88" y="73.88" width="2.6" height="2.6" rx="1.2" fill="#020617" /><rect x="80.07" y="73.88" width="2.6" height="2.6" rx="1.2" fill="#020617" /><rect x="86.25" y="73.88" width="2.6" height="2.6" rx="1.2" fill="#020617" /><rect x="89.34" y="73.88" width="2.6" height="2.6" rx="1.2" fill="#020617" /><rect x="95.52" y="73.88" width="2.6" height="2.6" rx="1.2" fill="#020617" /><rect x="98.61" y="73.88" width="2.6" height="2.6" rx="1.2" fill="#020617" /><rect x="107.88" y="73.88" width="2.6" height="2.6" rx="1.2" fill="#020617" /><rect x="110.97" y="73.88" width="2.6" height="2.6" rx="1.2" fill="#020617" /><rect x="114.07" y="73.88" width="2.6" height="2.6" rx="1.2" fill="#020617" /><rect x="117.16" y="73.88" width="2.6" height="2.6" rx="1.2" fill="#020617" /><rect x="18.25" y="76.97" width="2.6" height="2.6" rx="1.2" fill="#020617" /><rect x="24.43" y="76.97" width="2.6" height="2.6" rx="1.2" fill="#020617" /><rect x="27.52" y="76.97" width="2.6" height="2.6" rx="1.2" fill="#020617" /><rect x="30.61" y="76.97" width="2.6" height="2.6" rx="1.2" fill="#020617" /><rect x="39.88" y="76.97" width="2.6" height="2.6" rx="1.2" fill="#020617" /><rect x="42.97" y="76.97" width="2.6" height="2.6" rx="1.2" fill="#020617" /><rect x="46.07" y="76.97" width="2.6" height="2.6" rx="1.2" fill="#020617" /><rect x="49.16" y="76.97" width="2.6" height="2.6" rx="1.2" fill="#020617" /><rect x="55.34" y="76.97" width="2.6" height="2.6" rx="1.2" fill="#020617" /><rect x="61.52" y="76.97" width="2.6" height="2.6" rx="1.2" fill="#020617" /><rect x="67.7" y="76.97" width="2.6" height="2.6" rx="1.2" fill="#020617" /><rect x="73.88" y="76.97" width="2.6" height="2.6" rx="1.2" fill="#020617" /><rect x="80.07" y="76.97" width="2.6" height="2.6" rx="1.2" fill="#020617" /><rect x="89.34" y="76.97" width="2.6" height="2.6" rx="1.2" fill="#020617" /><rect x="92.43" y="76.97" width="2.6" height="2.6" rx="1.2" fill="#020617" /><rect x="95.52" y="76.97" width="2.6" height="2.6" rx="1.2" fill="#020617" /><rect x="104.79" y="76.97" width="2.6" height="2.6" rx="1.2" fill="#020617" /><rect x="107.88" y="76.97" width="2.6" height="2.6" rx="1.2" fill="#020617" /><rect x="110.97" y="76.97" width="2.6" height="2.6" rx="1.2" fill="#020617" /><rect x="21.34" y="80.07" width="2.6" height="2.6" rx="1.2" fill="#020617" /><rect x="24.43" y="80.07" width="2.6" height="2.6" rx="1.2" fill="#020617" /><rect x="36.79" y="80.07" width="2.6" height="2.6" rx="1.2" fill="#020617" /><rect x="39.88" y="80.07" width="2.6" height="2.6" rx="1.2" fill="#020617" /><rect x="49.16" y="80.07" width="2.6" height="2.6" rx="1.2" fill="#020617" /><rect x="52.25" y="80.07" width="2.6" height="2.6" rx="1.2" fill="#020617" /><rect x="67.7" y="80.07" width="2.6" height="2.6" rx="1.2" fill="#020617" /><rect x="70.79" y="80.07" width="2.6" height="2.6" rx="1.2" fill="#020617" /><rect x="80.07" y="80.07" width="2.6" height="2.6" rx="1.2" fill="#020617" /><rect x="86.25" y="80.07" width="2.6" height="2.6" rx="1.2" fill="#020617" /><rect x="92.43" y="80.07" width="2.6" height="2.6" rx="1.2" fill="#020617" /><rect x="101.7" y="80.07" width="2.6" height="2.6" rx="1.2" fill="#020617" /><rect x="104.79" y="80.07" width="2.6" height="2.6" rx="1.2" fill="#020617" /><rect x="107.88" y="80.07" width="2.6" height="2.6" rx="1.2" fill="#020617" /><rect x="18.25" y="83.16" width="2.6" height="2.6" rx="1.2" fill="#020617" /><rect x="21.34" y="83.16" width="2.6" height="2.6" rx="1.2" fill="#020617" /><rect x="24.43" y="83.16" width="2.6" height="2.6" rx="1.2" fill="#020617" /><rect x="27.52" y="83.16" width="2.6" height="2.6" rx="1.2" fill="#020617" /><rect x="30.61" y="83.16" width="2.6" height="2.6" rx="1.2" fill="#020617" /><rect x="49.16" y="83.16" width="2.6" height="2.6" rx="1.2" fill="#020617" /><rect x="52.25" y="83.16" width="2.6" height="2.6" rx="1.2" fill="#020617" /><rect x="55.34" y="83.16" width="2.6" height="2.6" rx="1.2" fill="#020617" /><rect x="67.7" y="83.16" width="2.6" height="2.6" rx="1.2" fill="#020617" /><rect x="73.88" y="83.16" width="2.6" height="2.6" rx="1.2" fill="#020617" /><rect x="76.97" y="83.16" width="2.6" height="2.6" rx="1.2" fill="#020617" /><rect x="83.16" y="83.16" width="2.6" height="2.6" rx="1.2" fill="#020617" /><rect x="95.52" y="83.16" width="2.6" height="2.6" rx="1.2" fill="#020617" /><rect x="98.61" y="83.16" width="2.6" height="2.6" rx="1.2" fill="#020617" /><rect x="104.79" y="83.16" width="2.6" height="2.6" rx="1.2" fill="#020617" /><rect x="107.88" y="83.16" width="2.6" height="2.6" rx="1.2" fill="#020617" /><rect x="110.97" y="83.16" width="2.6" height="2.6" rx="1.2" fill="#020617" /><rect x="18.25" y="86.25" width="2.6" height="2.6" rx="1.2" fill="#020617" /><rect x="24.43" y="86.25" width="2.6" height="2.6" rx="1.2" fill="#020617" /><rect x="27.52" y="86.25" width="2.6" height="2.6" rx="1.2" fill="#020617" /><rect x="30.61" y="86.25" width="2.6" height="2.6" rx="1.2" fill="#020617" /><rect x="36.79" y="86.25" width="2.6" height="2.6" rx="1.2" fill="#020617" /><rect x="39.88" y="86.25" width="2.6" height="2.6" rx="1.2" fill="#020617" /><rect x="42.97" y="86.25" width="2.6" height="2.6" rx="1.2" fill="#020617" /><rect x="52.25" y="86.25" width="2.6" height="2.6" rx="1.2" fill="#020617" /><rect x="55.34" y="86.25" width="2.6" height="2.6" rx="1.2" fill="#020617" /><rect x="58.43" y="86.25" width="2.6" height="2.6" rx="1.2" fill="#020617" /><rect x="61.52" y="86.25" width="2.6" height="2.6" rx="1.2" fill="#020617" /><rect x="64.61" y="86.25" width="2.6" height="2.6" rx="1.2" fill="#020617" /><rect x="67.7" y="86.25" width="2.6" height="2.6" rx="1.2" fill="#020617" /><rect x="76.97" y="86.25" width="2.6" height="2.6" rx="1.2" fill="#020617" /><rect x="86.25" y="86.25" width="2.6" height="2.6" rx="1.2" fill="#020617" /><rect x="89.34" y="86.25" width="2.6" height="2.6" rx="1.2" fill="#020617" /><rect x="92.43" y="86.25" width="2.6" height="2.6" rx="1.2" fill="#020617" /><rect x="104.79" y="86.25" width="2.6" height="2.6" rx="1.2" fill="#020617" /><rect x="107.88" y="86.25" width="2.6" height="2.6" rx="1.2" fill="#020617" /><rect x="114.07" y="86.25" width="2.6" height="2.6" rx="1.2" fill="#020617" /><rect x="18.25" y="89.34" width="2.6" height="2.6" rx="1.2" fill="#020617" /><rect x="30.61" y="89.34" width="2.6" height="2.6" rx="1.2" fill="#020617" /><rect x="42.97" y="89.34" width="2.6" height="2.6" rx="1.2" fill="#020617" /><rect x="49.16" y="89.34" width="2.6" height="2.6" rx="1.2" fill="#020617" /><rect x="52.25" y="89.34" width="2.6" height="2.6" rx="1.2" fill="#020617" /><rect x="58.43" y="89.34" width="2.6" height="2.6" rx="1.2" fill="#020617" /><rect x="64.61" y="89.34" width="2.6" height="2.6" rx="1.2" fill="#020617" /><rect x="67.7" y="89.34" width="2.6" height="2.6" rx="1.2" fill="#020617" /><rect x="70.79" y="89.34" width="2.6" height="2.6" rx="1.2" fill="#020617" /><rect x="73.88" y="89.34" width="2.6" height="2.6" rx="1.2" fill="#020617" /><rect x="80.07" y="89.34" width="2.6" height="2.6" rx="1.2" fill="#020617" /><rect x="86.25" y="89.34" width="2.6" height="2.6" rx="1.2" fill="#020617" /><rect x="89.34" y="89.34" width="2.6" height="2.6" rx="1.2" fill="#020617" /><rect x="101.7" y="89.34" width="2.6" height="2.6" rx="1.2" fill="#020617" /><rect x="107.88" y="89.34" width="2.6" height="2.6" rx="1.2" fill="#020617" /><rect x="110.97" y="89.34" width="2.6" height="2.6" rx="1.2" fill="#020617" /><rect x="117.16" y="89.34" width="2.6" height="2.6" rx="1.2" fill="#020617" /><rect x="18.25" y="92.43" width="2.6" height="2.6" rx="1.2" fill="#020617" /><rect x="21.34" y="92.43" width="2.6" height="2.6" rx="1.2" fill="#020617" /><rect x="36.79" y="92.43" width="2.6" height="2.6" rx="1.2" fill="#020617" /><rect x="52.25" y="92.43" width="2.6" height="2.6" rx="1.2" fill="#020617" /><rect x="70.79" y="92.43" width="2.6" height="2.6" rx="1.2" fill="#020617" /><rect x="92.43" y="92.43" width="2.6" height="2.6" rx="1.2" fill="#020617" /><rect x="95.52" y="92.43" width="2.6" height="2.6" rx="1.2" fill="#020617" /><rect x="98.61" y="92.43" width="2.6" height="2.6" rx="1.2" fill="#020617" /><rect x="101.7" y="92.43" width="2.6" height="2.6" rx="1.2" fill="#020617" /><rect x="104.79" y="92.43" width="2.6" height="2.6" rx="1.2" fill="#020617" /><rect x="114.07" y="92.43" width="2.6" height="2.6" rx="1.2" fill="#020617" /><rect x="117.16" y="92.43" width="2.6" height="2.6" rx="1.2" fill="#020617" /><rect x="42.97" y="95.52" width="2.6" height="2.6" rx="1.2" fill="#020617" /><rect x="46.07" y="95.52" width="2.6" height="2.6" rx="1.2" fill="#020617" /><rect x="55.34" y="95.52" width="2.6" height="2.6" rx="1.2" fill="#020617" /><rect x="58.43" y="95.52" width="2.6" height="2.6" rx="1.2" fill="#020617" /><rect x="61.52" y="95.52" width="2.6" height="2.6" rx="1.2" fill="#020617" /><rect x="70.79" y="95.52" width="2.6" height="2.6" rx="1.2" fill="#020617" /><rect x="73.88" y="95.52" width="2.6" height="2.6" rx="1.2" fill="#020617" /><rect x="86.25" y="95.52" width="2.6" height="2.6" rx="1.2" fill="#020617" /><rect x="92.43" y="95.52" width="2.6" height="2.6" rx="1.2" fill="#020617" /><rect x="104.79" y="95.52" width="2.6" height="2.6" rx="1.2" fill="#020617" /><rect x="110.97" y="95.52" width="2.6" height="2.6" rx="1.2" fill="#020617" /><rect x="114.07" y="95.52" width="2.6" height="2.6" rx="1.2" fill="#020617" /><rect x="117.16" y="95.52" width="2.6" height="2.6" rx="1.2" fill="#020617" /><rect x="46.07" y="98.61" width="2.6" height="2.6" rx="1.2" fill="#020617" /><rect x="49.16" y="98.61" width="2.6" height="2.6" rx="1.2" fill="#020617" /><rect x="55.34" y="98.61" width="2.6" height="2.6" rx="1.2" fill="#020617" /><rect x="64.61" y="98.61" width="2.6" height="2.6" rx="1.2" fill="#020617" /><rect x="70.79" y="98.61" width="2.6" height="2.6" rx="1.2" fill="#020617" /><rect x="73.88" y="98.61" width="2.6" height="2.6" rx="1.2" fill="#020617" /><rect x="80.07" y="98.61" width="2.6" height="2.6" rx="1.2" fill="#020617" /><rect x="83.16" y="98.61" width="2.6" height="2.6" rx="1.2" fill="#020617" /><rect x="89.34" y="98.61" width="2.6" height="2.6" rx="1.2" fill="#020617" /><rect x="92.43" y="98.61" width="2.6" height="2.6" rx="1.2" fill="#020617" /><rect x="98.61" y="98.61" width="2.6" height="2.6" rx="1.2" fill="#020617" /><rect x="104.79" y="98.61" width="2.6" height="2.6" rx="1.2" fill="#020617" /><rect x="107.88" y="98.61" width="2.6" height="2.6" rx="1.2" fill="#020617" /><rect x="110.97" y="98.61" width="2.6" height="2.6" rx="1.2" fill="#020617" /><rect x="114.07" y="98.61" width="2.6" height="2.6" rx="1.2" fill="#020617" /><rect x="42.97" y="101.7" width="2.6" height="2.6" rx="1.2" fill="#020617" /><rect x="46.07" y="101.7" width="2.6" height="2.6" rx="1.2" fill="#020617" /><rect x="52.25" y="101.7" width="2.6" height="2.6" rx="1.2" fill="#020617" /><rect x="61.52" y="101.7" width="2.6" height="2.6" rx="1.2" fill="#020617" /><rect x="64.61" y="101.7" width="2.6" height="2.6" rx="1.2" fill="#020617" /><rect x="70.79" y="101.7" width="2.6" height="2.6" rx="1.2" fill="#020617" /><rect x="80.07" y="101.7" width="2.6" height="2.6" rx="1.2" fill="#020617" /><rect x="92.43" y="101.7" width="2.6" height="2.6" rx="1.2" fill="#020617" /><rect x="104.79" y="101.7" width="2.6" height="2.6" rx="1.2" fill="#020617" /><rect x="107.88" y="101.7" width="2.6" height="2.6" rx="1.2" fill="#020617" /><rect x="110.97" y="101.7" width="2.6" height="2.6" rx="1.2" fill="#020617" /><rect x="114.07" y="101.7" width="2.6" height="2.6" rx="1.2" fill="#020617" /><rect x="49.16" y="104.79" width="2.6" height="2.6" rx="1.2" fill="#020617" /><rect x="61.52" y="104.79" width="2.6" height="2.6" rx="1.2" fill="#020617" /><rect x="64.61" y="104.79" width="2.6" height="2.6" rx="1.2" fill="#020617" /><rect x="70.79" y="104.79" width="2.6" height="2.6" rx="1.2" fill="#020617" /><rect x="73.88" y="104.79" width="2.6" height="2.6" rx="1.2" fill="#020617" /><rect x="76.97" y="104.79" width="2.6" height="2.6" rx="1.2" fill="#020617" /><rect x="80.07" y="104.79" width="2.6" height="2.6" rx="1.2" fill="#020617" /><rect x="83.16" y="104.79" width="2.6" height="2.6" rx="1.2" fill="#020617" /><rect x="92.43" y="104.79" width="2.6" height="2.6" rx="1.2" fill="#020617" /><rect x="95.52" y="104.79" width="2.6" height="2.6" rx="1.2" fill="#020617" /><rect x="98.61" y="104.79" width="2.6" height="2.6" rx="1.2" fill="#020617" /><rect x="101.7" y="104.79" width="2.6" height="2.6" rx="1.2" fill="#020617" /><rect x="104.79" y="104.79" width="2.6" height="2.6" rx="1.2" fill="#020617" /><rect x="114.07" y="104.79" width="2.6" height="2.6" rx="1.2" fill="#020617" /><rect x="117.16" y="104.79" width="2.6" height="2.6" rx="1.2" fill="#020617" /><rect x="49.16" y="107.88" width="2.6" height="2.6" rx="1.2" fill="#020617" /><rect x="52.25" y="107.88" width="2.6" height="2.6" rx="1.2" fill="#020617" /><rect x="55.34" y="107.88" width="2.6" height="2.6" rx="1.2" fill="#020617" /><rect x="61.52" y="107.88" width="2.6" height="2.6" rx="1.2" fill="#020617" /><rect x="67.7" y="107.88" width="2.6" height="2.6" rx="1.2" fill="#020617" /><rect x="70.79" y="107.88" width="2.6" height="2.6" rx="1.2" fill="#020617" /><rect x="73.88" y="107.88" width="2.6" height="2.6" rx="1.2" fill="#020617" /><rect x="76.97" y="107.88" width="2.6" height="2.6" rx="1.2" fill="#020617" /><rect x="80.07" y="107.88" width="2.6" height="2.6" rx="1.2" fill="#020617" /><rect x="83.16" y="107.88" width="2.6" height="2.6" rx="1.2" fill="#020617" /><rect x="86.25" y="107.88" width="2.6" height="2.6" rx="1.2" fill="#020617" /><rect x="95.52" y="107.88" width="2.6" height="2.6" rx="1.2" fill="#020617" /><rect x="101.7" y="107.88" width="2.6" height="2.6" rx="1.2" fill="#020617" /><rect x="104.79" y="107.88" width="2.6" height="2.6" rx="1.2" fill="#020617" /><rect x="110.97" y="107.88" width="2.6" height="2.6" rx="1.2" fill="#020617" /><rect x="114.07" y="107.88" width="2.6" height="2.6" rx="1.2" fill="#020617" /><rect x="49.16" y="110.97" width="2.6" height="2.6" rx="1.2" fill="#020617" /><rect x="52.25" y="110.97" width="2.6" height="2.6" rx="1.2" fill="#020617" /><rect x="55.34" y="110.97" width="2.6" height="2.6" rx="1.2" fill="#020617" /><rect x="58.43" y="110.97" width="2.6" height="2.6" rx="1.2" fill="#020617" /><rect x="61.52" y="110.97" width="2.6" height="2.6" rx="1.2" fill="#020617" /><rect x="67.7" y="110.97" width="2.6" height="2.6" rx="1.2" fill="#020617" /><rect x="70.79" y="110.97" width="2.6" height="2.6" rx="1.2" fill="#020617" /><rect x="73.88" y="110.97" width="2.6" height="2.6" rx="1.2" fill="#020617" /><rect x="80.07" y="110.97" width="2.6" height="2.6" rx="1.2" fill="#020617" /><rect x="89.34" y="110.97" width="2.6" height="2.6" rx="1.2" fill="#020617" /><rect x="92.43" y="110.97" width="2.6" height="2.6" rx="1.2" fill="#020617" /><rect x="104.79" y="110.97" width="2.6" height="2.6" rx="1.2" fill="#020617" /><rect x="110.97" y="110.97" width="2.6" height="2.6" rx="1.2" fill="#020617" /><rect x="114.07" y="110.97" width="2.6" height="2.6" rx="1.2" fill="#020617" /><rect x="117.16" y="110.97" width="2.6" height="2.6" rx="1.2" fill="#020617" /><rect x="49.16" y="114.07" width="2.6" height="2.6" rx="1.2" fill="#020617" /><rect x="58.43" y="114.07" width="2.6" height="2.6" rx="1.2" fill="#020617" /><rect x="61.52" y="114.07" width="2.6" height="2.6" rx="1.2" fill="#020617" /><rect x="70.79" y="114.07" width="2.6" height="2.6" rx="1.2" fill="#020617" /><rect x="83.16" y="114.07" width="2.6" height="2.6" rx="1.2" fill="#020617" /><rect x="98.61" y="114.07" width="2.6" height="2.6" rx="1.2" fill="#020617" /><rect x="110.97" y="114.07" width="2.6" height="2.6" rx="1.2" fill="#020617" /><rect x="46.07" y="117.16" width="2.6" height="2.6" rx="1.2" fill="#020617" /><rect x="49.16" y="117.16" width="2.6" height="2.6" rx="1.2" fill="#020617" /><rect x="55.34" y="117.16" width="2.6" height="2.6" rx="1.2" fill="#020617" /><rect x="58.43" y="117.16" width="2.6" height="2.6" rx="1.2" fill="#020617" /><rect x="64.61" y="117.16" width="2.6" height="2.6" rx="1.2" fill="#020617" /><rect x="83.16" y="117.16" width="2.6" height="2.6" rx="1.2" fill="#020617" /><rect x="86.25" y="117.16" width="2.6" height="2.6" rx="1.2" fill="#020617" /><rect x="89.34" y="117.16" width="2.6" height="2.6" rx="1.2" fill="#020617" /><rect x="92.43" y="117.16" width="2.6" height="2.6" rx="1.2" fill="#020617" /><rect x="95.52" y="117.16" width="2.6" height="2.6" rx="1.2" fill="#020617" /><rect x="107.88" y="117.16" width="2.6" height="2.6" rx="1.2" fill="#020617" /><rect x="110.97" y="117.16" width="2.6" height="2.6" rx="1.2" fill="#020617" /><rect x="114.07" y="117.16" width="2.6" height="2.6" rx="1.2" fill="#020617" /><g transform="translate(18 18)"><rect width="21.64" height="21.64" rx="2.78" fill="#020617" /><rect x="3.09" y="3.09" width="15.45" height="15.45" rx="2" fill="#FFFFFF" /><rect x="6.18" y="6.18" width="9.27" height="9.27" rx="1.73" fill="#020617" /></g><g transform="translate(98.36 18)"><rect width="21.64" height="21.64" rx="2.78" fill="#020617" /><rect x="3.09" y="3.09" width="15.45" height="15.45" rx="2" fill="#FFFFFF" /><rect x="6.18" y="6.18" width="9.27" height="9.27" rx="1.73" fill="#020617" /></g><g transform="translate(18 98.36)"><rect width="21.64" height="21.64" rx="2.78" fill="#020617" /><rect x="3.09" y="3.09" width="15.45" height="15.45" rx="2" fill="#FFFFFF" /><rect x="6.18" y="6.18" width="9.27" height="9.27" rx="1.73" fill="#020617" /></g><circle cx="16.56" cy="16.56" r="3.31" fill="#2BFFCF" opacity="0.9" filter="url(#qr-1478937422-frame-glow)"><animate attributeName="opacity" values="0.72;1;0.72" dur="3.6s" repeatCount="indefinite" /></circle><circle cx="121.44" cy="121.44" r="3.59" fill="#7A7CFF" opacity="0.86" filter="url(#qr-1478937422-frame-glow)"><animate attributeName="opacity" values="0.68;0.96;0.68" dur="4.2s" repeatCount="indefinite" /></circle><path d="M 22.08 125.58 H 46.92" stroke="#2BFFCF" stroke-width="3" stroke-linecap="round" opacity="0.88" /><path d="M 91.08 12.42 H 115.92" stroke="#7A7CFF" stroke-width="3" stroke-linecap="round" opacity="0.88" /></svg></svg><rect x="0.75" y="0.75" width="318.5" height="234.5" rx="27.25" stroke="rgba(122,124,255,0.32)" /></svg>