<svg width="160" height="160" viewBox="0 0 160 160" fill="none" xmlns="http://www.w3.org/2000/svg" role="img" aria-labelledby="qr-807906220-title qr-807906220-desc"><title id="qr-807906220-title">QR code for https://www.icebreaker.top</title><desc id="qr-807906220-desc">Stylized SVG QR code generated locally.</desc><defs><linearGradient id="qr-807906220-frame" x1="0" y1="0" x2="160" y2="160" gradientUnits="userSpaceOnUse"><stop offset="0%" stop-color="#0B1220" /><stop offset="55%" stop-color="#172554" /><stop offset="100%" stop-color="#0F172A" /></linearGradient><radialGradient id="qr-807906220-halo" cx="0" cy="0" r="1" gradientUnits="userSpaceOnUse" gradientTransform="translate(28.8 19.2) rotate(40) scale(67.2 60.8)"><stop offset="0%" stop-color="#7A7CFF" stop-opacity="0.34" /><stop offset="100%" stop-color="#2BFFCF" stop-opacity="0" /></radialGradient><filter id="qr-807906220-frame-glow" x="-20%" y="-20%" width="140%" height="140%"><feGaussianBlur stdDeviation="10" /></filter></defs><rect width="160" height="160" rx="26" fill="url(#qr-807906220-frame)" /><rect width="160" height="160" rx="26" fill="url(#qr-807906220-halo)" /><rect x="8" y="8" width="144" height="144" rx="18.72" fill="#F8FAFC" /><rect x="8" y="8" width="144" height="144" rx="18.72" fill="none" stroke="#E2E8F0" /><rect x="49.38" y="20.29" width="3.05" height="3.05" rx="1.2" fill="#111827" /><rect x="60.29" y="20.29" width="3.05" height="3.05" rx="1.2" fill="#111827" /><rect x="63.93" y="20.29" width="3.05" height="3.05" rx="1.2" fill="#111827" /><rect x="71.2" y="20.29" width="3.05" height="3.05" rx="1.2" fill="#111827" /><rect x="89.38" y="20.29" width="3.05" height="3.05" rx="1.2" fill="#111827" /><rect x="96.65" y="20.29" width="3.05" height="3.05" rx="1.2" fill="#111827" /><rect x="100.29" y="20.29" width="3.05" height="3.05" rx="1.2" fill="#111827" /><rect x="107.56" y="20.29" width="3.05" height="3.05" rx="1.2" fill="#111827" /><rect x="56.65" y="23.93" width="3.05" height="3.05" rx="1.2" fill="#111827" /><rect x="63.93" y="23.93" width="3.05" height="3.05" rx="1.2" fill="#111827" /><rect x="67.56" y="23.93" width="3.05" height="3.05" rx="1.2" fill="#111827" /><rect x="78.47" y="23.93" width="3.05" height="3.05" rx="1.2" fill="#111827" /><rect x="82.11" y="23.93" width="3.05" height="3.05" rx="1.2" fill="#111827" /><rect x="85.75" y="23.93" width="3.05" height="3.05" rx="1.2" fill="#111827" /><rect x="89.38" y="23.93" width="3.05" height="3.05" rx="1.2" fill="#111827" /><rect x="100.29" y="23.93" width="3.05" height="3.05" rx="1.2" fill="#111827" /><rect x="107.56" y="23.93" width="3.05" height="3.05" rx="1.2" fill="#111827" /><rect x="49.38" y="27.56" width="3.05" height="3.05" rx="1.2" fill="#111827" /><rect x="56.65" y="27.56" width="3.05" height="3.05" rx="1.2" fill="#111827" /><rect x="60.29" y="27.56" width="3.05" height="3.05" rx="1.2" fill="#111827" /><rect x="63.93" y="27.56" width="3.05" height="3.05" rx="1.2" fill="#111827" /><rect x="67.56" y="27.56" width="3.05" height="3.05" rx="1.2" fill="#111827" /><rect x="71.2" y="27.56" width="3.05" height="3.05" rx="1.2" fill="#111827" /><rect x="74.84" y="27.56" width="3.05" height="3.05" rx="1.2" fill="#111827" /><rect x="93.02" y="27.56" width="3.05" height="3.05" rx="1.2" fill="#111827" /><rect x="96.65" y="27.56" width="3.05" height="3.05" rx="1.2" fill="#111827" /><rect x="100.29" y="27.56" width="3.05" height="3.05" rx="1.2" fill="#111827" /><rect x="103.93" y="27.56" width="3.05" height="3.05" rx="1.2" fill="#111827" /><rect x="107.56" y="27.56" width="3.05" height="3.05" rx="1.2" fill="#111827" /><rect x="53.02" y="31.2" width="3.05" height="3.05" rx="1.2" fill="#111827" /><rect x="63.93" y="31.2" width="3.05" height="3.05" rx="1.2" fill="#111827" /><rect x="78.47" y="31.2" width="3.05" height="3.05" rx="1.2" fill="#111827" /><rect x="85.75" y="31.2" width="3.05" height="3.05" rx="1.2" fill="#111827" /><rect x="93.02" y="31.2" width="3.05" height="3.05" rx="1.2" fill="#111827" /><rect x="96.65" y="31.2" width="3.05" height="3.05" rx="1.2" fill="#111827" /><rect x="103.93" y="31.2" width="3.05" height="3.05" rx="1.2" fill="#111827" /><rect x="49.38" y="34.84" width="3.05" height="3.05" rx="1.2" fill="#111827" /><rect x="56.65" y="34.84" width="3.05" height="3.05" rx="1.2" fill="#111827" /><rect x="60.29" y="34.84" width="3.05" height="3.05" rx="1.2" fill="#111827" /><rect x="63.93" y="34.84" width="3.05" height="3.05" rx="1.2" fill="#111827" /><rect x="67.56" y="34.84" width="3.05" height="3.05" rx="1.2" fill="#111827" /><rect x="71.2" y="34.84" width="3.05" height="3.05" rx="1.2" fill="#111827" /><rect x="78.47" y="34.84" width="3.05" height="3.05" rx="1.2" fill="#111827" /><rect x="82.11" y="34.84" width="3.05" height="3.05" rx="1.2" fill="#111827" /><rect x="89.38" y="34.84" width="3.05" height="3.05" rx="1.2" fill="#111827" /><rect x="96.65" y="34.84" width="3.05" height="3.05" rx="1.2" fill="#111827" /><rect x="107.56" y="34.84" width="3.05" height="3.05" rx="1.2" fill="#111827" /><rect x="53.02" y="38.47" width="3.05" height="3.05" rx="1.2" fill="#111827" /><rect x="56.65" y="38.47" width="3.05" height="3.05" rx="1.2" fill="#111827" /><rect x="63.93" y="38.47" width="3.05" height="3.05" rx="1.2" fill="#111827" /><rect x="67.56" y="38.47" width="3.05" height="3.05" rx="1.2" fill="#111827" /><rect x="71.2" y="38.47" width="3.05" height="3.05" rx="1.2" fill="#111827" /><rect x="74.84" y="38.47" width="3.05" height="3.05" rx="1.2" fill="#111827" /><rect x="78.47" y="38.47" width="3.05" height="3.05" rx="1.2" fill="#111827" /><rect x="89.38" y="38.47" width="3.05" height="3.05" rx="1.2" fill="#111827" /><rect x="100.29" y="38.47" width="3.05" height="3.05" rx="1.2" fill="#111827" /><rect x="49.38" y="42.11" width="3.05" height="3.05" rx="1.2" fill="#111827" /><rect x="56.65" y="42.11" width="3.05" height="3.05" rx="1.2" fill="#111827" /><rect x="63.93" y="42.11" width="3.05" height="3.05" rx="1.2" fill="#111827" /><rect x="71.2" y="42.11" width="3.05" height="3.05" rx="1.2" fill="#111827" /><rect x="78.47" y="42.11" width="3.05" height="3.05" rx="1.2" fill="#111827" /><rect x="85.75" y="42.11" width="3.05" height="3.05" rx="1.2" fill="#111827" /><rect x="93.02" y="42.11" width="3.05" height="3.05" rx="1.2" fill="#111827" /><rect x="100.29" y="42.11" width="3.05" height="3.05" rx="1.2" fill="#111827" /><rect x="107.56" y="42.11" width="3.05" height="3.05" rx="1.2" fill="#111827" /><rect x="49.38" y="45.75" width="3.05" height="3.05" rx="1.2" fill="#111827" /><rect x="60.29" y="45.75" width="3.05" height="3.05" rx="1.2" fill="#111827" /><rect x="85.75" y="45.75" width="3.05" height="3.05" rx="1.2" fill="#111827" /><rect x="107.56" y="45.75" width="3.05" height="3.05" rx="1.2" fill="#111827" /><rect x="38.47" y="49.38" width="3.05" height="3.05" rx="1.2" fill="#111827" /><rect x="42.11" y="49.38" width="3.05" height="3.05" rx="1.2" fill="#111827" /><rect x="53.02" y="49.38" width="3.05" height="3.05" rx="1.2" fill="#111827" /><rect x="56.65" y="49.38" width="3.05" height="3.05" rx="1.2" fill="#111827" /><rect x="71.2" y="49.38" width="3.05" height="3.05" rx="1.2" fill="#111827" /><rect x="82.11" y="49.38" width="3.05" height="3.05" rx="1.2" fill="#111827" /><rect x="100.29" y="49.38" width="3.05" height="3.05" rx="1.2" fill="#111827" /><rect x="114.84" y="49.38" width="3.05" height="3.05" rx="1.2" fill="#111827" /><rect x="122.11" y="49.38" width="3.05" height="3.05" rx="1.2" fill="#111827" /><rect x="129.38" y="49.38" width="3.05" height="3.05" rx="1.2" fill="#111827" /><rect x="136.65" y="49.38" width="3.05" height="3.05" rx="1.2" fill="#111827" /><rect x="20.29" y="53.02" width="3.05" height="3.05" rx="1.2" fill="#111827" /><rect x="34.84" y="53.02" width="3.05" height="3.05" rx="1.2" fill="#111827" /><rect x="38.47" y="53.02" width="3.05" height="3.05" rx="1.2" fill="#111827" /><rect x="49.38" y="53.02" width="3.05" height="3.05" rx="1.2" fill="#111827" /><rect x="53.02" y="53.02" width="3.05" height="3.05" rx="1.2" fill="#111827" /><rect x="67.56" y="53.02" width="3.05" height="3.05" rx="1.2" fill="#111827" /><rect x="74.84" y="53.02" width="3.05" height="3.05" rx="1.2" fill="#111827" /><rect x="82.11" y="53.02" width="3.05" height="3.05" rx="1.2" fill="#111827" /><rect x="89.38" y="53.02" width="3.05" height="3.05" rx="1.2" fill="#111827" /><rect x="96.65" y="53.02" width="3.05" height="3.05" rx="1.2" fill="#111827" /><rect x="100.29" y="53.02" width="3.05" height="3.05" rx="1.2" fill="#111827" /><rect x="103.93" y="53.02" width="3.05" height="3.05" rx="1.2" fill="#111827" /><rect x="111.2" y="53.02" width="3.05" height="3.05" rx="1.2" fill="#111827" /><rect x="118.47" y="53.02" width="3.05" height="3.05" rx="1.2" fill="#111827" /><rect x="122.11" y="53.02" width="3.05" height="3.05" rx="1.2" fill="#111827" /><rect x="125.75" y="53.02" width="3.05" height="3.05" rx="1.2" fill="#111827" /><rect x="129.38" y="53.02" width="3.05" height="3.05" rx="1.2" fill="#111827" /><rect x="133.02" y="53.02" width="3.05" height="3.05" rx="1.2" fill="#111827" /><rect x="20.29" y="56.65" width="3.05" height="3.05" rx="1.2" fill="#111827" /><rect x="23.93" y="56.65" width="3.05" height="3.05" rx="1.2" fill="#111827" /><rect x="31.2" y="56.65" width="3.05" height="3.05" rx="1.2" fill="#111827" /><rect x="38.47" y="56.65" width="3.05" height="3.05" rx="1.2" fill="#111827" /><rect x="42.11" y="56.65" width="3.05" height="3.05" rx="1.2" fill="#111827" /><rect x="45.75" y="56.65" width="3.05" height="3.05" rx="1.2" fill="#111827" /><rect x="49.38" y="56.65" width="3.05" height="3.05" rx="1.2" fill="#111827" /><rect x="53.02" y="56.65" width="3.05" height="3.05" rx="1.2" fill="#111827" /><rect x="56.65" y="56.65" width="3.05" height="3.05" rx="1.2" fill="#111827" /><rect x="63.93" y="56.65" width="3.05" height="3.05" rx="1.2" fill="#111827" /><rect x="71.2" y="56.65" width="3.05" height="3.05" rx="1.2" fill="#111827" /><rect x="89.38" y="56.65" width="3.05" height="3.05" rx="1.2" fill="#111827" /><rect x="100.29" y="56.65" width="3.05" height="3.05" rx="1.2" fill="#111827" /><rect x="107.56" y="56.65" width="3.05" height="3.05" rx="1.2" fill="#111827" /><rect x="111.2" y="56.65" width="3.05" height="3.05" rx="1.2" fill="#111827" /><rect x="114.84" y="56.65" width="3.05" height="3.05" rx="1.2" fill="#111827" /><rect x="118.47" y="56.65" width="3.05" height="3.05" rx="1.2" fill="#111827" /><rect x="125.75" y="56.65" width="3.05" height="3.05" rx="1.2" fill="#111827" /><rect x="129.38" y="56.65" width="3.05" height="3.05" rx="1.2" fill="#111827" /><rect x="133.02" y="56.65" width="3.05" height="3.05" rx="1.2" fill="#111827" /><rect x="34.84" y="60.29" width="3.05" height="3.05" rx="1.2" fill="#111827" /><rect x="38.47" y="60.29" width="3.05" height="3.05" rx="1.2" fill="#111827" /><rect x="45.75" y="60.29" width="3.05" height="3.05" rx="1.2" fill="#111827" /><rect x="56.65" y="60.29" width="3.05" height="3.05" rx="1.2" fill="#111827" /><rect x="71.2" y="60.29" width="3.05" height="3.05" rx="1.2" fill="#111827" /><rect x="78.47" y="60.29" width="3.05" height="3.05" rx="1.2" fill="#111827" /><rect x="82.11" y="60.29" width="3.05" height="3.05" rx="1.2" fill="#111827" /><rect x="85.75" y="60.29" width="3.05" height="3.05" rx="1.2" fill="#111827" /><rect x="89.38" y="60.29" width="3.05" height="3.05" rx="1.2" fill="#111827" /><rect x="93.02" y="60.29" width="3.05" height="3.05" rx="1.2" fill="#111827" /><rect x="96.65" y="60.29" width="3.05" height="3.05" rx="1.2" fill="#111827" /><rect x="103.93" y="60.29" width="3.05" height="3.05" rx="1.2" fill="#111827" /><rect x="114.84" y="60.29" width="3.05" height="3.05" rx="1.2" fill="#111827" /><rect x="118.47" y="60.29" width="3.05" height="3.05" rx="1.2" fill="#111827" /><rect x="125.75" y="60.29" width="3.05" height="3.05" rx="1.2" fill="#111827" /><rect x="129.38" y="60.29" width="3.05" height="3.05" rx="1.2" fill="#111827" /><rect x="133.02" y="60.29" width="3.05" height="3.05" rx="1.2" fill="#111827" /><rect x="136.65" y="60.29" width="3.05" height="3.05" rx="1.2" fill="#111827" /><rect x="23.93" y="63.93" width="3.05" height="3.05" rx="1.2" fill="#111827" /><rect x="27.56" y="63.93" width="3.05" height="3.05" rx="1.2" fill="#111827" /><rect x="42.11" y="63.93" width="3.05" height="3.05" rx="1.2" fill="#111827" /><rect x="63.93" y="63.93" width="3.05" height="3.05" rx="1.2" fill="#111827" /><rect x="74.84" y="63.93" width="3.05" height="3.05" rx="1.2" fill="#111827" /><rect x="85.75" y="63.93" width="3.05" height="3.05" rx="1.2" fill="#111827" /><rect x="89.38" y="63.93" width="3.05" height="3.05" rx="1.2" fill="#111827" /><rect x="96.65" y="63.93" width="3.05" height="3.05" rx="1.2" fill="#111827" /><rect x="107.56" y="63.93" width="3.05" height="3.05" rx="1.2" fill="#111827" /><rect x="114.84" y="63.93" width="3.05" height="3.05" rx="1.2" fill="#111827" /><rect x="118.47" y="63.93" width="3.05" height="3.05" rx="1.2" fill="#111827" /><rect x="122.11" y="63.93" width="3.05" height="3.05" rx="1.2" fill="#111827" /><rect x="125.75" y="63.93" width="3.05" height="3.05" rx="1.2" fill="#111827" /><rect x="136.65" y="63.93" width="3.05" height="3.05" rx="1.2" fill="#111827" /><rect x="20.29" y="67.56" width="3.05" height="3.05" rx="1.2" fill="#111827" /><rect x="23.93" y="67.56" width="3.05" height="3.05" rx="1.2" fill="#111827" /><rect x="45.75" y="67.56" width="3.05" height="3.05" rx="1.2" fill="#111827" /><rect x="49.38" y="67.56" width="3.05" height="3.05" rx="1.2" fill="#111827" /><rect x="56.65" y="67.56" width="3.05" height="3.05" rx="1.2" fill="#111827" /><rect x="63.93" y="67.56" width="3.05" height="3.05" rx="1.2" fill="#111827" /><rect x="71.2" y="67.56" width="3.05" height="3.05" rx="1.2" fill="#111827" /><rect x="78.47" y="67.56" width="3.05" height="3.05" rx="1.2" fill="#111827" /><rect x="82.11" y="67.56" width="3.05" height="3.05" rx="1.2" fill="#111827" /><rect x="85.75" y="67.56" width="3.05" height="3.05" rx="1.2" fill="#111827" /><rect x="96.65" y="67.56" width="3.05" height="3.05" rx="1.2" fill="#111827" /><rect x="103.93" y="67.56" width="3.05" height="3.05" rx="1.2" fill="#111827" /><rect x="114.84" y="67.56" width="3.05" height="3.05" rx="1.2" fill="#111827" /><rect x="118.47" y="67.56" width="3.05" height="3.05" rx="1.2" fill="#111827" /><rect x="122.11" y="67.56" width="3.05" height="3.05" rx="1.2" fill="#111827" /><rect x="125.75" y="67.56" width="3.05" height="3.05" rx="1.2" fill="#111827" /><rect x="136.65" y="67.56" width="3.05" height="3.05" rx="1.2" fill="#111827" /><rect x="20.29" y="71.2" width="3.05" height="3.05" rx="1.2" fill="#111827" /><rect x="23.93" y="71.2" width="3.05" height="3.05" rx="1.2" fill="#111827" /><rect x="42.11" y="71.2" width="3.05" height="3.05" rx="1.2" fill="#111827" /><rect x="49.38" y="71.2" width="3.05" height="3.05" rx="1.2" fill="#111827" /><rect x="53.02" y="71.2" width="3.05" height="3.05" rx="1.2" fill="#111827" /><rect x="67.56" y="71.2" width="3.05" height="3.05" rx="1.2" fill="#111827" /><rect x="71.2" y="71.2" width="3.05" height="3.05" rx="1.2" fill="#111827" /><rect x="74.84" y="71.2" width="3.05" height="3.05" rx="1.2" fill="#111827" /><rect x="78.47" y="71.2" width="3.05" height="3.05" rx="1.2" fill="#111827" /><rect x="89.38" y="71.2" width="3.05" height="3.05" rx="1.2" fill="#111827" /><rect x="100.29" y="71.2" width="3.05" height="3.05" rx="1.2" fill="#111827" /><rect x="111.2" y="71.2" width="3.05" height="3.05" rx="1.2" fill="#111827" /><rect x="118.47" y="71.2" width="3.05" height="3.05" rx="1.2" fill="#111827" /><rect x="122.11" y="71.2" width="3.05" height="3.05" rx="1.2" fill="#111827" /><rect x="133.02" y="71.2" width="3.05" height="3.05" rx="1.2" fill="#111827" /><rect x="20.29" y="74.84" width="3.05" height="3.05" rx="1.2" fill="#111827" /><rect x="31.2" y="74.84" width="3.05" height="3.05" rx="1.2" fill="#111827" /><rect x="38.47" y="74.84" width="3.05" height="3.05" rx="1.2" fill="#111827" /><rect x="45.75" y="74.84" width="3.05" height="3.05" rx="1.2" fill="#111827" /><rect x="60.29" y="74.84" width="3.05" height="3.05" rx="1.2" fill="#111827" /><rect x="63.93" y="74.84" width="3.05" height="3.05" rx="1.2" fill="#111827" /><rect x="67.56" y="74.84" width="3.05" height="3.05" rx="1.2" fill="#111827" /><rect x="78.47" y="74.84" width="3.05" height="3.05" rx="1.2" fill="#111827" /><rect x="85.75" y="74.84" width="3.05" height="3.05" rx="1.2" fill="#111827" /><rect x="103.93" y="74.84" width="3.05" height="3.05" rx="1.2" fill="#111827" /><rect x="107.56" y="74.84" width="3.05" height="3.05" rx="1.2" fill="#111827" /><rect x="111.2" y="74.84" width="3.05" height="3.05" rx="1.2" fill="#111827" /><rect x="114.84" y="74.84" width="3.05" height="3.05" rx="1.2" fill="#111827" /><rect x="118.47" y="74.84" width="3.05" height="3.05" rx="1.2" fill="#111827" /><rect x="125.75" y="74.84" width="3.05" height="3.05" rx="1.2" fill="#111827" /><rect x="23.93" y="78.47" width="3.05" height="3.05" rx="1.2" fill="#111827" /><rect x="27.56" y="78.47" width="3.05" height="3.05" rx="1.2" fill="#111827" /><rect x="34.84" y="78.47" width="3.05" height="3.05" rx="1.2" fill="#111827" /><rect x="38.47" y="78.47" width="3.05" height="3.05" rx="1.2" fill="#111827" /><rect x="42.11" y="78.47" width="3.05" height="3.05" rx="1.2" fill="#111827" /><rect x="45.75" y="78.47" width="3.05" height="3.05" rx="1.2" fill="#111827" /><rect x="49.38" y="78.47" width="3.05" height="3.05" rx="1.2" fill="#111827" /><rect x="53.02" y="78.47" width="3.05" height="3.05" rx="1.2" fill="#111827" /><rect x="63.93" y="78.47" width="3.05" height="3.05" rx="1.2" fill="#111827" /><rect x="67.56" y="78.47" width="3.05" height="3.05" rx="1.2" fill="#111827" /><rect x="71.2" y="78.47" width="3.05" height="3.05" rx="1.2" fill="#111827" /><rect x="78.47" y="78.47" width="3.05" height="3.05" rx="1.2" fill="#111827" /><rect x="82.11" y="78.47" width="3.05" height="3.05" rx="1.2" fill="#111827" /><rect x="85.75" y="78.47" width="3.05" height="3.05" rx="1.2" fill="#111827" /><rect x="89.38" y="78.47" width="3.05" height="3.05" rx="1.2" fill="#111827" /><rect x="111.2" y="78.47" width="3.05" height="3.05" rx="1.2" fill="#111827" /><rect x="118.47" y="78.47" width="3.05" height="3.05" rx="1.2" fill="#111827" /><rect x="122.11" y="78.47" width="3.05" height="3.05" rx="1.2" fill="#111827" /><rect x="129.38" y="78.47" width="3.05" height="3.05" rx="1.2" fill="#111827" /><rect x="136.65" y="78.47" width="3.05" height="3.05" rx="1.2" fill="#111827" /><rect x="20.29" y="82.11" width="3.05" height="3.05" rx="1.2" fill="#111827" /><rect x="27.56" y="82.11" width="3.05" height="3.05" rx="1.2" fill="#111827" /><rect x="31.2" y="82.11" width="3.05" height="3.05" rx="1.2" fill="#111827" /><rect x="34.84" y="82.11" width="3.05" height="3.05" rx="1.2" fill="#111827" /><rect x="38.47" y="82.11" width="3.05" height="3.05" rx="1.2" fill="#111827" /><rect x="45.75" y="82.11" width="3.05" height="3.05" rx="1.2" fill="#111827" /><rect x="56.65" y="82.11" width="3.05" height="3.05" rx="1.2" fill="#111827" /><rect x="63.93" y="82.11" width="3.05" height="3.05" rx="1.2" fill="#111827" /><rect x="67.56" y="82.11" width="3.05" height="3.05" rx="1.2" fill="#111827" /><rect x="74.84" y="82.11" width="3.05" height="3.05" rx="1.2" fill="#111827" /><rect x="78.47" y="82.11" width="3.05" height="3.05" rx="1.2" fill="#111827" /><rect x="82.11" y="82.11" width="3.05" height="3.05" rx="1.2" fill="#111827" /><rect x="89.38" y="82.11" width="3.05" height="3.05" rx="1.2" fill="#111827" /><rect x="93.02" y="82.11" width="3.05" height="3.05" rx="1.2" fill="#111827" /><rect x="103.93" y="82.11" width="3.05" height="3.05" rx="1.2" fill="#111827" /><rect x="107.56" y="82.11" width="3.05" height="3.05" rx="1.2" fill="#111827" /><rect x="111.2" y="82.11" width="3.05" height="3.05" rx="1.2" fill="#111827" /><rect x="114.84" y="82.11" width="3.05" height="3.05" rx="1.2" fill="#111827" /><rect x="118.47" y="82.11" width="3.05" height="3.05" rx="1.2" fill="#111827" /><rect x="20.29" y="85.75" width="3.05" height="3.05" rx="1.2" fill="#111827" /><rect x="31.2" y="85.75" width="3.05" height="3.05" rx="1.2" fill="#111827" /><rect x="34.84" y="85.75" width="3.05" height="3.05" rx="1.2" fill="#111827" /><rect x="42.11" y="85.75" width="3.05" height="3.05" rx="1.2" fill="#111827" /><rect x="45.75" y="85.75" width="3.05" height="3.05" rx="1.2" fill="#111827" /><rect x="49.38" y="85.75" width="3.05" height="3.05" rx="1.2" fill="#111827" /><rect x="53.02" y="85.75" width="3.05" height="3.05" rx="1.2" fill="#111827" /><rect x="78.47" y="85.75" width="3.05" height="3.05" rx="1.2" fill="#111827" /><rect x="85.75" y="85.75" width="3.05" height="3.05" rx="1.2" fill="#111827" /><rect x="93.02" y="85.75" width="3.05" height="3.05" rx="1.2" fill="#111827" /><rect x="100.29" y="85.75" width="3.05" height="3.05" rx="1.2" fill="#111827" /><rect x="103.93" y="85.75" width="3.05" height="3.05" rx="1.2" fill="#111827" /><rect x="111.2" y="85.75" width="3.05" height="3.05" rx="1.2" fill="#111827" /><rect x="114.84" y="85.75" width="3.05" height="3.05" rx="1.2" fill="#111827" /><rect x="125.75" y="85.75" width="3.05" height="3.05" rx="1.2" fill="#111827" /><rect x="129.38" y="85.75" width="3.05" height="3.05" rx="1.2" fill="#111827" /><rect x="133.02" y="85.75" width="3.05" height="3.05" rx="1.2" fill="#111827" /><rect x="136.65" y="85.75" width="3.05" height="3.05" rx="1.2" fill="#111827" /><rect x="20.29" y="89.38" width="3.05" height="3.05" rx="1.2" fill="#111827" /><rect x="27.56" y="89.38" width="3.05" height="3.05" rx="1.2" fill="#111827" /><rect x="31.2" y="89.38" width="3.05" height="3.05" rx="1.2" fill="#111827" /><rect x="34.84" y="89.38" width="3.05" height="3.05" rx="1.2" fill="#111827" /><rect x="45.75" y="89.38" width="3.05" height="3.05" rx="1.2" fill="#111827" /><rect x="49.38" y="89.38" width="3.05" height="3.05" rx="1.2" fill="#111827" /><rect x="53.02" y="89.38" width="3.05" height="3.05" rx="1.2" fill="#111827" /><rect x="56.65" y="89.38" width="3.05" height="3.05" rx="1.2" fill="#111827" /><rect x="63.93" y="89.38" width="3.05" height="3.05" rx="1.2" fill="#111827" /><rect x="71.2" y="89.38" width="3.05" height="3.05" rx="1.2" fill="#111827" /><rect x="78.47" y="89.38" width="3.05" height="3.05" rx="1.2" fill="#111827" /><rect x="85.75" y="89.38" width="3.05" height="3.05" rx="1.2" fill="#111827" /><rect x="93.02" y="89.38" width="3.05" height="3.05" rx="1.2" fill="#111827" /><rect x="103.93" y="89.38" width="3.05" height="3.05" rx="1.2" fill="#111827" /><rect x="107.56" y="89.38" width="3.05" height="3.05" rx="1.2" fill="#111827" /><rect x="111.2" y="89.38" width="3.05" height="3.05" rx="1.2" fill="#111827" /><rect x="122.11" y="89.38" width="3.05" height="3.05" rx="1.2" fill="#111827" /><rect x="125.75" y="89.38" width="3.05" height="3.05" rx="1.2" fill="#111827" /><rect x="129.38" y="89.38" width="3.05" height="3.05" rx="1.2" fill="#111827" /><rect x="23.93" y="93.02" width="3.05" height="3.05" rx="1.2" fill="#111827" /><rect x="27.56" y="93.02" width="3.05" height="3.05" rx="1.2" fill="#111827" /><rect x="42.11" y="93.02" width="3.05" height="3.05" rx="1.2" fill="#111827" /><rect x="45.75" y="93.02" width="3.05" height="3.05" rx="1.2" fill="#111827" /><rect x="56.65" y="93.02" width="3.05" height="3.05" rx="1.2" fill="#111827" /><rect x="60.29" y="93.02" width="3.05" height="3.05" rx="1.2" fill="#111827" /><rect x="78.47" y="93.02" width="3.05" height="3.05" rx="1.2" fill="#111827" /><rect x="82.11" y="93.02" width="3.05" height="3.05" rx="1.2" fill="#111827" /><rect x="93.02" y="93.02" width="3.05" height="3.05" rx="1.2" fill="#111827" /><rect x="100.29" y="93.02" width="3.05" height="3.05" rx="1.2" fill="#111827" /><rect x="107.56" y="93.02" width="3.05" height="3.05" rx="1.2" fill="#111827" /><rect x="118.47" y="93.02" width="3.05" height="3.05" rx="1.2" fill="#111827" /><rect x="122.11" y="93.02" width="3.05" height="3.05" rx="1.2" fill="#111827" /><rect x="125.75" y="93.02" width="3.05" height="3.05" rx="1.2" fill="#111827" /><rect x="20.29" y="96.65" width="3.05" height="3.05" rx="1.2" fill="#111827" /><rect x="23.93" y="96.65" width="3.05" height="3.05" rx="1.2" fill="#111827" /><rect x="27.56" y="96.65" width="3.05" height="3.05" rx="1.2" fill="#111827" /><rect x="31.2" y="96.65" width="3.05" height="3.05" rx="1.2" fill="#111827" /><rect x="34.84" y="96.65" width="3.05" height="3.05" rx="1.2" fill="#111827" /><rect x="56.65" y="96.65" width="3.05" height="3.05" rx="1.2" fill="#111827" /><rect x="60.29" y="96.65" width="3.05" height="3.05" rx="1.2" fill="#111827" /><rect x="63.93" y="96.65" width="3.05" height="3.05" rx="1.2" fill="#111827" /><rect x="78.47" y="96.65" width="3.05" height="3.05" rx="1.2" fill="#111827" /><rect x="85.75" y="96.65" width="3.05" height="3.05" rx="1.2" fill="#111827" /><rect x="89.38" y="96.65" width="3.05" height="3.05" rx="1.2" fill="#111827" /><rect x="96.65" y="96.65" width="3.05" height="3.05" rx="1.2" fill="#111827" /><rect x="111.2" y="96.65" width="3.05" height="3.05" rx="1.2" fill="#111827" /><rect x="114.84" y="96.65" width="3.05" height="3.05" rx="1.2" fill="#111827" /><rect x="122.11" y="96.65" width="3.05" height="3.05" rx="1.2" fill="#111827" /><rect x="125.75" y="96.65" width="3.05" height="3.05" rx="1.2" fill="#111827" /><rect x="129.38" y="96.65" width="3.05" height="3.05" rx="1.2" fill="#111827" /><rect x="20.29" y="100.29" width="3.05" height="3.05" rx="1.2" fill="#111827" /><rect x="27.56" y="100.29" width="3.05" height="3.05" rx="1.2" fill="#111827" /><rect x="31.2" y="100.29" width="3.05" height="3.05" rx="1.2" fill="#111827" /><rect x="34.84" y="100.29" width="3.05" height="3.05" rx="1.2" fill="#111827" /><rect x="42.11" y="100.29" width="3.05" height="3.05" rx="1.2" fill="#111827" /><rect x="45.75" y="100.29" width="3.05" height="3.05" rx="1.2" fill="#111827" /><rect x="49.38" y="100.29" width="3.05" height="3.05" rx="1.2" fill="#111827" /><rect x="60.29" y="100.29" width="3.05" height="3.05" rx="1.2" fill="#111827" /><rect x="63.93" y="100.29" width="3.05" height="3.05" rx="1.2" fill="#111827" /><rect x="67.56" y="100.29" width="3.05" height="3.05" rx="1.2" fill="#111827" /><rect x="71.2" y="100.29" width="3.05" height="3.05" rx="1.2" fill="#111827" /><rect x="74.84" y="100.29" width="3.05" height="3.05" rx="1.2" fill="#111827" /><rect x="78.47" y="100.29" width="3.05" height="3.05" rx="1.2" fill="#111827" /><rect x="89.38" y="100.29" width="3.05" height="3.05" rx="1.2" fill="#111827" /><rect x="100.29" y="100.29" width="3.05" height="3.05" rx="1.2" fill="#111827" /><rect x="103.93" y="100.29" width="3.05" height="3.05" rx="1.2" fill="#111827" /><rect x="107.56" y="100.29" width="3.05" height="3.05" rx="1.2" fill="#111827" /><rect x="122.11" y="100.29" width="3.05" height="3.05" rx="1.2" fill="#111827" /><rect x="125.75" y="100.29" width="3.05" height="3.05" rx="1.2" fill="#111827" /><rect x="133.02" y="100.29" width="3.05" height="3.05" rx="1.2" fill="#111827" /><rect x="20.29" y="103.93" width="3.05" height="3.05" rx="1.2" fill="#111827" /><rect x="34.84" y="103.93" width="3.05" height="3.05" rx="1.2" fill="#111827" /><rect x="49.38" y="103.93" width="3.05" height="3.05" rx="1.2" fill="#111827" /><rect x="56.65" y="103.93" width="3.05" height="3.05" rx="1.2" fill="#111827" /><rect x="60.29" y="103.93" width="3.05" height="3.05" rx="1.2" fill="#111827" /><rect x="67.56" y="103.93" width="3.05" height="3.05" rx="1.2" fill="#111827" /><rect x="74.84" y="103.93" width="3.05" height="3.05" rx="1.2" fill="#111827" /><rect x="78.47" y="103.93" width="3.05" height="3.05" rx="1.2" fill="#111827" /><rect x="82.11" y="103.93" width="3.05" height="3.05" rx="1.2" fill="#111827" /><rect x="85.75" y="103.93" width="3.05" height="3.05" rx="1.2" fill="#111827" /><rect x="93.02" y="103.93" width="3.05" height="3.05" rx="1.2" fill="#111827" /><rect x="100.29" y="103.93" width="3.05" height="3.05" rx="1.2" fill="#111827" /><rect x="103.93" y="103.93" width="3.05" height="3.05" rx="1.2" fill="#111827" /><rect x="118.47" y="103.93" width="3.05" height="3.05" rx="1.2" fill="#111827" /><rect x="125.75" y="103.93" width="3.05" height="3.05" rx="1.2" fill="#111827" /><rect x="129.38" y="103.93" width="3.05" height="3.05" rx="1.2" fill="#111827" /><rect x="136.65" y="103.93" width="3.05" height="3.05" rx="1.2" fill="#111827" /><rect x="20.29" y="107.56" width="3.05" height="3.05" rx="1.2" fill="#111827" /><rect x="23.93" y="107.56" width="3.05" height="3.05" rx="1.2" fill="#111827" /><rect x="42.11" y="107.56" width="3.05" height="3.05" rx="1.2" fill="#111827" /><rect x="60.29" y="107.56" width="3.05" height="3.05" rx="1.2" fill="#111827" /><rect x="82.11" y="107.56" width="3.05" height="3.05" rx="1.2" fill="#111827" /><rect x="107.56" y="107.56" width="3.05" height="3.05" rx="1.2" fill="#111827" /><rect x="111.2" y="107.56" width="3.05" height="3.05" rx="1.2" fill="#111827" /><rect x="114.84" y="107.56" width="3.05" height="3.05" rx="1.2" fill="#111827" /><rect x="118.47" y="107.56" width="3.05" height="3.05" rx="1.2" fill="#111827" /><rect x="122.11" y="107.56" width="3.05" height="3.05" rx="1.2" fill="#111827" /><rect x="133.02" y="107.56" width="3.05" height="3.05" rx="1.2" fill="#111827" /><rect x="136.65" y="107.56" width="3.05" height="3.05" rx="1.2" fill="#111827" /><rect x="49.38" y="111.2" width="3.05" height="3.05" rx="1.2" fill="#111827" /><rect x="53.02" y="111.2" width="3.05" height="3.05" rx="1.2" fill="#111827" /><rect x="63.93" y="111.2" width="3.05" height="3.05" rx="1.2" fill="#111827" /><rect x="67.56" y="111.2" width="3.05" height="3.05" rx="1.2" fill="#111827" /><rect x="71.2" y="111.2" width="3.05" height="3.05" rx="1.2" fill="#111827" /><rect x="82.11" y="111.2" width="3.05" height="3.05" rx="1.2" fill="#111827" /><rect x="85.75" y="111.2" width="3.05" height="3.05" rx="1.2" fill="#111827" /><rect x="100.29" y="111.2" width="3.05" height="3.05" rx="1.2" fill="#111827" /><rect x="107.56" y="111.2" width="3.05" height="3.05" rx="1.2" fill="#111827" /><rect x="122.11" y="111.2" width="3.05" height="3.05" rx="1.2" fill="#111827" /><rect x="129.38" y="111.2" width="3.05" height="3.05" rx="1.2" fill="#111827" /><rect x="133.02" y="111.2" width="3.05" height="3.05" rx="1.2" fill="#111827" /><rect x="136.65" y="111.2" width="3.05" height="3.05" rx="1.2" fill="#111827" /><rect x="53.02" y="114.84" width="3.05" height="3.05" rx="1.2" fill="#111827" /><rect x="56.65" y="114.84" width="3.05" height="3.05" rx="1.2" fill="#111827" /><rect x="63.93" y="114.84" width="3.05" height="3.05" rx="1.2" fill="#111827" /><rect x="74.84" y="114.84" width="3.05" height="3.05" rx="1.2" fill="#111827" /><rect x="82.11" y="114.84" width="3.05" height="3.05" rx="1.2" fill="#111827" /><rect x="85.75" y="114.84" width="3.05" height="3.05" rx="1.2" fill="#111827" /><rect x="93.02" y="114.84" width="3.05" height="3.05" rx="1.2" fill="#111827" /><rect x="96.65" y="114.84" width="3.05" height="3.05" rx="1.2" fill="#111827" /><rect x="103.93" y="114.84" width="3.05" height="3.05" rx="1.2" fill="#111827" /><rect x="107.56" y="114.84" width="3.05" height="3.05" rx="1.2" fill="#111827" /><rect x="114.84" y="114.84" width="3.05" height="3.05" rx="1.2" fill="#111827" /><rect x="122.11" y="114.84" width="3.05" height="3.05" rx="1.2" fill="#111827" /><rect x="125.75" y="114.84" width="3.05" height="3.05" rx="1.2" fill="#111827" /><rect x="129.38" y="114.84" width="3.05" height="3.05" rx="1.2" fill="#111827" /><rect x="133.02" y="114.84" width="3.05" height="3.05" rx="1.2" fill="#111827" /><rect x="49.38" y="118.47" width="3.05" height="3.05" rx="1.2" fill="#111827" /><rect x="53.02" y="118.47" width="3.05" height="3.05" rx="1.2" fill="#111827" /><rect x="60.29" y="118.47" width="3.05" height="3.05" rx="1.2" fill="#111827" /><rect x="71.2" y="118.47" width="3.05" height="3.05" rx="1.2" fill="#111827" /><rect x="74.84" y="118.47" width="3.05" height="3.05" rx="1.2" fill="#111827" /><rect x="82.11" y="118.47" width="3.05" height="3.05" rx="1.2" fill="#111827" /><rect x="93.02" y="118.47" width="3.05" height="3.05" rx="1.2" fill="#111827" /><rect x="107.56" y="118.47" width="3.05" height="3.05" rx="1.2" fill="#111827" /><rect x="122.11" y="118.47" width="3.05" height="3.05" rx="1.2" fill="#111827" /><rect x="125.75" y="118.47" width="3.05" height="3.05" rx="1.2" fill="#111827" /><rect x="129.38" y="118.47" width="3.05" height="3.05" rx="1.2" fill="#111827" /><rect x="133.02" y="118.47" width="3.05" height="3.05" rx="1.2" fill="#111827" /><rect x="56.65" y="122.11" width="3.05" height="3.05" rx="1.2" fill="#111827" /><rect x="71.2" y="122.11" width="3.05" height="3.05" rx="1.2" fill="#111827" /><rect x="74.84" y="122.11" width="3.05" height="3.05" rx="1.2" fill="#111827" /><rect x="82.11" y="122.11" width="3.05" height="3.05" rx="1.2" fill="#111827" /><rect x="85.75" y="122.11" width="3.05" height="3.05" rx="1.2" fill="#111827" /><rect x="89.38" y="122.11" width="3.05" height="3.05" rx="1.2" fill="#111827" /><rect x="93.02" y="122.11" width="3.05" height="3.05" rx="1.2" fill="#111827" /><rect x="96.65" y="122.11" width="3.05" height="3.05" rx="1.2" fill="#111827" /><rect x="107.56" y="122.11" width="3.05" height="3.05" rx="1.2" fill="#111827" /><rect x="111.2" y="122.11" width="3.05" height="3.05" rx="1.2" fill="#111827" /><rect x="114.84" y="122.11" width="3.05" height="3.05" rx="1.2" fill="#111827" /><rect x="118.47" y="122.11" width="3.05" height="3.05" rx="1.2" fill="#111827" /><rect x="122.11" y="122.11" width="3.05" height="3.05" rx="1.2" fill="#111827" /><rect x="133.02" y="122.11" width="3.05" height="3.05" rx="1.2" fill="#111827" /><rect x="136.65" y="122.11" width="3.05" height="3.05" rx="1.2" fill="#111827" /><rect x="56.65" y="125.75" width="3.05" height="3.05" rx="1.2" fill="#111827" /><rect x="60.29" y="125.75" width="3.05" height="3.05" rx="1.2" fill="#111827" /><rect x="63.93" y="125.75" width="3.05" height="3.05" rx="1.2" fill="#111827" /><rect x="71.2" y="125.75" width="3.05" height="3.05" rx="1.2" fill="#111827" /><rect x="78.47" y="125.75" width="3.05" height="3.05" rx="1.2" fill="#111827" /><rect x="82.11" y="125.75" width="3.05" height="3.05" rx="1.2" fill="#111827" /><rect x="85.75" y="125.75" width="3.05" height="3.05" rx="1.2" fill="#111827" /><rect x="89.38" y="125.75" width="3.05" height="3.05" rx="1.2" fill="#111827" /><rect x="93.02" y="125.75" width="3.05" height="3.05" rx="1.2" fill="#111827" /><rect x="96.65" y="125.75" width="3.05" height="3.05" rx="1.2" fill="#111827" /><rect x="100.29" y="125.75" width="3.05" height="3.05" rx="1.2" fill="#111827" /><rect x="111.2" y="125.75" width="3.05" height="3.05" rx="1.2" fill="#111827" /><rect x="118.47" y="125.75" width="3.05" height="3.05" rx="1.2" fill="#111827" /><rect x="122.11" y="125.75" width="3.05" height="3.05" rx="1.2" fill="#111827" /><rect x="129.38" y="125.75" width="3.05" height="3.05" rx="1.2" fill="#111827" /><rect x="133.02" y="125.75" width="3.05" height="3.05" rx="1.2" fill="#111827" /><rect x="56.65" y="129.38" width="3.05" height="3.05" rx="1.2" fill="#111827" /><rect x="60.29" y="129.38" width="3.05" height="3.05" rx="1.2" fill="#111827" /><rect x="63.93" y="129.38" width="3.05" height="3.05" rx="1.2" fill="#111827" /><rect x="67.56" y="129.38" width="3.05" height="3.05" rx="1.2" fill="#111827" /><rect x="71.2" y="129.38" width="3.05" height="3.05" rx="1.2" fill="#111827" /><rect x="78.47" y="129.38" width="3.05" height="3.05" rx="1.2" fill="#111827" /><rect x="82.11" y="129.38" width="3.05" height="3.05" rx="1.2" fill="#111827" /><rect x="85.75" y="129.38" width="3.05" height="3.05" rx="1.2" fill="#111827" /><rect x="93.02" y="129.38" width="3.05" height="3.05" rx="1.2" fill="#111827" /><rect x="103.93" y="129.38" width="3.05" height="3.05" rx="1.2" fill="#111827" /><rect x="107.56" y="129.38" width="3.05" height="3.05" rx="1.2" fill="#111827" /><rect x="122.11" y="129.38" width="3.05" height="3.05" rx="1.2" fill="#111827" /><rect x="129.38" y="129.38" width="3.05" height="3.05" rx="1.2" fill="#111827" /><rect x="133.02" y="129.38" width="3.05" height="3.05" rx="1.2" fill="#111827" /><rect x="136.65" y="129.38" width="3.05" height="3.05" rx="1.2" fill="#111827" /><rect x="56.65" y="133.02" width="3.05" height="3.05" rx="1.2" fill="#111827" /><rect x="67.56" y="133.02" width="3.05" height="3.05" rx="1.2" fill="#111827" /><rect x="71.2" y="133.02" width="3.05" height="3.05" rx="1.2" fill="#111827" /><rect x="82.11" y="133.02" width="3.05" height="3.05" rx="1.2" fill="#111827" /><rect x="96.65" y="133.02" width="3.05" height="3.05" rx="1.2" fill="#111827" /><rect x="114.84" y="133.02" width="3.05" height="3.05" rx="1.2" fill="#111827" /><rect x="129.38" y="133.02" width="3.05" height="3.05" rx="1.2" fill="#111827" /><rect x="53.02" y="136.65" width="3.05" height="3.05" rx="1.2" fill="#111827" /><rect x="56.65" y="136.65" width="3.05" height="3.05" rx="1.2" fill="#111827" /><rect x="63.93" y="136.65" width="3.05" height="3.05" rx="1.2" fill="#111827" /><rect x="67.56" y="136.65" width="3.05" height="3.05" rx="1.2" fill="#111827" /><rect x="74.84" y="136.65" width="3.05" height="3.05" rx="1.2" fill="#111827" /><rect x="96.65" y="136.65" width="3.05" height="3.05" rx="1.2" fill="#111827" /><rect x="100.29" y="136.65" width="3.05" height="3.05" rx="1.2" fill="#111827" /><rect x="103.93" y="136.65" width="3.05" height="3.05" rx="1.2" fill="#111827" /><rect x="107.56" y="136.65" width="3.05" height="3.05" rx="1.2" fill="#111827" /><rect x="111.2" y="136.65" width="3.05" height="3.05" rx="1.2" fill="#111827" /><rect x="125.75" y="136.65" width="3.05" height="3.05" rx="1.2" fill="#111827" /><rect x="129.38" y="136.65" width="3.05" height="3.05" rx="1.2" fill="#111827" /><rect x="133.02" y="136.65" width="3.05" height="3.05" rx="1.2" fill="#111827" /><g transform="translate(20 20)"><rect width="25.45" height="25.45" rx="3.27" fill="#111827" /><rect x="3.64" y="3.64" width="18.18" height="18.18" rx="2.36" fill="#FFFFFF" /><rect x="7.27" y="7.27" width="10.91" height="10.91" rx="2.04" fill="#111827" /></g><g transform="translate(114.55 20)"><rect width="25.45" height="25.45" rx="3.27" fill="#111827" /><rect x="3.64" y="3.64" width="18.18" height="18.18" rx="2.36" fill="#FFFFFF" /><rect x="7.27" y="7.27" width="10.91" height="10.91" rx="2.04" fill="#111827" /></g><g transform="translate(20 114.55)"><rect width="25.45" height="25.45" rx="3.27" fill="#111827" /><rect x="3.64" y="3.64" width="18.18" height="18.18" rx="2.36" fill="#FFFFFF" /><rect x="7.27" y="7.27" width="10.91" height="10.91" rx="2.04" fill="#111827" /></g><circle cx="19.2" cy="19.2" r="3.84" fill="#2BFFCF" opacity="0.9" filter="url(#qr-807906220-frame-glow)"><animate attributeName="opacity" values="0.72;1;0.72" dur="3.6s" repeatCount="indefinite" /></circle><circle cx="140.8" cy="140.8" r="4.16" fill="#7A7CFF" opacity="0.86" filter="url(#qr-807906220-frame-glow)"><animate attributeName="opacity" values="0.68;0.96;0.68" dur="4.2s" repeatCount="indefinite" /></circle><path d="M 25.6 145.6 H 54.4" stroke="#2BFFCF" stroke-width="3" stroke-linecap="round" opacity="0.88" /><path d="M 105.6 14.4 H 134.4" stroke="#7A7CFF" stroke-width="3" stroke-linecap="round" opacity="0.88" /></svg>