<svg width="1280" height="360" viewBox="0 0 1280 360" fill="none" xmlns="http://www.w3.org/2000/svg" role="img" aria-labelledby="hero-1965539885-title hero-1965539885-desc"><title id="hero-1965539885-title">ice breaker</title><desc id="hero-1965539885-desc">Build systems, mini-program workflows, and profile-grade interfaces.</desc><defs><linearGradient id="hero-1965539885-bg" x1="0" y1="0" x2="1280" y2="360" gradientUnits="userSpaceOnUse"><stop offset="0%" stop-color="#030711" /><stop offset="38%" stop-color="#0A1B3D" /><stop offset="72%" stop-color="#15104A" /><stop offset="100%" stop-color="#02050D" /><animate attributeName="x1" values="0;153.6;0" dur="12s" repeatCount="indefinite" /><animate attributeName="y2" values="360;295.2;360" dur="14s" repeatCount="indefinite" /></linearGradient><radialGradient id="hero-1965539885-glow-a" cx="0" cy="0" r="1" gradientUnits="userSpaceOnUse" gradientTransform="translate(230.39999999999998 57.6) rotate(48) scale(409.6 244.8)"><stop offset="0%" stop-color="#2BFFCF" stop-opacity="0.78" /><stop offset="100%" stop-color="#31D0AA" stop-opacity="0" /><animateTransform attributeName="gradientTransform" type="translate" additive="sum" values="0 0;30.72 10.08;0 0" dur="8s" repeatCount="indefinite" /></radialGradient><radialGradient id="hero-1965539885-glow-b" cx="0" cy="0" r="1" gradientUnits="userSpaceOnUse" gradientTransform="translate(1049.6 79.2) rotate(125) scale(256 198.00000000000003)"><stop offset="0%" stop-color="#7A7CFF" stop-opacity="0.72" /><stop offset="100%" stop-color="#5DA9FF" stop-opacity="0" /><animateTransform attributeName="gradientTransform" type="translate" additive="sum" values="0 0;-25.6 7.92;0 0" dur="10s" repeatCount="indefinite" /></radialGradient><linearGradient id="hero-1965539885-scan" x1="0" y1="0" x2="1280" y2="0" gradientUnits="userSpaceOnUse"><stop offset="0%" stop-color="rgba(122,124,255,0)" /><stop offset="50%" stop-color="rgba(122,124,255,0.42)" /><stop offset="100%" stop-color="rgba(43,255,207,0)" /></linearGradient><filter id="hero-1965539885-blur" x="-20%" y="-20%" width="140%" height="140%"><feGaussianBlur stdDeviation="18" /></filter><filter id="hero-1965539885-title-glow" x="-20%" y="-40%" width="160%" height="180%"><feGaussianBlur stdDeviation="6" result="titleBlur" /><feColorMatrix in="titleBlur" type="matrix" values="1 0 0 0 0  0 1 0 0 0.35  0 0 1 0 0.55  0 0 0 1 0" result="titleGlow" /><feMerge><feMergeNode in="titleGlow" /><feMergeNode in="SourceGraphic" /></feMerge></filter></defs><rect width="1280" height="360" rx="28" fill="url(#hero-1965539885-bg)" /><rect width="1280" height="360" rx="28" fill="url(#hero-1965539885-glow-a)" /><rect width="1280" height="360" rx="28" fill="url(#hero-1965539885-glow-b)" /><path d="M48 0V360M96 0V360M144 0V360M192 0V360M240 0V360M288 0V360M336 0V360M384 0V360M432 0V360M480 0V360M528 0V360M576 0V360M624 0V360M672 0V360M720 0V360M768 0V360M816 0V360M864 0V360M912 0V360M960 0V360M1008 0V360M1056 0V360M1104 0V360M1152 0V360M1200 0V360M1248 0V360M0 48H1280M0 96H1280M0 144H1280M0 192H1280M0 240H1280M0 288H1280M0 336H1280" stroke="rgba(133,164,255,0.12)" stroke-width="1" /><rect x="-230.39999999999998" y="0" width="307.2" height="360" fill="url(#hero-1965539885-scan)" opacity="0.55"><animate attributeName="x" values="-281.6;1280" dur="7s" repeatCount="indefinite" /></rect><circle cx="972.8" cy="244.8" r="88" fill="rgba(43,255,207,0.18)" filter="url(#hero-1965539885-blur)"><animate attributeName="opacity" values="0.4;0.95;0.4" dur="4.8s" repeatCount="indefinite" /><animate attributeName="r" values="80;102;80" dur="6.2s" repeatCount="indefinite" /></circle><path d="M 793.6 86.39999999999999 L 1126.4 64.8 L 1075.2 151.2 L 742.4 169.2 Z" fill="rgba(122,124,255,0.16)" stroke="rgba(122,124,255,0.62)"><animateTransform attributeName="transform" type="translate" values="0 0;0 -10;0 0" dur="6.5s" repeatCount="indefinite" /></path><path d="M 870.4000000000001 223.2 C 985.6 194.4, 1075.2 291.6, 1177.6000000000001 248.39999999999998" stroke="rgba(240,244,255,0.54)" stroke-width="2" stroke-linecap="round" stroke-dasharray="10 8"><animate attributeName="stroke-dashoffset" values="0;-44" dur="2.8s" repeatCount="indefinite" /></path><circle cx="1024" cy="100.80000000000001" r="6" fill="#FFD166"><animateTransform attributeName="transform" type="translate" values="0 0;0 -8;0 0" dur="4.2s" repeatCount="indefinite" /><animate attributeName="opacity" values="0.65;1;0.65" dur="2.2s" repeatCount="indefinite" /></circle><circle cx="1100.8" cy="266.4" r="8" fill="#31D0AA"><animateTransform attributeName="transform" type="translate" values="0 0;0 10;0 0" dur="5.4s" repeatCount="indefinite" /><animate attributeName="opacity" values="0.55;1;0.55" dur="2.4s" repeatCount="indefinite" /></circle><rect x="72" y="72" width="184" height="32" rx="16" fill="rgba(10,16,36,0.72)" stroke="#FFD166" /><text x="88" y="93" fill="#FFD166" font-family="'Fira Code', 'JetBrains Mono', monospace" font-size="14">Github Profile Hero</text><text x="72" y="180" fill="#F8FAFC" filter="url(#hero-1965539885-title-glow)" font-family="'Space Grotesk', 'Avenir Next', sans-serif" font-size="52" font-weight="700" letter-spacing="4">ice breaker<animate attributeName="fill" values="#EAFDFF;#B6FFF0;#EAFDFF" dur="2.8s" repeatCount="indefinite" /><animate attributeName="opacity" values="0.88;1;0.88" dur="2.8s" repeatCount="indefinite" /></text><text x="74" y="182" fill="rgba(43,255,207,0.2)" font-family="'Space Grotesk', 'Avenir Next', sans-serif" font-size="52" font-weight="700" letter-spacing="4">ice breaker<animate attributeName="opacity" values="0.14;0.46;0.14" dur="1.9s" repeatCount="indefinite" /></text><circle cx="460" cy="166" r="8" fill="#FFD166"><animate attributeName="r" values="7;10;7" dur="2.4s" repeatCount="indefinite" /><animate attributeName="opacity" values="0.7;1;0.7" dur="1.8s" repeatCount="indefinite" /></circle><text x="72" y="251.99999999999997" fill="rgba(226,232,240,0.92)" font-family="'IBM Plex Sans', 'Segoe UI', sans-serif" font-size="24">Build systems, mini-program workflows, and profile-grade interfaces.</text><text x="72" y="306" fill="rgba(148,163,184,0.92)" font-family="'Fira Code', 'JetBrains Mono', monospace" font-size="16">const profile = createSomethingMemorable()</text><rect x="0" y="0" width="1280" height="360" rx="28" fill="none" stroke="rgba(122,124,255,0.28)"><animate attributeName="stroke-opacity" values="0.25;0.65;0.25" dur="4s" repeatCount="indefinite" /></rect></svg>