<?xml version="1.0" encoding="UTF-8" standalone="no"?>
<svg
   width="320"
   height="320"
   viewBox="0 0 320 320"
   shape-rendering="geometricPrecision"
   version="1.1"
   id="svg211"
   xmlns="http://www.w3.org/2000/svg"
   xmlns:svg="http://www.w3.org/2000/svg">
  <defs
     id="defs211" />
  <g
     transform="translate(0.000000,320.000000) scale(0.100000,-0.100000)"
     fill="#121116"
     stroke="none"
     id="g13">
    <path
       d="M1460 2968 c0 -5 -17 -8 -38 -8 -33 0 -175 -48 -147 -50 19 -1 -132 -78 -165 -84 -3 -1 -21 -11 -42 -24 -25 -15 -35 -28 -31 -40 4 -18 -30 -72 -117 -180 -24 -31 -39 -53 -33 -49 20 12 25 -59 8 -118 -10 -32 -13 -64 -9 -77 4 -13 8 -34 9 -48 1 -14 5 -35 8 -47 3 -13 2 -23 -4 -23 -5 0 -9 -5 -9 -11 0 -5 5 -7 11 -3 8 5 10 -4 7 -29 -2 -21 0 -35 7 -34 5 1 9 -6 8 -17 -1 -10 12 -30 28 -43 20 -17 29 -35 30 -56 2 -27 2 -28 6 -7 6 36 25 84 37 92 6 4 21 8 34 8 13 0 22 6 22 16 0 11 -5 14 -17 9 -40 -17 -52 -16 -61 2 -13 24 -18 85 -8 101 4 6 3 12 -3 12 -15 0 8 58 29 73 9 6 21 23 25 37 4 14 16 36 26 49 11 13 19 29 19 35 1 15 50 70 82 90 33 21 181 49 186 35 3 -6 10 -5 19 3 12 10 18 9 30 -7 8 -12 11 -30 8 -43 -4 -15 -2 -21 5 -17 5 3 10 0 10 -7 0 -8 5 -6 11 5 5 9 15 17 21 17 7 0 22 10 35 22 19 18 23 19 17 5 -6 -16 -1 -15 37 6 83 46 126 43 91 -4 -9 -13 -22 -34 -29 -45 -11 -20 -9 -21 20 -18 18 2 37 6 44 8 6 3 13 0 15 -6 2 -6 24 1 51 16 26 15 47 24 47 20 0 -4 8 1 19 10 27 24 84 32 99 13 7 -8 15 -39 19 -67 5 -43 8 -50 17 -38 10 13 15 14 29 3 9 -7 17 -15 17 -19 0 -4 7 -14 15 -22 8 -9 22 -41 30 -72 9 -31 24 -84 35 -117 20 -59 25 -106 14 -118 -3 -3 -22 0 -42 7 -58 19 -67 13 -68 -47 l-2 -52 13 35 c15 45 41 49 83 11 25 -23 32 -38 33 -68 1 -57 5 -82 13 -90 5 -5 7 8 6 27 -6 78 -1 94 35 118 19 12 41 22 48 22 8 0 14 6 14 13 0 6 6 68 13 137 8 69 13 134 12 145 -2 21 -8 81 -11 103 0 7 -6 10 -12 6 -8 -4 -8 -1 -1 13 9 16 6 26 -18 51 -16 18 -33 32 -38 32 -6 0 -13 7 -16 16 -8 22 32 8 56 -20 15 -17 14 -13 -3 16 -11 21 -25 35 -30 32 -5 -3 -18 -2 -30 1 -16 5 -18 9 -8 21 10 13 8 13 -15 4 -15 -5 -29 -10 -32 -10 -2 0 -4 25 -4 55 0 47 -3 57 -25 71 -17 11 -25 25 -25 45 0 23 -6 32 -26 39 -22 9 -26 15 -22 41 3 16 1 32 -4 35 -4 3 -8 -2 -8 -10 0 -30 -27 -16 -43 22 l-15 37 -1 -37 c-1 -36 -13 -49 -26 -28 -3 5 -13 6 -21 3 -8 -3 -34 8 -57 25 -32 22 -62 33 -117 41 -80 12 -230 11 -230 -1z m560 -153 c0 -8 -2 -15 -4 -15 -2 0 -6 7 -10 15 -3 8 -1 15 4 15 6 0 10 -7 10 -15z"
       id="path1" />
    <path
       d="M1992 2870 c0 -14 2 -19 5 -12 2 6 2 18 0 25 -3 6 -5 1 -5 -13z"
       id="path2" />
    <path
       d="M1796 2218 c3 -4 19 -8 36 -8 17 0 28 3 25 7 -10 9 -67 11 -61 1z"
       id="path3" />
    <path
       d="M1500 2133 c0 -4 5 -15 10 -23 8 -13 10 -13 10 2 0 9 -4 20 -10 23 -5 3 -10 3 -10 -2z"
       id="path4" />
    <path
       d="M1555 2128 c-19 -11 -19 -11 0 -18 24 -9 35 -4 35 16 0 17 -8 17 -35 2z"
       id="path5" />
    <path
       d="M1308 2072 c6 -16 44 -12 49 5 3 8 -6 12 -25 10 -20 -1 -28 -6 -24 -15z"
       id="path6" />
    <path
       d="M1607 2060 c6 -23 10 -50 12 -76 1 -7 10 -22 21 -35 l20 -24 -15 30 c-8 17 -15 39 -15 50 -1 11 -7 34 -15 50 -12 24 -14 25 -8 5z"
       id="path7" />
    <path
       d="M1775 2070 c-4 -6 5 -10 19 -10 14 0 26 5 26 10 0 6 -9 10 -19 10 -11 0 -23 -4 -26 -10z"
       id="path8" />
    <path
       d="M1473 2029 c-7 -18 -11 -35 -8 -37 6 -6 27 48 23 60 -2 5 -9 -6 -15 -23z"
       id="path9" />
    <path
       d="M1961 1994 c0 -11 3 -14 6 -6 3 7 2 16 -1 19 -3 4 -6 -2 -5 -13z"
       id="path10" />
    <path
       d="M1327 1644 c-8 -8 1 -24 14 -24 5 0 9 7 9 15 0 15 -12 20 -23 9z"
       id="path11" />
    <path
       d="M1690 1624 c0 -9 7 -14 17 -12 25 5 28 28 4 28 -12 0 -21 -6 -21 -16z"
       id="path12" />
    <path
       d="M2100 1200 c0 -4 17 -21 37 -38 l37 -29 -22 -28 c-123 -156 -236 -234 -442 -305 -84 -29 -108 -33 -205 -34 -86 -1 -120 3 -158 18 -44 18 -75 49 -69 70 2 4 -3 18 -11 30 -22 34 -28 87 -16 142 7 29 9 64 5 79 l-7 26 -32 -21 c-18 -12 -61 -35 -97 -52 -36 -17 -67 -33 -70 -37 -3 -3 -14 -8 -25 -9 -35 -7 -89 -39 -152 -94 -112 -96 -180 -200 -195 -298 -17 -118 -48 -401 -54 -507 l-7 -113 1286 0 c708 0 1287 2 1287 5 0 2 -10 30 -22 62 -16 41 -22 80 -23 134 l0 76 -80 132 c-79 130 -167 244 -268 349 -28 28 -56 52 -61 52 -5 0 -30 22 -56 49 -26 27 -86 74 -134 105 -48 31 -97 65 -108 76 -12 11 -42 27 -67 37 -25 9 -49 22 -54 29 -21 34 -217 119 -217 94z"
       id="path13" />
  </g>
  <g
     transform="translate(0.000000,320.000000) scale(0.100000,-0.100000)"
     fill="#C1A397"
     stroke="none"
     id="g27">
    <path
       d="M1195 2460 c-55 -40 -75 -61 -75 -77 0 -8 -21 -46 -47 -85 -31 -49 -47 -84 -49 -111 -3 -38 -2 -39 24 -31 15 4 52 13 82 20 30 7 45 13 33 13 -13 1 -23 6 -23 11 0 18 52 60 84 68 71 19 232 -32 273 -85 36 -47 83 -46 113 1 21 34 46 47 120 61 66 12 70 15 68 43 -1 15 2 34 7 42 7 12 10 10 15 -10 l6 -25 19 32 c22 37 35 34 35 -7 0 -39 14 -45 29 -12 11 23 10 29 -8 43 -12 10 -21 22 -21 28 0 6 -4 11 -10 11 -5 0 -10 -5 -10 -11 0 -5 -4 -7 -10 -4 -5 3 -10 1 -10 -4 0 -6 -7 -11 -15 -11 -8 0 -15 5 -15 10 0 6 4 10 9 10 5 0 12 8 15 17 12 30 -20 43 -88 37 -118 -10 -187 -5 -194 14 -4 12 -62 5 -79 -10 -7 -6 -13 -7 -13 -2 0 4 -11 -3 -25 -16 -21 -20 -25 -21 -25 -6 0 9 -4 15 -8 12 -5 -3 -16 8 -25 24 -18 30 -28 32 -64 12 -19 -11 -23 -10 -23 3 0 8 -6 15 -14 15 -8 0 -20 2 -28 5 -7 2 -31 -9 -53 -25z"
       id="path14" />
    <path
       d="M1848 2293 c-22 -6 -12 -33 13 -33 10 0 19 6 19 14 0 18 -10 24 -32 19z"
       id="path15" />
    <path
       d="M1225 2150 c19 -8 19 -9 1 -9 -11 -1 -16 -4 -13 -8 4 -3 2 -12 -3 -18 -8 -9 11 -12 75 -11 83 1 85 2 64 19 -19 15 -40 22 -61 18 -5 0 -8 4 -8 9 0 6 -17 10 -37 9 -31 0 -34 -2 -18 -9z"
       id="path16" />
    <path
       d="M1740 2115 c-24 -14 -22 -14 38 -15 47 0 63 3 60 13 -6 18 -69 19 -98 2z"
       id="path17" />
    <path
       d="M1134 2048 c7 -77 24 -94 102 -104 72 -9 173 1 189 18 16 17 47 110 39 117 -3 3 -14 -4 -24 -16 -9 -12 -20 -20 -23 -17 -3 3 -15 -3 -26 -13 -29 -25 -63 -26 -56 -2 6 16 -2 18 -95 15 -100 -3 -117 3 -89 31 12 12 4 33 -13 33 -7 0 -9 -20 -4 -62z"
       id="path18" />
    <path
       d="M1030 2080 c-20 -12 -25 -129 -10 -201 7 -32 17 -56 22 -53 6 4 7 -9 3 -30 -5 -22 -3 -36 3 -36 14 0 21 -48 12 -82 -10 -32 13 -126 34 -143 7 -5 15 -14 16 -20 11 -30 102 -116 117 -110 7 2 12 0 10 -6 -3 -12 99 -70 108 -61 3 4 9 2 13 -3 34 -48 232 -54 277 -9 8 8 15 13 15 9 0 -3 13 1 29 10 23 12 29 21 28 42 -2 18 5 35 18 46 14 13 16 20 8 23 -7 3 -13 12 -13 20 0 11 4 10 20 -3 11 -10 20 -25 20 -35 0 -21 1 -21 37 -6 38 16 69 48 78 78 4 14 14 32 21 41 16 17 16 76 1 96 -10 14 9 83 23 83 5 0 12 20 16 45 3 25 10 48 15 50 13 9 -11 64 -29 64 -9 0 -65 2 -124 5 -60 3 -108 1 -108 -3 0 -5 8 -19 19 -32 30 -39 52 -89 45 -101 -4 -6 -3 -8 3 -5 12 7 70 -51 73 -73 5 -35 -2 -47 -37 -59 -42 -15 -53 -26 -53 -56 0 -31 -90 -123 -117 -120 -30 2 -38 11 -18 19 11 4 14 2 9 -6 -4 -6 -3 -8 4 -5 12 8 4 47 -9 47 -5 0 -9 -7 -9 -15 0 -8 -9 -16 -20 -17 -66 -6 -87 -4 -105 9 -20 13 -20 14 3 19 12 4 22 10 22 15 0 5 10 9 23 9 13 0 31 6 41 13 16 12 5 14 -73 14 -89 1 -92 1 -135 37 -24 20 -52 36 -61 36 -10 0 -15 7 -13 18 2 12 17 19 48 24 68 10 139 9 160 -2 12 -6 21 -6 25 -1 3 6 37 13 76 17 44 4 68 11 66 18 -2 6 -13 12 -25 14 -12 2 -22 8 -22 13 0 6 -19 9 -43 8 -24 -2 -48 0 -54 4 -7 4 -31 10 -55 13 -51 6 -98 23 -98 35 0 5 6 6 14 3 8 -3 25 0 38 7 21 12 53 13 103 5 27 -4 64 13 69 33 11 42 16 91 9 91 -5 0 -9 26 -10 58 -2 68 -17 112 -38 112 -9 0 -31 -33 -55 -79 -26 -53 -47 -82 -62 -87 -12 -3 -67 -7 -123 -7 -137 0 -171 16 -197 93 -9 30 -18 56 -18 58 0 2 -4 1 -9 -3 -5 -3 -16 1 -24 9 -8 9 -19 11 -27 6z m284 -282 c-3 -12 -19 -39 -35 -61 -16 -22 -31 -55 -35 -74 -6 -32 -7 -33 -25 -17 -30 27 -23 51 38 114 31 33 58 60 61 60 2 0 0 -10 -4 -22z m-228 -185 c-11 -11 -19 6 -11 24 8 17 8 17 12 0 3 -10 2 -21 -1 -24z"
       id="path19" />
    <path
       d="M1734 2025 c6 -17 -20 -20 -43 -6 -7 5 -22 6 -32 4 -22 -6 -18 -34 10 -64 36 -39 207 -51 246 -19 16 13 21 45 6 35 -5 -3 -12 -1 -16 5 -3 5 -19 10 -36 10 -19 0 -29 5 -29 15 0 20 -32 35 -75 35 -29 0 -36 -3 -31 -15z m41 -25 c3 -5 2 -10 -4 -10 -5 0 -13 5 -16 10 -3 6 -2 10 4 10 5 0 13 -4 16 -10z"
       id="path20" />
    <path
       d="M947 1973 c-23 -22 6 -153 33 -153 6 0 4 10 -5 23 -11 17 -14 39 -10 80 5 52 -1 68 -18 50z"
       id="path21" />
    <path
       d="M985 1770 c-3 -5 -1 -10 4 -10 6 0 11 5 11 10 0 6 -2 10 -4 10 -3 0 -8 -4 -11 -10z"
       id="path22" />
    <path
       d="M1725 1760 c-3 -5 -1 -10 4 -10 6 0 11 5 11 10 0 6 -2 10 -4 10 -3 0 -8 -4 -11 -10z"
       id="path23" />
    <path
       d="M984 1742 c-7 -4 -8 -15 -3 -29 11 -31 16 -29 16 7 0 17 -1 30 -1 30 -1 0 -6 -4 -12 -8z"
       id="path24" />
    <path
       d="M1370 1632 c0 -15 38 -35 75 -39 16 -2 33 -7 37 -11 9 -9 122 3 139 14 23 14 -1 29 -47 30 -27 1 -84 5 -126 9 -55 6 -78 4 -78 -3z"
       id="path25" />
    <path
       d="M1646 1621 c-4 -7 -5 -15 -2 -18 9 -9 19 4 14 18 -4 11 -6 11 -12 0z"
       id="path26" />
    <path
       d="M1334 1172 c-14 -9 -29 -51 -26 -72 6 -37 50 -110 75 -125 28 -17 29 -16 58 11 33 31 46 30 20 -2 -23 -29 -58 -47 -66 -34 -4 6 -11 8 -16 5 -10 -7 -26 5 -70 49 -29 28 -30 26 -11 -24 8 -22 9 -28 11 -47 1 -14 3 -15 10 -5 6 10 12 0 22 -31 7 -25 15 -45 18 -45 4 0 15 0 26 -1 16 -1 17 -3 5 -11 -12 -8 -12 -10 4 -16 10 -4 21 -2 26 5 5 9 14 6 33 -13 16 -15 32 -23 41 -20 9 3 16 2 16 -3 0 -15 153 3 225 27 104 35 218 95 275 146 45 41 49 48 38 67 -6 12 -18 27 -27 34 -19 15 -61 17 -61 3 0 -5 -7 -10 -16 -10 -11 0 -14 6 -9 20 9 28 -4 68 -16 49 -7 -11 -9 -10 -9 4 0 9 -7 17 -16 17 -9 0 -12 5 -8 12 5 8 3 8 -7 2 -8 -5 -30 -9 -49 -10 -19 -1 -90 -11 -158 -23 -117 -21 -126 -21 -180 -6 -31 9 -69 19 -84 22 -15 3 -33 11 -39 19 -13 16 -19 17 -35 6z"
       id="path27" />
  </g>
  <g
     transform="translate(0.000000,320.000000) scale(0.100000,-0.100000)"
     fill="#AA877A"
     stroke="none"
     id="g73">
    <path
       d="M1248 2515 c-3 -3 -15 -8 -28 -10 -31 -6 -70 -33 -77 -53 -3 -9 -12 -24 -20 -33 -7 -9 -15 -26 -18 -37 -5 -26 -21 -56 -57 -106 -15 -21 -28 -46 -27 -55 0 -14 1 -14 6 -1 3 8 26 45 49 82 24 37 44 73 44 80 1 19 20 39 70 75 48 32 100 36 100 6 0 -11 4 -12 23 -1 36 20 46 18 64 -12 9 -16 20 -27 25 -24 4 3 8 -3 8 -12 0 -15 4 -14 25 6 14 13 25 20 25 16 0 -5 6 -3 13 3 8 6 29 12 48 13 33 3 58 26 59 55 0 22 -82 -15 -122 -54 l-38 -37 0 27 c0 18 -4 25 -13 21 -7 -2 -19 7 -27 21 -16 31 -27 31 -58 3 l-24 -23 7 28 c7 25 5 27 -22 27 -16 0 -32 -2 -35 -5z"
       id="path28" />
    <path
       d="M1745 2476 c-33 -12 -70 -27 -82 -34 -15 -8 -23 -9 -23 -2 0 5 -16 10 -35 10 -19 0 -35 -4 -35 -9 0 -13 69 -16 176 -7 68 6 100 -7 88 -37 -3 -9 -10 -17 -15 -17 -5 0 -9 -4 -9 -10 0 -5 7 -10 15 -10 8 0 15 5 15 11 0 5 5 7 10 4 6 -3 10 -1 10 4 0 6 5 11 10 11 6 0 10 -5 10 -11 0 -6 9 -18 21 -28 18 -14 19 -20 8 -43 -15 -33 -29 -27 -29 12 0 41 -13 44 -35 7 l-19 -32 -6 25 c-6 23 -7 24 -17 6 -6 -10 -8 -28 -5 -38 3 -11 -1 -24 -9 -29 -9 -6 8 -9 47 -9 47 0 65 -4 78 -19 10 -11 31 -25 47 -31 16 -7 26 -16 23 -22 -6 -10 14 -38 27 -38 5 0 7 24 5 53 -6 63 -28 147 -39 147 -4 0 -12 12 -17 26 -6 14 -14 23 -20 19 -5 -3 -19 17 -31 45 -19 45 -29 55 -51 51 -5 0 -8 4 -8 9 0 15 -38 10 -105 -14z m135 -202 c0 -8 -9 -14 -19 -14 -25 0 -35 27 -13 33 22 5 32 -1 32 -19z"
       id="path29" />
    <path
       d="M1283 2263 c9 -2 25 -2 35 0 9 3 1 5 -18 5 -19 0 -27 -2 -17 -5z"
       id="path30" />
    <path
       d="M1738 2243 c7 -3 16 -2 19 1 4 3 -2 6 -13 5 -11 0 -14 -3 -6 -6z"
       id="path31" />
    <path
       d="M1150 2221 c-5 -11 -10 -22 -10 -24 0 -11 77 -16 110 -8 31 8 27 9 -33 10 -64 1 -67 2 -57 21 6 11 8 20 6 20 -3 0 -10 -9 -16 -19z"
       id="path32" />
    <path
       d="M1655 2226 c-30 -13 -76 -76 -56 -76 6 0 18 14 26 30 9 17 20 28 25 25 5 -3 12 0 15 6 4 6 17 14 29 19 12 5 15 9 6 9 -8 0 -28 -6 -45 -13z"
       id="path33" />
    <path
       d="M1461 2208 c9 -7 21 -23 28 -35 6 -13 17 -23 23 -23 14 0 -35 63 -53 68 -10 2 -10 0 2 -10z"
       id="path34" />
    <path
       d="M1010 2177 c0 -14 4 -28 9 -32 6 -3 8 6 5 22 -7 37 -14 42 -14 10z"
       id="path35" />
    <path
       d="M1298 2193 c7 -3 16 -2 19 1 4 3 -2 6 -13 5 -11 0 -14 -3 -6 -6z"
       id="path36" />
    <path
       d="M1715 2180 c-22 -6 -7 -8 51 -9 45 0 97 -3 115 -6 l34 -5 -30 14 c-32 16 -120 19 -170 6z"
       id="path37" />
    <path
       d="M1163 2149 c-33 -10 -51 -43 -40 -71 3 -7 6 -3 6 10 1 23 15 29 27 11 3 -6 1 -16 -5 -22 -21 -21 -11 -32 32 -33 23 -1 30 1 15 3 -16 2 -28 8 -28 12 0 14 24 31 45 32 19 0 19 1 1 8 -14 5 -16 10 -8 15 7 4 10 12 7 17 -4 5 2 9 12 10 16 0 16 1 -2 9 -24 10 -22 10 -62 -1z"
       id="path38" />
    <path
       d="M1280 2152 c0 -4 9 -8 21 -9 25 -2 69 -30 69 -43 0 -6 7 -10 15 -10 9 0 20 -12 26 -27 l10 -26 15 21 c8 12 22 22 30 22 16 0 19 35 4 45 -6 3 -7 -1 -4 -9 5 -13 1 -14 -27 -5 -65 21 -89 31 -89 40 0 5 -16 9 -35 9 -19 0 -35 -4 -35 -8z"
       id="path39" />
    <path
       d="M1543 2143 c9 -2 23 -2 30 0 6 3 -1 5 -18 5 -16 0 -22 -2 -12 -5z"
       id="path40" />
    <path
       d="M1735 2140 c-2 -4 -16 -5 -30 -2 -21 4 -24 1 -18 -13 4 -12 3 -16 -4 -12 -13 8 -22 -12 -16 -30 4 -9 10 -9 26 0 12 7 24 15 27 18 12 15 51 29 79 29 34 0 51 -18 30 -31 -10 -6 -6 -9 13 -9 14 0 35 -3 45 -7 15 -5 14 -2 -5 19 -22 24 -22 27 -5 31 10 2 2 4 -17 4 -19 0 -54 2 -77 6 -24 3 -45 2 -48 -3z"
       id="path41" />
    <path
       d="M1038 2094 c-16 -8 -28 -22 -27 -32 0 -14 2 -14 6 -2 8 20 26 31 33 20 3 -4 12 -10 20 -12 8 -2 21 -12 28 -23 11 -18 12 -17 6 10 -12 63 -18 66 -66 39z"
       id="path42" />
    <path
       d="M1273 2103 c15 -2 39 -2 55 0 15 2 2 4 -28 4 -30 0 -43 -2 -27 -4z"
       id="path43" />
    <path
       d="M1515 2079 c-4 -6 -5 -12 -2 -15 2 -3 7 2 10 11 7 17 1 20 -8 4z"
       id="path44" />
    <path
       d="M1567 2069 c4 -13 8 -18 11 -10 2 7 -1 18 -6 23 -8 8 -9 4 -5 -13z"
       id="path45" />
    <path
       d="M1632 2053 c2 -22 9 -29 28 -30 14 -1 37 -5 53 -9 22 -5 26 -3 21 9 -4 11 2 17 18 20 14 3 7 5 -18 6 -22 0 -49 8 -60 16 -30 23 -46 19 -42 -12z"
       id="path46" />
    <path
       d="M915 2061 c-3 -6 2 -14 11 -19 15 -8 15 -11 -5 -31 -23 -23 -22 -34 2 -96 l12 -30 5 44 c5 46 25 66 33 34 4 -14 5 -13 6 5 1 12 -5 22 -13 22 -9 0 -12 8 -8 25 6 36 -27 72 -43 46z"
       id="path47" />
    <path
       d="M1230 2056 c0 -2 9 -6 20 -9 11 -3 18 -1 14 4 -5 9 -34 13 -34 5z"
       id="path48" />
    <path
       d="M1336 2034 c-8 -21 -8 -22 12 -19 25 2 52 16 52 26 0 16 -58 10 -64 -7z"
       id="path49" />
    <path
       d="M1823 2029 c9 -5 17 -17 17 -24 0 -10 10 -15 29 -15 17 0 33 -5 36 -10 4 -6 11 -8 16 -5 13 9 11 -19 -3 -35 -11 -12 -10 -12 3 -2 21 16 29 55 15 68 -12 11 -94 34 -118 34 -8 0 -6 -5 5 -11z"
       id="path50" />
    <path
       d="M1005 1923 c3 -95 1 -103 -16 -103 -10 0 -26 12 -34 28 -9 15 -13 18 -10 7 4 -11 11 -42 18 -68 6 -29 15 -46 22 -43 7 2 12 -7 12 -26 0 -17 6 -36 14 -42 8 -6 26 -38 39 -71 53 -136 121 -235 160 -235 9 0 41 -13 71 -29 135 -72 271 -80 391 -23 36 18 69 39 72 47 4 12 10 13 25 6 36 -20 79 10 137 94 l54 79 0 87 c0 65 5 99 20 134 11 26 28 85 37 131 15 77 15 86 1 101 -14 14 -17 13 -23 -6 -3 -12 -11 -19 -16 -16 -5 4 -9 -2 -9 -13 0 -25 -41 -62 -71 -63 -22 0 -22 -1 -4 -8 11 -5 25 -6 31 -4 14 5 37 -54 25 -62 -5 -2 -12 -25 -15 -50 -4 -25 -11 -45 -16 -45 -14 0 -33 -69 -23 -83 15 -20 15 -79 -1 -96 -7 -9 -17 -27 -21 -41 -9 -30 -40 -62 -78 -78 -36 -15 -37 -15 -37 6 0 10 -9 25 -20 35 -16 13 -20 14 -20 3 0 -8 6 -17 13 -20 8 -3 6 -10 -8 -23 -13 -11 -20 -28 -18 -46 1 -21 -5 -30 -28 -42 -16 -9 -29 -13 -29 -10 0 4 -7 -1 -15 -9 -45 -45 -243 -39 -277 9 -4 5 -10 7 -13 3 -9 -9 -111 49 -108 61 2 6 -3 8 -10 6 -15 -6 -106 80 -117 110 -1 6 -9 15 -16 20 -21 17 -44 111 -34 143 9 34 2 82 -12 82 -6 0 -8 14 -3 36 4 21 3 34 -3 30 -10 -6 -30 79 -36 154 -2 25 -2 -1 -1 -57z m-5 -153 c0 -5 -5 -10 -11 -10 -5 0 -7 5 -4 10 3 6 8 10 11 10 2 0 4 -4 4 -10z"
       id="path51" />
    <path
       d="M1583 1976 c1 -31 5 -56 10 -56 7 0 2 -49 -9 -91 -5 -20 -42 -37 -69 -33 -50 8 -82 7 -103 -5 -13 -7 -30 -10 -38 -7 -8 3 -14 2 -14 -3 0 -12 47 -29 98 -35 24 -3 48 -9 55 -13 6 -4 30 -6 54 -4 24 1 43 -2 43 -8 0 -5 10 -11 22 -13 12 -2 23 -8 25 -14 2 -7 -21 -14 -64 -18 -37 -4 -74 -13 -83 -20 -8 -8 -24 -16 -35 -19 -13 -3 -10 -5 12 -6 17 0 33 4 35 11 8 24 238 22 238 -2 0 -5 -10 -19 -22 -32 -13 -13 -30 -33 -38 -45 -19 -28 -75 -40 -84 -18 -3 8 -13 15 -22 15 -10 0 -14 5 -11 14 4 9 1 13 -6 11 -7 -2 -38 -6 -69 -9 -59 -6 -92 0 -83 14 3 5 -6 7 -20 4 -14 -2 -39 3 -55 11 -41 21 -38 13 10 -25 39 -31 45 -32 132 -33 77 0 88 -2 72 -14 -10 -7 -28 -13 -41 -13 -13 0 -23 -4 -23 -9 0 -5 -10 -11 -22 -15 -23 -5 -23 -6 -3 -19 18 -13 39 -15 105 -9 11 1 20 9 20 17 0 8 4 15 9 15 13 0 21 -39 9 -47 -7 -3 -8 -1 -4 5 5 8 2 10 -9 6 -20 -8 -12 -17 18 -19 27 -3 117 89 117 120 0 30 11 41 53 56 35 12 42 24 37 59 -3 22 -61 80 -73 73 -6 -3 -7 -1 -3 5 13 21 -56 132 -97 155 -16 10 -38 38 -52 68 l-23 52 1 -57z m67 -86 c0 -5 -9 -10 -20 -10 -11 0 -20 5 -20 10 0 6 9 10 20 10 11 0 20 -4 20 -10z m50 -79 c0 -62 -17 -72 -113 -65 -171 12 -189 15 -176 30 13 16 75 19 84 4 10 -16 33 -12 65 11 l28 22 28 -22 c14 -11 33 -21 40 -21 16 0 34 31 34 59 0 12 2 21 5 21 3 0 5 -18 5 -39z m40 -51 c0 -5 -5 -10 -11 -10 -5 0 -7 5 -4 10 3 6 8 10 11 10 2 0 4 -4 4 -10z m70 -59 c17 -33 11 -45 -10 -18 -22 28 -25 37 -10 37 5 0 14 -9 20 -19z"
       id="path52" />
    <path
       d="M1755 2000 c3 -5 11 -10 16 -10 6 0 7 5 4 10 -3 6 -11 10 -16 10 -6 0 -7 -4 -4 -10z"
       id="path53" />
    <path
       d="M2230 1986 c0 -8 -3 -21 -6 -30 -3 -9 -2 -16 3 -16 5 0 10 14 11 30 1 17 0 30 -3 30 -3 0 -5 -6 -5 -14z"
       id="path54" />
    <path
       d="M1120 1966 c0 -2 8 -10 18 -17 15 -13 16 -12 3 4 -13 16 -21 21 -21 13z"
       id="path55" />
    <path
       d="M1650 1966 c0 -2 7 -9 15 -16 13 -11 14 -10 9 4 -5 14 -24 23 -24 12z"
       id="path56" />
    <path
       d="M2140 1946 c0 -2 6 -16 14 -32 16 -29 12 -78 -8 -103 -9 -11 -8 -13 4 -9 43 14 51 148 9 148 -11 0 -19 -2 -19 -4z"
       id="path57" />
    <path
       d="M960 1931 c0 -6 4 -13 10 -16 6 -3 7 1 4 9 -7 18 -14 21 -14 7z"
       id="path58" />
    <path
       d="M1408 1923 c7 -3 16 -2 19 1 4 3 -2 6 -13 5 -11 0 -14 -3 -6 -6z"
       id="path59" />
    <path
       d="M2213 1923 c-7 -3 -13 -20 -13 -38 0 -19 -4 -45 -10 -59 -5 -14 -6 -26 -1 -26 7 0 45 120 39 125 -2 1 -9 0 -15 -2z"
       id="path60" />
    <path
       d="M1283 1913 c9 -2 25 -2 35 0 9 3 1 5 -18 5 -19 0 -27 -2 -17 -5z"
       id="path61" />
    <path
       d="M1708 1903 c6 -2 18 -2 25 0 6 3 1 5 -13 5 -14 0 -19 -2 -12 -5z"
       id="path62" />
    <path
       d="M960 1882 c0 -10 7 -27 16 -38 14 -18 15 -18 6 0 -5 10 -7 27 -5 37 3 11 0 19 -6 19 -6 0 -11 -8 -11 -18z"
       id="path63" />
    <path
       d="M1788 1893 c12 -2 30 -2 40 0 9 3 -1 5 -23 4 -22 0 -30 -2 -17 -4z"
       id="path64" />
    <path
       d="M1257 1760 c-61 -64 -68 -87 -37 -115 19 -18 20 -17 20 1 0 11 8 36 19 57 10 20 14 34 9 31 -6 -4 -17 -22 -25 -41 -8 -19 -16 -33 -19 -30 -15 15 49 110 65 97 7 -5 35 49 29 56 -3 2 -30 -23 -61 -56z"
       id="path65" />
    <path
       d="M2172 1778 c-7 -7 -12 -18 -12 -25 0 -11 -6 -10 -30 2 -29 15 -30 15 -27 -7 1 -12 8 -30 16 -40 18 -22 36 -9 57 40 16 38 14 48 -4 30z"
       id="path66" />
    <path
       d="M1365 1665 c22 -8 134 -11 123 -3 -7 4 -40 7 -73 7 -33 0 -55 -2 -50 -4z"
       id="path67" />
    <path
       d="M1287 1653 c-13 -12 -7 -33 9 -33 13 0 14 3 5 14 -10 12 -8 15 11 19 21 4 21 4 2 6 -11 0 -24 -2 -27 -6z"
       id="path68" />
    <path
       d="M1075 1637 c-4 -10 -5 -21 -1 -24 10 -10 18 4 13 24 -4 17 -4 17 -12 0z"
       id="path69" />
    <path
       d="M1408 1643 c7 -3 16 -2 19 1 4 3 -2 6 -13 5 -11 0 -14 -3 -6 -6z"
       id="path70" />
    <path
       d="M1633 1633 c-16 -6 2 -43 20 -43 9 0 9 2 -1 8 -7 5 -10 16 -6 25 7 18 6 18 -13 10z"
       id="path71" />
    <path
       d="M1215 1350 c3 -5 11 -10 16 -10 6 0 7 5 4 10 -3 6 -11 10 -16 10 -6 0 -7 -4 -4 -10z"
       id="path72" />
    <path
       d="M1255 1239 c4 -22 7 -101 7 -175 0 -74 4 -134 8 -134 5 0 10 5 12 12 3 7 7 5 11 -6 4 -10 3 -15 -3 -11 -13 8 -12 -16 1 -35 9 -13 10 -12 5 3 -10 31 2 18 33 -36 l30 -53 78 -18 c63 -14 90 -15 143 -7 l65 9 -68 -1 c-37 -1 -67 2 -67 7 0 4 -7 5 -16 2 -9 -3 -25 5 -41 20 -19 19 -28 22 -33 13 -5 -7 -16 -9 -26 -5 -16 6 -16 8 -4 16 12 8 11 10 -5 11 -11 1 -22 1 -26 1 -3 0 -11 20 -18 45 -10 31 -16 41 -22 31 -7 -10 -9 -9 -10 5 -2 19 -3 25 -12 50 -18 45 -16 48 12 21 44 -44 60 -56 70 -49 5 3 12 1 16 -5 8 -13 43 5 66 34 26 32 13 33 -20 2 -29 -27 -30 -28 -58 -11 -26 15 -70 89 -74 125 -4 27 12 68 28 75 9 3 23 -1 32 -8 9 -8 27 -17 41 -20 14 -3 51 -13 82 -22 54 -15 63 -15 180 6 68 12 139 22 158 23 19 1 41 5 49 10 10 6 12 6 7 -2 -4 -7 -1 -12 8 -12 9 0 16 -8 16 -17 0 -14 2 -15 9 -4 12 19 25 -21 16 -49 -5 -14 -2 -20 9 -20 9 0 16 5 16 10 0 31 78 -4 93 -42 4 -9 13 -5 31 15 20 22 24 32 16 46 -14 27 -55 51 -92 54 -21 2 -33 8 -33 17 0 22 -17 43 -46 59 -28 14 -53 9 -219 -46 -60 -19 -205 -29 -214 -14 -4 6 -15 11 -25 11 -10 0 -26 9 -36 20 -10 11 -26 20 -36 20 -10 0 -24 6 -31 14 -8 7 -25 17 -38 21 -14 4 -34 14 -45 21 -31 22 -37 17 -30 -27z"
       id="path73" />
  </g>
  <g
     transform="translate(0.000000,320.000000) scale(0.100000,-0.100000)"
     fill="#957265"
     stroke="none"
     id="g136">
    <path
       d="M1250 2925 c-33 -19 -21 -19 21 0 19 8 27 14 19 14 -8 0 -26 -6 -40 -14z"
       id="path74" />
    <path
       d="M1298 2555 c-1 -2 -19 -6 -39 -9 -79 -12 -115 -42 -154 -125 -15 -31 -43 -88 -62 -127 -20 -39 -33 -77 -30 -85 4 -9 6 -7 6 7 1 12 14 39 29 60 36 50 52 80 57 106 3 11 11 28 18 37 8 9 17 24 20 33 11 32 56 53 136 65 33 5 34 5 27 -23 l-8 -29 24 23 c31 28 42 28 58 -3 8 -14 20 -23 27 -21 9 4 13 -3 13 -21 l0 -27 38 37 c37 36 122 75 122 56 0 -5 -7 -23 -15 -39 l-14 -28 40 5 c26 4 44 2 48 -6 5 -8 11 -8 24 2 31 23 6 38 -46 28 l-47 -8 25 45 c14 25 23 47 21 49 -2 2 -21 -5 -42 -16 -21 -12 -46 -21 -55 -21 -9 0 -22 -7 -29 -15 -7 -8 -17 -12 -23 -8 -6 3 -7 1 -3 -5 3 -6 -3 -16 -14 -22 -13 -7 -20 -7 -20 0 0 5 -5 10 -11 10 -16 0 -36 24 -31 38 5 16 -19 15 -44 -3 -20 -13 -21 -13 -17 9 4 20 -17 43 -29 31z"
       id="path75" />
    <path
       d="M1812 2515 c-17 -5 -34 -13 -38 -17 -4 -5 -17 -8 -29 -8 -21 0 -70 -29 -50 -30 6 0 35 9 65 20 60 22 90 25 90 10 0 -5 3 -9 8 -9 22 4 32 -6 51 -51 12 -28 26 -48 31 -45 6 4 14 -5 20 -19 5 -14 13 -26 17 -26 11 0 33 -84 39 -147 2 -29 0 -53 -5 -53 -13 0 -33 28 -27 38 3 5 -5 14 -19 20 -23 11 -23 11 -10 -21 10 -25 23 -35 61 -48 27 -9 52 -15 55 -13 9 5 -3 54 -40 159 -17 49 -31 91 -31 92 0 2 -6 3 -14 3 -9 0 -16 12 -18 28 -2 22 -7 26 -25 24 -17 -2 -23 2 -23 15 0 10 -5 35 -11 56 -9 33 -13 37 -38 35 -16 -1 -42 -7 -59 -13z"
       id="path76" />
    <path
       d="M1233 2263 c9 -2 23 -2 30 0 6 3 -1 5 -18 5 -16 0 -22 -2 -12 -5z"
       id="path77" />
    <path
       d="M1288 2253 c6 -2 18 -2 25 0 6 3 1 5 -13 5 -14 0 -19 -2 -12 -5z"
       id="path78" />
    <path
       d="M1778 2243 c12 -2 32 -2 45 0 12 2 2 4 -23 4 -25 0 -35 -2 -22 -4z"
       id="path79" />
    <path
       d="M1875 2243 c11 -3 29 -12 40 -22 20 -16 20 -16 1 7 -11 12 -29 21 -40 21 -20 -1 -20 -2 -1 -6z"
       id="path80" />
    <path
       d="M1160 2220 c-10 -19 -8 -20 72 -18 l83 2 -73 3 c-60 3 -73 7 -68 18 8 22 -2 18 -14 -5z"
       id="path81" />
    <path
       d="M1411 2219 c13 -11 17 -18 9 -16 -8 2 -23 0 -32 -4 -10 -5 -27 -5 -42 1 -16 6 -26 6 -26 0 0 -5 -21 -11 -47 -13 -35 -2 -28 -4 27 -5 42 -1 109 -11 149 -22 40 -12 76 -18 79 -15 3 3 -2 5 -12 5 -9 0 -21 11 -27 24 -6 13 -28 33 -49 45 -48 27 -59 27 -29 0z"
       id="path82" />
    <path
       d="M1694 2230 c-12 -5 -25 -13 -29 -19 -3 -6 -10 -9 -15 -6 -5 3 -16 -8 -24 -24 -9 -16 -21 -31 -28 -34 -7 -2 1 -2 17 1 17 2 34 7 40 10 5 3 26 5 45 5 31 -2 32 -1 10 6 -21 7 -16 9 30 14 109 13 114 15 45 15 -38 0 -78 0 -87 1 -31 2 -19 19 20 29 20 5 28 10 17 10 -11 1 -30 -3 -41 -8z"
       id="path83" />
    <path
       d="M1148 2173 c7 -3 16 -2 19 1 4 3 -2 6 -13 5 -11 0 -14 -3 -6 -6z"
       id="path84" />
    <path
       d="M1898 2173 c6 -2 10 -9 6 -14 -3 -5 5 -9 17 -9 22 0 22 0 3 15 -10 8 -23 14 -29 14 -5 0 -4 -3 3 -6z"
       id="path85" />
    <path
       d="M1243 2163 c15 -2 39 -2 55 0 15 2 2 4 -28 4 -30 0 -43 -2 -27 -4z"
       id="path86" />
    <path
       d="M1848 2163 c7 -3 16 -2 19 1 4 3 -2 6 -13 5 -11 0 -14 -3 -6 -6z"
       id="path87" />
    <path
       d="M1168 2153 c7 -3 16 -2 19 1 4 3 -2 6 -13 5 -11 0 -14 -3 -6 -6z"
       id="path88" />
    <path
       d="M1350 2151 c0 -8 24 -20 87 -39 25 -8 33 -7 37 4 3 8 2 13 -3 9 -5 -3 -11 0 -13 6 -2 7 -18 12 -36 13 -18 0 -32 4 -32 9 0 4 -9 7 -20 7 -11 0 -20 -4 -20 -9z"
       id="path89" />
    <path
       d="M1690 2146 c0 -9 40 -13 46 -5 3 5 -6 9 -20 9 -14 0 -26 -2 -26 -4z"
       id="path90" />
    <path
       d="M1781 2145 c3 -2 20 -5 37 -7 20 -1 43 -13 59 -30 l26 -27 -39 5 -39 4 32 -12 c18 -7 40 -21 49 -30 16 -15 14 -16 -22 -8 -21 5 -57 9 -79 8 -24 0 -30 -2 -15 -4 76 -12 140 -28 140 -35 0 -5 7 -9 15 -9 10 0 15 10 15 28 0 15 3 38 7 51 5 18 3 22 -7 16 -10 -6 -12 -4 -7 8 7 19 -40 38 -74 30 -15 -4 -20 -3 -15 5 5 9 -7 12 -40 12 -26 0 -45 -2 -43 -5z"
       id="path91" />
    <path
       d="M1641 2110 c-12 -17 -20 -39 -18 -48 4 -16 5 -16 6 1 1 21 15 22 46 1 13 -8 36 -14 52 -11 26 4 26 4 -6 6 -26 1 -32 4 -27 17 5 14 4 15 -8 5 -10 -9 -15 -9 -18 1 -7 19 2 39 14 32 6 -4 9 -1 6 6 -8 24 -24 21 -47 -10z"
       id="path92" />
    <path
       d="M1015 2090 c-3 -6 1 -7 9 -4 18 7 21 14 7 14 -6 0 -13 -4 -16 -10z"
       id="path93" />
    <path
       d="M1215 2093 c-50 -13 -60 -43 -12 -42 30 1 30 1 7 8 -23 7 -21 9 25 24 46 14 30 22 -20 10z"
       id="path94" />
    <path
       d="M1515 2090 c-3 -6 1 -7 9 -4 18 7 21 14 7 14 -6 0 -13 -4 -16 -10z"
       id="path95" />
    <path
       d="M1550 2096 c0 -2 7 -7 16 -10 8 -3 12 -2 9 4 -6 10 -25 14 -25 6z"
       id="path96" />
    <path
       d="M1743 2093 c15 -2 39 -2 55 0 15 2 2 4 -28 4 -30 0 -43 -2 -27 -4z"
       id="path97" />
    <path
       d="M1380 2086 c0 -2 7 -7 16 -10 8 -3 12 -2 9 4 -6 10 -25 14 -25 6z"
       id="path98" />
    <path
       d="M941 2064 c10 -10 19 -28 22 -39 4 -15 5 -14 6 7 1 19 -6 31 -21 39 -22 11 -22 11 -7 -7z"
       id="path99" />
    <path
       d="M1251 2071 c-12 -8 -9 -11 12 -16 14 -4 32 -5 39 -2 8 4 7 6 -4 6 -10 1 -18 6 -18 11 0 12 -10 13 -29 1z"
       id="path100" />
    <path
       d="M1988 2033 c-18 -50 -13 -81 7 -44 10 20 13 21 25 6 11 -13 10 -30 -3 -99 -10 -46 -26 -105 -37 -131 -15 -35 -20 -69 -20 -134 l0 -87 -54 -79 c-58 -84 -101 -114 -137 -94 -15 7 -21 6 -25 -6 -3 -8 -36 -29 -72 -47 -120 -57 -256 -49 -391 23 -30 16 -61 29 -69 29 -9 0 -27 10 -41 23 -14 12 -4 -3 22 -33 26 -30 47 -59 47 -65 0 -9 42 -32 95 -51 11 -5 26 -14 33 -21 7 -7 21 -13 31 -13 10 0 26 -9 36 -20 10 -11 26 -20 36 -20 10 0 21 -5 25 -11 9 -15 154 -5 214 14 166 55 191 60 219 46 29 -16 46 -37 46 -59 0 -14 5 -16 51 -19 28 -1 88 -57 79 -73 -4 -7 5 1 19 17 14 17 26 37 26 45 0 15 -60 60 -80 60 -6 0 -8 5 -5 10 3 6 -3 10 -14 10 -12 0 -21 7 -21 15 0 8 -4 15 -9 15 -5 0 -9 6 -8 13 1 33 -5 45 -24 50 -12 3 -19 10 -16 15 3 4 -7 6 -24 4 -16 -2 -29 -8 -29 -13 0 -5 -8 -9 -19 -9 -10 0 -24 -6 -30 -14 -6 -8 -22 -16 -34 -19 -12 -2 -58 -14 -102 -27 -133 -37 -199 -34 -157 8 11 11 23 18 25 16 3 -3 35 8 71 25 36 17 71 31 79 31 27 0 117 53 146 86 17 19 35 34 41 34 5 0 12 11 16 25 3 14 20 36 38 50 17 14 25 25 19 25 -7 0 -13 5 -13 10 0 6 9 10 20 10 11 0 21 3 21 8 1 4 3 19 4 34 6 45 24 70 46 63 33 -11 57 4 79 51 12 25 20 48 17 51 -3 3 -9 -6 -12 -20 -4 -14 -14 -32 -24 -41 -15 -14 -18 -14 -32 2 -7 10 -15 28 -16 40 -3 22 -2 22 27 7 26 -13 30 -14 30 -1 0 8 10 22 22 30 12 9 17 16 10 16 -8 0 -9 7 -2 26 6 14 10 40 10 58 0 24 6 36 23 44 12 6 16 11 10 11 -7 1 -13 6 -13 12 0 5 3 8 8 6 12 -8 6 71 -7 87 -12 14 -17 13 -52 -4 -26 -14 -39 -27 -39 -41 0 -16 3 -18 18 -10 10 5 24 17 32 25 16 20 40 21 40 2 0 -8 -13 -17 -29 -21 -38 -8 -65 -48 -56 -82 4 -19 0 -31 -15 -45 -14 -13 -20 -28 -17 -40 3 -11 1 -34 -5 -51 -5 -18 -12 -38 -14 -45 -3 -11 -7 -10 -20 3 -10 10 -13 22 -8 33 30 70 44 199 28 260 -6 19 -11 22 -35 17 -25 -6 -29 -3 -29 14 0 35 -14 24 -32 -26z m196 -126 c4 -26 2 -55 -5 -73 -7 -16 -12 -32 -11 -36 1 -4 -5 -5 -13 -1 -10 3 -12 9 -7 17 18 22 21 73 6 100 -18 36 -18 36 5 36 14 0 20 -10 25 -43z m-949 -557 c3 -5 2 -10 -4 -10 -5 0 -13 5 -16 10 -3 6 -2 10 4 10 5 0 13 -4 16 -10z m305 -99 c0 -5 -7 -12 -16 -15 -22 -9 -24 -8 -24 9 0 8 9 15 20 15 11 0 20 -4 20 -9z"
       id="path101" />
    <path
       d="M1001 2044 c0 -11 3 -14 6 -6 3 7 2 16 -1 19 -3 4 -6 -2 -5 -13z"
       id="path102" />
    <path
       d="M1363 2053 c9 -2 25 -2 35 0 9 3 1 5 -18 5 -19 0 -27 -2 -17 -5z"
       id="path103" />
    <path
       d="M1581 2044 c0 -11 3 -14 6 -6 3 7 2 16 -1 19 -3 4 -6 -2 -5 -13z"
       id="path104" />
    <path
       d="M900 2025 c0 -30 15 -33 29 -6 8 15 7 20 -5 25 -23 9 -24 8 -24 -19z"
       id="path105" />
    <path
       d="M1590 2015 c0 -5 5 -17 10 -25 5 -8 10 -10 10 -5 0 6 -5 17 -10 25 -5 8 -10 11 -10 5z"
       id="path106" />
    <path
       d="M958 1993 c7 -3 16 -2 19 1 4 3 -2 6 -13 5 -11 0 -14 -3 -6 -6z"
       id="path107" />
    <path
       d="M1941 1974 c0 -11 3 -14 6 -6 3 7 2 16 -1 19 -3 4 -6 -2 -5 -13z"
       id="path108" />
    <path
       d="M1444 1948 l-19 -23 23 19 c21 18 27 26 19 26 -2 0 -12 -10 -23 -22z"
       id="path109" />
    <path
       d="M1948 1935 c-11 -14 -31 -25 -50 -28 l-33 -4 31 -1 c21 -2 38 6 54 23 13 14 22 27 19 29 -2 2 -12 -6 -21 -19z"
       id="path110" />
    <path
       d="M971 1934 c0 -11 3 -14 6 -6 3 7 2 16 -1 19 -3 4 -6 -2 -5 -13z"
       id="path111" />
    <path
       d="M985 1928 c-14 -46 -5 -108 16 -108 6 0 7 24 3 63 -8 72 -9 75 -19 45z"
       id="path112" />
    <path
       d="M1648 1923 c24 -24 52 -30 52 -13 0 6 -10 10 -22 10 -12 0 -29 6 -38 13 -9 6 -5 2 8 -10z"
       id="path113" />
    <path
       d="M1288 1933 c12 -2 30 -2 40 0 9 3 -1 5 -23 4 -22 0 -30 -2 -17 -4z"
       id="path114" />
    <path
       d="M1218 1923 c7 -3 16 -2 19 1 4 3 -2 6 -13 5 -11 0 -14 -3 -6 -6z"
       id="path115" />
    <path
       d="M1363 1923 c9 -2 23 -2 30 0 6 3 -1 5 -18 5 -16 0 -22 -2 -12 -5z"
       id="path116" />
    <path
       d="M1748 1903 c7 -3 16 -2 19 1 4 3 -2 6 -13 5 -11 0 -14 -3 -6 -6z"
       id="path117" />
    <path
       d="M1610 1890 c0 -5 9 -10 20 -10 11 0 20 5 20 10 0 6 -9 10 -20 10 -11 0 -20 -4 -20 -10z"
       id="path118" />
    <path
       d="M1690 1829 c0 -28 -18 -59 -34 -59 -7 0 -26 10 -40 21 l-28 22 -28 -22 c-32 -23 -55 -27 -65 -11 -9 15 -71 12 -84 -4 -13 -15 5 -18 176 -30 96 -7 113 3 113 65 0 21 -2 39 -5 39 -3 0 -5 -9 -5 -21z m-243 -55 c-3 -3 -12 -4 -19 -1 -8 3 -5 6 6 6 11 1 17 -2 13 -5z m187 -9 c22 -17 14 -19 -46 -9 -21 4 -35 10 -32 15 8 14 57 10 78 -6z"
       id="path119" />
    <path
       d="M962 1760 c0 -14 2 -19 5 -12 2 6 2 18 0 25 -3 6 -5 1 -5 -13z"
       id="path120" />
    <path
       d="M1257 1743 c-18 -21 -40 -74 -33 -81 3 -3 10 8 16 24 6 16 19 37 27 47 9 9 14 19 11 22 -3 3 -12 -3 -21 -12z"
       id="path121" />
    <path
       d="M1780 1714 c0 -3 9 -17 20 -31 21 -27 27 -15 10 18 -10 18 -30 27 -30 13z"
       id="path122" />
    <path
       d="M985 1690 c10 -11 20 -20 23 -20 3 0 -3 9 -13 20 -10 11 -20 20 -23 20 -3 0 3 -9 13 -20z"
       id="path123" />
    <path
       d="M1343 1653 c14 -3 18 -12 14 -28 -2 -15 1 -26 10 -29 22 -9 33 -7 33 4 0 6 -6 9 -12 8 -7 -2 -13 6 -13 17 0 18 6 20 65 17 46 -2 61 1 50 8 -8 5 -49 9 -90 9 -41 -1 -67 -3 -57 -6z"
       id="path124" />
    <path
       d="M1538 1653 c-10 -2 -18 -9 -18 -14 0 -6 26 -9 63 -8 35 1 69 -1 75 -5 8 -4 10 -2 6 8 -4 11 3 16 28 19 18 2 -5 4 -52 4 -47 0 -93 -1 -102 -4z"
       id="path125" />
    <path
       d="M1290 1646 c0 -2 7 -9 15 -16 13 -11 14 -10 9 4 -5 14 -24 23 -24 12z"
       id="path126" />
    <path
       d="M1736 1643 c5 -5 12 -12 16 -18 4 -6 8 -2 8 8 0 9 -7 17 -17 17 -9 0 -12 -3 -7 -7z"
       id="path127" />
    <path
       d="M1710 1605 c-34 -17 -93 -27 -85 -15 4 6 -2 7 -16 1 -28 -10 -37 -31 -15 -31 9 0 19 -7 22 -15 4 -9 15 -13 27 -11 12 3 27 5 33 5 6 1 23 19 38 41 14 22 25 40 24 39 -2 -1 -14 -7 -28 -14z"
       id="path128" />
    <path
       d="M1426 1592 c-3 -5 1 -13 10 -16 24 -9 44 -7 44 5 0 6 -6 9 -14 6 -7 -3 -18 -1 -24 5 -6 6 -12 6 -16 0z"
       id="path129" />
    <path
       d="M1252 1215 c0 -16 2 -22 5 -12 2 9 2 23 0 30 -3 6 -5 -1 -5 -18z"
       id="path130" />
    <path
       d="M1262 1065 c0 -16 2 -22 5 -12 2 9 2 23 0 30 -3 6 -5 -1 -5 -18z"
       id="path131" />
    <path
       d="M2054 1008 l-19 -23 23 19 c21 18 27 26 19 26 -2 0 -12 -10 -23 -22z"
       id="path132" />
    <path
       d="M1253 980 c0 -25 2 -35 4 -22 2 12 2 32 0 45 -2 12 -4 2 -4 -23z"
       id="path133" />
    <path
       d="M2004 958 l-19 -23 23 19 c21 18 27 26 19 26 -2 0 -12 -10 -23 -22z"
       id="path134" />
    <path
       d="M1272 935 c-10 -12 -10 -20 -1 -36 9 -18 13 -19 21 -8 7 10 8 9 4 -6 -5 -15 5 -32 36 -62 37 -35 52 -42 112 -52 95 -17 93 -7 -4 15 l-81 18 -30 53 c-17 29 -35 51 -40 48 -5 -4 -9 1 -9 10 0 9 4 13 10 10 6 -3 7 1 4 9 -7 19 -6 19 -22 1z"
       id="path135" />
    <path
       d="M1568 773 c6 -2 18 -2 25 0 6 3 1 5 -13 5 -14 0 -19 -2 -12 -5z"
       id="path136" />
  </g>
  <g
     transform="translate(0.000000,320.000000) scale(0.100000,-0.100000)"
     fill="#604C46"
     fill-opacity="0.937"
     stroke="none"
     id="g182">
    <path
       d="M1317 2960 c-67 -21 -97 -39 -145 -87 -31 -31 -32 -34 -11 -28 22 7 43 18 101 51 23 14 9 27 -19 18 -15 -5 -15 -4 -3 5 8 6 22 8 31 6 9 -3 37 4 63 15 26 11 65 20 87 20 21 0 39 5 39 10 0 16 -80 11 -143 -10z m-20 -26 c-3 -3 -12 -4 -19 -1 -8 3 -5 6 6 6 11 1 17 -2 13 -5z"
       id="path137" />
    <path
       d="M1488 2973 c12 -2 30 -2 40 0 9 3 -1 5 -23 4 -22 0 -30 -2 -17 -4z"
       id="path138" />
    <path
       d="M1901 2954 c0 -11 3 -14 6 -6 3 7 2 16 -1 19 -3 4 -6 -2 -5 -13z"
       id="path139" />
    <path
       d="M1831 2921 c-10 -7 -8 -10 8 -16 27 -8 36 -2 18 13 -7 6 -18 7 -26 3z"
       id="path140" />
    <path
       d="M1980 2876 c0 -14 4 -27 8 -30 5 -3 6 8 4 25 -5 35 -12 38 -12 5z"
       id="path141" />
    <path
       d="M2006 2815 c4 -8 8 -15 10 -15 2 0 4 7 4 15 0 8 -4 15 -10 15 -5 0 -7 -7 -4 -15z"
       id="path142" />
    <path
       d="M1014 2741 c-11 -18 -34 -52 -52 -74 -18 -22 -42 -59 -53 -81 l-20 -41 26 30 c25 29 36 43 98 133 16 23 27 47 24 54 -2 8 -12 0 -23 -21z"
       id="path143" />
    <path
       d="M2126 2631 c-3 -5 1 -12 10 -15 27 -11 37 -7 24 9 -14 17 -26 19 -34 6z"
       id="path144" />
    <path
       d="M1610 2591 c-14 -5 -42 -18 -64 -30 -34 -20 -38 -20 -32 -4 6 14 3 13 -17 -5 -13 -12 -28 -22 -35 -22 -6 0 -16 -8 -21 -17 -6 -11 -11 -13 -11 -5 0 7 -5 10 -10 7 -7 -4 -9 2 -5 17 3 13 0 31 -8 43 -12 16 -18 17 -30 7 -9 -8 -16 -9 -19 -3 -5 14 -153 -14 -186 -35 -32 -20 -81 -75 -82 -90 0 -6 -8 -22 -19 -35 -10 -13 -22 -35 -26 -49 -4 -14 -16 -31 -25 -37 -23 -16 -44 -73 -27 -73 7 0 8 -3 1 -10 -13 -13 -2 -96 14 -112 8 -8 17 -8 34 0 22 11 22 11 -4 6 -22 -5 -28 -2 -30 12 -3 45 4 73 36 139 19 39 46 95 61 126 39 83 75 113 154 125 67 11 74 9 69 -21 -5 -23 -4 -23 16 -10 25 18 49 19 44 3 -5 -14 15 -38 31 -38 6 0 11 -5 11 -10 0 -7 7 -7 20 0 11 6 17 16 14 22 -4 6 -3 8 3 5 6 -4 16 0 23 8 7 8 20 15 29 15 9 0 34 9 55 21 21 11 40 18 42 16 2 -2 -7 -24 -21 -49 l-25 -45 47 8 c33 6 49 6 54 -2 5 -8 13 -7 30 5 13 9 31 16 40 16 9 0 30 7 46 15 17 8 49 18 71 21 40 6 41 5 51 -33 6 -21 11 -46 11 -56 0 -13 6 -17 23 -15 18 2 23 -2 25 -24 2 -16 9 -28 18 -28 8 0 14 -1 14 -3 0 -2 16 -48 35 -103 20 -54 36 -113 37 -131 1 -18 5 -30 10 -27 14 9 9 56 -12 119 -11 33 -26 86 -35 117 -8 31 -22 63 -30 72 -8 8 -15 18 -15 22 0 4 -8 12 -17 19 -14 11 -19 10 -29 -3 -9 -12 -12 -5 -17 38 -4 28 -12 59 -19 67 -15 19 -72 11 -99 -13 -11 -9 -19 -14 -19 -10 0 4 -21 -5 -47 -20 -27 -15 -49 -22 -51 -16 -2 6 -9 9 -15 6 -7 -2 -26 -6 -44 -8 -29 -3 -31 -2 -20 18 7 11 20 32 29 45 27 36 16 46 -32 32z"
       id="path145" />
    <path
       d="M2146 2586 c3 -9 10 -16 16 -16 5 0 20 -12 33 -26 29 -31 34 -11 7 22 -23 28 -65 42 -56 20z"
       id="path146" />
    <path
       d="M887 2534 c-12 -12 -8 -47 8 -68 14 -19 15 -19 14 5 -2 37 -13 71 -22 63z"
       id="path147" />
    <path
       d="M890 2247 c0 -15 4 -27 9 -27 6 0 8 10 6 21 -6 33 -15 36 -15 6z"
       id="path148" />
    <path
       d="M1190 2241 c-14 -11 -23 -22 -20 -24 3 -3 46 -8 95 -11 137 -10 168 -9 159 6 -12 19 -75 39 -142 43 -56 4 -71 2 -92 -14z"
       id="path149" />
    <path
       d="M1815 2243 c-62 -6 -135 -25 -135 -34 0 -10 -4 -10 105 -12 55 -1 92 -8 118 -21 21 -10 36 -21 33 -23 -2 -2 -33 1 -67 7 -108 20 -272 -3 -282 -39 -4 -15 -11 -18 -27 -14 -22 6 -22 7 -5 20 17 12 16 13 -12 13 -26 0 -30 -3 -26 -19 3 -12 15 -21 30 -23 22 -3 29 -13 49 -71 32 -96 40 -103 140 -117 113 -16 189 -5 217 31 16 22 17 30 7 45 -10 18 -11 17 -7 -3 3 -13 1 -23 -5 -23 -5 0 -7 -3 -5 -7 11 -19 -25 -29 -109 -32 -99 -3 -172 11 -181 35 -4 11 -8 12 -13 4 -5 -8 -11 -1 -18 18 -6 17 -6 35 -1 43 5 8 9 19 9 24 0 6 -5 3 -10 -5 -6 -9 -10 -10 -10 -3 0 6 -3 20 -6 30 -5 15 -4 15 5 3 9 -13 11 -13 11 0 0 8 12 28 25 45 23 28 30 30 107 34 45 2 107 -2 137 -9 31 -7 58 -11 60 -9 10 9 19 -40 14 -77 -7 -56 13 -66 28 -14 13 43 29 54 29 19 0 -17 4 -20 29 -14 24 5 29 2 35 -17 16 -61 2 -190 -28 -260 -5 -11 -2 -23 8 -33 13 -13 17 -14 20 -3 2 7 9 27 14 45 6 17 8 40 5 51 -3 12 3 27 17 40 15 14 19 26 15 45 -9 34 18 74 56 82 16 4 29 13 29 21 0 19 -24 18 -40 -2 -8 -8 -22 -20 -32 -25 -15 -8 -18 -6 -18 10 0 14 13 27 39 41 35 18 40 18 52 4 7 -9 16 -37 20 -63 6 -46 6 -46 8 -8 1 42 -25 97 -46 97 -7 0 -29 -10 -48 -22 -36 -24 -41 -40 -35 -118 1 -19 -1 -32 -6 -27 -8 8 -12 33 -13 90 -1 30 -8 45 -33 68 -42 38 -68 34 -83 -11 l-13 -35 2 52 c1 40 5 53 16 53 11 0 9 5 -6 18 -12 9 -25 26 -28 38 -13 42 -78 74 -141 67z m42 -26 c3 -4 -8 -7 -25 -7 -17 0 -33 4 -36 8 -6 10 51 8 61 -1z"
       id="path150" />
    <path
       d="M901 2184 c0 -16 6 -39 14 -50 8 -10 15 -14 15 -8 0 5 -4 14 -9 20 -5 5 -11 23 -14 39 l-4 30 -2 -31z"
       id="path151" />
    <path
       d="M1125 2166 c-40 -9 -50 -15 -47 -28 2 -12 -3 -18 -16 -18 -27 0 -52 -10 -52 -21 0 -4 14 -3 30 3 40 13 57 6 64 -29 2 -15 8 -43 11 -60 12 -63 21 -33 11 38 -9 67 -9 73 12 89 42 35 172 37 288 4 60 -16 69 -30 49 -78 -17 -40 -21 -70 -6 -47 7 11 9 11 14 0 4 -8 4 0 1 16 -4 21 -3 26 4 16 16 -22 31 37 18 71 -8 22 -20 29 -72 42 -73 18 -233 20 -309 2z"
       id="path152" />
    <path
       d="M916 2072 c-20 -27 -20 -27 0 -10 28 25 59 3 52 -35 -3 -15 -1 -27 3 -27 19 0 8 57 -13 77 l-23 21 -19 -26z"
       id="path153" />
    <path
       d="M1235 2082 c-37 -12 -44 -17 -28 -20 12 -2 32 2 44 8 13 8 24 8 28 2 11 -17 45 -22 91 -14 l45 8 -32 17 c-39 21 -82 21 -148 -1z m122 -5 c-5 -17 -43 -21 -49 -5 -4 9 4 14 24 15 19 2 28 -2 25 -10z"
       id="path154" />
    <path
       d="M1697 2083 c-16 -16 -4 -25 27 -21 19 2 32 0 30 -4 -3 -4 16 -8 43 -8 26 0 65 -4 86 -9 36 -9 38 -8 23 8 -9 10 -34 23 -55 29 -41 13 -144 16 -154 5z m123 -13 c0 -5 -12 -10 -26 -10 -14 0 -23 4 -19 10 3 6 15 10 26 10 10 0 19 -4 19 -10z"
       id="path155" />
    <path
       d="M997 2065 c-10 -25 -20 -151 -12 -143 7 7 25 149 20 156 -2 2 -5 -4 -8 -13z"
       id="path156" />
    <path
       d="M892 2005 c0 -16 2 -22 5 -12 2 9 2 23 0 30 -3 6 -5 -1 -5 -18z"
       id="path157" />
    <path
       d="M1631 1994 c0 -11 3 -14 6 -6 3 7 2 16 -1 19 -3 4 -6 -2 -5 -13z"
       id="path158" />
    <path
       d="M1454 1984 c6 -16 -46 -40 -105 -48 -52 -8 -176 9 -196 26 -8 6 -16 9 -18 6 -11 -11 25 -29 81 -39 75 -14 202 -3 227 19 29 26 39 49 21 49 -8 0 -13 -6 -10 -13z"
       id="path159" />
    <path
       d="M2231 1914 c0 -11 3 -14 6 -6 3 7 2 16 -1 19 -3 4 -6 -2 -5 -13z"
       id="path160" />
    <path
       d="M951 1784 c0 -11 3 -14 6 -6 3 7 2 16 -1 19 -3 4 -6 -2 -5 -13z"
       id="path161" />
    <path
       d="M2191 1774 c0 -11 3 -14 6 -6 3 7 2 16 -1 19 -3 4 -6 -2 -5 -13z"
       id="path162" />
    <path
       d="M1428 1773 c7 -3 16 -2 19 1 4 3 -2 6 -13 5 -11 0 -14 -3 -6 -6z"
       id="path163" />
    <path
       d="M1556 1771 c-3 -5 11 -11 32 -15 60 -10 68 -8 46 9 -21 16 -70 20 -78 6z"
       id="path164" />
    <path
       d="M961 1724 c0 -11 3 -14 6 -6 3 7 2 16 -1 19 -3 4 -6 -2 -5 -13z"
       id="path165" />
    <path
       d="M970 1697 c0 -2 14 -16 30 -30 17 -15 30 -23 30 -19 0 5 -13 18 -30 30 -16 13 -30 21 -30 19z"
       id="path166" />
    <path
       d="M2146 1679 c-13 -16 -25 -20 -47 -15 -32 6 -48 -12 -54 -62 -1 -15 -3 -30 -4 -34 0 -5 -10 -8 -21 -8 -11 0 -20 -4 -20 -10 0 -5 6 -10 13 -10 6 0 -2 -11 -19 -25 -18 -14 -35 -36 -38 -50 -4 -14 -11 -25 -16 -25 -6 0 -24 -15 -41 -34 -29 -33 -119 -86 -146 -86 -8 0 -43 -14 -79 -31 -36 -17 -68 -28 -71 -25 -2 2 -14 -5 -25 -16 -42 -42 24 -45 157 -8 44 13 90 25 102 27 12 3 28 11 34 19 6 8 20 14 30 14 11 0 19 4 19 9 0 5 13 11 29 13 17 2 27 0 24 -4 -3 -5 4 -12 16 -15 19 -5 25 -17 24 -50 -1 -7 3 -13 8 -13 5 0 9 -7 9 -15 0 -8 9 -15 21 -15 11 0 17 -4 14 -10 -3 -5 -1 -10 5 -10 20 0 80 -45 80 -61 0 -8 -17 -35 -37 -60 -21 -24 -30 -38 -20 -30 10 8 31 31 48 52 l31 39 -65 62 c-69 67 -81 93 -92 198 -5 46 0 72 29 155 19 54 38 100 43 101 4 1 20 5 35 8 15 4 32 15 38 26 14 26 9 25 -14 -1z"
       id="path167" />
    <path
       d="M1310 1641 c0 -6 4 -12 8 -15 5 -3 9 1 9 9 0 8 -4 15 -9 15 -4 0 -8 -4 -8 -9z"
       id="path168" />
    <path
       d="M1347 1630 c-3 -11 -1 -20 4 -20 5 0 9 9 9 20 0 11 -2 20 -4 20 -2 0 -6 -9 -9 -20z"
       id="path169" />
    <path
       d="M1664 1620 c1 -16 5 -30 9 -30 16 0 77 32 77 40 0 11 -27 20 -59 20 -25 0 -28 -4 -27 -30z m64 8 c-7 -19 -38 -22 -38 -4 0 10 9 16 21 16 12 0 19 -5 17 -12z"
       id="path170" />
    <path
       d="M1625 1590 c-3 -5 -1 -10 4 -10 6 0 11 5 11 10 0 6 -2 10 -4 10 -3 0 -8 -4 -11 -10z"
       id="path171" />
    <path
       d="M1125 1430 c10 -11 20 -20 23 -20 3 0 -3 9 -13 20 -10 11 -20 20 -23 20 -3 0 3 -9 13 -20z"
       id="path172" />
    <path
       d="M1150 1397 c0 -2 15 -16 33 -33 l32 -29 -29 33 c-28 30 -36 37 -36 29z"
       id="path173" />
    <path
       d="M1221 1313 c7 -12 15 -20 18 -17 3 2 -3 12 -13 22 -17 16 -18 16 -5 -5z"
       id="path174" />
    <path
       d="M1242 1260 c0 -14 2 -19 5 -12 2 6 2 18 0 25 -3 6 -5 1 -5 -13z"
       id="path175" />
    <path
       d="M1500 1245 c0 -17 2 -18 24 -9 23 9 20 24 -4 24 -11 0 -20 -7 -20 -15z"
       id="path176" />
    <path
       d="M1253 1150 c0 -25 2 -35 4 -22 2 12 2 32 0 45 -2 12 -4 2 -4 -23z"
       id="path177" />
    <path
       d="M1242 975 c0 -16 2 -22 5 -12 2 9 2 23 0 30 -3 6 -5 -1 -5 -18z"
       id="path178" />
    <path
       d="M1250 927 c0 -10 7 -28 15 -41 9 -13 15 -28 14 -32 -9 -38 64 -80 154 -88 l52 -5 -55 10 c-43 9 -64 20 -97 52 -24 23 -52 59 -63 82 -11 22 -20 32 -20 22z"
       id="path179" />
    <path
       d="M2705 830 c10 -11 20 -20 23 -20 3 0 -3 9 -13 20 -10 11 -20 20 -23 20 -3 0 3 -9 13 -20z"
       id="path180" />
    <path
       d="M1608 773 c7 -3 16 -2 19 1 4 3 -2 6 -13 5 -11 0 -14 -3 -6 -6z"
       id="path181" />
    <path
       d="M1528 763 c6 -2 18 -2 25 0 6 3 1 5 -13 5 -14 0 -19 -2 -12 -5z"
       id="path182" />
  </g>
  <g
     transform="translate(0.000000,320.000000) scale(0.100000,-0.100000)"
     fill="#3A4044"
     fill-opacity="0.365"
     stroke="none"
     id="g211">
    <path
       d="M1886 2963 c6 -41 -5 -58 -22 -32 -3 6 -15 8 -27 5 -12 -3 -30 3 -45 15 -14 10 -36 18 -51 18 l-26 -2 25 -4 c14 -3 37 -14 53 -25 15 -11 33 -18 40 -15 7 3 24 -4 38 -14 36 -27 42 -23 35 22 -8 48 7 45 24 -6 12 -37 24 -44 33 -21 4 10 1 13 -9 9 -8 -3 -14 1 -14 11 0 9 -14 30 -30 48 l-30 33 6 -42z"
       id="path183" />
    <path
       d="M1304 2966 c-67 -25 -121 -56 -145 -83 -8 -10 -45 -39 -81 -64 -46 -33 -71 -60 -87 -91 -12 -25 -33 -56 -47 -69 -51 -47 -94 -181 -62 -191 9 -3 9 -17 1 -59 -16 -81 -2 -255 23 -294 11 -17 10 -23 -2 -39 -8 -11 -14 -27 -13 -35 0 -14 1 -14 6 -1 3 8 12 23 20 32 13 15 13 21 -1 50 -22 44 -37 234 -23 289 7 31 7 47 -1 60 -7 10 -12 28 -12 39 0 29 42 109 84 159 20 24 36 48 36 54 1 22 45 65 105 102 33 21 74 53 92 71 56 57 127 77 298 84 l150 6 -140 2 c-123 1 -148 -2 -201 -22z"
       id="path184" />
    <path
       d="M1663 2973 c9 -2 25 -2 35 0 9 3 1 5 -18 5 -19 0 -27 -2 -17 -5z"
       id="path185" />
    <path
       d="M1986 2907 c3 -10 9 -15 12 -12 3 3 0 11 -7 18 -10 9 -11 8 -5 -6z"
       id="path186" />
    <path
       d="M2001 2864 c0 -12 6 -24 14 -28 9 -3 15 -18 15 -35 0 -20 8 -34 25 -45 22 -14 25 -24 25 -71 0 -30 2 -55 4 -55 3 0 15 4 28 9 41 16 102 -52 112 -125 20 -134 22 -162 15 -213 -13 -101 -21 -206 -15 -201 6 7 28 216 30 290 0 30 -5 72 -12 93 -7 21 -10 42 -7 48 8 12 -51 96 -78 111 -12 7 -30 11 -39 9 -13 -2 -18 5 -18 23 0 36 -18 78 -40 93 -13 10 -20 26 -20 49 0 23 -5 34 -14 34 -8 0 -17 8 -19 18 -4 13 -5 12 -6 -4z"
       id="path187" />
    <path
       d="M2221 2065 c0 -5 6 -19 14 -29 8 -11 15 -15 15 -10 0 6 -7 19 -15 30 -8 10 -14 15 -14 9z"
       id="path188" />
    <path
       d="M2252 1980 c0 -19 2 -27 5 -17 2 9 2 25 0 35 -3 9 -5 1 -5 -18z"
       id="path189" />
    <path
       d="M890 1964 c0 -10 5 -26 10 -34 8 -11 9 -7 4 15 -8 37 -14 45 -14 19z"
       id="path190" />
    <path
       d="M2241 1924 c0 -11 3 -14 6 -6 3 7 2 16 -1 19 -3 4 -6 -2 -5 -13z"
       id="path191" />
    <path
       d="M911 1905 c1 -19 18 -51 18 -35 0 8 -4 22 -9 30 -5 8 -9 11 -9 5z"
       id="path192" />
    <path
       d="M2226 1874 c-4 -14 -5 -28 -3 -31 3 -2 8 8 11 23 4 14 5 28 3 31 -3 2 -8 -8 -11 -23z"
       id="path193" />
    <path
       d="M931 1845 c0 -5 6 -37 14 -70 14 -58 14 -59 9 -11 -5 44 -22 106 -23 81z"
       id="path194" />
    <path
       d="M2206 1804 c-4 -14 -5 -28 -3 -31 3 -2 8 8 11 23 4 14 5 28 3 31 -3 2 -8 -8 -11 -23z"
       id="path195" />
    <path
       d="M2170 1700 c-14 -33 -37 -50 -68 -50 -16 0 -26 -19 -51 -91 -18 -50 -30 -93 -28 -95 2 -2 17 35 34 82 27 80 32 88 63 98 31 10 80 69 68 82 -3 2 -11 -9 -18 -26z"
       id="path196" />
    <path
       d="M960 1701 c0 -4 13 -20 29 -35 16 -15 37 -49 46 -74 34 -89 73 -157 125 -217 29 -33 59 -73 66 -90 7 -16 13 -23 14 -15 0 19 -20 48 -81 120 -49 58 -71 96 -111 195 -21 51 -88 139 -88 116z"
       id="path197" />
    <path
       d="M2013 1415 c0 -22 2 -30 4 -17 2 12 2 30 0 40 -3 9 -5 -1 -4 -23z"
       id="path198" />
    <path
       d="M2022 1340 c0 -14 2 -19 5 -12 2 6 2 18 0 25 -3 6 -5 1 -5 -13z"
       id="path199" />
    <path
       d="M2030 1299 c0 -9 10 -31 23 -50 18 -27 34 -37 82 -49 33 -9 87 -33 120 -53 33 -20 83 -48 110 -63 91 -48 249 -162 348 -250 133 -118 256 -266 352 -425 l80 -132 0 -81 c1 -47 6 -89 13 -101 12 -19 12 -18 6 5 -4 14 -8 59 -8 101 l-1 76 -80 132 c-184 304 -394 500 -775 724 -58 34 -132 68 -165 77 -55 14 -62 18 -82 60 -13 24 -23 37 -23 29z"
       id="path200" />
    <path
       d="M1242 1194 c-2 -58 -11 -69 -93 -114 -30 -16 -49 -30 -43 -30 10 0 122 64 137 79 5 5 6 32 4 62 l-3 54 -2 -51z"
       id="path201" />
    <path
       d="M1040 1030 c-19 -11 -30 -19 -25 -19 6 0 26 8 45 19 19 11 31 19 25 19 -5 0 -26 -8 -45 -19z"
       id="path202" />
    <path
       d="M950 989 c-55 -34 -147 -118 -188 -173 -42 -54 -86 -135 -79 -142 2 -2 12 15 23 38 40 89 173 230 264 278 19 11 31 19 25 20 -5 0 -26 -10 -45 -21z"
       id="path203" />
    <path
       d="M672 630 c0 -19 2 -27 5 -17 2 9 2 25 0 35 -3 9 -5 1 -5 -18z"
       id="path204" />
    <path
       d="M662 560 c0 -19 2 -27 5 -17 2 9 2 25 0 35 -3 9 -5 1 -5 -18z"
       id="path205" />
    <path
       d="M653 485 c0 -22 2 -30 4 -17 2 12 2 30 0 40 -3 9 -5 -1 -4 -23z"
       id="path206" />
    <path
       d="M643 390 c0 -25 2 -35 4 -22 2 12 2 32 0 45 -2 12 -4 2 -4 -23z"
       id="path207" />
    <path
       d="M633 300 c0 -25 2 -35 4 -22 2 12 2 32 0 45 -2 12 -4 2 -4 -23z"
       id="path208" />
    <path
       d="M623 190 c0 -30 2 -43 4 -27 2 15 2 39 0 55 -2 15 -4 2 -4 -28z"
       id="path209" />
    <path
       d="M613 55 c0 -33 2 -45 4 -27 2 18 2 45 0 60 -2 15 -4 0 -4 -33z"
       id="path210" />
    <path
       d="M3176 50 c3 -14 10 -32 15 -40 7 -13 8 -13 8 0 0 8 -6 26 -15 40 l-15 25 7 -25z"
       id="path211" />
  </g>
  <g id="logo-refine">
    <path d="M124 70 C136 58 150 53 164 53 C178 53 194 59 205 72 C197 67 188 66 181 68 C173 70 167 73 160 74 C149 76 138 75 124 70 Z" fill="#18161A" fill-opacity="0.9" />
    <path d="M112 108 H153" fill="none" stroke="#1B1D22" stroke-width="4.2" stroke-linecap="round" />
    <path d="M166 108 H207" fill="none" stroke="#1B1D22" stroke-width="4.2" stroke-linecap="round" />
    <rect x="112" y="108" width="41" height="24" rx="8" fill="none" stroke="#1B1D22" stroke-width="3.2" />
    <rect x="166" y="108" width="41" height="24" rx="8" fill="none" stroke="#1B1D22" stroke-width="3.2" />
    <path d="M153 120 H166" fill="none" stroke="#1B1D22" stroke-width="3.2" stroke-linecap="round" />
    <path d="M122 120 C129 124 137 124 144 120" fill="none" stroke="#2A2528" stroke-width="2.1" stroke-linecap="round" />
    <path d="M176 120 C183 124 191 124 198 120" fill="none" stroke="#2A2528" stroke-width="2.1" stroke-linecap="round" />
    <path d="M159 131 C158 141 159 150 163 159" fill="none" stroke="#89675E" stroke-width="2.3" stroke-linecap="round" opacity="0.8" />
    <path d="M157 162 C161 164 166 164 170 162" fill="none" stroke="#99766C" stroke-width="1.8" stroke-linecap="round" opacity="0.78" />
    <path d="M138 189 C149 196 170 197 184 189" fill="none" stroke="#7A5B53" stroke-width="3.0" stroke-linecap="round" />
    <path d="M145 196 C153 199 165 199 173 196" fill="none" stroke="#E7C9BF" stroke-width="1.7" stroke-linecap="round" opacity="0.58" />
    <path d="M145 224 C155 229 167 229 178 227 C185 225 191 222 196 218" fill="none" stroke="#85665E" stroke-width="3.0" stroke-linecap="round" stroke-linejoin="round" />
  </g>
</svg>