<?xml version="1.0" encoding="UTF-8"?>
<svg xmlns="http://www.w3.org/2000/svg" width="320" height="320" viewBox="0 0 320 320" shape-rendering="geometricPrecision">
<g transform="translate(0.000000,320.000000) scale(0.100000,-0.100000)" fill="#1A171A" fill-opacity="0.988" stroke="none">
<path d="M1335 2965 c-22 -7 -33 -14 -25 -14 8 -1 -5 -13 -30 -26 -54 -29 -67
-31 -49 -8 12 14 10 14 -13 -1 -16 -10 -28 -22 -28 -27 0 -5 -33 -30 -72 -55
-72 -46 -117 -88 -118 -111 0 -6 -16 -30 -36 -54 -69 -83 -97 -158 -72 -198 8
-13 8 -29 1 -60 -14 -53 1 -247 21 -286 8 -15 12 -35 9 -44 -4 -9 -3 -13 2 -9
21 19 43 -13 50 -73 8 -67 21 -64 23 6 3 64 16 90 52 105 36 15 60 -2 60 -42
0 -11 5 -40 11 -65 14 -53 39 -67 134 -76 62 -6 34 3 -58 18 -49 8 -66 36 -74
118 -5 61 -4 66 18 80 46 30 163 31 295 4 6 -2 22 -10 34 -18 l23 -15 -23 -70
c-26 -81 -36 -93 -81 -104 l-34 -8 33 -1 c44 -1 84 40 107 109 21 62 46 79 75
50 11 -11 20 -28 20 -37 0 -10 11 -41 24 -70 28 -58 46 -67 166 -77 64 -5 64
-5 15 5 -27 5 -64 12 -81 15 -47 7 -63 24 -80 88 -21 81 -4 121 59 132 101 18
257 -7 271 -43 7 -17 -11 -127 -25 -155 -5 -9 -28 -21 -52 -26 l-42 -10 35 -1
c54 -2 76 20 100 99 21 66 53 101 42 45 -5 -29 3 -32 25 -9 11 10 19 12 26 5
15 -15 23 -97 16 -151 -3 -25 -7 -39 -7 -32 -1 6 -6 12 -12 12 -14 0 -13 -63
1 -77 15 -15 3 -34 -16 -26 -8 3 -15 0 -15 -7 0 -24 55 -6 58 19 3 16 0 21 -8
16 -8 -5 -11 -3 -8 6 3 8 11 13 17 12 6 -2 11 8 11 22 0 14 5 25 10 25 6 0 10
13 10 29 0 16 4 41 10 56 7 17 7 24 0 20 -6 -3 -10 4 -10 17 0 15 12 31 36 47
44 31 65 15 75 -56 l6 -48 2 40 c0 23 -6 50 -15 64 -17 23 -15 120 5 266 7 48
5 79 -14 203 -11 80 -68 148 -110 131 -33 -13 -35 -11 -35 46 0 47 -3 57 -25
71 -17 11 -25 25 -25 45 0 17 -6 32 -15 35 -8 4 -15 16 -15 28 0 12 -6 31 -14
42 -14 18 -15 18 -21 2 -11 -27 -22 -22 -35 17 -17 51 -32 54 -24 6 7 -45 1
-49 -35 -22 -14 10 -31 17 -38 14 -7 -3 -25 4 -40 15 -56 39 -365 58 -458 27z
m-7 -430 l-4 -35 26 25 c26 25 47 34 35 15 -3 -5 -1 -10 6 -10 10 0 10 -3 2
-11 -15 -15 11 -44 29 -33 8 5 9 2 5 -9 -10 -27 8 -20 23 8 8 15 16 21 20 15
5 -7 11 -6 20 5 7 8 20 15 30 15 9 0 20 3 24 8 4 4 11 7 14 7 4 1 18 7 30 14
35 19 37 7 8 -43 l-26 -45 22 6 c43 10 78 11 78 2 0 -8 45 8 101 37 14 7 29
11 33 7 3 -3 6 -1 6 5 0 6 6 9 14 6 7 -3 20 1 27 8 28 27 44 15 59 -45 12 -48
17 -57 35 -55 15 2 21 -3 23 -24 2 -15 12 -34 22 -41 11 -8 21 -22 23 -33 8
-41 20 -79 29 -90 10 -14 40 -125 35 -130 -2 -2 -17 0 -33 5 -138 43 -270 56
-364 37 -99 -21 -162 -20 -238 4 -101 32 -234 26 -404 -15 -21 -6 -27 -3 -33
14 -6 21 9 90 30 131 7 14 22 45 34 70 63 133 83 155 154 177 29 8 63 19 77
23 14 5 27 9 29 9 2 1 1 -15 -1 -34z"/>
<path d="M1201 2244 c-35 -25 -24 -31 57 -29 42 1 85 -2 94 -6 18 -10 48 -2
48 11 0 27 -167 46 -199 24z"/>
<path d="M1759 2235 c-3 -2 -16 -6 -30 -8 -29 -5 -40 -37 -12 -37 11 0 23 4
29 9 15 14 144 -8 176 -31 33 -23 40 -21 32 8 -10 37 -64 64 -130 64 -34 0
-63 -2 -65 -5z"/>
<path d="M1255 2089 c-22 -5 -44 -14 -49 -19 -15 -15 20 -13 45 3 17 10 23 10
26 0 6 -16 83 -17 83 -2 0 8 4 8 15 -1 8 -6 20 -10 27 -7 17 6 -55 37 -84 36
-13 -1 -41 -5 -63 -10z"/>
<path d="M1703 2083 c-20 -8 -15 -23 7 -23 11 0 20 5 20 11 0 6 7 3 16 -6 10
-9 31 -15 53 -15 20 1 54 -2 76 -5 33 -6 38 -5 27 6 -27 29 -157 50 -199 32z"/>
<path d="M892 2010 c0 -14 2 -19 5 -12 2 6 2 18 0 25 -3 6 -5 1 -5 -13z"/>
<path d="M2177 2012 c-22 -24 -21 -33 1 -25 18 7 42 28 42 37 0 13 -28 5 -43
-12z"/>
<path d="M1555 1770 c-3 -5 3 -10 13 -10 11 0 35 -3 53 -6 32 -5 33 -5 15 10
-22 18 -72 21 -81 6z"/>
<path d="M2033 1741 c-5 -3 -9 -11 -8 -18 0 -14 15 -30 15 -16 0 6 6 13 14 16
10 4 14 0 11 -14 -2 -10 0 -19 6 -19 5 0 9 11 9 24 0 24 -28 40 -47 27z"/>
<path d="M2156 1688 l-18 -33 21 25 c18 22 26 40 18 40 -1 0 -11 -15 -21 -32z"/>
<path d="M2074 1666 c-4 -9 -17 -22 -30 -27 -23 -8 -34 -39 -14 -39 6 0 10 8
10 17 0 12 3 14 10 7 17 -17 -5 -64 -29 -64 -11 0 -23 -4 -26 -10 -3 -5 1 -10
9 -10 9 0 16 -8 16 -18 0 -29 -29 -62 -55 -62 -15 0 -26 -7 -30 -20 -3 -11
-11 -19 -17 -17 -23 5 -17 -20 9 -32 21 -10 24 -14 12 -21 -10 -7 -16 -4 -21
8 -4 9 -7 12 -7 5 -1 -6 -10 -10 -20 -8 -11 2 -31 -7 -46 -21 -15 -14 -34 -23
-42 -20 -18 7 -73 -20 -73 -37 0 -9 -2 -9 -8 -1 -8 14 -52 0 -52 -16 0 -5 -7
-10 -15 -10 -9 0 -18 -7 -22 -16 -5 -13 -7 -13 -14 -2 -7 10 -11 7 -15 -10 -4
-15 -12 -21 -21 -18 -8 3 -18 6 -21 6 -4 0 -1 4 7 9 17 11 5 32 -14 24 -21 -7
-19 -49 3 -57 9 -3 23 -9 30 -12 7 -3 12 1 12 10 0 18 17 20 54 6 17 -6 26 -6
26 0 0 6 -4 10 -10 10 -5 0 -7 6 -4 14 3 8 12 12 20 9 8 -3 14 0 14 6 0 6 9
11 20 11 22 0 27 -15 8 -23 -7 -3 -4 -6 7 -6 24 -1 47 12 44 25 -4 22 2 30 24
31 12 0 16 -1 10 -4 -29 -11 -12 -29 23 -25 41 5 75 29 67 47 -2 7 0 16 6 20
6 3 11 0 11 -7 0 -7 10 -1 23 14 15 19 26 25 35 19 11 -7 11 -11 -2 -23 -16
-16 -12 -28 11 -28 7 0 13 9 13 21 0 11 4 18 9 15 5 -3 8 24 8 62 -2 99 53
251 92 253 21 1 22 2 6 6 -11 3 -23 10 -27 16 -4 8 -9 5 -14 -7z m-74 -291 c0
-8 -4 -15 -10 -15 -5 0 -7 7 -4 15 4 8 8 15 10 15 2 0 4 -7 4 -15z m-120 -80
c0 -9 -9 -15 -25 -15 -24 0 -32 10 -18 23 12 13 43 7 43 -8z"/>
<path d="M1310 1640 c0 -9 31 -30 44 -30 3 0 6 9 6 20 0 15 -7 20 -25 20 -14
0 -25 -4 -25 -10z"/>
<path d="M1670 1631 c6 -12 5 -22 -2 -29 -19 -19 19 -15 53 5 35 21 37 31 7
37 -52 10 -69 6 -58 -13z"/>
<path d="M1977 1513 c-13 -12 -7 -33 8 -33 8 0 15 9 15 20 0 20 -11 26 -23 13z"/>
<path d="M1150 1397 c0 -2 15 -16 33 -33 l32 -29 -29 33 c-28 30 -36 37 -36
29z"/>
<path d="M2010 1311 c0 -6 5 -13 10 -16 6 -3 10 -14 9 -23 0 -11 -3 -12 -6 -4
-6 15 -43 16 -43 1 0 -6 7 -9 15 -6 8 4 17 2 20 -4 4 -5 12 -6 18 -2 7 4 6 0
-2 -10 -12 -16 -8 -22 13 -18 4 1 15 -4 23 -11 13 -11 13 -13 -4 -19 -16 -7
-15 -8 5 -8 13 -1 22 -7 22 -16 0 -8 8 -15 18 -15 10 0 26 -6 36 -13 16 -12
15 -16 -15 -57 -118 -164 -337 -289 -555 -318 -150 -20 -217 4 -290 103 -29
40 -29 41 -28 175 1 74 0 123 -3 108 -5 -34 -62 -70 -203 -133 -198 -86 -353
-257 -374 -410 -19 -139 -46 -403 -52 -503 l-7 -112 1286 0 c708 0 1287 2
1287 5 0 2 -10 30 -22 62 -15 40 -22 81 -22 134 l-1 76 -80 132 c-168 278
-429 529 -702 676 -26 14 -77 43 -113 65 -36 22 -89 44 -117 50 -57 12 -87 40
-98 90 -6 27 -25 43 -25 21z"/>
<path d="M1504 1252 c4 -8 0 -12 -11 -12 -15 0 -16 -2 -3 -10 8 -5 18 -10 23
-10 11 0 8 28 -5 36 -7 4 -8 3 -4 -4z"/>
</g>
<g transform="translate(0.000000,320.000000) scale(0.100000,-0.100000)" fill="#B59589" stroke="none">
<path d="M1264 2936 c-30 -13 -54 -37 -37 -36 4 1 28 12 53 25 48 26 36 33
-16 11z"/>
<path d="M1300 2560 c-14 -4 -48 -15 -77 -23 -71 -22 -91 -44 -154 -177 -12
-25 -27 -56 -34 -70 -21 -41 -36 -110 -30 -131 6 -17 12 -20 33 -14 170 41
303 47 404 15 76 -24 139 -25 238 -4 94 19 226 6 364 -37 16 -5 31 -7 33 -5 5
5 -25 116 -35 130 -9 11 -21 49 -29 90 -2 11 -12 25 -23 33 -10 7 -20 26 -22
41 -2 21 -8 26 -23 24 -18 -2 -23 7 -35 55 -15 60 -31 72 -59 45 -7 -7 -20
-11 -27 -8 -8 3 -14 0 -14 -6 0 -6 -3 -8 -6 -5 -4 4 -19 0 -33 -7 -56 -29
-101 -45 -101 -37 0 9 -35 8 -78 -2 l-22 -6 26 45 c29 50 27 62 -8 43 -12 -7
-26 -13 -30 -14 -3 0 -10 -3 -14 -7 -4 -5 -15 -8 -24 -8 -10 0 -23 -7 -30 -15
-9 -11 -15 -12 -20 -5 -4 6 -12 0 -20 -15 -15 -28 -33 -35 -23 -8 4 11 3 14
-5 9 -18 -11 -44 18 -29 33 8 8 8 11 -2 11 -7 0 -9 5 -6 10 12 19 -9 10 -35
-15 l-26 -25 4 35 c2 19 3 35 1 34 -2 0 -15 -4 -29 -9z m68 -321 c17 -6 32
-14 32 -19 0 -13 -30 -21 -48 -11 -9 4 -52 7 -94 6 -81 -2 -92 4 -57 29 23 16
109 13 167 -5z m548 -21 c29 -20 50 -55 39 -66 -2 -2 -17 5 -33 16 -32 23
-161 45 -176 31 -6 -5 -18 -9 -29 -9 -28 0 -17 32 12 37 14 2 27 6 30 8 15 16
127 3 157 -17z"/>
<path d="M1188 2161 c-63 -13 -71 -26 -64 -100 7 -81 25 -108 73 -116 92 -15
120 -24 58 -18 -95 9 -120 23 -134 76 -6 25 -11 54 -11 65 0 40 -24 57 -60 42
-36 -15 -49 -41 -52 -105 -2 -70 -15 -73 -23 -6 -5 44 -12 64 -25 71 -48 26
-66 -68 -31 -158 11 -27 27 -85 36 -128 12 -60 22 -85 41 -102 14 -12 37 -50
51 -85 42 -104 69 -149 123 -212 79 -89 83 -103 85 -301 2 -171 2 -171 30
-210 72 -98 140 -122 289 -102 218 29 437 154 555 318 30 41 31 45 15 57 -10
7 -26 13 -36 13 -10 0 -18 7 -18 15 0 9 -9 15 -22 16 -20 0 -21 1 -5 8 17 6
17 8 4 19 -8 7 -19 12 -23 11 -20 -3 -26 2 -16 14 8 9 7 21 -3 41 -8 15 -13
32 -10 36 3 5 1 11 -5 15 -5 3 -10 -3 -10 -14 0 -12 -6 -21 -13 -21 -23 0 -27
12 -11 28 13 12 13 16 2 23 -9 6 -20 0 -35 -19 -13 -15 -23 -21 -23 -14 0 7
-5 10 -11 7 -6 -4 -8 -13 -6 -20 8 -18 -26 -42 -67 -47 -35 -4 -52 14 -23 25
6 3 2 4 -10 4 -22 -1 -28 -9 -24 -31 3 -13 -20 -26 -44 -25 -11 0 -14 3 -7 6
19 8 14 23 -8 23 -11 0 -20 -5 -20 -11 0 -6 -6 -9 -14 -6 -8 3 -17 -1 -20 -9
-3 -8 -1 -14 4 -14 6 0 10 -4 10 -10 0 -6 -9 -6 -26 0 -37 14 -54 12 -54 -6 0
-9 -5 -13 -12 -10 -7 3 -21 9 -30 12 -22 8 -24 50 -3 57 18 8 32 -13 15 -23
-8 -5 -7 -9 5 -14 23 -8 22 -9 29 17 4 16 8 19 15 9 7 -11 9 -11 14 2 4 9 13
16 22 16 8 0 15 5 15 10 0 16 44 30 52 16 6 -8 8 -8 8 1 0 17 55 44 73 37 8
-3 27 6 42 20 15 14 35 23 46 21 10 -2 19 2 20 8 0 7 3 4 7 -5 5 -12 11 -15
21 -8 12 7 9 11 -12 21 -26 12 -32 37 -9 32 6 -2 14 6 17 17 4 13 15 20 30 20
26 0 55 33 55 62 0 10 -7 18 -16 18 -8 0 -12 5 -9 10 3 6 15 10 26 10 24 0 46
47 29 64 -7 7 -10 5 -10 -7 0 -9 -5 -17 -11 -17 -6 0 -9 8 -7 18 2 10 12 17
25 16 12 0 20 3 18 6 -2 4 2 16 10 26 8 11 14 14 15 7 0 -24 47 -14 65 14 27
40 76 201 82 268 4 50 2 64 -15 85 l-20 24 -36 -24 c-24 -17 -36 -33 -36 -48
0 -13 4 -20 10 -17 7 4 7 -3 0 -20 -6 -15 -10 -40 -10 -56 0 -16 -4 -29 -10
-29 -5 0 -10 -11 -10 -25 0 -14 -5 -24 -11 -22 -6 1 -14 -4 -17 -12 -3 -9 0
-11 8 -6 8 5 11 0 8 -16 -3 -25 -58 -43 -58 -19 0 7 7 10 15 7 19 -8 31 11 16
26 -14 14 -15 77 -1 77 6 0 11 -6 12 -12 0 -7 4 7 7 32 7 54 -1 136 -16 151
-7 7 -15 5 -26 -5 -22 -23 -30 -20 -25 9 11 56 -21 21 -42 -45 -24 -79 -46
-101 -100 -99 l-35 1 42 10 c24 5 47 17 52 26 14 28 32 138 25 155 -14 36
-170 61 -271 43 -63 -11 -80 -51 -59 -132 17 -64 33 -81 80 -88 17 -3 54 -10
81 -15 49 -10 49 -10 -15 -5 -120 10 -138 19 -166 77 -13 29 -24 60 -24 70 0
9 -9 26 -20 37 -29 29 -54 12 -75 -50 -23 -69 -63 -110 -107 -109 l-33 1 34 8
c45 11 55 23 81 104 l23 70 -23 15 c-12 8 -28 16 -34 18 -113 23 -180 27 -248
14z m190 -77 c20 -9 31 -18 24 -21 -7 -3 -19 1 -27 7 -11 9 -15 9 -15 1 0 -15
-77 -14 -83 2 -3 10 -9 10 -26 0 -25 -16 -60 -18 -45 -3 10 10 76 27 112 29
12 1 39 -6 60 -15z m469 -7 c61 -18 82 -42 28 -32 -22 3 -56 6 -76 5 -22 0
-43 6 -53 15 -9 9 -16 12 -16 6 0 -6 -9 -11 -20 -11 -22 0 -27 15 -7 23 23 10
102 7 144 -6z m373 -53 c0 -9 -24 -30 -42 -37 -22 -8 -23 1 -1 25 15 17 43 25
43 12z m-584 -260 c18 -15 17 -15 -15 -10 -18 3 -42 6 -53 6 -10 0 -16 5 -13
10 9 15 59 12 81 -6z m444 -50 c0 -13 -4 -24 -9 -24 -6 0 -8 9 -6 19 3 14 -1
18 -11 14 -8 -3 -14 -10 -14 -16 0 -14 -15 2 -15 16 -1 17 14 25 36 20 12 -3
19 -14 19 -29z m-720 -84 c0 -23 -4 -24 -31 -10 -27 15 -24 30 6 30 18 0 25
-5 25 -20z m368 14 c30 -6 28 -16 -7 -37 -34 -20 -72 -24 -53 -5 7 7 8 17 2
29 -11 19 6 23 58 13z m272 -144 c0 -11 -7 -20 -15 -20 -15 0 -21 21 -8 33 12
13 23 7 23 -13z m25 -237 c5 -14 3 -15 -6 -6 -6 6 -18 9 -25 6 -8 -3 -14 0
-14 6 0 18 37 13 45 -6z m-505 -29 c0 -16 -9 -18 -30 -4 -13 8 -12 10 3 10 11
0 15 4 11 12 -4 7 -3 8 4 4 7 -4 12 -14 12 -22z"/>
<path d="M1986 1375 c-3 -8 -1 -15 4 -15 6 0 10 7 10 15 0 8 -2 15 -4 15 -2 0
-6 -7 -10 -15z"/>
<path d="M1837 1303 c-14 -13 -6 -23 18 -23 16 0 25 6 25 15 0 15 -31 21 -43
8z"/>
</g>
<g transform="translate(0.000000,320.000000) scale(0.100000,-0.100000)" fill="#3A4044" fill-opacity="0.365" stroke="none">
<path d="M1886 2963 c6 -41 -5 -58 -22 -32 -3 6 -15 8 -27 5 -12 -3 -30 3 -45
15 -14 10 -36 18 -51 18 l-26 -2 25 -4 c14 -3 37 -14 53 -25 15 -11 33 -18 40
-15 7 3 24 -4 38 -14 36 -27 42 -23 35 22 -8 48 7 45 24 -6 12 -37 24 -44 33
-21 4 10 1 13 -9 9 -8 -3 -14 1 -14 11 0 9 -14 30 -30 48 l-30 33 6 -42z"/>
<path d="M1304 2966 c-67 -25 -121 -56 -145 -83 -8 -10 -45 -39 -81 -64 -46
-33 -71 -60 -87 -91 -12 -25 -33 -56 -47 -69 -51 -47 -94 -181 -62 -191 9 -3
9 -17 1 -59 -16 -81 -2 -257 23 -293 11 -16 10 -22 -3 -42 -8 -13 -13 -28 -11
-33 1 -5 11 6 20 24 14 29 15 36 2 61 -20 38 -35 232 -21 285 7 31 7 47 -1 60
-25 40 3 115 72 198 20 24 36 48 36 54 1 22 45 65 105 102 33 21 74 53 92 71
56 57 127 77 298 84 l150 6 -140 2 c-123 1 -148 -2 -201 -22z"/>
<path d="M1663 2973 c9 -2 25 -2 35 0 9 3 1 5 -18 5 -19 0 -27 -2 -17 -5z"/>
<path d="M2001 2864 c0 -12 6 -24 14 -28 9 -3 15 -18 15 -35 0 -20 8 -34 25
-45 22 -14 25 -24 25 -71 0 -57 2 -59 35 -46 42 17 99 -51 110 -131 19 -124
21 -155 14 -207 -13 -101 -21 -206 -15 -201 6 7 28 216 30 290 0 30 -5 72 -12
93 -7 21 -10 42 -7 48 8 12 -51 96 -78 111 -12 7 -30 11 -39 9 -13 -2 -18 5
-18 23 0 36 -18 78 -40 93 -13 10 -20 26 -20 49 0 23 -5 34 -14 34 -8 0 -17 8
-19 18 -4 13 -5 12 -6 -4z"/>
<path d="M2221 2065 c0 -5 6 -19 14 -29 8 -11 15 -15 15 -10 0 6 -7 19 -15 30
-8 10 -14 15 -14 9z"/>
<path d="M2252 1980 c0 -19 2 -27 5 -17 2 9 2 25 0 35 -3 9 -5 1 -5 -18z"/>
<path d="M890 1969 c0 -13 5 -31 10 -39 7 -11 8 -5 4 20 -8 43 -14 51 -14 19z"/>
<path d="M911 1905 c1 -19 18 -51 18 -35 0 8 -4 22 -9 30 -5 8 -9 11 -9 5z"/>
<path d="M2226 1874 c-4 -14 -5 -28 -3 -31 3 -2 8 8 11 23 4 14 5 28 3 31 -3
2 -8 -8 -11 -23z"/>
<path d="M931 1845 c0 -5 6 -37 13 -70 9 -38 14 -49 14 -30 0 27 -25 123 -27
100z"/>
<path d="M2206 1804 c-4 -14 -5 -28 -3 -31 3 -2 8 8 11 23 4 14 5 28 3 31 -3
2 -8 -8 -11 -23z"/>
<path d="M960 1703 c0 -5 13 -22 29 -37 16 -15 37 -49 46 -74 33 -87 67 -147
118 -206 28 -32 59 -74 69 -94 10 -20 18 -30 18 -22 0 20 -25 57 -81 122 -49
56 -71 95 -112 196 -22 54 -87 140 -87 115z"/>
<path d="M2153 1675 c-12 -14 -32 -25 -46 -25 -22 0 -28 -10 -56 -91 -18 -50
-30 -93 -28 -95 2 -2 17 35 34 82 27 79 32 88 63 98 18 6 40 21 48 34 19 29
12 28 -15 -3z"/>
<path d="M2013 1415 c0 -22 2 -30 4 -17 2 12 2 30 0 40 -3 9 -5 -1 -4 -23z"/>
<path d="M2022 1340 c0 -14 2 -19 5 -12 2 6 2 18 0 25 -3 6 -5 1 -5 -13z"/>
<path d="M2040 1274 c0 -29 42 -63 93 -74 28 -6 81 -28 117 -50 36 -22 87 -51
113 -65 273 -147 534 -398 702 -676 l80 -132 1 -81 c0 -46 6 -90 13 -101 11
-18 11 -18 5 5 -4 14 -8 59 -8 101 l-1 76 -80 132 c-183 305 -395 502 -780
726 -67 40 -131 69 -163 76 -43 9 -57 17 -73 42 -10 18 -19 27 -19 21z"/>
<path d="M1242 1194 c-2 -58 -11 -69 -93 -114 -30 -16 -49 -30 -43 -30 10 0
122 64 137 79 5 5 6 32 4 62 l-3 54 -2 -51z"/>
<path d="M1040 1030 c-19 -11 -30 -19 -25 -19 6 0 26 8 45 19 19 11 31 19 25
19 -5 0 -26 -8 -45 -19z"/>
<path d="M950 989 c-55 -34 -147 -118 -188 -173 -39 -51 -82 -128 -82 -143 1
-4 13 14 27 42 54 104 171 226 266 277 18 9 28 17 22 18 -5 0 -26 -10 -45 -21z"/>
<path d="M672 630 c0 -19 2 -27 5 -17 2 9 2 25 0 35 -3 9 -5 1 -5 -18z"/>
<path d="M662 560 c0 -19 2 -27 5 -17 2 9 2 25 0 35 -3 9 -5 1 -5 -18z"/>
<path d="M653 485 c0 -22 2 -30 4 -17 2 12 2 30 0 40 -3 9 -5 -1 -4 -23z"/>
<path d="M643 390 c0 -25 2 -35 4 -22 2 12 2 32 0 45 -2 12 -4 2 -4 -23z"/>
<path d="M633 300 c0 -25 2 -35 4 -22 2 12 2 32 0 45 -2 12 -4 2 -4 -23z"/>
<path d="M623 190 c0 -30 2 -43 4 -27 2 15 2 39 0 55 -2 15 -4 2 -4 -28z"/>
<path d="M613 55 c0 -33 2 -45 4 -27 2 18 2 45 0 60 -2 15 -4 0 -4 -33z"/>
<path d="M3176 50 c9 -36 23 -60 23 -40 0 8 -6 26 -15 40 l-15 25 7 -25z"/>
</g>
</svg>