<?xml version="1.0" encoding="UTF-8"?>
<svg xmlns="http://www.w3.org/2000/svg" width="256" height="256" viewBox="0 0 256 256" shape-rendering="geometricPrecision">
<g transform="translate(0.000000,256.000000) scale(0.100000,-0.100000)" fill="#8D9EA9" stroke="none">
<path d="M800 2549 c0 -5 -4 -8 -9 -5 -5 3 -12 -1 -15 -9 -4 -11 -13 -14 -29
-10 -15 4 -28 1 -36 -9 -11 -14 -11 -16 5 -17 11 -1 29 -3 42 -4 16 -2 21 2
18 11 -3 9 1 14 12 14 21 1 54 25 45 33 -10 11 -33 8 -33 -4z"/>
<path d="M870 2550 c8 -5 23 -10 33 -10 9 0 17 -3 17 -7 0 -15 -66 -63 -87
-63 -14 0 -22 -4 -18 -11 4 -5 -10 -3 -30 5 -35 15 -38 15 -57 -7 -13 -15 -21
-18 -24 -9 -3 6 -10 10 -15 6 -5 -3 -9 8 -9 25 0 29 -1 30 -28 20 -16 -5 -29
-16 -29 -24 0 -18 14 -20 19 -4 2 6 9 -1 16 -16 12 -26 12 -27 -18 -20 -18 4
-30 3 -30 -4 0 -6 -7 -8 -15 -4 -17 6 -17 -16 0 -30 6 -5 4 -7 -5 -4 -21 5
-26 47 -6 47 9 0 16 7 16 15 0 10 -10 15 -32 14 -31 -1 -32 -1 -8 -9 14 -4 19
-8 13 -9 -7 -1 -13 -8 -13 -16 0 -18 -20 -20 -20 -2 0 6 -6 3 -12 -7 -8 -15
-8 -21 0 -24 24 -8 12 -24 -13 -18 -18 5 -27 1 -35 -14 -6 -11 -16 -17 -25
-14 -20 8 -19 44 1 44 8 0 12 -4 9 -10 -3 -5 -1 -10 4 -10 6 0 11 9 11 21 0
12 8 23 20 26 11 3 20 12 20 19 0 20 -17 17 -33 -7 -8 -11 -25 -20 -38 -21
-51 0 -71 -8 -60 -22 6 -7 8 -16 4 -20 -4 -4 0 -4 9 -1 24 9 30 -10 10 -29
-14 -12 -25 -14 -49 -7 -17 5 -34 7 -37 3 -10 -9 -7 -20 7 -25 6 -2 2 -2 -11
0 -12 2 -32 -3 -45 -11 -12 -8 -34 -12 -49 -9 -27 5 -32 13 -29 42 2 8 -2 10
-11 5 -9 -6 -9 -3 1 10 13 16 12 17 -15 10 -40 -9 -40 -11 -15 -33 13 -11 18
-22 12 -25 -17 -11 -51 17 -51 41 0 27 -7 28 -34 8 -12 -9 -15 -15 -7 -15 8 0
11 -6 7 -15 -5 -13 8 -19 34 -17 3 0 6 -8 6 -19 0 -23 -31 -26 -52 -4 -9 8
-24 15 -35 15 -10 0 -19 5 -19 10 0 6 -4 10 -10 10 -21 0 -10 -39 13 -43 l22
-4 -22 -2 -23 -1 0 -1135 0 -1135 244 0 243 0 7 103 c4 56 11 131 16 167 5 36
14 110 21 165 15 126 41 177 135 270 75 74 76 75 198 130 43 20 91 44 106 55
36 26 40 25 40 -5 0 -18 4 -23 16 -18 9 3 12 9 7 12 -5 3 -8 13 -8 21 0 8 -6
42 -13 75 -12 56 -39 102 -85 148 -10 10 -15 22 -12 26 2 5 -2 12 -11 15 -9 4
-14 9 -10 13 3 3 -1 14 -10 24 -8 9 -17 23 -18 31 -2 7 -6 20 -10 29 -4 9 -8
29 -9 45 -2 23 -8 29 -25 30 -29 2 -44 16 -47 46 -2 13 -8 36 -14 51 -6 15
-10 31 -9 35 1 4 -6 25 -16 47 -27 62 -31 108 -11 129 15 15 16 21 5 44 -7 15
-14 38 -15 52 -2 14 -6 52 -10 85 -4 33 -2 79 3 103 8 35 7 44 -4 49 -18 7
-18 33 0 58 7 11 17 31 21 45 8 24 41 60 55 60 4 0 8 11 8 25 0 14 11 34 27
47 15 13 39 34 54 48 14 14 29 25 34 26 4 1 13 3 20 4 6 1 1 6 -13 10 l-25 8
28 1 c16 1 26 5 23 9 -3 4 17 17 45 27 27 11 49 23 49 28 0 4 -6 5 -12 1 -10
-5 -10 -4 -1 6 8 9 38 12 95 11 89 -2 100 -2 138 1 14 1 42 -2 63 -6 26 -6 42
-5 50 3 15 15 30 14 21 -1 -5 -8 -2 -9 11 -5 9 4 24 2 31 -4 8 -6 14 -8 14 -3
0 4 6 0 13 -9 17 -24 60 -12 52 14 -7 21 5 25 23 7 7 -7 12 -8 12 -4 0 11 60
-56 60 -66 0 -5 9 -8 20 -8 11 0 20 -7 20 -15 0 -8 5 -15 10 -15 12 0 34 -48
31 -66 -1 -7 5 -14 13 -17 8 -3 17 -24 21 -47 6 -35 10 -40 28 -35 12 2 16 2
9 -1 -6 -3 -9 -10 -6 -15 3 -6 12 -5 22 3 13 11 14 11 4 -8 -13 -25 -7 -34 25
-34 14 0 21 -4 18 -10 -4 -6 -9 -8 -13 -6 -4 2 -7 -12 -7 -32 1 -19 5 -37 11
-39 6 -2 9 -17 6 -33 -3 -19 -8 -27 -16 -23 -6 4 -5 -1 2 -10 8 -9 11 -20 9
-24 -3 -5 -9 -44 -12 -87 -4 -43 -11 -92 -15 -108 -6 -19 -4 -40 6 -65 17 -39
13 -80 -11 -127 -8 -15 -15 -37 -15 -48 0 -64 -51 -145 -83 -132 -8 2 -23 -29
-41 -86 -27 -85 -29 -95 -18 -152 16 -86 31 -104 96 -118 30 -6 60 -18 66 -26
7 -7 17 -14 22 -14 6 0 23 -9 39 -21 16 -11 34 -17 40 -13 7 4 9 3 6 -3 -4 -6
1 -14 10 -17 9 -4 61 -37 117 -74 68 -45 144 -111 236 -201 74 -74 120 -118
103 -98 -36 41 -41 52 -20 44 10 -4 13 2 9 19 -6 31 -27 48 -49 39 -24 -8 -28
-7 -28 8 -1 6 8 17 20 24 20 12 20 12 -2 13 -20 0 -21 3 -11 31 7 21 7 38 0
53 -13 29 -4 76 19 98 23 23 27 22 31 -1 3 -18 5 -18 22 -6 19 14 19 15 0 22
-10 4 -24 13 -30 21 -9 12 -13 12 -27 -3 -19 -19 -19 -19 -22 52 -1 29 2 53 7
53 5 0 1 12 -9 27 -13 19 -14 28 -5 31 6 2 12 10 12 17 0 22 18 27 42 13 13
-7 27 -11 32 -10 5 2 4 -3 -2 -11 -13 -16 -5 -50 9 -41 16 9 10 -24 -11 -58
l-19 -34 23 -27 c23 -27 25 -27 31 -8 3 12 6 33 5 48 -1 16 -2 39 -2 53 -1 14
2 42 7 63 6 30 5 38 -6 36 -8 -2 -31 3 -51 11 -31 12 -35 16 -25 29 9 12 9 13
0 7 -9 -5 -13 0 -13 13 0 12 4 21 9 21 5 0 8 17 8 38 0 21 3 44 7 50 4 7 4 21
1 32 -4 12 -2 20 5 20 7 0 10 7 6 15 -3 10 1 15 11 15 14 0 15 10 10 71 -6 67
-5 70 15 63 13 -4 24 -1 29 7 6 10 9 11 9 2 0 -7 5 -13 11 -13 5 0 8 4 4 9 -3
5 1 16 10 24 13 13 13 16 -1 21 -22 9 -24 8 -24 -10 0 -12 -9 -7 -32 17 -37
38 -41 51 -18 61 12 5 11 7 -4 7 -18 1 -18 2 1 19 20 17 23 22 23 42 0 6 7 10
15 10 8 0 15 -4 15 -9 0 -5 12 -8 26 -6 15 1 28 -3 31 -12 4 -10 9 -11 19 -2
15 12 20 44 5 35 -5 -3 -14 1 -21 9 -12 15 -44 9 -34 -6 3 -5 -2 -9 -10 -9
-12 0 -16 10 -16 39 0 32 4 40 22 45 22 5 22 6 3 20 -11 8 -23 12 -27 10 -7
-5 -30 31 -24 37 2 2 -2 10 -10 17 -11 10 -13 7 -7 -19 8 -39 -15 -37 -35 4
-8 16 -21 27 -33 27 -10 0 -19 7 -19 15 0 8 -4 15 -9 15 -14 0 -5 36 17 68 10
15 22 39 26 55 5 20 12 27 31 27 14 0 25 -5 25 -11 0 -5 4 -8 9 -5 14 9 5 42
-10 37 -8 -2 -32 -4 -54 -5 -41 0 -62 -17 -49 -38 14 -22 13 -58 -1 -58 -7 0
-15 -6 -18 -12 -2 -7 -2 -1 0 15 3 18 0 29 -12 33 -15 6 -15 8 0 24 13 15 14
23 5 39 -6 12 -15 21 -19 21 -5 0 -11 9 -14 20 -3 13 0 20 9 20 8 0 14 -4 14
-10 0 -6 10 -5 26 2 17 8 28 9 32 1 13 -20 50 -34 58 -22 7 12 -13 29 -35 29
-10 0 -11 3 -2 14 13 15 4 49 -10 40 -5 -3 -9 9 -9 26 0 17 4 29 9 26 20 -13
19 25 -2 39 -12 8 -21 16 -19 18 2 1 0 10 -3 20 -9 22 -25 22 -25 -1 0 -10 -5
-23 -12 -30 -9 -9 -6 -12 14 -12 15 0 30 -4 33 -10 3 -5 1 -10 -4 -10 -6 0
-11 -18 -11 -40 0 -22 5 -40 10 -40 6 0 10 -4 10 -8 0 -5 -14 -9 -31 -8 -27 1
-32 5 -35 29 -2 18 2 27 12 27 8 0 14 6 14 14 0 9 -9 14 -20 13 -11 -1 -20 -7
-20 -14 0 -7 -7 -13 -16 -13 -11 0 -13 -6 -9 -19 4 -15 0 -20 -17 -23 -15 -2
-22 -9 -20 -20 2 -11 -3 -18 -13 -18 -13 0 -14 -4 -5 -20 13 -25 6 -39 -18
-35 -9 2 -19 4 -22 4 -3 1 2 6 10 11 8 5 15 15 15 22 2 23 23 65 47 91 45 49
51 58 41 68 -7 7 -16 5 -26 -5 -9 -9 -18 -16 -20 -16 -9 0 -14 49 -6 63 5 8 3
22 -5 33 -11 15 -16 16 -29 6 -13 -11 -20 -9 -41 9 -33 29 -73 35 -95 14 -10
-8 -21 -12 -24 -8 -4 3 -7 1 -7 -6 0 -7 -4 -9 -10 -6 -5 3 -19 0 -31 -8 -11
-9 -16 -16 -9 -19 7 -2 8 -11 4 -22 -7 -18 -8 -18 -15 1 -8 23 -1 63 11 63 4
0 10 9 13 20 3 13 0 20 -9 20 -8 0 -14 -4 -14 -10 0 -15 -29 -12 -46 5 -9 8
-16 24 -17 35 -1 22 -1 21 -34 25 -13 1 -23 -2 -23 -6 0 -5 5 -9 10 -9 6 0 10
-4 10 -10 0 -16 -37 -12 -44 5 -9 25 2 39 49 64 46 25 54 43 19 50 -17 3 -17
2 -4 -15 14 -16 13 -17 -3 -11 -10 4 -23 7 -28 7 -5 0 -9 7 -9 15 0 8 -9 15
-20 15 -11 0 -20 -3 -20 -8 0 -4 9 -13 20 -20 11 -7 20 -17 20 -23 0 -5 -4 -8
-9 -4 -5 3 -17 -2 -26 -11 -22 -23 -26 -15 -26 50 0 41 -4 56 -14 56 -8 0 -17
-4 -20 -10 -3 -5 -1 -10 4 -10 19 0 12 -28 -9 -35 -27 -8 -25 -23 3 -28 20 -4
20 -4 1 -6 -11 0 -28 5 -38 12 -17 12 -17 15 -2 29 21 22 20 28 -4 28 -11 0
-20 -5 -20 -11 0 -6 -7 -4 -15 5 -16 15 -45 12 -45 -5 0 -5 -7 -9 -15 -9 -8 0
-15 9 -15 20 0 19 -6 20 -117 19 -65 -1 -123 -6 -130 -11 -7 -5 -13 -5 -17 0
-3 6 -62 11 -130 11 -124 2 -124 2 -150 -26 -25 -26 -26 -27 -26 -6 0 23 -18
33 -58 33 -21 0 -24 -2 -12 -10z m273 -27 c-7 -2 -21 -2 -30 0 -10 3 -4 5 12
5 17 0 24 -2 18 -5z m-163 -29 c0 -8 -4 -13 -9 -10 -5 3 -11 -1 -15 -9 -3 -8
-12 -12 -21 -9 -21 9 -19 25 5 31 11 3 20 10 20 15 0 5 5 6 10 3 6 -3 10 -13
10 -21z m60 16 c0 -5 -4 -10 -10 -10 -5 0 -10 5 -10 10 0 6 5 10 10 10 6 0 10
-4 10 -10z m544 -26 c3 -7 -1 -18 -9 -24 -11 -9 -16 -7 -24 9 -6 11 -11 22
-11 25 0 10 40 1 44 -10z m-269 -84 c3 -6 -1 -7 -9 -4 -18 7 -21 14 -7 14 6 0
13 -4 16 -10z m388 -20 c-7 -28 -13 -25 -13 6 0 14 4 23 9 20 5 -3 7 -15 4
-26z m30 -55 c11 -7 25 -11 32 -9 7 3 33 -2 57 -11 l43 -16 -49 6 c-27 3 -64
5 -82 5 -27 0 -34 4 -34 20 0 23 8 25 33 5z m87 5 c0 -5 -4 -10 -10 -10 -5 0
-10 5 -10 10 0 6 5 10 10 10 6 0 10 -4 10 -10z m214 -19 c3 -4 -10 -8 -29 -7
-19 0 -35 4 -35 9 0 10 58 9 64 -2z m-8 -53 c3 -4 0 -16 -6 -28 -11 -21 -12
-21 -29 -3 -10 10 -16 24 -14 30 5 12 37 13 49 1z m-86 -5 c-1 -18 -19 -35
-29 -28 -9 5 -7 11 6 21 21 16 23 16 23 7z m145 -13 c-5 -16 -2 -20 16 -20 17
0 20 -3 12 -11 -16 -16 -54 -1 -51 19 3 15 16 31 26 32 2 0 0 -9 -3 -20z
m-1948 -26 c-3 -3 -12 -4 -19 -1 -8 3 -5 6 6 6 11 1 17 -2 13 -5z m1767 -9 c3
-8 1 -15 -4 -15 -6 0 -10 7 -10 15 0 8 2 15 4 15 2 0 6 -7 10 -15z m-1857 -27
c-3 -8 -6 -5 -6 6 -1 11 2 17 5 13 3 -3 4 -12 1 -19z m1843 -18 c5 0 11 6 14
13 4 7 5 6 3 -3 -5 -22 -32 -18 -33 5 -1 15 0 16 3 3 3 -10 8 -18 13 -18z
m-142 18 c-2 -6 -10 -14 -16 -16 -7 -2 -10 2 -6 12 7 18 28 22 22 4z m191 -5
c0 -5 -3 -9 -9 -11 -5 -2 -10 4 -10 13 0 16 16 14 19 -2z m61 2 c0 -8 -4 -15
-8 -15 -5 0 -9 7 -9 15 0 8 4 15 9 15 4 0 8 -7 8 -15z m70 -5 c12 -8 9 -10
-13 -10 -16 0 -26 4 -22 10 8 12 16 12 35 0z m70 0 c0 -5 -8 -10 -17 -10 -15
0 -16 2 -3 10 19 12 20 12 20 0z m-123 -30 c-1 -22 -17 -28 -17 -7 0 12 9 27
16 27 2 0 2 -9 1 -20z m-33 -25 c-4 -8 -12 -15 -20 -15 -20 0 -17 18 4 23 12
3 11 5 -6 6 -13 0 -20 6 -17 11 10 16 45 -7 39 -25z m121 22 c13 4 16 3 11 -5
-4 -7 -20 -12 -36 -12 -22 0 -28 4 -24 15 5 11 10 13 19 5 7 -6 21 -7 30 -3z
m-1405 -67 c0 -5 -2 -10 -4 -10 -3 0 -8 5 -11 10 -3 6 -1 10 4 10 6 0 11 -4
11 -10z m1362 -28 c-4 -13 -7 -12 -12 4 -4 10 -5 23 -2 28 7 13 21 -16 14 -32z
m159 -55 c-5 -5 -19 -6 -31 -2 l-22 7 23 12 c25 13 47 0 30 -17z m-61 -27 c0
-11 -4 -20 -9 -20 -6 0 -9 9 -8 20 1 11 5 20 9 20 4 0 8 -9 8 -20z m38 -12
c-2 -6 -10 -14 -16 -16 -7 -2 -10 2 -6 12 7 18 28 22 22 4z m42 -98 c0 -5 -2
-10 -4 -10 -3 0 -8 5 -11 10 -3 6 -1 10 4 10 6 0 11 -4 11 -10z m100 -100 c0
-4 12 -7 27 -6 14 0 28 -5 30 -11 3 -7 -3 -13 -12 -13 -9 0 -13 -4 -10 -10 3
-5 1 -10 -4 -10 -6 0 -11 -4 -11 -10 0 -5 8 -10 17 -10 14 0 14 -3 -5 -20 -12
-11 -23 -20 -26 -20 -10 0 -3 75 8 83 7 5 6 7 -4 6 -29 -3 -36 1 -37 20 -1 14
3 18 13 14 8 -3 14 -9 14 -13z m-23 -217 c-2 -16 -4 -5 -4 22 0 28 2 40 4 28
2 -13 2 -35 0 -50z m-57 17 c0 -5 -4 -10 -10 -10 -5 0 -10 5 -10 10 0 6 5 10
10 10 6 0 10 -4 10 -10z m-15 -50 c3 -5 1 -10 -4 -10 -6 0 -11 5 -11 10 0 6 2
10 4 10 3 0 8 -4 11 -10z m40 -40 c3 -6 -1 -7 -9 -4 -18 7 -21 14 -7 14 6 0
13 -4 16 -10z m-55 -90 c0 -5 -5 -10 -11 -10 -5 0 -7 5 -4 10 3 6 8 10 11 10
2 0 4 -4 4 -10z m87 -42 c-3 -7 -5 -2 -5 12 0 14 2 19 5 13 2 -7 2 -19 0 -25z
m-87 -24 c0 -8 -4 -12 -10 -9 -5 3 -10 10 -10 16 0 5 5 9 10 9 6 0 10 -7 10
-16z m4 -134 c10 -13 9 -13 -6 -1 -10 7 -17 23 -17 35 1 20 2 20 6 1 3 -11 10
-27 17 -35z m-29 -230 c-3 -5 -12 -10 -18 -10 -7 0 -6 4 3 10 19 12 23 12 15
0z m-69 -97 c-10 -10 -19 5 -10 18 6 11 8 11 12 0 2 -7 1 -15 -2 -18z m-4 -87
c8 -11 11 -36 5 -36 -2 0 -16 14 -31 31 -27 30 -27 31 -4 24 12 -4 26 -13 30
-19z m108 4 c0 -11 -4 -20 -9 -20 -5 0 -7 9 -4 20 3 11 7 20 9 20 2 0 4 -9 4
-20z m-55 -30 c3 -5 1 -10 -4 -10 -6 0 -11 5 -11 10 0 6 2 10 4 10 3 0 8 -4
11 -10z m55 -30 c0 -5 -5 -10 -11 -10 -5 0 -7 5 -4 10 3 6 8 10 11 10 2 0 4
-4 4 -10z m-23 -25 c10 -27 -6 -30 -29 -7 l-22 22 22 0 c12 0 25 -7 29 -15z
m101 -118 c-2 -11 -8 -9 -23 6 -11 11 -15 17 -8 13 6 -3 15 -1 19 6 9 14 18
-3 12 -25z"/>
<path d="M800 2489 c0 -5 14 -9 32 -9 36 0 31 11 -7 15 -14 2 -25 -1 -25 -6z"/>
<path d="M1848 2483 c7 -3 16 -2 19 1 4 3 -2 6 -13 5 -11 0 -14 -3 -6 -6z"/>
<path d="M1854 2453 c0 -10 8 -21 16 -25 11 -5 10 -7 -5 -7 -27 -1 -32 -41 -5
-41 20 0 72 39 53 40 -7 0 -13 7 -13 15 0 8 -7 15 -15 15 -8 0 -15 5 -15 10 0
6 -4 10 -9 10 -5 0 -8 -8 -7 -17z"/>
<path d="M1920 2451 c0 -5 9 -11 20 -14 14 -4 20 -14 20 -35 0 -32 15 -52 23
-30 3 10 7 10 20 -1 15 -12 17 -11 17 3 0 10 5 14 10 11 15 -10 12 25 -4 41
-20 19 -26 18 -26 -6 0 -11 -5 -20 -11 -20 -5 0 -8 4 -5 9 8 12 -28 51 -48 51
-9 0 -16 -4 -16 -9z"/>
<path d="M317 2387 c-1 -5 -23 -11 -48 -12 -61 -3 -61 -3 -49 -25 6 -11 8 -20
5 -20 -4 0 0 -7 9 -15 19 -19 26 -19 26 0 0 9 8 19 18 22 9 4 29 15 44 26 14
11 30 17 35 14 5 -4 10 -1 10 6 0 15 -45 19 -50 4z"/>
<path d="M2059 2372 c6 -11 8 -22 5 -25 -4 -3 2 -5 13 -4 21 1 47 23 35 30 -4
2 -20 7 -35 11 -25 6 -27 5 -18 -12z"/>
<path d="M1920 2355 c0 -8 9 -15 20 -15 24 0 27 15 4 24 -22 9 -24 8 -24 -9z"/>
<path d="M2120 2335 c0 -8 9 -15 20 -15 11 0 20 2 20 5 0 2 -9 9 -20 15 -16 9
-20 8 -20 -5z"/>
<path d="M2180 2330 c0 -5 5 -10 10 -10 6 0 10 5 10 10 0 6 -4 10 -10 10 -5 0
-10 -4 -10 -10z"/>
<path d="M2160 2291 c0 -28 16 -44 38 -37 18 6 28 44 12 47 -32 8 -50 4 -50
-10z"/>
<path d="M90 2290 c0 -5 5 -10 11 -10 5 0 7 5 4 10 -3 6 -8 10 -11 10 -2 0 -4
-4 -4 -10z"/>
<path d="M2325 2139 c-5 -7 -2 -17 7 -23 8 -6 13 -17 11 -23 -3 -7 0 -13 6
-13 15 0 14 12 -3 45 -10 18 -16 23 -21 14z"/>
<path d="M2320 1955 c0 -15 -7 -39 -15 -54 -16 -31 -12 -41 17 -41 10 0 18 -4
18 -10 0 -5 -4 -10 -10 -10 -5 0 -10 -7 -10 -15 0 -8 5 -15 10 -15 6 0 10 5
10 10 0 6 7 13 15 16 17 7 50 -25 60 -57 8 -23 25 -25 25 -3 0 20 -60 95 -71
88 -5 -3 -9 0 -9 5 0 6 5 11 11 11 6 0 9 7 6 15 -4 8 -2 17 4 20 5 4 7 11 3
16 -8 13 -24 1 -24 -19 0 -10 -9 -23 -20 -30 -18 -11 -20 -10 -20 13 0 14 4
25 8 25 5 0 8 14 8 30 0 17 -3 30 -8 30 -4 0 -8 -11 -8 -25z"/>
<path d="M836 1813 c-6 -14 -5 -15 5 -6 7 7 10 15 7 18 -3 3 -9 -2 -12 -12z"/>
<path d="M1388 1743 c7 -3 16 -2 19 1 4 3 -2 6 -13 5 -11 0 -14 -3 -6 -6z"/>
<path d="M955 1720 c3 -5 16 -10 28 -10 18 0 19 2 7 10 -20 13 -43 13 -35 0z"/>
<path d="M2437 1700 c-3 -13 0 -20 9 -20 15 0 19 26 5 34 -5 3 -11 -3 -14 -14z"/>
<path d="M2393 1586 c3 -8 -3 -23 -14 -34 -10 -12 -19 -24 -19 -27 0 -11 39
-5 44 8 5 10 7 10 12 0 8 -18 24 -16 24 3 0 9 9 18 20 21 11 3 20 9 20 14 0 5
-9 9 -20 9 -11 0 -20 -4 -20 -10 0 -5 -4 -10 -10 -10 -5 0 -9 3 -9 8 3 20 -3
32 -17 32 -10 0 -14 -6 -11 -14z"/>
<path d="M812 1520 c0 -14 2 -19 5 -12 2 6 2 18 0 25 -3 6 -5 1 -5 -13z"/>
<path d="M2455 1481 c3 -5 -8 -31 -25 -57 -23 -37 -30 -43 -30 -26 0 12 -4 22
-10 22 -5 0 -10 -13 -10 -29 0 -16 -5 -31 -12 -33 -8 -3 -5 -12 10 -28 31 -33
28 -48 -10 -53 l-33 -3 32 -8 c18 -5 34 -16 36 -25 3 -11 5 -9 6 7 0 12 6 22
11 22 6 0 10 11 10 25 0 15 -6 25 -15 25 -10 0 -14 9 -13 26 2 19 5 22 13 12
12 -16 39 -23 30 -8 -3 5 -1 10 5 10 7 0 10 14 9 35 -2 21 3 42 12 53 31 36
31 42 4 42 -14 0 -24 -4 -20 -9z"/>
<path d="M832 1394 c1 -9 9 -19 16 -22 9 -3 13 2 10 14 -1 9 -9 19 -16 22 -9
3 -13 -2 -10 -14z"/>
<path d="M2364 1215 c-18 -14 -18 -14 8 -15 14 0 29 -6 31 -12 4 -8 6 -7 6 3
2 28 -23 41 -45 24z"/>
<path d="M2318 1160 c-5 -52 5 -69 37 -62 30 5 34 22 5 22 -11 0 -20 5 -20 11
0 5 4 8 9 5 4 -3 17 1 27 9 16 11 17 16 6 27 -11 11 -14 10 -21 -1 -7 -11 -10
-9 -16 8 -10 33 -23 25 -27 -19z"/>
<path d="M2400 1130 c0 -5 5 -10 10 -10 6 0 10 5 10 10 0 6 -4 10 -10 10 -5 0
-10 -4 -10 -10z"/>
<path d="M2402 1080 c0 -19 2 -27 5 -17 2 9 2 25 0 35 -3 9 -5 1 -5 -18z"/>
<path d="M2441 1074 c0 -11 3 -14 6 -6 3 7 2 16 -1 19 -3 4 -6 -2 -5 -13z"/>
<path d="M1070 1060 c8 -5 20 -10 25 -10 6 0 3 5 -5 10 -8 5 -19 10 -25 10 -5
0 -3 -5 5 -10z"/>
<path d="M2290 1009 c-13 -9 -13 -10 1 -6 14 5 15 0 10 -26 -8 -39 -3 -77 10
-77 5 0 9 27 9 60 0 61 -4 68 -30 49z"/>
<path d="M2402 940 c0 -14 2 -19 5 -12 2 6 2 18 0 25 -3 6 -5 1 -5 -13z"/>
<path d="M1105 941 c-3 -5 -2 -12 3 -15 5 -3 9 1 9 9 0 17 -3 19 -12 6z"/>
<path d="M2393 839 c-10 -26 -9 -34 2 -46 13 -13 15 -9 15 31 0 25 -1 46 -3
46 -1 0 -8 -14 -14 -31z"/>
<path d="M1050 835 c-1 -5 -3 -17 -5 -26 -1 -8 7 -22 19 -29 18 -12 19 -11 9
2 -7 8 -10 17 -7 21 3 3 1 14 -5 24 -6 10 -11 14 -11 8z"/>
<path d="M2340 792 c0 -6 -8 -12 -18 -12 -27 0 -32 -9 -20 -36 12 -27 33 -32
41 -10 4 9 14 12 26 9 28 -7 26 2 -4 35 -14 15 -25 21 -25 14z"/>
<path d="M1060 730 c0 -16 4 -30 8 -30 5 0 7 14 4 30 -2 17 -6 30 -8 30 -2 0
-4 -13 -4 -30z"/>
<path d="M2350 715 c0 -2 9 -9 20 -15 16 -9 20 -8 20 5 0 8 -9 15 -20 15 -11
0 -20 -2 -20 -5z"/>
<path d="M2293 683 c-7 -2 -13 -12 -13 -20 0 -10 6 -13 16 -9 9 3 18 6 20 6 2
0 4 7 4 15 0 15 -6 17 -27 8z"/>
<path d="M1110 670 c-33 -6 -34 -7 -10 -14 14 -4 36 -3 49 2 33 12 7 20 -39
12z"/>
<path d="M2337 674 c-3 -3 -3 -12 0 -20 3 -9 -2 -14 -13 -14 -14 0 -15 -3 -6
-12 15 -15 53 17 45 38 -5 15 -16 18 -26 8z"/>
<path d="M1258 623 c6 -2 18 -2 25 0 6 3 1 5 -13 5 -14 0 -19 -2 -12 -5z"/>
<path d="M2397 423 c18 -28 28 -31 14 -4 -6 10 -8 20 -6 23 3 3 -1 5 -9 5 -12
0 -12 -4 1 -24z"/>
<path d="M2430 370 c6 -11 13 -20 16 -20 2 0 0 9 -6 20 -6 11 -13 20 -16 20
-2 0 0 -9 6 -20z"/>
<path d="M2516 133 c-6 -14 -5 -15 5 -6 7 7 10 15 7 18 -3 3 -9 -2 -12 -12z"/>
</g>
<g transform="translate(0.000000,256.000000) scale(0.100000,-0.100000)" fill="#121115" stroke="none">
<path d="M1145 2373 c-47 -5 -117 -33 -145 -58 -14 -12 -41 -28 -60 -35 -61
-24 -107 -58 -114 -84 -3 -13 -12 -31 -19 -38 -7 -7 -29 -36 -49 -64 -31 -42
-37 -58 -36 -100 0 -27 -2 -74 -4 -104 -5 -72 17 -188 42 -222 11 -15 20 -35
21 -45 0 -11 5 -6 11 12 14 40 37 65 60 65 10 0 18 4 18 9 0 6 -15 7 -34 4
-34 -5 -35 -4 -46 38 -9 31 -9 44 -1 47 6 2 11 16 11 31 0 15 9 33 20 41 11 8
20 20 20 27 0 22 85 144 98 141 4 -1 18 3 32 9 43 17 110 25 110 12 0 -8 5 -7
16 2 14 11 18 10 30 -5 7 -11 11 -23 8 -27 -3 -5 -2 -14 2 -21 5 -7 11 -5 21
7 7 11 13 15 13 10 0 -5 11 2 26 16 16 15 23 18 19 7 -5 -12 4 -10 44 9 54 27
84 23 56 -7 -9 -10 -13 -24 -9 -35 5 -12 4 -16 -4 -11 -6 3 -13 2 -16 -2 -12
-21 85 -2 143 27 35 17 68 31 73 31 20 0 37 -35 38 -74 0 -30 3 -37 11 -29 14
14 39 6 39 -14 0 -8 4 -12 9 -9 4 3 14 -14 21 -37 7 -23 21 -69 31 -101 18
-58 25 -116 13 -116 -3 0 -13 4 -22 9 -9 4 -34 11 -56 14 -34 5 -36 4 -21 -7
15 -10 17 -22 12 -57 l-6 -44 13 34 c16 44 28 48 66 21 26 -18 30 -28 30 -66
0 -28 4 -43 10 -39 6 3 10 23 10 44 0 31 5 40 28 51 15 7 30 13 33 12 3 0 6
13 6 31 1 18 4 50 8 72 10 61 13 215 3 215 -4 0 -8 12 -8 28 0 18 -10 36 -32
55 -29 25 -30 27 -9 22 15 -5 21 -3 17 3 -3 6 -24 13 -46 17 -40 7 -40 7 -40
50 0 31 -5 48 -19 57 -22 16 -56 78 -53 98 3 16 -33 20 -55 7 -7 -4 -14 -3
-17 2 -3 4 -20 11 -38 15 -17 3 -39 13 -48 21 -30 27 -167 41 -285 28z"/>
<path d="M985 1790 c-8 -13 5 -13 25 0 13 8 13 10 -2 10 -9 0 -20 -4 -23 -10z"/>
<path d="M1439 1777 c5 -5 19 -7 32 -5 20 3 19 5 -9 9 -20 3 -29 2 -23 -4z"/>
<path d="M1203 1695 c0 -8 4 -15 9 -15 4 0 8 7 8 15 0 8 -4 15 -8 15 -5 0 -9
-7 -9 -15z"/>
<path d="M1235 1700 c-3 -5 -4 -10 -1 -10 2 0 11 -3 19 -6 8 -3 17 2 20 10 7
18 -27 23 -38 6z"/>
<path d="M1055 1660 c-3 -5 1 -10 9 -10 8 0 18 5 21 10 3 6 -1 10 -9 10 -8 0
-18 -4 -21 -10z"/>
<path d="M1180 1633 c-7 -21 -19 -49 -27 -63 l-14 -25 20 23 c19 22 45 92 37
100 -2 2 -9 -14 -16 -35z"/>
<path d="M1286 1640 c6 -38 25 -93 30 -87 2 1 -6 30 -16 62 -12 37 -17 46 -14
25z"/>
<path d="M1425 1661 c-7 -12 12 -24 25 -16 11 7 4 25 -10 25 -5 0 -11 -4 -15
-9z"/>
<path d="M1552 1562 c-11 -25 -11 -25 4 -10 9 9 15 21 13 27 -2 6 -10 -2 -17
-17z"/>
<path d="M1060 1310 c0 -5 5 -10 10 -10 6 0 10 5 10 10 0 6 -4 10 -10 10 -5 0
-10 -4 -10 -10z"/>
<path d="M1350 1295 c0 -8 4 -15 9 -15 5 0 14 7 21 15 10 13 9 15 -9 15 -12 0
-21 -6 -21 -15z"/>
<path d="M1709 932 l33 -28 -76 -81 c-58 -62 -94 -90 -153 -121 -168 -86 -320
-113 -423 -76 -29 10 -55 26 -57 34 -3 8 -11 28 -20 43 -15 29 -20 100 -8 136
3 12 3 30 0 41 -6 20 -6 20 -34 1 -27 -19 -119 -63 -187 -90 -45 -18 -174
-147 -206 -206 -15 -28 -29 -70 -32 -95 -6 -42 -15 -122 -36 -320 -5 -47 -10
-104 -10 -127 l0 -43 1025 0 c564 0 1025 2 1025 5 0 3 -7 22 -16 43 -9 20 -17
66 -18 102 -1 62 -5 72 -66 174 -131 220 -317 395 -582 551 -18 10 -53 31 -78
46 -25 14 -61 29 -80 33 l-35 7 34 -29z"/>
</g>
<g transform="translate(0.000000,256.000000) scale(0.100000,-0.100000)" fill="#7B929F" stroke="none">
<path d="M0 2444 c0 -124 4 -135 53 -148 15 -3 27 -11 27 -16 0 -6 10 -10 23
-10 16 0 23 6 23 19 0 11 -3 19 -6 19 -26 -2 -39 4 -34 17 4 9 1 15 -7 15 -8
0 -5 6 7 15 27 20 34 19 34 -8 0 -24 34 -52 51 -41 6 3 1 14 -12 25 -25 22
-25 24 15 33 27 7 28 6 15 -10 -10 -13 -10 -16 -1 -10 9 5 13 3 11 -5 -3 -29
2 -37 29 -42 15 -3 37 1 49 9 13 8 33 13 45 11 13 -2 17 -2 11 0 -14 5 -17 16
-7 25 3 4 20 2 37 -3 24 -7 35 -5 49 7 20 19 14 38 -10 29 -9 -3 -13 -3 -9 1
4 4 2 13 -4 20 -11 14 9 22 60 22 13 1 30 10 38 21 16 24 33 27 33 7 0 -7 -9
-16 -20 -19 -12 -3 -20 -14 -20 -26 0 -12 -5 -21 -11 -21 -5 0 -7 5 -4 10 3 6
-1 10 -9 10 -20 0 -21 -36 -1 -44 9 -3 19 3 25 14 8 15 17 19 35 14 25 -6 37
10 13 18 -8 3 -8 9 0 24 6 10 12 13 12 7 0 -18 20 -16 20 2 0 8 6 15 13 16 6
1 1 5 -13 9 -24 8 -23 8 8 9 22 1 32 -4 32 -14 0 -8 -7 -15 -16 -15 -20 0 -15
-42 6 -47 9 -3 11 -1 5 4 -17 14 -17 36 0 30 8 -4 15 -2 15 4 0 7 12 8 30 4
30 -7 30 -6 18 20 -7 15 -14 22 -16 16 -5 -16 -19 -14 -19 4 0 8 13 19 29 24
27 10 28 9 28 -20 0 -17 4 -28 9 -25 5 4 12 0 15 -6 3 -9 11 -6 24 9 19 22 22
22 57 7 20 -8 34 -10 30 -5 -4 7 4 11 18 11 21 0 97 55 86 63 -15 10 -82 28
-86 23 -4 -3 -2 -6 2 -6 17 0 -30 -29 -47 -30 -11 0 -15 -5 -12 -14 3 -9 -2
-13 -18 -11 -13 1 -31 3 -42 4 -16 1 -16 3 -5 17 8 10 21 13 36 9 16 -4 25 -1
29 10 3 8 10 12 15 9 5 -3 9 0 9 5 0 8 -125 11 -400 11 l-400 0 0 -116z m857
42 c3 -3 -8 -6 -25 -6 -18 0 -32 4 -32 9 0 10 47 8 57 -3z m-490 -103 c0 -7
-5 -10 -10 -6 -5 3 -21 -3 -35 -14 -15 -11 -35 -22 -44 -26 -10 -3 -18 -13
-18 -22 0 -19 -7 -19 -26 0 -9 8 -13 15 -9 15 3 0 1 9 -5 20 -12 22 -12 22 49
25 25 1 47 7 48 12 5 15 50 11 50 -4z m-262 -93 c3 -5 1 -10 -4 -10 -6 0 -11
5 -11 10 0 6 2 10 4 10 3 0 8 -4 11 -10z"/>
<path d="M926 2552 c7 -4 13 -15 15 -25 4 -17 6 -16 26 7 l23 26 -38 0 c-20 0
-32 -4 -26 -8z"/>
<path d="M1245 2550 c4 -6 11 -8 16 -5 14 9 11 15 -7 15 -8 0 -12 -5 -9 -10z"/>
<path d="M1348 2553 c7 -3 16 -2 19 1 4 3 -2 6 -13 5 -11 0 -14 -3 -6 -6z"/>
<path d="M1510 2540 c0 -11 7 -20 15 -20 8 0 15 4 15 9 0 17 29 20 45 5 8 -9
15 -11 15 -5 0 6 9 11 20 11 24 0 25 -6 4 -28 -15 -14 -15 -17 2 -29 10 -7 27
-12 38 -12 19 2 19 2 -1 6 -28 5 -30 20 -3 28 21 7 28 35 9 35 -5 0 -7 5 -4
10 4 6 -23 10 -74 10 -74 0 -81 -2 -81 -20z"/>
<path d="M1699 2533 c-1 -37 2 -87 6 -92 2 -2 11 4 20 13 9 9 21 14 26 11 5
-4 9 -1 9 4 0 6 -9 16 -20 23 -11 7 -20 16 -20 20 0 5 9 8 20 8 11 0 20 -7 20
-15 0 -8 4 -15 9 -15 5 0 18 -3 28 -7 16 -6 17 -5 3 11 -13 17 -13 18 4 15 35
-7 27 -25 -19 -50 -47 -25 -58 -39 -49 -64 7 -17 44 -21 44 -5 0 6 -4 10 -10
10 -5 0 -10 4 -10 9 0 4 10 7 23 6 33 -4 33 -3 34 -25 1 -11 8 -27 17 -35 17
-17 46 -20 46 -5 0 6 6 10 14 10 9 0 12 -7 9 -20 -3 -11 -9 -20 -13 -20 -12 0
-19 -40 -11 -63 7 -19 8 -19 15 -1 4 11 3 20 -4 22 -7 3 -2 10 9 19 12 8 26
11 31 8 6 -3 10 -1 10 6 0 7 3 9 7 6 3 -4 14 0 24 8 22 21 62 15 95 -14 21
-18 28 -20 41 -9 13 10 18 9 29 -6 8 -11 10 -25 5 -33 -8 -14 -3 -63 6 -63 2
0 11 7 20 16 10 10 19 12 26 5 10 -10 4 -19 -41 -68 -24 -26 -45 -68 -47 -91
0 -7 -7 -17 -15 -22 -8 -5 -13 -10 -10 -11 3 0 13 -2 22 -4 24 -4 31 10 18 35
-9 16 -8 20 5 20 10 0 15 7 13 18 -2 11 5 18 20 20 17 3 21 8 17 23 -4 13 -2
19 9 19 9 0 16 6 16 13 0 7 9 13 20 14 11 1 20 -4 20 -13 0 -8 -6 -14 -14 -14
-10 0 -14 -9 -12 -27 3 -24 8 -28 35 -29 17 -1 31 3 31 8 0 4 -4 8 -10 8 -5 0
-10 18 -10 40 0 22 5 40 11 40 5 0 7 5 4 10 -3 6 -18 10 -33 10 -20 0 -23 3
-14 12 7 7 12 20 12 30 0 32 27 14 32 -22 0 -3 9 -11 19 -18 18 -12 16 -47 -2
-36 -5 3 -9 -9 -9 -26 0 -17 4 -29 9 -26 14 9 23 -25 10 -40 -9 -11 -8 -14 2
-14 22 0 42 -17 35 -29 -8 -12 -45 2 -58 22 -4 8 -15 7 -32 -1 -16 -7 -26 -8
-26 -2 0 6 -6 10 -14 10 -9 0 -12 -7 -9 -20 3 -11 9 -20 14 -20 4 0 13 -9 19
-21 9 -16 8 -24 -5 -39 -15 -16 -15 -18 0 -24 12 -4 15 -15 12 -33 -2 -16 -2
-22 0 -15 3 6 11 12 18 12 14 0 15 36 1 58 -13 21 8 38 49 38 22 1 46 3 54 5
15 5 24 -28 10 -37 -5 -3 -9 0 -9 5 0 6 -11 11 -25 11 -19 0 -26 -7 -31 -27
-4 -16 -16 -40 -26 -55 -22 -32 -31 -68 -17 -68 5 0 9 -7 9 -15 0 -8 9 -15 19
-15 12 0 25 -11 33 -27 20 -41 43 -43 35 -4 -6 26 -4 29 7 19 8 -7 12 -15 10
-17 -6 -6 17 -42 24 -37 4 2 16 -2 27 -10 19 -14 19 -15 -3 -20 -18 -5 -22
-13 -22 -45 0 -29 4 -39 16 -39 8 0 13 4 10 9 -10 15 22 21 34 6 7 -8 16 -12
21 -9 15 9 10 -23 -5 -35 -10 -9 -15 -8 -19 2 -3 9 -16 13 -31 12 -14 -2 -26
1 -26 6 0 5 -7 9 -15 9 -8 0 -15 -4 -15 -10 0 -20 -3 -25 -23 -42 -19 -17 -19
-18 -1 -19 15 0 16 -2 4 -7 -23 -10 -19 -23 18 -61 24 -26 32 -30 32 -16 0 11
5 15 16 11 9 -3 18 -6 21 -6 2 0 -3 -7 -11 -16 -9 -8 -14 -20 -11 -25 4 -5 1
-9 -4 -9 -6 0 -11 6 -11 13 0 9 -3 8 -9 -2 -5 -8 -16 -11 -29 -7 -20 7 -21 4
-15 -63 5 -61 4 -71 -10 -71 -10 0 -14 -5 -11 -15 4 -8 1 -15 -6 -15 -7 0 -9
-8 -5 -20 3 -11 3 -25 -1 -32 -4 -6 -7 -29 -7 -50 0 -21 -3 -38 -8 -38 -5 0
-9 -9 -9 -21 0 -13 4 -18 13 -13 9 6 9 5 0 -7 -10 -13 -6 -17 25 -29 20 -8 43
-13 51 -11 11 2 12 -6 6 -36 -5 -21 -8 -49 -7 -63 0 -14 1 -37 2 -53 1 -15 -2
-36 -5 -48 -6 -19 -8 -19 -31 8 l-23 27 19 34 c21 34 27 67 11 58 -14 -9 -22
25 -9 41 6 8 7 13 2 11 -5 -1 -19 3 -32 10 -24 14 -42 9 -42 -13 0 -7 -6 -15
-12 -17 -9 -3 -8 -12 5 -31 10 -15 14 -27 9 -27 -5 0 -8 -24 -7 -52 3 -72 3
-72 22 -53 14 15 18 15 27 3 6 -8 20 -17 30 -21 19 -7 19 -8 0 -22 -17 -12
-19 -12 -22 6 -4 23 -8 24 -31 1 -23 -22 -32 -69 -19 -98 7 -15 7 -32 0 -53
-10 -28 -9 -31 11 -31 20 -1 19 -2 -6 -16 -27 -14 -28 -17 -13 -33 9 -10 13
-21 9 -25 -5 -4 -3 -7 2 -6 20 4 35 0 35 -11 0 -5 -6 -7 -12 -3 -9 5 -9 3 1
-9 7 -9 16 -15 20 -13 3 1 19 -13 36 -33 16 -20 23 -31 15 -26 -9 6 -7 2 3 -7
11 -10 24 -15 31 -11 6 4 4 -2 -4 -12 -9 -11 -10 -16 -2 -11 6 4 12 2 12 -3 0
-20 3 -26 16 -36 7 -5 14 -17 16 -25 2 -8 10 -21 18 -28 13 -12 13 -13 0 -7
-8 4 -6 -1 4 -9 11 -9 16 -16 11 -16 -5 0 0 -7 11 -16 10 -8 13 -12 6 -9 -11
6 -11 3 -1 -13 7 -12 17 -19 21 -16 4 3 5 -2 2 -10 -3 -9 -2 -16 3 -16 11 0
11 -80 0 -97 -5 -8 -4 -13 2 -13 6 0 10 -3 9 -7 -4 -16 14 -73 23 -73 5 0 9
501 9 1265 l0 1265 -430 0 -430 0 -1 -27z m168 -49 c-3 -3 -12 -4 -19 -1 -8 3
-5 6 6 6 11 1 17 -2 13 -5z m3 -24 c0 -5 7 -10 15 -10 8 0 15 -7 15 -15 0 -8
6 -15 13 -15 19 -1 -33 -40 -53 -40 -27 0 -22 40 5 41 15 0 16 2 5 7 -16 8
-24 42 -9 42 5 0 9 -4 9 -10z m101 -21 c10 -12 16 -26 13 -30 -3 -5 0 -9 5 -9
6 0 11 9 11 20 0 24 6 25 26 6 16 -16 19 -51 4 -41 -5 3 -10 -1 -10 -11 0 -14
-2 -15 -17 -3 -13 11 -17 11 -20 1 -8 -22 -23 -2 -23 30 0 21 -6 31 -20 35
-24 6 -27 23 -4 23 9 0 25 -10 35 -21z m141 -66 c12 -7 -14 -29 -35 -30 -11
-1 -17 1 -13 4 3 3 1 14 -5 25 -9 17 -7 18 18 12 15 -4 31 -9 35 -11z m-168
-9 c23 -9 20 -24 -4 -24 -11 0 -20 7 -20 15 0 17 2 18 24 9z m216 -39 c0 -3
-9 -5 -20 -5 -11 0 -20 7 -20 15 0 13 4 14 20 5 11 -6 20 -13 20 -15z m40 5
c0 -5 -4 -10 -10 -10 -5 0 -10 5 -10 10 0 6 5 10 10 10 6 0 10 -4 10 -10z m10
-29 c16 -3 6 -41 -12 -47 -22 -7 -38 9 -38 37 0 14 18 18 50 10z m150 -212 c0
-5 -5 -9 -11 -9 -6 0 -9 6 -6 13 2 6 -3 17 -11 23 -9 6 -12 16 -7 23 5 9 11 4
21 -14 8 -15 14 -31 14 -36z m-24 -139 c0 -16 -3 -30 -8 -30 -4 0 -8 -11 -8
-25 0 -23 2 -24 20 -13 11 7 20 20 20 30 0 20 16 32 24 19 4 -5 2 -12 -3 -16
-6 -3 -8 -12 -4 -20 3 -8 0 -15 -6 -15 -6 0 -11 -5 -11 -11 0 -5 4 -8 9 -5 11
7 71 -68 71 -88 0 -22 -17 -20 -25 3 -10 32 -43 64 -60 57 -8 -3 -15 -10 -15
-16 0 -5 -4 -10 -10 -10 -5 0 -10 7 -10 15 0 8 5 15 10 15 6 0 10 5 10 10 0 6
-8 10 -18 10 -29 0 -33 10 -17 41 8 15 15 39 15 54 0 14 4 25 8 25 5 0 8 -13
8 -30z m124 -256 c0 -8 -6 -14 -14 -14 -9 0 -12 7 -9 20 6 22 23 18 23 -6z
m-39 -106 c1 -7 1 -16 0 -20 0 -5 4 -8 9 -8 6 0 10 5 10 10 0 6 9 10 20 10 11
0 20 -4 20 -9 0 -5 -9 -11 -20 -14 -11 -3 -20 -12 -20 -21 0 -19 -16 -21 -24
-3 -5 10 -7 10 -12 0 -5 -13 -44 -19 -44 -8 0 3 9 15 19 27 11 11 17 26 14 34
-3 8 1 14 11 14 9 0 17 -6 17 -12z m73 -110 c-4 -7 -15 -20 -23 -30 -9 -11
-14 -32 -12 -53 1 -21 -2 -35 -9 -35 -6 0 -8 -5 -5 -10 9 -15 -18 -8 -30 8 -8
10 -11 7 -13 -12 -1 -17 3 -26 13 -26 9 0 15 -10 15 -25 0 -14 -4 -25 -10 -25
-5 0 -11 -10 -11 -22 -1 -16 -3 -18 -6 -7 -2 9 -18 20 -36 25 l-32 8 33 3 c38
5 41 20 10 53 -15 16 -18 25 -10 28 7 2 12 17 12 33 0 16 5 29 10 29 6 0 10
-10 10 -22 0 -17 7 -11 30 26 17 26 28 52 25 57 -4 5 6 9 20 9 18 0 24 -4 19
-12z m-85 -287 c0 -10 -2 -11 -6 -3 -2 6 -17 12 -31 12 -26 1 -26 1 -8 15 22
17 47 4 45 -24z m-64 -12 c6 -17 9 -19 16 -8 7 11 10 12 21 1 11 -11 10 -16
-6 -27 -10 -8 -23 -12 -27 -9 -5 3 -9 0 -9 -5 0 -6 9 -11 20 -11 29 0 25 -17
-5 -22 -32 -7 -42 10 -37 62 4 44 17 52 27 19z m75 -49 c0 -5 -4 -10 -10 -10
-5 0 -10 5 -10 10 0 6 5 10 10 10 6 0 10 -4 10 -10z m-13 -67 c-3 -10 -5 -2
-5 17 0 19 2 27 5 18 2 -10 2 -26 0 -35z m40 5 c-3 -8 -6 -5 -6 6 -1 11 2 17
5 13 3 -3 4 -12 1 -19z m-127 -108 c0 -33 -4 -60 -9 -60 -13 0 -18 38 -10 77
5 26 4 31 -10 26 -14 -4 -14 -3 -1 6 26 19 30 12 30 -49z m87 -32 c-3 -7 -5
-2 -5 12 0 14 2 19 5 13 2 -7 2 -19 0 -25z m3 -104 c0 -40 -2 -44 -15 -31 -11
12 -12 20 -2 46 6 17 13 31 14 31 2 0 3 -21 3 -46z m-20 -80 c0 -3 -9 -4 -21
-1 -12 3 -22 0 -26 -9 -8 -22 -29 -17 -41 10 -12 27 -7 36 20 36 10 0 18 6 18
12 0 7 11 1 25 -14 14 -15 25 -30 25 -34z m0 -39 c0 -13 -4 -14 -20 -5 -11 6
-20 13 -20 15 0 3 9 5 20 5 11 0 20 -7 20 -15z m-70 -30 c0 -8 -2 -15 -4 -15
-2 0 -11 -3 -20 -6 -10 -4 -16 -1 -16 9 0 14 13 24 33 26 4 1 7 -6 7 -14z m43
-9 c8 -21 -30 -53 -45 -38 -9 9 -8 12 6 12 11 0 16 5 13 14 -6 14 1 26 14 26
4 0 9 -6 12 -14z m-36 -78 c19 -25 21 -54 4 -54 -13 0 -16 7 -12 31 3 26 2 28
-12 17 -8 -7 -18 -9 -21 -4 -13 22 25 30 41 10z"/>
<path d="M1113 2523 c9 -2 23 -2 30 0 6 3 -1 5 -18 5 -16 0 -22 -2 -12 -5z"/>
<path d="M960 2512 c0 -5 -9 -12 -20 -15 -24 -6 -26 -22 -5 -31 9 -3 18 1 21
9 4 8 10 12 15 9 5 -3 9 2 9 10 0 8 -4 18 -10 21 -5 3 -10 2 -10 -3z"/>
<path d="M1020 2510 c0 -5 5 -10 10 -10 6 0 10 5 10 10 0 6 -4 10 -10 10 -5 0
-10 -4 -10 -10z"/>
<path d="M1540 2494 c0 -3 5 -14 11 -25 8 -16 13 -18 24 -9 18 15 10 35 -15
37 -11 1 -20 -1 -20 -3z"/>
<path d="M1300 2400 c12 -8 7 -10 -20 -6 -19 3 -41 1 -49 -3 -9 -6 5 -8 35 -7
46 1 56 8 30 22 -6 3 -4 0 4 -6z"/>
<path d="M1690 2386 c0 -31 6 -34 13 -6 3 11 1 23 -4 26 -5 3 -9 -6 -9 -20z"/>
<path d="M1017 2381 c-9 -12 -9 -13 1 -7 6 4 12 3 12 -1 0 -5 -22 -17 -49 -28
-28 -10 -48 -23 -45 -27 3 -4 -7 -8 -23 -9 l-28 -1 25 -8 c21 -7 12 -15 -12
-11 -4 0 -12 -7 -17 -18 -9 -17 -7 -17 32 3 23 11 47 26 52 32 6 7 37 26 69
43 45 24 72 31 114 31 86 0 54 11 -38 13 -61 2 -85 -2 -93 -12z"/>
<path d="M1365 2390 c-3 -6 2 -13 12 -16 10 -3 32 -12 49 -20 17 -9 38 -16 47
-18 9 -1 20 -5 23 -9 4 -4 13 -7 19 -7 16 0 11 73 -5 78 -8 3 -10 -2 -6 -16 9
-27 -33 -39 -51 -15 -7 9 -13 13 -13 9 0 -5 -6 -3 -14 3 -7 6 -22 8 -31 4 -13
-4 -16 -3 -11 5 4 7 3 12 -3 12 -5 0 -13 -5 -16 -10z"/>
<path d="M1537 2384 c-3 -3 -1 -19 5 -35 8 -23 15 -28 29 -24 15 5 20 0 25
-24 4 -17 10 -31 15 -31 5 0 9 -9 9 -19 0 -24 28 -54 41 -45 6 3 10 0 8 -7 -6
-46 2 -89 17 -89 9 0 12 5 8 12 -4 6 8 0 28 -15 41 -32 44 -32 52 -11 5 14 4
15 -8 5 -9 -7 -17 -8 -20 -2 -3 5 0 12 6 15 7 3 3 3 -9 1 -18 -5 -22 0 -28 35
-4 23 -13 44 -21 47 -8 3 -14 10 -13 17 3 18 -19 66 -31 66 -5 0 -10 7 -10 15
0 8 -9 15 -20 15 -11 0 -20 3 -20 8 0 12 -57 72 -63 66z"/>
<path d="M1700 2320 c0 -16 7 -20 34 -20 18 0 55 -2 82 -5 l49 -6 -43 16 c-24
9 -50 14 -57 11 -7 -2 -21 2 -32 9 -25 20 -33 18 -33 -5z"/>
<path d="M1800 2330 c0 -5 5 -10 10 -10 6 0 10 5 10 10 0 6 -4 10 -10 10 -5 0
-10 -4 -10 -10z"/>
<path d="M1970 2313 c0 -5 16 -9 35 -9 19 -1 32 3 29 7 -6 11 -64 12 -64 2z"/>
<path d="M7 2273 c7 -2 19 -2 25 0 7 3 2 5 -12 5 -14 0 -19 -2 -13 -5z"/>
<path d="M1977 2257 c-2 -6 4 -20 14 -30 17 -18 18 -18 29 3 6 12 9 24 6 28
-12 12 -44 11 -49 -1z"/>
<path d="M1917 2246 c-13 -10 -15 -16 -6 -21 10 -7 28 10 29 28 0 9 -2 9 -23
-7z"/>
<path d="M2075 2252 c-5 -4 -11 -15 -13 -24 -3 -20 35 -35 51 -19 8 8 5 11
-12 11 -18 0 -21 4 -16 20 7 22 5 24 -10 12z"/>
<path d="M118 2213 c7 -3 16 -2 19 1 4 3 -2 6 -13 5 -11 0 -14 -3 -6 -6z"/>
<path d="M1890 2205 c0 -8 4 -15 10 -15 5 0 7 7 4 15 -4 8 -8 15 -10 15 -2 0
-4 -7 -4 -15z"/>
<path d="M803 2202 c-15 -9 -21 -37 -8 -40 6 -1 13 10 17 23 3 14 6 25 5 25
-1 0 -7 -4 -14 -8z"/>
<path d="M41 2184 c0 -11 3 -14 6 -6 3 7 2 16 -1 19 -3 4 -6 -2 -5 -13z"/>
<path d="M1874 2175 c1 -23 28 -27 33 -5 2 9 1 10 -3 3 -8 -18 -22 -16 -27 5
-3 13 -4 12 -3 -3z"/>
<path d="M1726 2174 c-4 -10 -1 -14 6 -12 15 5 23 28 10 28 -5 0 -13 -7 -16
-16z"/>
<path d="M1920 2175 c0 -9 5 -15 10 -13 12 4 11 16 -1 24 -5 3 -9 -2 -9 -11z"/>
<path d="M1983 2175 c0 -8 4 -15 9 -15 4 0 8 7 8 15 0 8 -4 15 -8 15 -5 0 -9
-7 -9 -15z"/>
<path d="M2035 2170 c-4 -6 6 -10 22 -10 22 0 25 2 13 10 -19 12 -27 12 -35 0z"/>
<path d="M2120 2170 c-13 -8 -12 -10 3 -10 9 0 17 5 17 10 0 12 -1 12 -20 0z"/>
<path d="M2007 2153 c-10 -9 -9 -33 1 -33 4 0 8 9 9 20 2 21 0 24 -10 13z"/>
<path d="M1945 2140 c-3 -5 4 -11 17 -11 17 -1 18 -3 6 -6 -21 -5 -24 -23 -4
-23 8 0 16 7 20 15 6 18 -29 41 -39 25z"/>
<path d="M2056 2135 c-4 -11 2 -15 24 -15 16 0 32 5 36 12 5 8 2 9 -11 5 -9
-4 -23 -3 -30 3 -9 8 -14 6 -19 -5z"/>
<path d="M753 2123 c-11 -10 -24 -29 -28 -43 -8 -26 -7 -26 48 48 14 17 3 15
-20 -5z"/>
<path d="M685 2070 c3 -5 8 -10 11 -10 2 0 4 5 4 10 0 6 -5 10 -11 10 -5 0 -7
-4 -4 -10z"/>
<path d="M2048 2074 c-3 -5 -2 -18 2 -28 5 -16 8 -17 12 -4 7 16 -7 45 -14 32z"/>
<path d="M1768 2056 c5 -6 9 -27 11 -46 1 -19 5 -37 10 -40 5 -3 7 -31 6 -63
-3 -67 3 -71 11 -6 2 24 6 49 9 56 2 6 -1 13 -8 16 -6 2 -11 20 -12 39 0 20 3
34 7 32 4 -2 9 0 12 5 3 5 -8 11 -24 13 -20 3 -27 1 -22 -6z"/>
<path d="M694 2014 c-6 -25 12 -52 26 -37 3 3 0 8 -6 10 -6 2 -9 15 -6 28 6
33 -6 32 -14 -1z"/>
<path d="M2191 2004 l-23 -12 22 -7 c24 -8 43 4 32 21 -5 7 -14 6 -31 -2z"/>
<path d="M2143 1960 c-1 -11 2 -20 8 -20 5 0 9 9 9 20 0 11 -4 20 -8 20 -4 0
-8 -9 -9 -20z"/>
<path d="M711 1944 c0 -11 3 -14 6 -6 3 7 2 16 -1 19 -3 4 -6 -2 -5 -13z"/>
<path d="M2176 1944 c-4 -10 -1 -14 6 -12 15 5 23 28 10 28 -5 0 -13 -7 -16
-16z"/>
<path d="M701 1894 c0 -11 3 -14 6 -6 3 7 2 16 -1 19 -3 4 -6 -2 -5 -13z"/>
<path d="M703 1835 c0 -22 2 -30 4 -17 2 12 2 30 0 40 -3 9 -5 -1 -4 -23z"/>
<path d="M2225 1850 c3 -5 8 -10 11 -10 2 0 4 5 4 10 0 6 -5 10 -11 10 -5 0
-7 -4 -4 -10z"/>
<path d="M1779 1738 c-3 -22 -1 -34 4 -29 5 5 7 21 5 37 -3 27 -4 26 -9 -8z"/>
<path d="M2313 1749 c1 -19 8 -23 37 -20 10 1 11 -1 4 -6 -11 -8 -18 -83 -8
-83 3 0 14 9 26 20 19 17 19 20 5 20 -9 0 -17 5 -17 10 0 6 5 10 11 10 5 0 7
5 4 10 -3 6 1 10 10 10 9 0 15 6 12 13 -2 6 -16 11 -30 11 -15 -1 -27 2 -27 6
0 4 -6 10 -14 13 -10 4 -14 0 -13 -14z"/>
<path d="M721 1703 c7 -12 15 -20 18 -17 3 2 -3 12 -13 22 -17 16 -18 16 -5
-5z"/>
<path d="M2313 1555 c0 -27 2 -38 4 -22 2 15 2 37 0 50 -2 12 -4 0 -4 -28z"/>
<path d="M2240 1550 c0 -5 5 -10 10 -10 6 0 10 5 10 10 0 6 -4 10 -10 10 -5 0
-10 -4 -10 -10z"/>
<path d="M2230 1500 c0 -5 5 -10 11 -10 5 0 7 5 4 10 -3 6 -8 10 -11 10 -2 0
-4 -4 -4 -10z"/>
<path d="M2260 1466 c0 -2 7 -7 16 -10 8 -3 12 -2 9 4 -6 10 -25 14 -25 6z"/>
<path d="M2215 1370 c-3 -5 -1 -10 4 -10 6 0 11 5 11 10 0 6 -2 10 -4 10 -3 0
-8 -4 -11 -10z"/>
<path d="M2312 1340 c0 -14 2 -19 5 -12 2 6 2 18 0 25 -3 6 -5 1 -5 -13z"/>
<path d="M2210 1311 c0 -6 5 -13 10 -16 6 -3 10 1 10 9 0 9 -4 16 -10 16 -5 0
-10 -4 -10 -9z"/>
<path d="M2211 1204 c0 -12 7 -28 17 -35 15 -12 16 -12 6 1 -7 8 -14 24 -17
35 -4 19 -5 19 -6 -1z"/>
<path d="M2190 940 c-9 -6 -10 -10 -3 -10 6 0 15 5 18 10 8 12 4 12 -15 0z"/>
<path d="M2126 861 c-4 -7 -5 -15 -2 -18 9 -9 19 4 14 18 -4 11 -6 11 -12 0z"/>
<path d="M2106 751 c30 -35 34 -36 34 -18 0 20 -13 34 -38 42 -23 7 -23 6 4
-24z"/>
<path d="M2227 760 c-3 -11 -1 -20 4 -20 5 0 9 9 9 20 0 11 -2 20 -4 20 -2 0
-6 -9 -9 -20z"/>
<path d="M2090 736 c0 -2 8 -10 18 -17 15 -13 16 -12 3 4 -13 16 -21 21 -21
13z"/>
<path d="M2170 730 c0 -5 5 -10 11 -10 5 0 7 5 4 10 -3 6 -8 10 -11 10 -2 0
-4 -4 -4 -10z"/>
<path d="M2225 700 c-3 -5 -1 -10 4 -10 6 0 11 5 11 10 0 6 -2 10 -4 10 -3 0
-8 -4 -11 -10z"/>
<path d="M2177 678 c4 -7 8 -16 8 -20 0 -11 7 -12 24 -7 22 8 6 39 -19 39 -15
0 -19 -4 -13 -12z"/>
<path d="M521 384 c0 -11 3 -14 6 -6 3 7 2 16 -1 19 -3 4 -6 -2 -5 -13z"/>
<path d="M502 205 c0 -16 2 -22 5 -12 2 9 2 23 0 30 -3 6 -5 -1 -5 -18z"/>
<path d="M492 85 c0 -16 2 -22 5 -12 2 9 2 23 0 30 -3 6 -5 -1 -5 -18z"/>
</g>
<g transform="translate(0.000000,256.000000) scale(0.100000,-0.100000)" fill="#C9AB9F" stroke="none">
<path d="M951 1971 c-32 -19 -48 -37 -60 -68 -9 -23 -22 -48 -29 -55 -6 -6
-12 -17 -12 -22 0 -6 -9 -22 -20 -36 -11 -14 -20 -36 -20 -49 0 -19 4 -22 23
-17 12 3 39 9 60 12 31 5 36 10 32 25 -10 29 49 61 100 55 67 -8 156 -47 168
-73 15 -34 78 -33 97 1 7 14 31 32 54 41 49 20 187 30 183 14 -1 -7 4 -14 12
-16 10 -4 11 1 6 18 -4 13 -12 27 -17 30 -5 3 4 9 21 12 23 5 29 10 24 23 -4
11 -8 12 -13 4 -9 -15 -20 0 -35 45 -7 22 -17 30 -35 32 -43 2 -45 3 -30 13
12 8 9 10 -12 10 -16 0 -28 -5 -28 -10 0 -6 -10 -8 -23 -5 -12 4 -34 2 -49 -4
-37 -14 -106 -3 -104 17 2 23 -28 26 -50 5 -9 -10 -21 -18 -26 -18 -5 0 -13
-7 -18 -15 -9 -13 -11 -13 -20 0 -5 8 -10 11 -10 5 0 -5 -9 5 -21 24 l-20 33
-26 -23 c-23 -22 -25 -22 -19 -4 9 30 -29 28 -83 -4z m569 -59 c0 -4 -9 -8
-20 -9 -11 -1 -20 2 -20 8 0 5 9 9 20 9 11 0 20 -4 20 -8z m-35 -69 c-11 -3
-23 -10 -27 -17 -5 -7 -8 -7 -8 0 0 16 11 24 34 23 20 -1 20 -1 1 -6z"/>
<path d="M963 1753 c15 -2 39 -2 55 0 15 2 2 4 -28 4 -30 0 -43 -2 -27 -4z"/>
<path d="M1418 1743 c7 -3 16 -2 19 1 4 3 -2 6 -13 5 -11 0 -14 -3 -6 -6z"/>
<path d="M1458 1743 c6 -2 18 -2 25 0 6 3 1 5 -13 5 -14 0 -19 -2 -12 -5z"/>
<path d="M990 1720 c12 -9 8 -10 -20 -6 -22 4 -30 3 -21 -3 7 -5 11 -14 7 -20
-5 -7 15 -10 67 -8 51 1 79 -2 90 -12 23 -18 21 -26 -8 -39 -17 -8 -25 -8 -25
-1 0 6 -27 9 -72 8 l-72 -2 -11 39 c-7 26 -13 35 -19 26 -11 -18 3 -110 20
-126 18 -18 127 -30 179 -19 37 8 41 13 57 58 11 35 13 51 5 54 -6 2 -13 -1
-15 -7 -2 -7 -22 3 -47 24 -31 25 -57 37 -87 41 -34 4 -40 2 -28 -7z"/>
<path d="M1375 1689 c-16 -11 -22 -18 -12 -15 10 3 44 6 75 6 61 0 62 17 1 26
-25 4 -42 -1 -64 -17z"/>
<path d="M1222 1667 c-5 -7 -19 -33 -30 -59 -27 -62 -49 -72 -152 -73 -107 0
-133 14 -153 82 -12 41 -18 48 -41 50 -31 2 -34 -3 -40 -74 -3 -33 -1 -53 6
-53 6 0 8 -13 4 -34 -7 -35 1 -69 13 -61 4 2 8 -2 8 -10 0 -16 -28 -16 -39 0
-5 6 -8 4 -8 -5 0 -13 -1 -13 -10 0 -13 20 -13 33 1 24 7 -4 9 0 5 14 -4 12
-7 44 -8 72 0 56 -15 67 -25 18 l-7 -33 -18 55 c-17 52 -18 53 -14 15 2 -22
12 -58 22 -80 10 -22 17 -43 16 -48 -1 -4 4 -23 12 -41 8 -19 12 -37 9 -39 -2
-3 0 -15 7 -26 11 -22 50 -29 50 -10 0 5 -4 8 -9 4 -6 -3 -15 3 -20 14 -14 25
-14 31 2 31 19 0 36 -35 43 -87 3 -26 8 -52 12 -57 3 -6 7 -17 8 -24 2 -8 11
-23 21 -34 10 -11 18 -23 17 -27 -1 -9 19 -26 34 -27 29 -2 35 -4 29 -11 -14
-13 99 -74 160 -87 7 -1 16 -5 19 -9 10 -9 119 -9 128 1 4 4 11 7 14 7 16 2
89 46 114 69 32 30 38 32 38 9 0 -14 4 -12 23 7 12 14 21 28 20 31 -1 4 8 18
21 32 28 30 49 110 33 126 -7 7 -6 15 3 26 7 8 10 15 6 15 -4 0 0 13 8 29 8
15 16 49 18 75 2 25 6 46 10 46 4 0 5 7 1 16 -4 12 -8 13 -14 3 -5 -9 -37 -12
-118 -10 -74 2 -111 -1 -111 -8 0 -6 4 -11 8 -11 10 0 42 -54 42 -72 0 -11 -2
-11 -9 0 -6 10 -14 3 -28 -26 -17 -34 -21 -38 -36 -27 -10 7 -58 16 -107 19
-49 4 -92 11 -95 16 -2 4 9 13 26 21 24 10 36 10 50 1 15 -10 25 -9 49 3 17 9
30 22 30 30 0 8 4 15 8 15 8 0 8 82 -1 97 -2 4 -8 27 -12 50 -7 43 -26 61 -43
40z m-188 -254 c-27 -42 -44 -77 -44 -91 0 -7 -4 -10 -10 -7 -18 11 -11 37 23
81 35 48 60 60 31 17z m-176 -27 c3 -12 -1 -17 -10 -14 -7 3 -15 13 -16 22 -3
12 1 17 10 14 7 -3 15 -13 16 -22z m602 -55 c0 -24 0 -24 -15 -5 -8 10 -15 15
-14 9 3 -23 -2 -33 -21 -38 -11 -3 -19 -9 -18 -14 2 -4 -4 -23 -11 -41 -12
-28 -19 -33 -38 -29 -13 2 -26 0 -29 -4 -3 -5 -16 -9 -30 -9 -13 0 -24 -4 -24
-9 0 -13 -27 -21 -45 -15 -19 8 -19 24 0 24 8 0 15 4 15 9 0 5 10 12 23 16 20
7 19 8 -13 14 -19 4 -39 4 -44 -1 -15 -12 -28 -10 -20 3 5 8 -3 10 -25 7 -17
-2 -31 -1 -31 4 0 4 -6 8 -13 8 -8 0 -27 11 -42 24 -16 14 -34 22 -39 19 -6
-3 -5 0 2 8 12 13 41 16 272 23 25 0 48 6 52 11 5 6 8 5 8 -2 0 -7 5 -13 11
-13 5 0 7 5 3 11 -5 8 1 10 20 7 29 -6 30 -3 11 47 -6 16 -1 14 23 -9 20 -18
32 -40 32 -55z m-60 39 c0 -5 -10 -10 -22 -10 -19 0 -20 2 -8 10 19 13 30 13
30 0z m-60 -180 c-8 -5 -22 -10 -30 -10 -13 0 -13 1 0 10 8 5 22 10 30 10 13
0 13 -1 0 -10z"/>
<path d="M1110 1310 c-29 -20 37 -44 115 -44 72 1 106 8 103 22 -2 10 -27 15
-85 17 -46 2 -91 6 -100 9 -10 3 -25 1 -33 -4z"/>
<path d="M720 1646 c0 -2 9 -6 20 -9 11 -3 20 -1 20 4 0 5 -9 9 -20 9 -11 0
-20 -2 -20 -4z"/>
<path d="M1382 1632 c-7 -2 -9 -9 -6 -14 4 -6 3 -8 -3 -5 -5 3 -22 8 -37 11
-26 5 -27 3 -21 -22 3 -15 13 -33 20 -41 19 -20 179 -28 200 -11 25 21 17 39
-20 46 -19 3 -32 10 -30 15 3 5 -4 11 -17 13 -47 10 -74 12 -86 8z"/>
<path d="M1310 1460 c0 -13 5 -20 13 -17 6 2 12 10 12 17 0 7 -6 15 -12 18 -8
2 -13 -5 -13 -18z"/>
<path d="M1079 958 c-1 -7 -1 -17 0 -21 1 -5 -3 -6 -8 -3 -5 4 -13 2 -16 -4
-5 -8 -11 -7 -21 1 -10 8 -14 8 -14 0 0 -6 3 -11 8 -11 6 0 28 -65 35 -110 2
-9 7 -21 11 -28 7 -11 4 -11 -12 -1 -14 9 -19 20 -16 37 3 13 1 21 -5 18 -5
-3 -7 3 -4 14 3 12 0 20 -7 20 -7 0 -10 -7 -7 -15 4 -8 2 -17 -3 -20 -11 -6 3
-56 23 -86 14 -19 15 -20 20 -2 3 12 5 8 7 -12 1 -16 3 -37 4 -45 1 -11 14
-15 44 -16 40 -1 75 -14 38 -14 -17 0 -17 -1 0 -17 14 -14 33 -18 84 -16 120
3 290 75 378 160 31 31 49 50 39 43 -22 -16 -32 -7 -19 17 9 16 6 18 -33 18
-24 -1 -41 3 -39 7 3 4 1 8 -5 8 -6 0 -8 7 -4 16 3 9 1 19 -4 23 -5 3 -15 15
-21 26 -10 17 -11 18 -12 3 0 -21 -13 -23 -32 -5 -14 15 -42 11 -32 -4 3 -5
-1 -10 -8 -10 -7 -1 -24 -3 -38 -4 -14 -1 -43 -7 -65 -13 -80 -22 -188 -14
-199 14 -3 8 -13 14 -21 14 -10 0 -13 -5 -9 -12 4 -7 3 -8 -5 -4 -6 4 -9 10
-7 14 2 4 -2 13 -10 20 -11 10 -14 10 -15 0z m81 -178 c0 -5 -5 -10 -11 -10
-5 0 -7 5 -4 10 3 6 8 10 11 10 2 0 4 -4 4 -10z"/>
</g>
<g transform="translate(0.000000,256.000000) scale(0.100000,-0.100000)" fill="#9A796D" stroke="none">
<path d="M967 2025 c-39 -16 -55 -34 -83 -94 -14 -31 -37 -77 -50 -102 -13
-26 -24 -51 -24 -55 1 -5 8 5 17 21 8 17 23 38 32 48 9 11 23 37 31 60 11 30
27 47 60 67 56 32 93 35 84 5 -6 -19 -5 -18 19 4 l26 23 20 -33 c12 -19 21
-29 21 -24 0 6 4 3 10 -5 14 -22 20 -7 11 26 -5 16 -10 25 -10 20 -1 -5 -8 -3
-16 4 -8 7 -12 16 -9 21 8 14 -9 10 -34 -7 -22 -15 -23 -15 -17 8 6 22 3 24
-28 24 -19 0 -46 -5 -60 -11z"/>
<path d="M1250 2025 c-14 -8 -30 -14 -37 -15 -11 0 -63 -45 -63 -55 0 -9 29 3
44 18 20 19 42 22 52 6 3 -6 14 2 25 20 28 46 24 52 -21 26z"/>
<path d="M1420 2002 c-19 -8 -47 -21 -62 -28 -17 -7 -28 -8 -30 -2 -2 6 -20 5
-48 -3 l-45 -12 40 -8 c23 -4 54 -3 72 2 18 6 42 8 53 4 11 -4 20 -2 20 4 0 6
12 11 28 11 21 0 24 -2 12 -10 -15 -10 -13 -11 30 -13 18 -2 28 -10 35 -32 15
-45 26 -60 35 -45 5 8 9 7 13 -4 5 -13 -1 -18 -24 -23 -17 -3 -26 -9 -19 -13
6 -4 12 -19 14 -34 1 -15 8 -32 14 -38 7 -7 12 -21 12 -31 0 -14 5 -17 17 -13
9 4 19 3 22 -2 11 -17 51 -25 51 -10 -1 22 -59 181 -68 187 -5 3 -13 16 -16
29 -5 14 -14 21 -24 20 -12 -2 -18 6 -20 27 -2 17 -8 35 -13 41 -13 16 -59 14
-99 -4z"/>
<path d="M1480 1911 c0 -6 9 -9 20 -8 11 1 20 5 20 9 0 4 -9 8 -20 8 -11 0
-20 -4 -20 -9z"/>
<path d="M1457 1843 c-4 -3 -7 -11 -7 -17 0 -7 3 -7 8 0 4 7 16 14 27 17 19 5
19 5 -1 6 -11 0 -24 -2 -27 -6z"/>
<path d="M981 1816 c2 -2 20 -6 39 -10 25 -4 31 -3 20 4 -14 9 -69 15 -59 6z"/>
<path d="M1463 1803 c9 -2 23 -2 30 0 6 3 -1 5 -18 5 -16 0 -22 -2 -12 -5z"/>
<path d="M930 1785 c-7 -9 -11 -17 -9 -20 3 -2 10 5 17 15 14 24 10 26 -8 5z"/>
<path d="M1398 1793 c7 -3 16 -2 19 1 4 3 -2 6 -13 5 -11 0 -14 -3 -6 -6z"/>
<path d="M1324 1778 c-12 -5 -27 -21 -34 -34 -7 -13 -20 -25 -29 -28 -9 -2 2
-2 24 1 22 3 47 9 56 14 9 4 27 6 40 3 19 -4 16 -1 -10 14 -32 18 -33 20 -15
30 25 15 -2 15 -32 0z"/>
<path d="M1145 1770 c6 -10 -20 -15 -69 -11 -51 4 -18 -16 38 -23 30 -3 61 -9
70 -12 23 -9 20 12 -6 36 -23 21 -44 27 -33 10z"/>
<path d="M973 1763 c15 -2 37 -2 50 0 12 2 0 4 -28 4 -27 0 -38 -2 -22 -4z"/>
<path d="M1413 1753 c15 -2 37 -2 50 0 12 2 0 4 -28 4 -27 0 -38 -2 -22 -4z"/>
<path d="M948 1743 c6 -2 18 -2 25 0 6 3 1 5 -13 5 -14 0 -19 -2 -12 -5z"/>
<path d="M1520 1730 c0 -6 7 -10 15 -10 8 0 15 2 15 4 0 2 -7 6 -15 10 -8 3
-15 1 -15 -4z"/>
<path d="M1095 1693 c28 -22 52 -36 53 -32 2 5 12 9 23 9 11 0 19 7 19 16 0 8
-4 12 -10 9 -5 -3 -10 -2 -10 3 0 13 -17 19 -76 28 l-49 7 50 -40z"/>
<path d="M925 1676 c7 -23 15 -40 19 -38 3 1 24 2 46 2 38 0 40 2 30 20 -7 13
-21 20 -40 20 -21 0 -28 4 -24 14 3 8 -4 15 -19 18 -24 5 -24 4 -12 -36z m85
-16 c0 -5 -15 -10 -32 -10 -25 0 -29 3 -18 10 20 13 50 13 50 0z"/>
<path d="M1343 1713 c-13 -2 -23 -11 -23 -19 0 -8 -6 -17 -14 -20 -22 -8 -6
-50 17 -43 1 0 15 -4 30 -10 18 -7 26 -7 22 -1 -3 6 -1 10 4 10 6 0 11 5 11
10 0 6 -9 10 -20 10 -11 0 -20 7 -20 15 0 11 7 14 28 10 21 -4 23 -3 7 3 -19
9 -19 9 4 21 25 14 86 7 96 -9 4 -6 -10 -10 -32 -11 l-38 -1 43 -9 c23 -4 52
-15 65 -24 21 -15 18 -16 -48 -11 -65 5 -66 3 -7 -10 13 -2 20 -8 17 -13 -2
-5 11 -12 29 -15 19 -4 37 -12 39 -19 6 -16 20 75 15 99 -6 33 -136 54 -225
37z"/>
<path d="M835 1680 c-8 -13 8 -18 29 -10 19 6 19 7 -2 12 -12 4 -24 2 -27 -2z"/>
<path d="M1090 1676 c0 -2 7 -7 16 -10 8 -3 12 -2 9 4 -6 10 -25 14 -25 6z"/>
<path d="M740 1662 c0 -7 5 -12 10 -12 6 0 10 -4 10 -9 0 -5 -9 -7 -20 -4 -16
4 -20 1 -19 -18 0 -13 7 -40 14 -59 10 -27 14 -30 14 -13 1 12 7 28 14 35 19
21 18 54 -3 73 -12 10 -20 13 -20 7z"/>
<path d="M1261 1644 c0 -11 3 -14 6 -6 3 7 2 16 -1 19 -3 4 -6 -2 -5 -13z"/>
<path d="M1584 1603 c-13 -36 -29 -62 -43 -69 -20 -10 -21 -12 -4 -18 11 -5
22 -1 29 9 10 14 12 14 18 0 3 -8 2 -15 -2 -15 -4 0 -8 -21 -10 -46 -2 -26
-10 -60 -18 -75 -8 -16 -12 -29 -8 -29 4 0 1 -7 -6 -15 -9 -11 -10 -19 -3 -26
16 -16 -5 -96 -33 -126 -13 -14 -22 -28 -21 -32 1 -3 -8 -17 -20 -31 -19 -19
-23 -21 -23 -7 0 23 -5 22 -41 -10 -55 -50 -129 -83 -184 -83 -83 0 -199 45
-251 98 -15 14 -54 26 -54 16 0 -2 16 -20 35 -41 38 -42 65 -91 65 -120 0 -10
7 -28 15 -39 8 -12 11 -24 8 -28 -11 -11 -12 -36 -2 -36 5 0 9 8 9 19 0 10 7
24 15 31 8 7 15 19 15 26 0 8 5 14 10 14 6 0 10 -4 10 -9 0 -5 11 -12 24 -15
14 -3 31 -13 40 -21 22 -22 130 -30 186 -14 25 7 56 13 70 14 14 1 31 3 38 4
7 0 11 5 8 10 -10 15 18 19 32 4 19 -18 32 -16 32 5 1 15 2 14 12 -3 6 -11 16
-23 21 -26 5 -4 7 -14 4 -23 -4 -9 -2 -16 4 -16 6 0 8 -4 5 -8 -2 -4 15 -8 39
-7 40 0 42 -1 33 -19 -8 -15 -8 -21 1 -24 8 -3 3 -15 -16 -36 l-28 -31 32 29
c18 16 30 32 28 36 -3 4 6 15 20 24 38 25 50 55 31 75 -9 8 -22 16 -29 17 -36
3 -56 18 -62 45 -4 16 -16 34 -27 40 -21 11 -89 4 -121 -13 -10 -5 -26 -11
-36 -13 -9 -2 -46 -10 -82 -18 -101 -24 -118 -26 -112 -10 3 7 -2 13 -11 13
-21 0 -96 23 -96 30 0 3 37 5 83 5 69 0 91 4 140 28 32 15 63 27 70 27 50 2
179 138 192 203 4 18 15 41 26 52 17 20 20 47 6 61 -4 4 -7 0 -7 -9 0 -10 -5
-17 -10 -17 -13 0 -9 32 5 42 5 4 9 23 9 42 0 20 6 38 13 40 9 4 13 25 13 65
0 78 -6 94 -31 80 -16 -8 -21 -6 -27 11 -7 18 -11 12 -28 -37z"/>
<path d="M802 1630 c0 -14 2 -19 5 -12 2 6 2 18 0 25 -3 6 -5 1 -5 -13z"/>
<path d="M1098 1643 c-10 -2 -18 -9 -18 -14 0 -6 10 -5 23 2 37 20 36 23 -5
12z"/>
<path d="M1743 1635 c-18 -8 -33 -21 -33 -30 0 -12 4 -14 19 -5 11 5 23 15 26
20 9 15 25 12 25 -5 0 -8 -7 -15 -15 -15 -9 0 -27 -11 -41 -25 -20 -20 -23
-29 -14 -44 7 -15 6 -23 -6 -35 -9 -9 -17 -26 -19 -39 -2 -12 -8 -38 -13 -58
-6 -24 -6 -45 2 -63 l11 -28 26 20 c25 20 49 79 49 120 0 11 7 33 15 48 23 45
28 87 13 122 -13 30 -14 30 -45 17z m-8 -205 c-3 -5 -11 -10 -16 -10 -6 0 -7
5 -4 10 3 6 11 10 16 10 6 0 7 -4 4 -10z"/>
<path d="M1270 1597 c0 -7 3 -16 6 -20 9 -9 11 -97 2 -97 -4 0 -8 -7 -8 -15 0
-21 -59 -50 -73 -36 -6 6 -20 11 -32 10 -20 0 -20 0 0 -9 11 -5 15 -9 8 -9 -6
-1 -19 -4 -29 -8 -12 -4 -15 -3 -10 5 5 8 2 10 -8 6 -32 -12 -3 -23 84 -30 49
-3 97 -12 107 -19 15 -11 19 -7 36 27 14 29 22 36 28 26 7 -11 9 -11 9 0 0 18
-32 72 -42 72 -4 0 -8 4 -8 9 0 6 15 12 33 14 l32 4 -36 1 c-35 2 -79 35 -79
60 0 6 -4 14 -10 17 -5 3 -10 0 -10 -8z m65 -137 c0 -7 -6 -15 -12 -17 -8 -3
-13 4 -13 17 0 13 5 20 13 18 6 -3 12 -11 12 -18z m-33 -42 c48 -14 35 -24
-27 -20 -38 3 -44 6 -34 18 14 17 12 17 61 2z"/>
<path d="M778 1509 c2 -21 8 -36 13 -33 5 3 6 -2 3 -10 -3 -9 -10 -13 -15 -10
-12 7 -11 -7 1 -26 9 -13 10 -13 10 0 0 9 3 11 8 5 4 -5 15 -11 26 -13 17 -3
17 -2 2 20 -9 12 -17 41 -17 63 -1 38 -2 39 -9 10 l-8 -30 -1 27 c0 15 -4 29
-9 32 -4 2 -6 -13 -4 -35z"/>
<path d="M1013 1533 c15 -2 39 -2 55 0 15 2 2 4 -28 4 -30 0 -43 -2 -27 -4z"/>
<path d="M1433 1533 c9 -2 25 -2 35 0 9 3 1 5 -18 5 -19 0 -27 -2 -17 -5z"/>
<path d="M1003 1396 c-34 -44 -41 -70 -23 -81 6 -3 10 0 10 7 0 14 17 49 44
91 29 43 4 31 -31 -17z"/>
<path d="M1405 1395 c19 -50 18 -53 -11 -47 -19 3 -25 1 -20 -7 4 -6 2 -11 -3
-11 -6 0 -11 6 -11 13 0 7 -3 8 -8 2 -7 -10 -32 -12 -197 -15 -55 -1 -92 -4
-82 -7 18 -5 24 -33 7 -33 -21 0 -9 -20 15 -26 14 -3 25 -9 25 -13 0 -4 14 -5
31 -3 22 3 30 1 25 -7 -8 -13 5 -15 20 -3 5 5 25 5 44 1 32 -6 33 -7 13 -14
-13 -4 -23 -11 -23 -16 0 -5 -7 -9 -15 -9 -19 0 -19 -16 0 -24 18 -6 45 2 45
15 0 5 11 9 24 9 14 0 27 4 30 9 3 4 16 6 29 4 19 -4 26 1 38 29 7 18 13 37
11 41 -1 5 7 11 18 14 19 5 24 15 21 38 -1 6 6 1 14 -9 15 -19 15 -19 15 5 0
15 -12 37 -32 55 -24 23 -29 25 -23 9z m-180 -88 c11 0 29 3 40 7 16 6 17 6 5
-3 -12 -9 -9 -11 15 -11 23 0 27 3 15 10 -11 7 2 10 43 10 31 0 57 -4 57 -9 0
-16 -30 -34 -60 -35 -17 -1 -30 -4 -30 -9 0 -13 -164 -1 -188 14 -39 25 -27
37 31 31 28 -3 61 -6 72 -5z"/>
<path d="M790 1394 c0 -15 22 -44 31 -39 5 4 9 1 9 -6 0 -7 3 -9 7 -6 9 10
-18 57 -34 57 -7 0 -13 -3 -13 -6z"/>
<path d="M1370 1370 c-12 -8 -11 -10 8 -10 12 0 22 5 22 10 0 13 -11 13 -30 0z"/>
<path d="M1024 1308 c-4 -7 -4 -10 1 -6 4 4 15 2 24 -5 14 -11 14 -10 2 6 -16
20 -18 21 -27 5z"/>
<path d="M1310 1190 c-13 -9 -13 -10 0 -10 8 0 22 5 30 10 13 9 13 10 0 10 -8
0 -22 -5 -30 -10z"/>
<path d="M1036 850 c-7 -24 -8 -24 -16 -5 -7 16 -9 17 -9 3 -1 -9 3 -19 8 -22
12 -8 34 20 29 36 -3 7 -8 1 -12 -12z"/>
<path d="M1000 790 c0 -42 32 -101 73 -137 26 -23 49 -32 92 -38 31 -3 59 -4
63 -1 3 3 -6 6 -21 6 -14 0 -32 7 -41 15 -8 8 -28 15 -45 15 -29 0 -34 6 -72
85 -22 47 -42 85 -45 85 -2 0 -4 -14 -4 -30z"/>
</g>
<g transform="translate(0.000000,256.000000) scale(0.100000,-0.100000)" fill="#5F4D48" stroke="none">
<path d="M1061 2364 c-19 -8 -31 -17 -28 -20 3 -3 15 0 27 6 13 7 43 16 69 20
l46 8 -40 0 c-22 1 -55 -5 -74 -14z"/>
<path d="M1333 2373 c9 -2 23 -2 30 0 6 3 -1 5 -18 5 -16 0 -22 -2 -12 -5z"/>
<path d="M1520 2360 c0 -19 3 -21 12 -12 9 9 9 15 0 24 -9 9 -12 7 -12 -12z"/>
<path d="M1420 2356 c0 -2 8 -10 18 -17 15 -13 16 -12 3 4 -13 16 -21 21 -21
13z"/>
<path d="M988 2324 c-16 -8 -28 -19 -28 -24 0 -17 16 -11 40 15 27 29 25 30
-12 9z"/>
<path d="M1466 2329 c3 -5 12 -9 21 -9 19 0 9 13 -12 16 -8 1 -13 -2 -9 -7z"/>
<path d="M1527 2325 c-11 -7 -14 -16 -8 -19 5 -4 12 -2 15 3 3 5 15 7 25 4 10
-3 22 1 27 8 5 9 2 10 -11 5 -10 -4 -21 -2 -24 3 -4 5 -13 4 -24 -4z"/>
<path d="M1589 2300 c-3 -8 5 -33 18 -55 22 -37 23 -38 17 -10 -4 17 -10 32
-14 35 -4 3 -9 14 -12 25 -3 15 -5 16 -9 5z"/>
<path d="M820 2209 c-6 -11 -10 -25 -7 -32 2 -6 9 3 15 21 12 36 8 42 -8 11z"/>
<path d="M1662 2143 c-2 -41 -2 -41 38 -48 22 -4 43 -11 46 -17 4 -6 -2 -8
-17 -4 -22 6 -22 5 6 -18 55 -47 63 -25 10 28 -23 24 -40 33 -54 29 -17 -4
-20 1 -24 34 l-4 38 -1 -42z"/>
<path d="M747 2093 c-33 -46 -53 -103 -36 -103 4 0 10 -8 12 -17 2 -10 2 1 0
25 -4 37 1 49 32 92 20 28 34 50 32 50 -3 0 -21 -21 -40 -47z"/>
<path d="M1256 2056 c-38 -19 -46 -21 -41 -8 4 11 -3 8 -19 -7 -15 -14 -26
-21 -26 -16 0 5 -6 1 -13 -10 -10 -12 -16 -14 -21 -7 -4 7 -5 16 -2 21 3 4 -1
16 -8 27 -12 15 -16 16 -30 5 -11 -9 -16 -10 -16 -2 0 13 -67 5 -110 -12 -14
-6 -28 -10 -32 -9 -13 3 -98 -119 -98 -141 0 -7 -9 -19 -20 -27 -12 -8 -20
-26 -20 -42 0 -15 -5 -28 -11 -28 -7 0 -8 -12 -4 -32 12 -54 23 -66 23 -26 0
20 11 58 25 85 13 26 35 71 48 98 39 84 65 104 142 110 36 2 38 1 32 -22 -6
-24 -5 -24 17 -9 25 17 42 21 34 7 -7 -11 18 -33 27 -24 4 3 7 -4 7 -17 0 -22
1 -22 30 9 17 17 35 31 41 31 5 0 24 7 40 16 17 8 33 13 35 11 3 -2 -5 -21
-16 -40 l-21 -36 38 11 c27 7 38 7 41 -1 2 -7 9 -8 15 -3 20 14 121 49 144 50
27 1 40 -15 45 -53 2 -21 8 -29 20 -27 10 1 19 -6 24 -20 3 -13 11 -26 16 -29
14 -9 70 -180 64 -195 -3 -8 -1 -14 4 -14 16 0 12 51 -9 116 -10 32 -24 78
-31 101 -7 23 -17 40 -21 37 -5 -3 -9 1 -9 9 0 20 -25 28 -39 14 -8 -8 -11 -1
-11 29 -1 39 -18 74 -38 74 -5 0 -38 -14 -73 -31 -58 -29 -155 -48 -143 -27 3
4 10 5 16 2 6 -4 8 1 4 13 -4 12 -1 25 9 33 14 12 12 30 -4 30 -4 0 -29 -11
-55 -24z"/>
<path d="M1772 1995 c0 -16 2 -22 5 -12 2 9 2 23 0 30 -3 6 -5 -1 -5 -18z"/>
<path d="M1787 1963 c-4 -3 -7 -11 -7 -17 0 -6 5 -5 12 2 6 6 9 14 7 17 -3 3
-9 2 -12 -2z"/>
<path d="M1780 1919 c0 -5 5 -7 10 -4 6 3 10 8 10 11 0 2 -4 4 -10 4 -5 0 -10
-5 -10 -11z"/>
<path d="M707 1859 c4 -13 8 -18 11 -10 2 7 -1 18 -6 23 -8 8 -9 4 -5 -13z"/>
<path d="M1785 1823 c-14 -65 -15 -78 -6 -63 9 16 22 90 16 90 -3 0 -7 -12
-10 -27z"/>
<path d="M712 1810 c0 -14 2 -19 5 -12 2 6 2 18 0 25 -3 6 -5 1 -5 -13z"/>
<path d="M953 1795 c-34 -24 -28 -33 20 -28 23 3 61 0 85 -5 23 -6 55 -7 70
-3 l27 8 -34 17 c-48 25 -140 31 -168 11z m57 -5 c-20 -13 -33 -13 -25 0 3 6
14 10 23 10 15 0 15 -2 2 -10z"/>
<path d="M1394 1791 c-75 -18 -62 -43 18 -34 33 4 62 0 94 -12 58 -22 52 -28
-17 -15 -79 15 -203 -4 -216 -33 -12 -25 -5 -84 10 -94 6 -4 7 7 3 31 -6 29
-4 36 9 36 9 0 19 9 22 20 6 24 72 36 152 25 31 -4 65 -7 77 -7 16 0 21 -8 22
-36 2 -19 7 -42 12 -51 7 -13 10 -10 16 14 7 28 7 28 15 6 7 -18 12 -20 28
-12 25 14 31 -2 31 -80 0 -40 -4 -61 -13 -65 -7 -2 -13 -20 -13 -40 0 -19 -4
-38 -9 -42 -14 -10 -18 -42 -5 -42 5 0 10 8 10 17 0 9 3 13 7 9 14 -14 11 -41
-6 -61 -11 -11 -22 -34 -26 -52 -13 -65 -142 -201 -192 -203 -7 0 -38 -12 -70
-27 -49 -24 -71 -28 -140 -28 -46 0 -83 -2 -83 -5 0 -7 75 -30 96 -30 9 0 14
-6 11 -13 -6 -16 11 -14 112 10 36 8 73 16 82 18 10 2 26 8 36 13 32 17 100
24 121 13 11 -6 23 -24 27 -40 6 -26 26 -41 61 -45 21 -2 45 -29 39 -44 -5
-12 -3 -13 10 -2 14 11 11 17 -21 46 -20 19 -40 34 -44 34 -15 0 -42 74 -47
129 -4 45 0 74 22 139 15 45 31 82 36 82 4 0 5 10 0 22 -4 12 -4 38 1 58 5 19
11 45 13 57 2 13 10 30 19 39 12 12 13 20 6 35 -9 15 -6 24 14 44 14 14 32 25
41 25 8 0 15 7 15 15 0 17 -16 20 -25 5 -3 -5 -15 -15 -26 -20 -15 -9 -19 -7
-19 5 0 9 12 21 28 28 15 7 28 18 29 24 2 7 -13 2 -32 -10 -29 -18 -34 -28
-35 -59 0 -20 -4 -40 -10 -43 -6 -4 -10 11 -10 39 0 38 -4 48 -30 66 -34 24
-59 21 -61 -7 -1 -10 -4 -2 -8 17 -5 29 -3 36 14 42 19 6 18 6 -2 7 -16 1 -23
7 -23 20 0 11 -14 31 -31 45 -32 27 -78 32 -145 17z m77 -19 c-13 -2 -27 0
-32 5 -6 6 3 7 23 4 28 -4 29 -6 9 -9z"/>
<path d="M716 1750 c4 -19 11 -39 16 -45 5 -5 6 5 2 25 -4 19 -11 39 -16 45
-5 5 -6 -5 -2 -25z"/>
<path d="M972 1742 c-9 -6 17 -11 75 -14 105 -7 147 -22 139 -52 -9 -35 9 -51
22 -21 6 14 20 25 29 26 11 0 13 3 5 6 -6 2 -10 9 -6 14 3 5 0 9 -5 9 -6 0
-11 -7 -11 -15 0 -8 -4 -15 -9 -15 -6 0 -8 9 -6 19 3 16 -5 21 -44 30 -75 16
-175 23 -189 13z"/>
<path d="M883 1733 c-14 -3 -20 -9 -16 -19 3 -9 -2 -14 -14 -14 -11 0 -27 -8
-36 -18 -24 -27 -21 -36 4 -11 12 12 29 19 39 16 11 -3 21 0 24 7 2 6 2 -4 -1
-21 -3 -21 -1 -33 6 -33 9 0 17 54 12 83 -1 5 8 6 19 2 11 -4 20 -2 20 4 0 11
-16 12 -57 4z"/>
<path d="M1767 1721 c-2 -10 -1 -24 3 -30 4 -7 7 1 8 18 1 35 -3 40 -11 12z"/>
<path d="M740 1683 c0 -5 10 -18 23 -29 l22 -19 -20 25 c-11 14 -21 27 -22 29
-2 2 -3 0 -3 -6z"/>
<path d="M980 1667 l-35 -11 29 -4 c16 -2 32 2 36 8 5 8 9 7 13 -4 8 -21 87
-23 87 -2 0 26 -67 32 -130 13z m105 -7 c-3 -5 -13 -10 -21 -10 -8 0 -12 5 -9
10 3 6 13 10 21 10 8 0 12 -4 9 -10z"/>
<path d="M1378 1673 c-28 -4 -39 -19 -15 -21 6 -1 24 -4 39 -8 22 -5 26 -3 24
12 -3 20 -10 23 -48 17z"/>
<path d="M1453 1655 c0 -12 7 -15 23 -12 13 2 21 0 18 -4 -3 -5 7 -9 23 -9 27
0 27 0 7 14 -35 25 -71 30 -71 11z"/>
<path d="M790 1624 c0 -8 -4 -12 -10 -9 -10 6 -7 -17 10 -95 6 -28 8 -19 9 43
1 42 -1 77 -4 77 -3 0 -5 -7 -5 -16z"/>
<path d="M1301 1614 c0 -11 3 -14 6 -6 3 7 2 16 -1 19 -3 4 -6 -2 -5 -13z"/>
<path d="M890 1611 c0 -5 5 -13 10 -16 6 -3 10 -2 10 4 0 5 -4 13 -10 16 -5 3
-10 2 -10 -4z"/>
<path d="M1160 1601 c0 -6 4 -13 10 -16 6 -3 7 1 4 9 -7 18 -14 21 -14 7z"/>
<path d="M1560 1601 c0 -5 5 -13 10 -16 6 -3 10 -2 10 4 0 5 -4 13 -10 16 -5
3 -10 2 -10 -4z"/>
<path d="M1291 1583 c-1 -17 16 -25 25 -12 4 7 3 9 -4 5 -5 -3 -13 0 -15 6 -4
9 -6 10 -6 1z"/>
<path d="M913 1563 c14 -14 39 -19 108 -22 49 -1 97 0 107 5 9 4 20 8 25 8 4
1 7 4 7 9 0 4 0 9 0 12 0 3 -11 -2 -25 -11 -20 -13 -43 -16 -110 -12 -47 2
-91 10 -97 16 -7 7 -17 12 -22 12 -6 0 -2 -8 7 -17z"/>
<path d="M1552 1558 c2 -7 -3 -12 -9 -10 -7 1 -13 -2 -13 -8 0 -14 16 -12 29
4 8 10 9 16 1 21 -6 4 -9 1 -8 -7z"/>
<path d="M1322 1548 c7 -21 198 -40 198 -20 0 4 -33 8 -72 9 -40 0 -86 6 -101
12 -23 9 -28 8 -25 -1z"/>
<path d="M1715 1430 c-3 -5 -2 -10 4 -10 5 0 13 5 16 10 3 6 2 10 -4 10 -5 0
-13 -4 -16 -10z"/>
<path d="M1135 1420 c-7 -12 2 -12 30 0 19 8 19 9 -2 9 -12 1 -25 -3 -28 -9z"/>
<path d="M1241 1416 c-10 -12 -4 -15 34 -18 62 -4 75 6 27 20 -49 15 -47 15
-61 -2z"/>
<path d="M1050 1305 c17 -20 40 -19 40 3 0 15 -2 15 -11 2 -8 -11 -12 -12 -16
-2 -2 6 -9 12 -15 12 -6 0 -6 -6 2 -15z"/>
<path d="M1310 1311 c16 -5 24 -13 22 -24 -2 -9 2 -17 8 -17 5 0 10 9 10 20 0
14 7 20 21 20 19 0 20 -2 8 -17 -13 -16 -12 -17 4 -4 29 23 19 31 -40 30 -42
-1 -51 -3 -33 -8z"/>
<path d="M1285 1270 c-19 -8 -19 -9 3 -9 12 -1 22 4 22 9 0 6 -1 10 -2 9 -2 0
-12 -4 -23 -9z"/>
<path d="M1001 894 c0 -11 3 -14 6 -6 3 7 2 16 -1 19 -3 4 -6 -2 -5 -13z"/>
<path d="M1679 843 l-24 -28 28 24 c15 14 27 26 27 28 0 8 -8 1 -31 -24z"/>
<path d="M840 820 c-9 -6 -10 -10 -3 -10 6 0 15 5 18 10 8 12 4 12 -15 0z"/>
<path d="M704 738 l-29 -33 33 29 c30 28 37 36 29 36 -2 0 -16 -15 -33 -32z"/>
<path d="M1000 739 c0 -8 7 -24 15 -35 8 -10 15 -27 15 -36 0 -11 15 -24 36
-33 49 -20 50 -20 9 17 -20 17 -45 47 -55 67 -11 20 -19 29 -20 20z"/>
<path d="M649 693 c-13 -16 -12 -17 4 -4 9 7 17 15 17 17 0 8 -8 3 -21 -13z"/>
<path d="M2120 707 c0 -2 15 -16 33 -33 l32 -29 -29 33 c-28 30 -36 37 -36 29z"/>
<path d="M609 643 c-13 -16 -12 -17 4 -4 16 13 21 21 13 21 -2 0 -10 -8 -17
-17z"/>
<path d="M2230 605 c19 -19 36 -35 39 -35 3 0 -10 16 -29 35 -19 19 -36 35
-39 35 -3 0 10 -16 29 -35z"/>
<path d="M1133 613 c9 -2 23 -2 30 0 6 3 -1 5 -18 5 -16 0 -22 -2 -12 -5z"/>
<path d="M1238 613 c6 -2 18 -2 25 0 6 3 1 5 -13 5 -14 0 -19 -2 -12 -5z"/>
<path d="M541 514 c0 -11 3 -14 6 -6 3 7 2 16 -1 19 -3 4 -6 -2 -5 -13z"/>
<path d="M2325 500 c10 -11 20 -20 23 -20 3 0 -3 9 -13 20 -10 11 -20 20 -23
20 -3 0 3 -9 13 -20z"/>
<path d="M531 424 c0 -11 3 -14 6 -6 3 7 2 16 -1 19 -3 4 -6 -2 -5 -13z"/>
<path d="M523 335 c0 -22 2 -30 4 -17 2 12 2 30 0 40 -3 9 -5 -1 -4 -23z"/>
<path d="M512 255 c0 -16 2 -22 5 -12 2 9 2 23 0 30 -3 6 -5 -1 -5 -18z"/>
<path d="M502 150 c0 -19 2 -27 5 -17 2 9 2 25 0 35 -3 9 -5 1 -5 -18z"/>
<path d="M492 30 c0 -19 2 -27 5 -17 2 9 2 25 0 35 -3 9 -5 1 -5 -18z"/>
</g>
</svg>