<?xml version="1.0" standalone="no"?>
<!DOCTYPE svg PUBLIC "-//W3C//DTD SVG 20010904//EN"
 "http://www.w3.org/TR/2001/REC-SVG-20010904/DTD/svg10.dtd">
<svg version="1.0" xmlns="http://www.w3.org/2000/svg"
 width="256.000000pt" height="256.000000pt" viewBox="0 0 256.000000 256.000000"
 preserveAspectRatio="xMidYMid meet">
<metadata>
Created by potrace 1.16, written by Peter Selinger 2001-2019
</metadata>
<g transform="translate(0.000000,256.000000) scale(0.100000,-0.100000)"
fill="#000000" stroke="none">
<path d="M1155 2380 c-90 -6 -126 -20 -186 -73 -8 -7 -37 -24 -63 -36 -51 -25
-109 -78 -101 -91 3 -5 -17 -37 -44 -70 -45 -57 -71 -120 -48 -120 6 0 7 -20
2 -52 -4 -29 -7 -66 -6 -83 3 -72 13 -141 22 -149 5 -6 9 -18 9 -28 0 -9 7
-21 16 -26 8 -5 17 -26 20 -48 3 -21 8 -61 13 -89 8 -46 9 -43 10 43 1 79 4
95 22 113 33 33 51 21 68 -46 20 -74 38 -85 146 -85 117 0 123 3 156 77 31 66
53 80 68 41 31 -81 47 -110 62 -119 10 -5 58 -12 106 -15 106 -6 131 4 150 62
13 38 16 41 51 40 33 -2 37 -5 40 -31 1 -17 -9 -68 -24 -115 -33 -109 -37
-133 -18 -126 26 10 14 -26 -45 -129 -47 -84 -97 -133 -151 -149 -25 -8 -67
-25 -95 -37 -41 -19 -67 -23 -143 -23 -89 0 -91 -1 -55 -13 21 -7 50 -20 65
-28 44 -25 128 -19 245 20 58 19 112 35 119 35 7 0 21 -18 31 -39 15 -33 26
-42 61 -53 68 -20 70 -37 12 -106 -148 -178 -493 -279 -602 -176 -55 53 -69
93 -61 180 l6 78 -34 -23 c-19 -12 -59 -34 -89 -48 -30 -14 -78 -36 -105 -49
-67 -31 -173 -137 -212 -210 -18 -35 -33 -81 -36 -114 -3 -30 -12 -116 -21
-190 -8 -74 -17 -168 -21 -207 l-6 -73 1035 0 1035 0 -25 62 c-18 47 -22 69
-15 88 12 35 -3 75 -73 190 -83 135 -179 246 -316 361 -66 55 -177 132 -233
161 -23 11 -64 35 -91 54 -28 18 -74 38 -103 44 -45 10 -54 16 -68 47 -31 65
-31 139 0 231 23 66 32 82 49 83 16 1 17 2 4 6 -25 6 -21 76 5 110 12 15 16
24 9 19 -8 -5 -12 -1 -12 12 0 11 7 23 15 26 12 4 14 14 10 40 -6 32 -5 34 29
46 25 8 36 18 36 31 0 23 -9 24 -38 3 -13 -9 -26 -13 -29 -10 -3 3 8 13 26 23
17 10 32 27 32 38 1 11 3 25 4 30 18 111 26 265 13 281 -5 7 -10 27 -11 45 -3
43 -56 100 -87 92 -17 -5 -20 -1 -20 30 0 24 -8 45 -25 63 -14 15 -25 35 -25
45 0 11 -4 19 -9 19 -5 0 -11 14 -15 31 -5 24 -10 29 -25 24 -14 -4 -21 1 -29
25 -14 39 -26 39 -18 0 3 -17 2 -29 -2 -26 -5 3 -23 8 -41 11 -18 3 -43 12
-55 20 -30 20 -159 31 -271 25z m116 -379 l-20 -39 37 9 c22 5 38 4 40 -1 2
-6 10 -6 22 0 23 12 107 41 136 46 16 3 27 -2 35 -18 7 -13 12 -24 11 -25 -9
-14 3 -35 24 -43 14 -6 23 -14 20 -19 -4 -5 1 -17 10 -25 14 -15 78 -185 72
-192 -2 -1 -22 3 -46 9 -28 8 -42 17 -42 28 0 10 -14 29 -32 44 -30 26 -37 27
-97 21 -115 -12 -136 -48 -22 -40 42 4 66 0 96 -15 l40 -20 -40 6 c-61 10
-146 8 -214 -7 -54 -11 -68 -11 -123 6 -99 28 -262 23 -354 -13 -23 -9 -17 63
10 116 14 25 37 71 52 101 29 59 57 90 83 90 9 0 33 3 55 7 36 6 38 5 31 -17
-7 -22 -6 -22 16 -6 26 18 43 21 34 6 -3 -5 3 -15 15 -22 11 -7 20 -19 20 -27
0 -10 11 -5 30 14 25 24 53 39 118 64 1 1 -7 -16 -17 -38z m-146 -282 c62 -16
68 -26 49 -85 -25 -77 -43 -87 -147 -82 -108 5 -119 14 -125 98 -4 55 -3 60
19 69 33 13 151 13 204 0z m391 -10 c24 -6 47 -15 49 -20 9 -14 -8 -120 -21
-134 -32 -31 -195 -24 -220 10 -6 9 -14 33 -18 56 -7 42 13 83 44 92 31 9 123
7 166 -4z"/>
<path d="M953 1795 c-35 -24 -28 -30 34 -30 32 -1 82 -4 111 -7 59 -7 67 4 21
28 -47 24 -138 29 -166 9z"/>
<path d="M983 1669 c-43 -12 -42 -21 1 -18 19 2 38 0 42 -4 10 -10 76 -8 94 3
11 7 9 11 -13 19 -34 13 -80 13 -124 0z"/>
<path d="M1378 1672 c-24 -3 -41 -21 -20 -22 29 -2 151 -20 165 -26 10 -3 17
-1 17 5 0 24 -102 51 -162 43z"/>
<path d="M1710 1430 c-8 -5 -11 -12 -7 -16 4 -4 15 0 24 9 18 18 8 23 -17 7z"/>
<path d="M1135 1420 c-3 -5 7 -9 22 -9 15 0 59 -4 96 -9 79 -9 102 -1 51 17
-30 11 -41 11 -60 0 -18 -9 -30 -10 -49 -1 -31 15 -52 15 -60 2z"/>
<path d="M1059 1300 c25 -21 44 -18 34 5 -3 8 -17 15 -32 15 l-26 -1 24 -19z"/>
<path d="M1280 1311 c51 -6 55 -8 52 -30 l-4 -24 33 19 c59 35 49 44 -48 42
-78 -1 -82 -2 -33 -7z"/>
<path d="M1288 1273 c-10 -2 -18 -8 -18 -13 0 -4 9 -6 20 -3 11 3 20 9 20 14
0 5 -1 8 -2 8 -2 -1 -11 -3 -20 -6z"/>
</g>
</svg>
