<?xml version="1.0" encoding="UTF-8"?>
<svg xmlns="http://www.w3.org/2000/svg" width="360" height="360" viewBox="0 0 360 360" shape-rendering="geometricPrecision">
<g transform="translate(0.000000,360.000000) scale(0.100000,-0.100000)" fill="#121116" stroke="none">
<path d="M1635 3335 c-106 -13 -226 -52 -203 -66 9 -6 8 -9 -6 -9 -10 0 -24
-6 -30 -14 -6 -8 -47 -29 -91 -47 -86 -35 -149 -72 -139 -82 11 -11 -5 -51
-32 -82 -14 -16 -36 -46 -49 -65 -12 -19 -39 -53 -59 -74 -36 -40 -44 -52 -26
-41 6 3 10 -3 10 -14 0 -11 4 -22 9 -26 12 -7 11 -45 -1 -61 -13 -18 -29 -115
-20 -128 4 -6 8 -24 8 -41 1 -16 7 -50 13 -74 8 -30 8 -47 1 -56 -7 -8 -4 -17
10 -30 21 -19 28 -51 8 -39 -19 12 3 -19 34 -46 18 -16 28 -35 29 -55 l1 -30
7 30 c4 17 13 40 20 53 10 19 9 22 -6 22 -14 0 -15 2 -4 9 8 5 20 7 28 4 7 -3
13 0 13 6 0 6 14 11 30 11 21 0 30 5 30 16 0 11 -5 14 -17 9 -10 -3 -30 -9
-44 -12 -22 -4 -28 0 -39 26 -7 17 -10 40 -7 51 3 11 1 20 -4 20 -5 0 -9 -5
-9 -12 0 -6 -2 -9 -5 -7 -4 5 15 66 28 87 5 6 6 16 3 21 -3 5 1 15 10 22 13
11 47 65 49 79 0 3 9 19 19 35 77 122 94 138 172 161 56 16 185 26 201 15 16
-10 21 -35 10 -55 -8 -16 -6 -18 7 -13 11 4 16 1 16 -11 0 -12 4 -10 13 8 8
15 20 24 30 22 9 -2 17 1 17 5 0 5 9 14 21 21 19 12 19 12 8 -10 -12 -22 -11
-23 8 -5 11 9 24 17 29 17 6 0 34 12 64 26 42 20 55 23 61 12 5 -8 -1 -22 -16
-38 -26 -28 -32 -50 -14 -50 6 0 8 -7 5 -16 -5 -12 -2 -15 11 -9 10 4 23 8 28
9 6 1 16 5 22 9 9 6 11 3 6 -9 -3 -9 -2 -15 3 -13 24 10 111 52 124 60 8 5 23
12 33 15 9 4 17 10 17 15 0 12 51 0 68 -16 8 -7 16 -41 19 -75 5 -53 8 -60 18
-46 16 21 43 11 47 -17 2 -12 9 -21 15 -20 17 4 31 -25 48 -104 9 -37 23 -84
32 -103 9 -19 19 -59 21 -89 l5 -54 -29 7 c-89 20 -98 20 -91 2 4 -9 3 -15 -3
-11 -5 3 -8 -3 -8 -12 1 -10 -2 -38 -5 -63 l-7 -45 18 50 c11 29 26 51 35 53
24 5 85 -35 93 -61 8 -23 11 -47 13 -111 0 -22 3 -37 6 -34 5 5 13 66 14 116
1 16 16 31 51 53 46 28 49 33 44 62 -4 22 -3 28 4 18 7 -10 11 -3 14 25 3 22
1 45 -5 52 -6 8 -6 12 1 12 5 0 13 30 16 68 4 37 9 79 12 93 3 18 -1 33 -13
44 -13 13 -14 20 -5 23 16 5 16 29 0 35 -7 3 -4 6 7 7 20 1 20 1 0 18 -12 10
-20 29 -20 45 1 17 -9 37 -27 54 -15 15 -28 23 -28 18 0 -4 -9 2 -20 15 -11
13 -20 25 -20 27 0 13 49 -14 74 -41 31 -34 31 -29 1 21 -11 18 -28 33 -37 33
-9 0 -24 3 -32 6 -13 5 -14 9 -5 20 8 9 8 14 1 14 -6 0 -14 -4 -17 -10 -3 -5
-15 -10 -26 -10 -17 0 -19 7 -19 58 0 31 -4 62 -8 67 -4 6 -20 18 -35 28 -33
21 -50 58 -49 107 0 19 -2 26 -5 15 -9 -37 -22 -38 -13 -2 7 35 5 47 -11 47
-5 0 -5 -7 -2 -17 4 -10 2 -14 -4 -10 -6 4 -13 2 -15 -5 -3 -7 -13 9 -23 35
-10 27 -21 43 -25 37 -9 -15 0 -61 11 -54 5 3 9 0 9 -5 0 -17 -31 -13 -53 7
-11 9 -17 11 -13 5 15 -26 -30 -9 -89 33 -34 24 -144 45 -227 43 -29 -1 -98
-7 -153 -14z m572 -142 c-4 -3 -7 0 -7 7 0 7 3 10 7 7 3 -4 3 -10 0 -14z"/>
<path d="M2265 3180 c3 -5 8 -10 11 -10 2 0 4 5 4 10 0 6 -5 10 -11 10 -5 0
-7 -4 -4 -10z"/>
<path d="M2270 3150 c0 -7 3 -10 7 -7 3 4 3 10 0 14 -4 3 -7 0 -7 -7z"/>
<path d="M1800 2809 c0 -5 5 -7 10 -4 6 3 10 8 10 11 0 2 -4 4 -10 4 -5 0 -10
-5 -10 -11z"/>
<path d="M1383 2513 c9 -2 23 -2 30 0 6 3 -1 5 -18 5 -16 0 -22 -2 -12 -5z"/>
<path d="M2016 2499 c3 -5 24 -9 46 -9 23 0 38 3 35 7 -10 10 -87 11 -81 2z"/>
<path d="M1000 2490 c0 -7 3 -10 7 -7 3 4 3 10 0 14 -4 3 -7 0 -7 -7z"/>
<path d="M1690 2391 c0 -5 5 -13 10 -16 6 -3 10 -2 10 4 0 5 -4 13 -10 16 -5
3 -10 2 -10 -4z"/>
<path d="M1745 2389 c-9 -13 -5 -16 20 -21 12 -2 21 3 23 15 2 12 -3 17 -17
17 -11 0 -23 -5 -26 -11z"/>
<path d="M2193 2393 c4 -3 10 -3 14 0 3 4 0 7 -7 7 -7 0 -10 -3 -7 -7z"/>
<path d="M1802 2360 c0 -14 2 -19 5 -12 2 6 2 18 0 25 -3 6 -5 1 -5 -13z"/>
<path d="M1469 2342 c6 -2 8 -8 5 -14 -4 -6 5 -8 22 -6 43 5 42 26 -2 25 -20
-1 -32 -3 -25 -5z"/>
<path d="M1965 2341 c-3 -5 -2 -12 3 -15 5 -3 9 1 9 9 0 17 -3 19 -12 6z"/>
<path d="M1672 2324 c-7 -8 -10 -14 -7 -14 3 0 -1 -13 -10 -30 -16 -32 -21
-60 -7 -44 11 11 44 95 40 99 -2 2 -9 -3 -16 -11z"/>
<path d="M1913 2333 c4 -3 10 -3 14 0 3 4 0 7 -7 7 -7 0 -10 -3 -7 -7z"/>
<path d="M2000 2324 c0 -10 7 -14 22 -12 32 5 35 28 4 28 -17 0 -26 -5 -26
-16z"/>
<path d="M1815 2275 c5 -49 29 -95 54 -103 8 -3 4 5 -8 17 -11 11 -21 30 -21
41 0 11 -4 20 -9 20 -5 0 -7 9 -4 19 3 11 0 28 -6 38 -8 14 -9 6 -6 -32z"/>
<path d="M2201 2224 c0 -11 3 -14 6 -6 3 7 2 16 -1 19 -3 4 -6 -2 -5 -13z"/>
<path d="M1619 2203 c-13 -16 -12 -17 4 -4 9 7 17 15 17 17 0 8 -8 3 -21 -13z"/>
<path d="M2175 2180 c-10 -11 -13 -20 -7 -20 6 0 16 9 22 20 6 11 9 20 7 20
-2 0 -12 -9 -22 -20z"/>
<path d="M2123 2153 c4 -3 10 -3 14 0 3 4 0 7 -7 7 -7 0 -10 -3 -7 -7z"/>
<path d="M1495 1851 c-19 -8 -19 -8 3 -20 19 -10 22 -9 22 9 0 11 -1 20 -2 19
-2 0 -12 -4 -23 -8z"/>
<path d="M1913 1843 c-17 -6 -17 -33 0 -33 7 0 21 6 32 13 17 13 17 14 -1 19
-10 3 -25 3 -31 1z"/>
<path d="M2365 1350 c-4 -7 29 -36 74 -67 7 -5 -32 -58 -97 -131 -76 -85 -162
-145 -287 -200 -134 -58 -200 -78 -306 -92 -75 -10 -108 -10 -154 0 -32 7 -66
16 -74 20 -9 4 -28 13 -43 19 -16 6 -28 17 -28 26 0 8 -4 15 -10 15 -5 0 -10
5 -10 11 0 5 5 7 10 4 6 -3 0 11 -12 31 -23 38 -23 47 -18 217 1 33 -1 61 -3
64 -3 2 -37 -16 -76 -41 -39 -25 -77 -46 -84 -46 -6 0 -27 -9 -46 -21 -19 -11
-43 -22 -54 -25 -49 -9 -112 -52 -195 -132 -124 -121 -193 -234 -191 -316 0
-17 -4 -56 -10 -86 -6 -30 -13 -80 -15 -110 -3 -30 -12 -118 -20 -195 -8 -77
-16 -174 -17 -215 l-2 -75 1446 -3 c796 -1 1447 0 1447 2 0 2 -14 41 -31 85
-26 70 -29 86 -20 112 6 18 8 50 4 72 -7 47 -150 290 -231 392 -71 89 -199
222 -235 245 -15 10 -59 47 -96 84 -38 36 -71 66 -75 66 -6 0 -149 91 -156
100 -12 15 -68 48 -99 58 -18 7 -45 23 -59 37 -13 13 -28 22 -33 19 -5 -3 -9
-1 -9 3 0 5 -8 13 -19 18 -10 6 -32 18 -49 27 -37 22 -110 39 -117 28z"/>
</g>
<g transform="translate(0.000000,360.000000) scale(0.100000,-0.100000)" fill="#C9AA9F" stroke="none">
<path d="M1408 2770 c-15 -4 -29 -5 -32 -2 -8 7 -57 -39 -51 -48 3 -4 -11 -24
-31 -44 -20 -20 -34 -43 -31 -50 3 -7 -13 -31 -35 -52 -22 -21 -36 -40 -29
-42 6 -2 11 -8 11 -13 0 -6 -4 -7 -10 -4 -5 3 -11 0 -12 -7 0 -7 -2 -17 -2
-23 -1 -5 -5 -16 -10 -23 -14 -23 7 -31 55 -20 37 9 45 14 42 29 -3 11 7 29
25 47 17 17 32 28 34 26 2 -2 22 3 45 11 47 16 91 13 172 -14 80 -26 138 -58
151 -81 6 -11 17 -20 25 -20 8 0 15 -4 15 -10 0 -5 7 -10 16 -10 8 0 12 5 9
10 -7 11 17 40 32 40 5 0 16 9 26 20 9 11 23 20 30 20 7 0 38 7 67 16 50 15
53 17 35 30 -15 11 -16 17 -7 26 9 9 12 8 12 -5 0 -9 7 -17 15 -17 17 0 20 16
6 25 -5 3 -8 21 -6 40 2 19 -1 38 -6 41 -5 3 -9 -2 -9 -10 0 -9 -7 -16 -15
-16 -22 0 -18 13 10 34 31 23 32 42 3 49 -30 8 -38 1 -38 -34 0 -20 -4 -29
-12 -26 -7 2 -12 14 -10 25 3 24 -2 25 -70 22 -21 -1 -43 2 -50 7 -15 9 -20
10 -49 12 -11 0 -17 6 -14 11 3 6 1 10 -4 10 -6 0 -11 -4 -11 -8 0 -4 -9 -8
-20 -9 -11 -1 -33 -10 -48 -21 -15 -10 -35 -22 -45 -25 -14 -5 -17 -3 -13 11
4 12 -5 24 -30 41 -20 14 -39 21 -42 15 -4 -5 -16 -11 -27 -12 -11 -2 -26 -9
-32 -14 -10 -8 -12 -3 -7 21 4 17 5 31 3 30 -2 0 -16 -4 -31 -9z m216 -186 c9
-3 16 -15 16 -26 0 -18 -1 -18 -25 -1 -36 27 -31 42 9 27z m53 -21 c-4 -3 -10
-3 -14 0 -3 4 0 7 7 7 7 0 10 -3 7 -7z m76 -19 c4 -1 14 -2 23 -3 22 -2 7 -21
-17 -21 -10 0 -19 5 -19 10 0 6 -7 10 -16 10 -8 0 -12 5 -9 10 4 6 12 7 18 3
7 -4 15 -8 20 -9z m-83 -4 c0 -5 -5 -10 -11 -10 -5 0 -7 5 -4 10 3 6 8 10 11
10 2 0 4 -4 4 -10z"/>
<path d="M1423 2402 c-12 -2 -26 -9 -32 -15 -7 -10 6 -13 57 -13 37 -1 61 1
54 3 -6 3 -10 9 -6 14 3 5 -1 9 -8 10 -7 0 -20 2 -28 3 -8 1 -25 0 -37 -2z"/>
<path d="M1985 2380 c-4 -6 8 -10 30 -10 22 0 34 4 30 10 -3 6 -17 10 -30 10
-13 0 -27 -4 -30 -10z"/>
<path d="M1717 2322 c-17 -19 -48 -87 -45 -99 3 -16 -14 -43 -24 -37 -5 3 -8
0 -7 -7 5 -25 -12 -59 -29 -59 -12 0 -11 4 7 21 12 12 20 23 18 25 -2 2 -33
-3 -68 -12 -55 -14 -77 -15 -159 -5 -117 15 -130 19 -130 37 0 8 -4 14 -9 14
-5 0 -16 16 -25 35 l-17 35 -30 -17 c-29 -17 -38 -33 -19 -33 6 0 10 -9 10
-20 0 -11 -4 -20 -9 -20 -12 0 -1 -74 11 -78 4 -2 8 -13 8 -25 0 -25 23 -105
38 -133 6 -11 13 -27 16 -37 3 -10 10 -16 15 -12 5 3 12 1 16 -5 3 -5 -3 -10
-14 -10 -12 0 -21 -6 -21 -12 0 -7 -3 -23 -6 -35 -5 -17 -2 -23 10 -23 14 0
16 -6 11 -34 -4 -20 -2 -36 4 -40 6 -4 11 0 11 8 0 9 4 16 9 16 17 0 23 -20
11 -35 -9 -11 -6 -19 12 -37 13 -13 22 -26 21 -29 -1 -3 9 -4 22 -2 17 4 25
-1 30 -16 8 -26 53 -81 66 -81 6 0 20 -11 32 -23 26 -29 126 -60 161 -51 14 3
41 1 61 -6 28 -9 39 -9 51 1 9 7 23 14 32 15 28 5 61 27 78 52 15 23 15 26 -5
45 -17 18 -33 21 -95 22 -41 0 -78 3 -82 8 -4 4 -14 7 -22 7 -7 0 -25 8 -38
19 l-24 19 22 5 c17 5 19 9 9 20 -6 8 -27 18 -46 21 -19 4 -35 11 -35 17 0 13
-61 75 -71 71 -5 -1 -9 2 -9 8 0 5 -8 10 -18 10 -9 0 -23 9 -30 21 -8 12 -9
18 -3 15 6 -4 21 0 34 8 27 18 176 29 216 15 38 -13 116 12 116 37 0 13 -8 20
-27 22 -22 3 -27 0 -22 -12 4 -11 0 -16 -15 -16 -12 0 -21 6 -21 15 0 21 -32
35 -79 35 -51 0 -88 14 -95 37 -13 41 -13 83 0 94 15 13 17 9 14 -37 -1 -18 3
-35 9 -39 6 -3 29 4 51 16 36 20 43 21 81 10 34 -10 44 -10 62 2 19 13 21 24
24 134 2 105 0 123 -16 142 -17 20 -19 20 -34 3z m-497 -106 c0 -3 -4 -8 -10
-11 -5 -3 -10 -1 -10 4 0 6 5 11 10 11 6 0 10 -2 10 -4z m84 -91 c-4 -8 -10
-12 -15 -9 -14 8 -10 24 6 24 9 0 12 -6 9 -15z m130 0 c4 -10 -3 -20 -19 -27
-13 -6 -22 -14 -20 -19 6 -9 -31 -22 -44 -15 -4 3 -19 -3 -31 -14 -25 -22 -31
-24 -29 -12 4 23 -3 34 -17 28 -14 -5 -15 -4 -5 8 7 8 19 12 27 9 8 -3 14 -2
13 3 -3 19 1 34 10 34 5 0 7 -9 4 -20 -4 -13 0 -20 9 -20 22 0 28 11 17 31 -6
13 -6 19 1 19 5 0 10 -6 10 -12 0 -7 5 -5 11 5 12 21 55 23 63 2z m297 -26
c12 -23 4 -36 -26 -41 -24 -4 -32 25 -13 46 18 21 25 20 39 -5z m-231 -34 c0
-9 -10 -34 -21 -57 -16 -31 -19 -46 -11 -58 8 -13 6 -21 -7 -32 -16 -14 -19
-13 -30 1 -6 9 -9 11 -7 5 3 -6 -1 -26 -10 -43 -8 -17 -13 -35 -10 -40 4 -5 1
-13 -5 -16 -14 -10 -69 44 -69 68 0 10 14 32 30 49 17 16 30 33 30 37 0 4 10
17 23 28 12 12 33 33 46 47 26 29 41 33 41 11z m-155 -54 c-3 -6 -11 -8 -17
-5 -6 4 -5 9 3 15 16 10 23 4 14 -10z m-39 -18 c-4 -4 -12 -1 -19 7 -9 10 -9
11 1 6 7 -4 12 -2 13 6 0 11 2 11 6 0 3 -7 2 -16 -1 -19z m291 -310 c-4 -3
-10 -3 -14 0 -3 4 0 7 7 7 7 0 10 -3 7 -7z m40 -130 c-4 -3 -10 -3 -14 0 -3 4
0 7 7 7 7 0 10 -3 7 -7z"/>
<path d="M1610 2296 c0 -12 -55 -30 -125 -42 -39 -7 -40 -6 -22 13 9 11 17 21
17 24 0 8 -106 1 -133 -10 -31 -12 -48 -11 -59 4 -11 15 -10 -19 2 -49 6 -18
21 -28 52 -37 54 -15 220 -14 248 1 20 11 33 35 46 84 4 16 1 23 -10 23 -9 0
-16 -5 -16 -11z m-295 -36 c3 -5 1 -10 -4 -10 -6 0 -11 5 -11 10 0 6 2 10 4
10 3 0 8 -4 11 -10z"/>
<path d="M1153 2293 c4 -3 10 -3 14 0 3 4 0 7 -7 7 -7 0 -10 -3 -7 -7z"/>
<path d="M1185 2290 c3 -5 8 -10 11 -10 2 0 4 5 4 10 0 6 -5 10 -11 10 -5 0
-7 -4 -4 -10z"/>
<path d="M1980 2279 c0 -5 9 -9 20 -9 11 0 20 2 20 4 0 2 -9 6 -20 9 -11 3
-20 1 -20 -4z"/>
<path d="M1896 2251 c-4 -6 -1 -21 6 -33 7 -13 11 -26 10 -30 -6 -21 161 -32
223 -15 l30 9 -27 14 c-16 8 -28 18 -28 22 0 4 -17 6 -38 4 -34 -3 -99 11
-153 33 -10 3 -20 2 -23 -4z"/>
<path d="M1076 2199 c-7 -20 -9 -40 -6 -69 2 -14 6 -4 10 25 7 49 5 71 -4 44z"/>
<path d="M1950 2061 c74 -100 111 -141 127 -141 25 0 81 63 83 95 3 39 -10 94
-24 102 -6 4 -61 8 -123 9 l-112 2 49 -67z m117 27 c0 -7 4 -21 8 -30 5 -12 3
-18 -7 -18 -27 0 -68 25 -68 43 0 13 8 17 33 17 20 0 34 -5 34 -12z"/>
<path d="M2052 1830 c-13 -16 -29 -30 -37 -30 -15 0 -17 -13 -18 -104 0 -17 6
-34 16 -40 13 -9 24 -2 56 32 23 24 43 57 46 75 7 40 -7 91 -26 95 -8 1 -25
-11 -37 -28z"/>
<path d="M1576 1843 c-3 -4 -6 -11 -6 -17 0 -6 4 -5 9 3 5 8 14 10 21 6 10 -6
9 -11 -4 -21 -10 -7 -13 -15 -7 -18 5 -4 15 3 21 14 6 11 18 20 27 20 24 0 13
6 -23 13 -18 3 -34 3 -38 0z"/>
<path d="M1550 1830 c0 -7 3 -10 7 -7 3 4 3 10 0 14 -4 3 -7 0 -7 -7z"/>
<path d="M1781 1808 c12 -23 42 -24 37 -1 -2 9 -13 17 -25 18 -18 1 -20 -1
-12 -17z"/>
<path d="M1854 1808 c-4 -7 -3 -8 4 -4 12 7 16 16 8 16 -3 0 -8 -5 -12 -12z"/>
<path d="M1713 1783 c4 -3 10 -3 14 0 3 4 0 7 -7 7 -7 0 -10 -3 -7 -7z"/>
<path d="M1673 1773 c4 -3 10 -3 14 0 3 4 0 7 -7 7 -7 0 -10 -3 -7 -7z"/>
<path d="M1970 1754 c0 -8 5 -12 10 -9 6 3 10 10 10 16 0 5 -4 9 -10 9 -5 0
-10 -7 -10 -16z"/>
<path d="M1680 1730 c0 -7 -8 -9 -22 -5 -17 4 -19 4 -8 -4 9 -5 30 -6 50 -1
19 4 30 8 23 9 -6 1 -18 4 -27 7 -9 3 -16 1 -16 -6z"/>
<path d="M1508 1259 c-25 -14 -22 -45 10 -95 21 -35 33 -44 56 -44 16 0 44 13
66 30 21 17 53 36 70 42 25 8 34 8 40 -3 11 -16 4 -29 -16 -29 -8 0 -14 -6
-15 -12 -2 -34 -11 -63 -19 -66 -5 -2 -17 -18 -25 -35 -13 -29 -19 -32 -59
-32 -25 0 -50 -5 -57 -12 -9 -9 -3 -16 27 -29 22 -9 54 -17 72 -18 19 -1 30
-5 28 -12 -3 -7 12 -14 35 -18 21 -3 39 -11 39 -17 0 -7 10 -5 25 5 13 9 35
16 49 16 14 0 28 5 31 10 9 14 21 12 40 -7 16 -15 21 -15 74 2 127 43 291 140
291 173 0 8 5 10 12 6 7 -4 8 -3 4 5 -4 6 -12 8 -18 5 -7 -5 -9 -2 -6 7 5 12
-2 14 -28 11 -53 -6 -90 16 -104 61 -10 34 -15 38 -35 34 -14 -2 -22 0 -19 4
3 5 -4 9 -16 9 -14 0 -19 -4 -14 -12 6 -10 4 -10 -7 -2 -24 19 -72 23 -119 11
-25 -7 -51 -16 -57 -20 -7 -5 -17 -5 -23 -2 -5 3 -24 -2 -40 -12 -25 -15 -32
-15 -39 -4 -6 8 -16 11 -30 6 -15 -4 -29 -1 -40 9 -9 8 -46 22 -81 30 -76 18
-80 19 -102 5z"/>
<path d="M1520 1020 c0 -5 5 -10 10 -10 6 0 10 5 10 10 0 6 -4 10 -10 10 -5 0
-10 -4 -10 -10z"/>
</g>
<g transform="translate(0.000000,360.000000) scale(0.100000,-0.100000)" fill="#B6988D" stroke="none">
<path d="M1397 2809 c-9 -6 -15 -14 -12 -20 3 -5 0 -6 -7 -4 -18 7 -107 -50
-114 -72 -13 -40 -49 -114 -60 -124 -36 -30 -77 -160 -55 -173 5 -3 16 -3 25
0 13 5 14 10 5 20 -6 7 -7 19 -3 26 5 7 9 18 10 23 0 6 2 16 2 23 1 7 7 10 12
7 6 -3 10 -2 10 4 0 5 -5 11 -11 13 -7 2 7 21 29 42 22 21 38 45 35 52 -3 7
11 30 31 50 20 20 34 40 31 44 -6 9 43 55 51 48 3 -4 19 -2 36 3 30 8 30 8 24
-23 -5 -24 -3 -28 7 -20 6 5 21 12 32 14 11 1 23 7 27 12 3 6 22 -1 42 -15 25
-17 34 -29 30 -41 -4 -14 -1 -16 13 -11 10 3 30 15 45 25 15 11 37 20 48 21
11 1 20 5 20 9 0 4 5 8 11 8 5 0 7 -4 4 -10 -3 -5 3 -11 14 -11 29 -2 34 -3
49 -12 7 -5 29 -8 50 -7 68 3 73 2 70 -22 -2 -11 3 -23 10 -25 8 -3 12 6 12
26 0 35 8 42 38 34 29 -7 28 -26 -3 -49 -28 -21 -32 -34 -10 -34 8 0 15 7 15
16 0 8 4 13 9 10 5 -3 8 -22 6 -41 -2 -19 1 -37 6 -40 14 -9 11 -25 -6 -25 -8
0 -15 8 -15 17 0 14 -2 15 -12 4 -11 -10 -9 -14 7 -23 19 -11 18 -12 -10 -25
l-30 -14 35 7 c45 10 201 14 196 5 -7 -12 21 -29 35 -21 11 7 10 15 -4 45 -18
37 -16 40 27 47 16 3 12 11 -27 53 -26 27 -47 58 -47 67 0 12 -8 18 -24 18
-15 0 -26 7 -29 20 -6 23 -39 26 -84 9 -15 -5 -46 -13 -68 -16 -22 -3 -46 -10
-53 -16 -8 -6 -20 -7 -35 -1 -12 6 -39 9 -59 8 -34 -1 -36 1 -27 19 8 15 8 18
-1 12 -9 -5 -10 -1 -5 15 6 17 4 21 -6 14 -8 -5 -19 -9 -25 -9 -12 0 -54 -28
-93 -63 l-26 -24 -6 24 c-4 12 -7 17 -8 9 -1 -11 -6 -9 -21 7 -11 12 -20 25
-20 30 0 5 -7 16 -16 23 -14 12 -19 10 -38 -14 -12 -15 -24 -27 -27 -27 -3 0
-4 12 -1 28 3 23 0 28 -20 29 -13 1 -31 -3 -41 -8z"/>
<path d="M1390 2560 c-19 -6 -9 -8 36 -9 91 -1 238 -56 249 -92 11 -33 35 -49
75 -49 33 0 41 5 58 34 13 21 38 43 64 55 48 22 42 26 -14 10 -21 -5 -38 -14
-38 -20 0 -5 -8 -13 -17 -16 -26 -10 -45 -31 -38 -43 3 -5 -1 -10 -9 -10 -9 0
-16 5 -16 10 0 6 -7 10 -15 10 -8 0 -19 9 -25 20 -13 23 -71 55 -151 81 -70
23 -125 30 -159 19z"/>
<path d="M1297 2518 c-37 -37 -33 -63 11 -62 125 2 175 5 169 10 -3 4 -47 6
-97 6 -49 -1 -90 2 -90 5 0 4 12 19 26 34 14 15 22 29 17 31 -4 3 -21 -8 -36
-24z"/>
<path d="M1973 2454 c3 -3 29 -7 58 -9 28 -2 66 -6 83 -9 l31 -6 -30 15 c-28
13 -155 22 -142 9z"/>
<path d="M1248 2443 c7 -3 16 -2 19 1 4 3 -2 6 -13 5 -11 0 -14 -3 -6 -6z"/>
<path d="M1913 2443 c9 -2 25 -2 35 0 9 3 1 5 -18 5 -19 0 -27 -2 -17 -5z"/>
<path d="M1208 2433 c7 -3 16 -2 19 1 4 3 -2 6 -13 5 -11 0 -14 -3 -6 -6z"/>
<path d="M1313 2419 c-18 -5 -37 -18 -43 -29 -13 -24 -2 -129 11 -108 6 9 9 9
9 1 0 -13 41 -10 80 6 24 9 23 10 -11 10 -20 1 -42 7 -48 15 -10 11 -7 17 11
30 12 9 37 16 56 16 20 0 31 4 27 10 -4 6 -12 7 -18 4 -7 -4 -5 0 3 9 19 21
118 29 106 9 -3 -5 7 -15 22 -22 15 -7 35 -16 44 -21 31 -16 30 -10 -4 19 -63
54 -84 62 -150 61 -35 0 -78 -5 -95 -10z m36 -25 c7 -6 -21 -34 -34 -34 -15 0
-28 28 -19 41 5 8 41 3 53 -7z"/>
<path d="M1970 2401 c0 -5 -17 -16 -37 -24 -38 -16 -38 -16 67 -16 89 -1 102
1 90 13 -29 26 -120 47 -120 27z m75 -21 c4 -6 -8 -10 -30 -10 -22 0 -34 4
-30 10 3 6 17 10 30 10 13 0 27 -4 30 -10z"/>
<path d="M1433 2373 c4 -3 10 -3 14 0 3 4 0 7 -7 7 -7 0 -10 -3 -7 -7z"/>
<path d="M1210 2360 c11 -7 5 -10 -23 -10 -31 0 -39 -4 -47 -26 -18 -47 -7
-312 11 -282 6 9 9 9 9 1 0 -6 -4 -14 -9 -17 -10 -7 -8 -58 3 -93 5 -17 3 -23
-7 -23 -21 0 -28 25 -17 55 5 14 7 32 3 40 -5 14 -8 13 -24 -4 -11 -11 -19
-31 -19 -44 0 -26 37 -80 49 -73 4 3 27 -43 50 -102 55 -137 84 -182 116 -182
13 0 28 -6 32 -14 4 -8 26 -24 48 -35 22 -12 47 -26 55 -31 54 -34 154 -64
241 -74 79 -9 199 36 260 97 18 17 38 27 58 27 20 0 34 7 41 20 6 11 20 20 31
20 11 0 22 8 26 18 3 9 17 32 30 50 13 17 22 36 19 41 -3 5 1 15 10 22 9 7 13
21 10 35 -3 12 -1 36 5 53 8 23 8 35 0 45 -8 9 -5 24 11 57 24 49 29 71 32
145 l3 51 -71 1 c-49 0 -60 -2 -37 -7 27 -5 37 -12 44 -36 17 -57 9 -96 -28
-132 -19 -18 -40 -33 -48 -33 -16 0 -53 41 -127 141 l-49 67 32 0 c57 -1 74 4
37 11 -41 8 -80 2 -80 -11 0 -5 11 -21 25 -36 34 -36 41 -63 21 -74 -9 -5 -16
-16 -16 -23 0 -8 -9 -24 -21 -36 -18 -18 -25 -19 -73 -9 -29 6 -70 10 -92 9
-47 -1 -161 15 -170 24 -4 4 13 15 36 26 39 17 47 18 71 6 35 -19 66 -12 101
22 27 26 29 33 27 88 -2 33 0 65 4 72 4 6 2 13 -5 15 -6 2 -13 22 -14 43 -6
70 -34 114 -61 97 -15 -10 -46 -73 -39 -80 3 -3 6 -1 6 5 0 6 9 22 21 37 l21
27 19 -22 c16 -19 18 -36 16 -142 -3 -110 -5 -121 -24 -134 -18 -12 -28 -12
-62 -2 -38 11 -45 10 -81 -10 -22 -12 -45 -19 -51 -16 -6 4 -10 21 -9 39 3 46
1 50 -14 37 -13 -11 -13 -53 0 -94 7 -23 44 -37 95 -37 47 0 79 -14 79 -35 0
-9 9 -15 21 -15 15 0 19 5 15 16 -5 12 0 15 22 12 19 -2 27 -9 27 -22 0 -25
-78 -50 -116 -37 -40 14 -189 3 -217 -15 -18 -12 -27 -13 -35 -5 -9 9 -8 17 1
32 7 11 10 25 7 32 -3 7 0 5 6 -4 11 -14 14 -15 30 -1 13 11 15 19 7 32 -8 12
-5 27 11 58 35 69 24 95 -20 46 -13 -14 -34 -35 -46 -47 -13 -11 -23 -24 -23
-28 0 -4 -13 -21 -30 -37 -16 -17 -30 -39 -30 -49 0 -24 54 -78 69 -69 5 4 8
14 5 24 -4 12 0 11 14 -5 11 -13 27 -23 36 -23 9 0 16 -5 16 -10 0 -6 4 -9 9
-8 10 4 71 -58 71 -71 0 -6 16 -13 35 -17 19 -3 40 -13 46 -21 10 -11 8 -15
-9 -20 l-22 -5 24 -19 c13 -11 31 -19 38 -19 8 0 18 -3 22 -7 4 -5 41 -8 82
-8 62 -1 78 -4 95 -22 20 -19 20 -22 5 -45 -17 -25 -50 -47 -78 -52 -9 -1 -23
-8 -32 -15 -12 -10 -23 -10 -51 -1 -20 7 -47 9 -61 6 -35 -9 -135 22 -161 51
-12 12 -26 23 -32 23 -13 0 -58 55 -66 81 -5 15 -13 20 -30 16 -13 -2 -23 -1
-22 2 1 3 -8 16 -21 29 -18 18 -21 26 -12 37 12 15 6 35 -11 35 -5 0 -9 -7 -9
-16 0 -8 -5 -12 -11 -8 -6 4 -8 20 -4 40 5 28 3 34 -11 34 -12 0 -15 6 -10 23
3 12 6 28 6 35 0 6 9 12 21 12 11 0 17 5 14 10 -4 6 -11 8 -16 5 -5 -4 -12 2
-15 12 -3 10 -10 26 -16 37 -15 28 -38 108 -38 133 0 12 -4 23 -8 25 -12 4
-23 78 -11 78 5 0 9 9 9 20 0 11 -4 20 -10 20 -19 0 -10 16 20 33 l30 18 10
-27 c19 -48 20 -19 3 54 -12 51 -22 72 -33 72 -13 0 -13 -1 0 -10z m-43 -67
c-4 -3 -10 -3 -14 0 -3 4 0 7 7 7 7 0 10 -3 7 -7z m33 -3 c0 -5 -2 -10 -4 -10
-3 0 -8 5 -11 10 -3 6 -1 10 4 10 6 0 11 -4 11 -10z m242 -323 c-23 -34 -45
-78 -48 -96 -5 -23 -9 -29 -15 -19 -20 30 -8 65 43 125 28 35 54 61 56 58 3
-2 -14 -33 -36 -68z m618 -96 c0 -28 -17 -35 -25 -11 -8 26 -35 26 -35 -1 0
-12 -11 -30 -25 -41 -13 -10 -24 -22 -23 -26 4 -13 -13 -52 -23 -52 -5 0 -9
-4 -9 -10 0 -5 -8 -19 -17 -30 -15 -18 -19 -18 -34 -4 -13 12 -22 13 -38 5
-11 -6 -29 -11 -40 -11 -12 0 -20 -5 -18 -11 1 -6 -6 -13 -15 -14 -10 -2 -18
1 -18 5 0 5 -3 15 -6 23 -3 10 5 18 27 26 18 6 29 14 26 18 -4 3 -31 7 -60 8
-103 5 -171 22 -189 49 -5 7 -8 7 -8 -3 0 -8 -14 -1 -36 18 -19 17 -40 28 -46
25 -6 -4 -9 -1 -6 7 8 24 59 30 248 27 14 0 68 3 120 7 82 6 98 11 118 31 13
14 28 22 33 19 5 -4 7 -10 4 -15 -3 -4 4 -10 15 -13 21 -5 28 7 10 18 -5 3
-10 18 -10 33 0 27 1 27 40 -15 22 -23 40 -51 40 -62z m52 -46 c14 -48 0 -91
-43 -137 -32 -34 -43 -41 -56 -32 -10 6 -16 23 -16 40 1 91 3 104 18 104 8 0
24 14 37 30 12 17 29 29 37 28 8 -2 18 -16 23 -33z m-122 -64 c0 -6 -4 -13
-10 -16 -5 -3 -10 1 -10 9 0 9 5 16 10 16 6 0 10 -4 10 -9z m-267 -32 c7 -1
-4 -5 -23 -9 -20 -5 -41 -4 -50 1 -11 8 -9 8 8 4 14 -4 22 -2 22 5 0 7 7 9 16
6 9 -3 21 -6 27 -7z m2 -54 c0 -6 -10 -11 -22 -13 -22 -3 -30 8 -16 22 10 9
38 3 38 -9z"/>
<path d="M1544 1838 c-4 -7 -4 -10 1 -6 4 4 13 1 19 -8 10 -13 12 -13 12 5 0
23 -21 28 -32 9z"/>
<path d="M1623 1843 c4 -3 10 -3 14 0 3 4 0 7 -7 7 -7 0 -10 -3 -7 -7z"/>
<path d="M1663 1833 c9 -2 23 -2 30 0 6 3 -1 5 -18 5 -16 0 -22 -2 -12 -5z"/>
<path d="M1748 1833 c7 -3 16 -2 19 1 4 3 -2 6 -13 5 -11 0 -14 -3 -6 -6z"/>
<path d="M1834 1832 c-15 -2 -20 -9 -17 -21 6 -22 45 -21 49 2 3 20 -4 24 -32
19z"/>
<path d="M1713 1823 c4 -3 10 -3 14 0 3 4 0 7 -7 7 -7 0 -10 -3 -7 -7z"/>
<path d="M1783 1823 c4 -3 10 -3 14 0 3 4 0 7 -7 7 -7 0 -10 -3 -7 -7z"/>
<path d="M1633 1783 c4 -3 10 -3 14 0 3 4 0 7 -7 7 -7 0 -10 -3 -7 -7z"/>
<path d="M1693 1773 c4 -3 10 -3 14 0 3 4 0 7 -7 7 -7 0 -10 -3 -7 -7z"/>
<path d="M1743 1773 c9 -2 23 -2 30 0 6 3 -1 5 -18 5 -16 0 -22 -2 -12 -5z"/>
<path d="M1620 2340 c0 -5 -5 -10 -10 -10 -6 0 -20 -9 -32 -20 -12 -10 -25
-17 -30 -14 -4 3 -8 -1 -8 -8 0 -10 -2 -10 -9 1 -5 8 -16 11 -25 8 -9 -4 -16
-3 -16 2 0 5 -20 9 -45 9 -30 1 -43 -2 -39 -9 3 -6 22 -9 40 -7 19 2 34 2 34
-1 0 -2 -8 -13 -17 -24 -18 -19 -17 -20 22 -13 22 4 59 12 83 19 33 9 42 16
38 29 -3 12 0 16 7 11 18 -11 37 -12 37 -3 0 5 3 15 6 24 4 12 0 16 -15 16
-12 0 -21 -4 -21 -10z"/>
<path d="M1025 2310 c-3 -5 3 -10 15 -10 12 0 18 5 15 10 -3 6 -10 10 -15 10
-5 0 -12 -4 -15 -10z"/>
<path d="M1851 2291 c-12 -8 -13 -16 -2 -50 11 -40 42 -68 61 -56 6 4 3 16 -7
31 -25 38 -6 46 62 23 33 -11 78 -19 100 -17 28 2 45 -2 58 -14 9 -10 17 -21
18 -25 0 -5 3 -10 6 -13 4 -3 3 1 -1 8 -6 9 -2 12 10 10 14 -2 19 3 19 22 0
21 -7 27 -43 35 -24 6 -40 13 -37 16 13 13 -26 29 -84 35 -43 5 -69 3 -87 -6
-19 -11 -27 -11 -36 -2 -14 14 -19 15 -37 3z m169 -17 c0 -2 -9 -4 -20 -4 -11
0 -20 4 -20 9 0 5 9 7 20 4 11 -3 20 -7 20 -9z"/>
<path d="M1630 2270 c0 -7 3 -10 7 -7 3 4 3 10 0 14 -4 3 -7 0 -7 -7z"/>
<path d="M1300 2260 c0 -5 5 -10 11 -10 5 0 7 5 4 10 -3 6 -8 10 -11 10 -2 0
-4 -4 -4 -10z"/>
<path d="M1657 2224 c-21 -42 -58 -60 -145 -67 -35 -3 -66 -8 -69 -11 -12 -12
74 -6 131 9 33 9 61 14 63 11 2 -2 -6 -13 -18 -25 -18 -17 -19 -21 -7 -21 17
0 34 34 29 59 -1 7 2 10 7 7 6 -3 13 2 17 12 8 17 16 62 11 62 -1 0 -10 -16
-19 -36z"/>
<path d="M1280 2240 c0 -7 3 -10 7 -7 3 4 3 10 0 14 -4 3 -7 0 -7 -7z"/>
<path d="M1080 2231 c-8 -6 -18 -7 -23 -4 -6 4 -7 -9 -3 -31 8 -41 -8 -50 -18
-10 -4 15 -9 25 -11 22 -2 -2 9 -41 24 -86 16 -44 31 -79 34 -75 4 3 13 0 22
-7 20 -16 19 -6 -1 26 -14 20 -16 39 -11 99 4 41 6 75 4 75 -1 0 -9 -4 -17 -9z
m0 -76 c-4 -29 -8 -39 -10 -25 -3 29 -1 49 6 69 9 27 11 5 4 -44z"/>
<path d="M1200 2209 c0 -5 5 -7 10 -4 6 3 10 8 10 11 0 2 -4 4 -10 4 -5 0 -10
-5 -10 -11z"/>
<path d="M1604 2208 c-4 -7 -3 -8 4 -4 12 7 16 16 8 16 -3 0 -8 -5 -12 -12z"/>
<path d="M1338 2193 c7 -3 16 -2 19 1 4 3 -2 6 -13 5 -11 0 -14 -3 -6 -6z"/>
<path d="M1280 2179 c0 -10 44 -23 60 -17 5 1 -6 8 -25 14 -19 6 -35 7 -35 3z"/>
<path d="M1418 2183 c7 -3 16 -2 19 1 4 3 -2 6 -13 5 -11 0 -14 -3 -6 -6z"/>
<path d="M1493 2183 c9 -2 25 -2 35 0 9 3 1 5 -18 5 -19 0 -27 -2 -17 -5z"/>
<path d="M1963 2163 c4 -3 10 -3 14 0 3 4 0 7 -7 7 -7 0 -10 -3 -7 -7z"/>
<path d="M2093 2163 c4 -3 10 -3 14 0 3 4 0 7 -7 7 -7 0 -10 -3 -7 -7z"/>
<path d="M1383 2153 c9 -2 23 -2 30 0 6 3 -1 5 -18 5 -16 0 -22 -2 -12 -5z"/>
<path d="M1842 2061 c-11 -30 -10 -32 10 -29 27 4 32 19 15 42 -13 18 -15 17
-25 -13z"/>
<path d="M2440 2080 c0 -7 3 -10 7 -7 3 4 3 10 0 14 -4 3 -7 0 -7 -7z"/>
<path d="M1081 2014 c0 -11 3 -14 6 -6 3 7 2 16 -1 19 -3 4 -6 -2 -5 -13z"/>
<path d="M1583 1683 c4 -3 10 -3 14 0 3 4 0 7 -7 7 -7 0 -10 -3 -7 -7z"/>
<path d="M1400 1440 c0 -7 3 -10 7 -7 3 4 3 10 0 14 -4 3 -7 0 -7 -7z"/>
<path d="M1417 1330 c3 -47 7 -110 8 -140 2 -34 15 -81 35 -125 73 -162 68
-155 98 -155 15 0 55 -9 87 -21 48 -17 73 -20 125 -15 62 5 195 44 158 45 -10
1 -18 5 -18 10 0 14 -32 23 -44 11 -5 -5 -21 -10 -33 -10 -13 0 -35 -7 -48
-16 -15 -10 -25 -12 -25 -5 0 6 -18 14 -39 17 -23 4 -38 11 -35 18 2 7 -9 11
-28 12 -18 1 -50 9 -72 18 -30 13 -36 20 -27 29 7 7 32 12 57 12 40 0 46 3 59
32 8 17 20 33 25 35 8 3 17 32 19 66 1 6 7 12 15 12 20 0 27 13 16 29 -6 11
-15 11 -40 3 -17 -6 -49 -25 -70 -42 -22 -17 -50 -30 -66 -30 -23 0 -35 9 -56
44 -33 52 -35 81 -7 96 16 9 38 8 94 -5 40 -9 79 -23 86 -31 8 -10 21 -13 37
-9 16 4 28 1 33 -7 7 -10 14 -9 39 5 16 10 35 15 40 12 6 -3 16 -3 23 2 6 4
32 13 57 20 47 12 95 8 119 -11 11 -8 13 -8 7 2 -5 8 0 12 14 12 12 0 19 -4
16 -9 -3 -4 5 -6 19 -4 20 4 25 0 35 -34 14 -45 51 -67 105 -61 18 2 31 0 29
-4 -3 -4 0 -16 6 -25 11 -17 11 -17 6 0 -4 11 -2 16 5 12 12 -8 46 20 61 50
11 19 10 19 -9 2 -20 -17 -20 -17 -16 8 5 25 -10 35 -22 15 -4 -7 -14 -5 -28
5 -12 8 -28 15 -35 15 -20 0 -42 26 -42 50 0 14 -9 24 -30 31 -16 6 -27 15
-24 21 8 12 -119 2 -145 -12 -29 -15 -199 -38 -256 -35 -69 4 -87 9 -134 40
-62 39 -91 41 -124 10 -23 -22 -28 -24 -33 -10 -4 9 1 22 12 31 18 14 18 14
-6 12 -20 -2 -26 3 -32 27 -4 17 -5 -8 -1 -55z m56 -130 c3 -11 2 -20 -3 -20
-8 0 -20 24 -20 41 0 17 17 1 23 -21z m67 -180 c0 -5 -4 -10 -10 -10 -5 0 -10
5 -10 10 0 6 5 10 10 10 6 0 10 -4 10 -10z"/>
<path d="M2045 960 c-3 -6 1 -7 9 -4 18 7 21 14 7 14 -6 0 -13 -4 -16 -10z"/>
<path d="M2008 943 c7 -3 16 -2 19 1 4 3 -2 6 -13 5 -11 0 -14 -3 -6 -6z"/>
<path d="M1953 923 c4 -3 10 -3 14 0 3 4 0 7 -7 7 -7 0 -10 -3 -7 -7z"/>
</g>
<g transform="translate(0.000000,360.000000) scale(0.100000,-0.100000)" fill="#957265" stroke="none">
<path d="M1416 2848 c-9 -5 -25 -6 -36 -3 -11 4 -20 2 -20 -4 0 -6 -9 -11 -20
-11 -36 0 -64 -40 -145 -210 -9 -19 -28 -55 -41 -80 -15 -28 -24 -59 -23 -85
l2 -40 6 46 c4 26 19 65 34 88 42 63 73 123 80 152 8 34 73 99 98 99 11 0 30
7 43 15 13 9 34 14 47 12 18 -3 24 -10 24 -30 l-1 -27 26 25 c14 14 29 25 33
25 12 0 45 -37 50 -57 4 -17 5 -17 6 0 0 10 6 15 11 12 15 -9 12 4 -4 20 -7 8
-17 11 -20 7 -4 -3 -9 3 -12 15 -6 23 -25 22 -57 -5 -16 -14 -17 -13 -11 14 5
27 3 29 -24 30 -16 1 -37 -3 -46 -8z"/>
<path d="M1750 2844 c-14 -7 -32 -14 -40 -14 -19 0 -93 -68 -103 -95 -5 -11 6
-4 28 18 20 21 50 40 66 44 16 3 32 10 35 14 3 5 14 9 25 9 14 0 18 -4 13 -12
-6 -10 -4 -10 8 0 9 7 18 22 21 32 6 24 -15 25 -53 4z"/>
<path d="M2091 2824 c-6 -11 -11 -13 -11 -6 0 14 -56 17 -65 3 -3 -5 -29 -17
-58 -26 -28 -10 -56 -21 -61 -26 -16 -14 28 -10 60 5 16 8 48 17 71 21 33 5
44 2 52 -12 9 -15 12 -16 20 -4 7 11 14 7 30 -20 12 -19 21 -40 21 -46 0 -7
11 -20 25 -29 13 -9 37 -40 52 -70 23 -45 25 -58 16 -74 -10 -15 -9 -19 5 -22
9 -2 17 -10 18 -18 1 -8 2 -37 2 -64 2 -38 5 -47 17 -42 8 3 15 1 15 -4 0 -6
9 -10 20 -10 18 0 19 2 3 48 -9 26 -22 61 -29 77 -12 30 -28 76 -29 85 -2 21
-29 69 -36 64 -5 -3 -9 9 -9 25 0 18 -5 32 -12 32 -7 1 -20 2 -28 3 -8 0 -16
10 -18 21 -2 11 -6 27 -9 35 -3 8 -6 17 -6 20 0 3 -10 16 -22 29 -22 22 -23
22 -34 5z"/>
<path d="M1855 2780 c-11 -5 -32 -9 -46 -9 -14 -1 -34 -8 -45 -17 -18 -15 -18
-15 2 -5 14 7 33 7 59 0 26 -8 41 -7 48 0 8 8 7 11 -2 11 -11 0 -11 3 -1 15
14 17 13 17 -15 5z"/>
<path d="M1388 2543 c12 -2 32 -2 45 0 12 2 2 4 -23 4 -25 0 -35 -2 -22 -4z"/>
<path d="M1990 2528 c-35 -5 -76 -15 -90 -23 -14 -8 -35 -18 -47 -24 -12 -6
-27 -20 -34 -33 -7 -13 -17 -27 -23 -31 -6 -5 0 -6 14 -3 14 3 33 6 43 6 10 0
16 4 13 9 -3 5 11 8 31 6 21 -1 29 0 18 2 l-20 5 20 9 c19 8 19 8 -2 15 -13 3
-23 12 -23 19 0 15 80 35 138 35 20 0 44 5 52 10 12 8 11 10 -5 9 -11 -1 -49
-6 -85 -11z"/>
<path d="M1317 2512 c-31 -34 -21 -41 46 -36 34 2 80 1 102 -2 37 -7 38 -8 15
-15 -19 -5 -13 -7 25 -8 45 -1 101 -13 175 -36 24 -7 24 -7 8 12 -10 11 -18
25 -18 31 0 6 -22 23 -50 37 -59 30 -78 33 -32 5 18 -11 30 -25 27 -30 -4 -6
-12 -7 -18 -3 -15 9 -106 17 -210 18 -42 0 -77 2 -77 4 0 3 7 13 17 23 9 10
14 18 11 18 -3 0 -12 -8 -21 -18z"/>
<path d="M1533 2523 c4 -3 10 -3 14 0 3 4 0 7 -7 7 -7 0 -10 -3 -7 -7z"/>
<path d="M2113 2523 c4 -3 10 -3 14 0 3 4 0 7 -7 7 -7 0 -10 -3 -7 -7z"/>
<path d="M2162 2496 c15 -13 34 -40 42 -60 10 -23 21 -36 33 -35 16 0 16 1 -2
9 -11 5 -15 9 -8 9 27 2 5 38 -42 69 -35 23 -42 25 -23 8z"/>
<path d="M1950 2470 c-11 -7 -2 -10 29 -10 48 0 51 4 11 13 -14 3 -32 2 -40
-3z"/>
<path d="M2055 2463 c68 -15 95 -25 90 -33 -4 -6 4 -10 17 -10 21 0 21 2 -8
20 -17 11 -51 22 -75 24 -24 2 -35 2 -24 -1z"/>
<path d="M1363 2453 c15 -2 39 -2 55 0 15 2 2 4 -28 4 -30 0 -43 -2 -27 -4z"/>
<path d="M1278 2443 c7 -3 16 -2 19 1 4 3 -2 6 -13 5 -11 0 -14 -3 -6 -6z"/>
<path d="M1233 2433 c4 -3 10 -3 14 0 3 4 0 7 -7 7 -7 0 -10 -3 -7 -7z"/>
<path d="M1388 2433 c7 -3 16 -2 19 1 4 3 -2 6 -13 5 -11 0 -14 -3 -6 -6z"/>
<path d="M1453 2433 c9 -2 23 -2 30 0 6 3 -1 5 -18 5 -16 0 -22 -2 -12 -5z"/>
<path d="M2078 2433 c7 -3 16 -2 19 1 4 3 -2 6 -13 5 -11 0 -14 -3 -6 -6z"/>
<path d="M1323 2423 c4 -3 10 -3 14 0 3 4 0 7 -7 7 -7 0 -10 -3 -7 -7z"/>
<path d="M1510 2423 c0 -14 60 -43 101 -49 31 -5 39 -3 39 9 0 18 -53 42 -75
33 -8 -3 -15 -1 -15 4 0 6 -11 10 -25 10 -14 0 -25 -3 -25 -7z"/>
<path d="M1920 2405 c7 -8 17 -11 24 -7 6 4 45 10 86 13 l75 6 -99 1 c-86 2
-97 0 -86 -13z"/>
<path d="M1265 2399 c-4 -6 -5 -12 -2 -15 2 -3 7 2 10 11 7 17 1 20 -8 4z"/>
<path d="M1862 2403 c-6 -2 -10 -9 -7 -13 3 -5 -4 -19 -15 -30 -18 -18 -20
-25 -11 -48 8 -20 10 -21 7 -5 -3 16 2 23 18 25 13 2 22 11 24 26 2 12 8 22
13 22 5 0 9 7 9 15 0 15 -14 18 -38 8z"/>
<path d="M2097 2403 c-17 -4 -16 -8 9 -34 l27 -29 -34 10 c-19 6 -65 9 -104 8
l-70 -1 75 -7 c41 -5 91 -13 111 -19 36 -11 67 -36 57 -47 -3 -3 -26 0 -51 6
-25 7 -53 10 -63 7 -13 -3 -10 -5 9 -6 34 -1 95 -26 119 -48 19 -17 19 -20 23
92 1 33 -19 60 -36 49 -7 -4 -9 -3 -6 3 4 6 -3 13 -16 17 -12 3 -24 5 -27 5
-3 -1 -13 -3 -23 -6z"/>
<path d="M1662 2365 c0 -16 2 -22 5 -12 2 9 2 23 0 30 -3 6 -5 -1 -5 -18z"/>
<path d="M1180 2370 c-18 -12 -2 -12 25 0 13 6 15 9 5 9 -8 0 -22 -4 -30 -9z"/>
<path d="M1410 2363 c-52 -9 -90 -25 -90 -39 0 -8 7 -14 16 -14 8 0 12 5 9 10
-8 13 32 28 108 39 46 6 52 8 22 8 -22 0 -51 -2 -65 -4z"/>
<path d="M1718 2359 c-10 -5 -18 -15 -18 -20 0 -6 7 -3 16 6 10 9 24 13 38 10
17 -5 18 -4 6 4 -18 13 -21 13 -42 0z"/>
<path d="M1533 2353 c4 -3 10 -3 14 0 3 4 0 7 -7 7 -7 0 -10 -3 -7 -7z"/>
<path d="M1420 2331 c0 -5 -10 -12 -22 -14 -15 -3 -9 -5 14 -6 29 -1 36 2 32
14 -7 16 -24 21 -24 6z"/>
<path d="M1770 2330 c0 -7 3 -10 7 -7 3 4 3 10 0 14 -4 3 -7 0 -7 -7z"/>
<path d="M2237 2291 c-19 -54 -22 -74 -7 -51 9 13 10 13 10 0 0 -13 1 -13 10
0 7 11 11 9 19 -14 6 -15 8 -33 4 -39 -4 -7 -6 -24 -4 -40 3 -32 -16 -95 -36
-118 -7 -9 -13 -20 -12 -25 3 -12 -10 -64 -23 -90 -7 -15 -7 -28 0 -40 6 -11
7 -27 2 -40 -5 -12 -7 -36 -5 -53 5 -40 -42 -135 -88 -178 -20 -18 -38 -33
-42 -33 -3 0 -13 -7 -22 -16 -9 -8 -28 -14 -42 -12 -16 1 -40 -8 -61 -23 -43
-32 -114 -65 -160 -75 -103 -21 -253 10 -351 74 -20 13 -51 25 -69 27 l-33 4
29 -31 c16 -17 37 -41 47 -52 47 -54 62 -66 80 -60 13 4 17 2 13 -5 -5 -7 -1
-9 8 -5 9 3 16 2 16 -3 0 -4 17 -17 38 -27 20 -10 44 -22 52 -27 8 -5 34 -18
57 -29 34 -15 57 -18 120 -14 43 3 98 11 123 18 25 8 65 19 90 26 25 6 60 19
79 28 36 18 52 19 93 8 17 -5 31 -19 39 -39 17 -44 42 -66 81 -73 18 -4 38
-12 43 -19 6 -6 20 -17 32 -24 20 -10 24 -8 38 19 9 17 12 30 8 29 -4 -1 -18
-1 -31 0 -16 1 -21 5 -16 14 5 8 2 8 -9 -2 -15 -12 -17 -11 -17 2 0 15 -27 30
-46 26 -18 -3 -34 1 -33 9 3 20 -2 25 -12 12 -8 -12 -10 -9 -6 11 3 20 -4 34
-28 57 -26 26 -38 31 -69 28 -20 -2 -39 -6 -43 -10 -3 -3 -17 -6 -29 -6 -13 0
-25 -4 -28 -9 -3 -5 -20 -11 -38 -14 -18 -3 -51 -10 -73 -16 -72 -21 -203 -32
-211 -19 -3 4 3 8 12 8 13 0 15 3 7 11 -8 8 -17 8 -31 0 -14 -7 -23 -8 -27 -1
-3 5 -14 10 -25 10 -19 0 -35 26 -21 35 5 3 33 4 63 4 63 -2 154 22 217 57 24
13 52 24 62 24 10 0 20 4 23 9 3 4 19 11 35 14 32 7 132 101 156 148 8 14 21
29 30 32 8 4 15 15 15 26 0 24 16 36 24 19 3 -7 3 -2 0 11 -4 14 -2 21 4 17 5
-3 10 6 11 19 3 50 5 55 18 55 23 0 27 29 7 53 -16 18 -16 20 -1 8 15 -12 17
-11 18 5 0 11 2 26 4 35 2 12 -3 15 -16 12 -10 -3 -17 -9 -14 -13 4 -7 -17
-20 -31 -20 -12 0 -1 25 17 41 14 12 20 26 16 39 -3 13 0 23 9 27 8 3 14 14
14 24 0 10 5 19 12 19 9 0 9 3 0 12 -16 16 -16 65 0 70 8 3 12 27 13 65 0 34
-3 64 -6 67 -3 3 -20 0 -37 -6 -40 -16 -60 -1 -43 31 7 12 8 21 4 21 -5 0 -16
-22 -26 -49z m-630 -878 c-4 -3 -7 0 -7 7 0 7 3 10 7 7 3 -4 3 -10 0 -14z"/>
<path d="M1024 2318 c-4 -7 -3 -8 4 -4 12 7 16 16 8 16 -3 0 -8 -5 -12 -12z"/>
<path d="M1050 2321 c0 -5 6 -11 14 -14 8 -3 16 -16 19 -29 4 -22 4 -22 6 3 1
24 -14 49 -31 49 -4 0 -8 -4 -8 -9z"/>
<path d="M1130 2320 c0 -7 3 -10 7 -7 3 4 3 10 0 14 -4 3 -7 0 -7 -7z"/>
<path d="M1260 2320 c0 -7 3 -10 7 -7 3 4 3 10 0 14 -4 3 -7 0 -7 -7z"/>
<path d="M1880 2318 c0 -5 1 -8 3 -8 28 -3 132 -6 110 -3 -18 2 -33 7 -33 11
0 4 -18 7 -40 7 -22 0 -40 -3 -40 -7z"/>
<path d="M1535 2310 l-30 -8 27 -1 c15 0 30 4 33 9 3 6 5 9 3 9 -2 -1 -16 -5
-33 -9z"/>
<path d="M1240 2300 c0 -7 3 -10 7 -7 3 4 3 10 0 14 -4 3 -7 0 -7 -7z"/>
<path d="M2438 2288 c-23 -13 -38 -30 -38 -40 0 -16 5 -14 33 11 17 17 40 31
50 31 10 0 15 5 12 10 -9 14 -15 13 -57 -12z"/>
<path d="M1017 2292 c-3 -4 -5 -24 -4 -44 0 -21 4 -33 8 -26 4 7 9 4 12 -8 3
-12 5 -7 6 13 0 17 -3 34 -9 38 -5 3 -7 12 -3 20 5 15 -2 21 -10 7z"/>
<path d="M1047 2287 c-3 -9 -2 -19 4 -23 15 -9 18 -2 9 20 -6 17 -7 18 -13 3z"/>
<path d="M1780 2290 c0 -7 3 -10 7 -7 3 4 3 10 0 14 -4 3 -7 0 -7 -7z"/>
<path d="M1123 2235 c0 -27 2 -38 4 -22 2 15 2 37 0 50 -2 12 -4 0 -4 -28z"/>
<path d="M2506 2267 c3 -8 1 -18 -4 -21 -6 -3 -9 -14 -7 -24 1 -9 0 -11 -2 -4
-3 6 -9 12 -15 12 -5 0 -8 -7 -4 -15 7 -19 -1 -19 -21 0 -14 14 -17 13 -34 -7
-16 -17 -18 -30 -13 -66 6 -38 4 -44 -15 -49 -22 -6 -25 -12 -15 -37 5 -13 9
-14 20 -5 11 9 14 8 14 -1 0 -21 13 -3 26 38 9 23 10 40 4 46 -14 14 -13 56 1
56 7 0 9 -10 5 -25 -4 -16 -2 -25 5 -25 17 0 4 -78 -17 -101 -11 -12 -20 -16
-24 -9 -4 7 -17 1 -33 -15 -22 -23 -25 -34 -24 -87 1 -35 7 -63 13 -65 23 -8
73 48 90 100 28 86 28 84 14 67 -10 -12 -11 -11 -6 10 3 14 9 42 12 63 7 37
18 48 27 25 6 -14 10 20 12 95 0 27 -3 51 -7 53 -4 3 -5 -1 -2 -9z m-48 -263
c2 -12 0 -15 -5 -7 -6 8 -14 9 -23 3 -18 -12 -40 -13 -40 -2 0 9 42 30 55 27
6 -1 11 -10 13 -21z m-44 -53 c14 -15 14 -20 3 -30 -11 -9 -17 -8 -27 3 -6 9
-9 19 -6 25 3 5 0 12 -6 14 -9 4 -7 6 3 6 9 1 23 -7 33 -18z"/>
<path d="M1270 2260 c0 -7 3 -10 7 -7 3 4 3 10 0 14 -4 3 -7 0 -7 -7z"/>
<path d="M1790 2264 c0 -7 6 -24 14 -38 8 -17 12 -44 8 -71 -4 -35 -1 -46 12
-51 18 -7 49 13 40 27 -3 5 7 9 21 9 15 0 24 4 20 10 -3 6 -14 10 -24 10 -22
0 -50 30 -73 78 -10 20 -17 32 -18 26z m56 -121 c-10 -10 -19 5 -10 18 6 11 8
11 12 0 2 -7 1 -15 -2 -18z"/>
<path d="M1066 2233 c-6 -14 -5 -15 5 -6 7 7 10 15 7 18 -3 3 -9 -2 -12 -12z"/>
<path d="M1850 2211 c0 -6 4 -13 10 -16 6 -3 7 1 4 9 -7 18 -14 21 -14 7z"/>
<path d="M2210 2210 c0 -7 3 -10 7 -7 3 4 3 10 0 14 -4 3 -7 0 -7 -7z"/>
<path d="M1275 2200 c3 -5 8 -10 11 -10 3 0 2 5 -1 10 -3 6 -8 10 -11 10 -3 0
-2 -4 1 -10z"/>
<path d="M1629 2193 c-13 -16 -12 -17 4 -4 9 7 17 15 17 17 0 8 -8 3 -21 -13z"/>
<path d="M1020 2180 c0 -7 3 -10 7 -7 3 4 3 10 0 14 -4 3 -7 0 -7 -7z"/>
<path d="M1368 2183 c7 -3 16 -2 19 1 4 3 -2 6 -13 5 -11 0 -14 -3 -6 -6z"/>
<path d="M1553 2183 c4 -3 10 -3 14 0 3 4 0 7 -7 7 -7 0 -10 -3 -7 -7z"/>
<path d="M1095 2130 c4 -48 28 -101 38 -83 2 4 2 35 -1 68 l-6 60 -7 -45 -6
-45 -1 42 c-1 23 -6 44 -11 48 -6 3 -8 -15 -6 -45z m32 -67 c-4 -3 -7 0 -7 7
0 7 3 10 7 7 3 -4 3 -10 0 -14z"/>
<path d="M1373 2163 c9 -2 23 -2 30 0 6 3 -1 5 -18 5 -16 0 -22 -2 -12 -5z"/>
<path d="M1538 2163 c7 -3 16 -2 19 1 4 3 -2 6 -13 5 -11 0 -14 -3 -6 -6z"/>
<path d="M1943 2163 c4 -3 10 -3 14 0 3 4 0 7 -7 7 -7 0 -10 -3 -7 -7z"/>
<path d="M2150 2150 c-21 -7 -21 -8 -5 -9 11 0 27 4 35 9 18 11 5 11 -30 0z"/>
<path d="M1953 2143 c4 -3 10 -3 14 0 3 4 0 7 -7 7 -7 0 -10 -3 -7 -7z"/>
<path d="M2038 2133 c7 -3 16 -2 19 1 4 3 -2 6 -13 5 -11 0 -14 -3 -6 -6z"/>
<path d="M1050 2100 c0 -7 3 -10 7 -7 3 4 3 10 0 14 -4 3 -7 0 -7 -7z"/>
<path d="M1887 2082 c20 -35 12 -58 -23 -74 -24 -11 -29 -10 -42 10 -8 12 -19
22 -24 22 -6 0 -23 -9 -39 -21 -20 -14 -39 -19 -57 -16 -53 11 -87 16 -69 11
22 -7 12 -24 -16 -25 -34 -2 58 -19 163 -30 95 -9 95 -9 118 16 28 33 30 95 4
118 -28 25 -33 21 -15 -11z m-60 -89 c28 -13 39 -14 54 -5 15 10 17 9 13 -3
-8 -21 -39 -27 -78 -16 -20 5 -45 7 -56 4 -25 -7 -27 12 -2 26 23 14 29 14 69
-6z m-142 -11 c-3 -3 -11 0 -18 7 -9 10 -8 11 6 5 10 -3 15 -9 12 -12z m32 -9
c-4 -3 -10 -3 -14 0 -3 4 0 7 7 7 7 0 10 -3 7 -7z"/>
<path d="M2490 2100 c0 -7 3 -10 7 -7 3 4 3 10 0 14 -4 3 -7 0 -7 -7z"/>
<path d="M1060 2060 c0 -7 3 -10 7 -7 3 4 3 10 0 14 -4 3 -7 0 -7 -7z"/>
<path d="M1070 2030 c0 -7 3 -10 7 -7 3 4 3 10 0 14 -4 3 -7 0 -7 -7z"/>
<path d="M1580 1995 c-7 -8 -9 -15 -6 -15 4 0 14 7 22 15 9 8 11 15 6 15 -5 0
-15 -7 -22 -15z"/>
<path d="M1082 1980 c0 -14 2 -19 5 -12 2 6 2 18 0 25 -3 6 -5 1 -5 -13z"/>
<path d="M1417 1964 c-28 -28 -50 -81 -37 -89 4 -3 13 7 18 23 6 15 21 42 32
60 12 17 20 32 17 32 -2 0 -16 -12 -30 -26z"/>
<path d="M1990 1942 c0 -4 14 -25 30 -46 20 -26 30 -34 30 -22 0 21 -27 63
-46 70 -8 3 -14 2 -14 -2z"/>
<path d="M1105 1900 c3 -5 8 -10 11 -10 3 0 2 5 -1 10 -3 6 -8 10 -11 10 -3 0
-2 -4 1 -10z"/>
<path d="M1760 1869 c-19 -3 -87 -4 -150 -3 -63 2 -105 1 -93 -2 15 -4 20 -11
17 -22 -5 -13 -4 -14 4 -3 11 16 64 16 141 1 65 -12 63 -12 57 -2 -6 11 33 15
142 15 52 1 86 -4 91 -11 3 -6 12 -7 19 -3 9 6 7 12 -8 26 -11 10 -20 13 -20
6 0 -7 -12 -9 -37 -6 -59 9 -125 11 -163 4z"/>
<path d="M1455 1850 c-3 -6 1 -7 9 -4 18 7 21 14 7 14 -6 0 -13 -4 -16 -10z"/>
<path d="M1790 1840 c-8 -5 -10 -10 -5 -10 6 0 17 5 25 10 8 5 11 10 5 10 -5
0 -17 -5 -25 -10z"/>
<path d="M1492 1814 c10 -10 20 -16 22 -13 3 3 -5 11 -17 18 -21 13 -21 12 -5
-5z"/>
<path d="M1870 1820 c0 -7 3 -10 7 -7 3 4 3 10 0 14 -4 3 -7 0 -7 -7z"/>
<path d="M1917 1793 c-19 -16 -38 -37 -41 -47 -4 -16 -7 -17 -20 -6 -13 10
-16 10 -16 0 0 -9 -3 -10 -14 -1 -10 9 -16 8 -26 -4 -10 -12 -9 -16 3 -21 9
-3 22 -2 29 2 13 8 18 10 50 12 9 1 31 22 48 47 17 25 29 45 27 45 -2 0 -20
-12 -40 -27z"/>
<path d="M1536 1795 c6 -15 49 -32 65 -26 8 3 15 12 17 20 3 12 0 12 -12 2
-13 -11 -17 -10 -22 3 -3 9 -16 15 -29 14 -12 -1 -21 -7 -19 -13z"/>
<path d="M1847 1789 c7 -7 15 -10 18 -7 3 3 -2 9 -12 12 -14 6 -15 5 -6 -5z"/>
<path d="M1798 1783 c7 -3 16 -2 19 1 4 3 -2 6 -13 5 -11 0 -14 -3 -6 -6z"/>
<path d="M1630 1768 c0 -5 15 -9 33 -10 17 -1 52 -3 77 -4 25 -1 61 1 80 5 32
8 31 8 -20 9 -30 1 -81 3 -112 4 -32 2 -58 0 -58 -4z"/>
<path d="M1305 1570 c3 -5 8 -10 11 -10 3 0 2 5 -1 10 -3 6 -8 10 -11 10 -3 0
-2 -4 1 -10z"/>
<path d="M1657 1403 c-8 -7 34 -32 46 -26 14 8 7 25 -8 19 -8 -3 -15 -1 -15 4
0 11 -13 13 -23 3z"/>
<path d="M1421 1194 c0 -11 3 -14 6 -6 3 7 2 16 -1 19 -3 4 -6 -2 -5 -13z"/>
<path d="M1411 1144 c0 -11 3 -14 6 -6 3 7 2 16 -1 19 -3 4 -6 -2 -5 -13z"/>
<path d="M2324 1148 c-4 -7 -3 -8 4 -4 12 7 16 16 8 16 -3 0 -8 -5 -12 -12z"/>
<path d="M1430 1078 c0 -9 5 -20 10 -23 13 -8 13 5 0 25 -8 13 -10 13 -10 -2z"/>
<path d="M1410 1070 c0 -28 42 -94 91 -144 54 -54 90 -66 194 -64 33 1 47 3
30 5 -16 2 -68 11 -113 20 l-84 17 -26 48 c-15 26 -33 48 -40 48 -8 0 -10 5
-6 13 4 6 3 9 -1 4 -5 -4 -17 10 -26 30 -10 21 -18 31 -19 23z"/>
<path d="M2244 1068 c-4 -7 -3 -8 4 -4 12 7 16 16 8 16 -3 0 -8 -5 -12 -12z"/>
<path d="M1798 873 c7 -3 16 -2 19 1 4 3 -2 6 -13 5 -11 0 -14 -3 -6 -6z"/>
</g>
<g transform="translate(0.000000,360.000000) scale(0.100000,-0.100000)" fill="#604C46" fill-opacity="0.933" stroke="none">
<path d="M1490 3334 c-64 -17 -136 -57 -150 -83 -5 -10 -30 -31 -55 -45 -25
-15 -45 -28 -45 -30 0 -9 146 57 156 70 6 8 20 14 30 14 18 1 18 1 1 11 -13 8
-22 7 -33 -2 -8 -6 -17 -9 -20 -6 -3 3 6 13 20 22 29 19 99 38 90 24 -3 -5 7
-4 23 3 15 6 73 17 128 23 l100 12 -95 1 c-55 0 -118 -6 -150 -14z"/>
<path d="M2141 3324 c0 -11 3 -14 6 -6 3 7 2 16 -1 19 -3 4 -6 -2 -5 -13z"/>
<path d="M1453 3293 c4 -3 10 -3 14 0 3 4 0 7 -7 7 -7 0 -10 -3 -7 -7z"/>
<path d="M1423 3283 c4 -3 10 -3 14 0 3 4 0 7 -7 7 -7 0 -10 -3 -7 -7z"/>
<path d="M2070 3275 c7 -8 19 -15 27 -15 13 0 13 3 3 15 -7 8 -19 15 -27 15
-13 0 -13 -3 -3 -15z"/>
<path d="M2155 3260 c-3 -5 -1 -10 4 -10 6 0 11 5 11 10 0 6 -2 10 -4 10 -3 0
-8 -4 -11 -10z"/>
<path d="M2210 3260 c0 -7 3 -10 7 -7 3 4 3 10 0 14 -4 3 -7 0 -7 -7z"/>
<path d="M2229 3232 c-3 -20 -2 -29 4 -23 5 5 7 19 5 32 -3 20 -5 19 -9 -9z"/>
<path d="M2200 3200 c0 -7 3 -10 7 -7 3 4 3 10 0 14 -4 3 -7 0 -7 -7z"/>
<path d="M2251 3175 c17 -41 26 -50 24 -25 -1 11 -9 28 -19 38 -17 16 -17 16
-5 -13z"/>
<path d="M1142 3093 c-12 -17 -22 -36 -22 -42 0 -6 -17 -30 -39 -54 -38 -41
-76 -105 -68 -113 4 -4 50 52 87 108 14 21 29 38 34 38 4 0 5 7 2 16 -3 8 -2
12 4 9 12 -7 32 31 28 53 -3 13 -8 10 -26 -15z"/>
<path d="M2396 2961 c-3 -5 1 -12 10 -15 27 -11 37 -7 24 9 -14 17 -26 19 -34
6z"/>
<path d="M1796 2904 c-28 -13 -54 -24 -60 -24 -5 0 -18 -8 -29 -17 -19 -18
-20 -17 -8 5 11 22 11 22 -8 10 -12 -7 -21 -16 -21 -21 0 -4 -8 -7 -17 -5 -10
2 -22 -7 -30 -22 -9 -18 -13 -20 -13 -8 0 12 -5 15 -16 11 -13 -5 -15 -3 -7
13 11 20 6 45 -10 55 -16 11 -145 1 -201 -15 -78 -23 -95 -39 -172 -161 -10
-16 -19 -32 -19 -35 -2 -14 -36 -68 -49 -79 -9 -7 -13 -17 -10 -22 3 -5 2 -15
-3 -21 -13 -21 -32 -82 -28 -87 3 -2 5 1 5 7 0 7 4 12 9 12 4 0 6 -11 4 -24
-3 -13 2 -36 10 -52 14 -27 14 -27 10 22 -3 39 1 58 21 94 29 53 47 90 89 182
31 69 76 121 112 132 11 3 35 8 54 11 19 3 38 8 42 11 5 3 18 0 30 -6 13 -8
19 -18 16 -30 -5 -18 -3 -18 19 -4 23 16 44 12 44 -8 0 -16 41 -48 62 -48 10
0 18 7 19 18 0 10 3 12 6 4 3 -8 11 -4 25 13 11 14 28 25 39 25 10 0 36 9 56
20 20 10 40 17 45 14 5 -3 -6 -31 -23 -61 -18 -31 -27 -53 -21 -49 6 3 32 10
59 15 32 6 50 6 54 -1 5 -7 15 -5 30 6 13 9 30 16 39 16 8 0 36 11 61 23 25
13 64 24 87 25 34 2 42 -2 48 -21 9 -26 10 -33 12 -70 2 -23 6 -28 24 -25 18
2 25 -4 33 -28 5 -17 15 -32 20 -34 17 -5 80 -170 94 -247 6 -34 5 -43 -8 -46
-10 -3 -6 -5 8 -6 22 -1 23 1 19 52 -2 28 -12 68 -21 87 -9 19 -23 66 -32 103
-17 79 -31 108 -48 104 -6 -1 -13 8 -15 20 -4 28 -31 38 -47 17 -10 -14 -13
-7 -18 46 -3 34 -11 68 -19 75 -17 16 -68 28 -68 16 0 -5 -8 -11 -17 -15 -10
-3 -25 -10 -33 -15 -13 -8 -100 -50 -124 -60 -5 -2 -6 4 -3 13 5 12 3 15 -6 9
-6 -4 -16 -8 -22 -9 -5 -1 -18 -5 -28 -9 -13 -6 -16 -3 -11 9 3 9 1 16 -5 16
-19 0 -12 25 13 49 14 13 22 29 19 37 -3 8 -8 14 -12 13 -3 0 -28 -11 -55 -25z
m24 -88 c0 -3 -4 -8 -10 -11 -5 -3 -10 -1 -10 4 0 6 5 11 10 11 6 0 10 -2 10
-4z"/>
<path d="M2400 2927 c0 -2 9 -14 20 -27 11 -13 20 -19 20 -15 0 5 11 -2 25
-15 13 -12 23 -26 20 -29 -2 -4 0 -13 6 -21 6 -11 8 -6 5 15 -3 35 -40 79 -73
89 -13 4 -23 5 -23 3z"/>
<path d="M997 2854 c-11 -11 -8 -64 3 -64 6 0 10 -9 10 -21 0 -11 4 -18 9 -14
10 6 9 38 -1 65 -4 8 -8 21 -10 28 -2 7 -7 10 -11 6z"/>
<path d="M2503 2743 c4 -3 10 -3 14 0 3 4 0 7 -7 7 -7 0 -10 -3 -7 -7z"/>
<path d="M2500 2700 c0 -5 5 -10 10 -10 6 0 10 5 10 10 0 6 -4 10 -10 10 -5 0
-10 -4 -10 -10z"/>
<path d="M1001 2604 c0 -11 3 -14 6 -6 3 7 2 16 -1 19 -3 4 -6 -2 -5 -13z"/>
<path d="M1000 2545 c0 -41 13 -94 22 -89 9 6 1 69 -13 94 -7 12 -8 11 -9 -5z"/>
<path d="M1336 2519 c-14 -11 -26 -24 -26 -28 0 -4 24 -6 53 -3 29 2 83 0 118
-6 36 -6 81 -7 100 -2 l34 7 -58 27 c-44 20 -73 26 -126 26 -54 0 -74 -4 -95
-21z m77 -6 c-7 -2 -21 -2 -30 0 -10 3 -4 5 12 5 17 0 24 -2 18 -5z"/>
<path d="M2002 2519 c-79 -9 -123 -26 -102 -39 6 -4 49 -8 93 -9 90 -1 134
-11 169 -36 23 -17 23 -17 -12 -11 -91 17 -179 18 -268 2 -121 -21 -167 -20
-255 4 -53 15 -102 21 -187 21 -107 0 -242 -19 -258 -36 -4 -4 3 -4 16 -1 16
6 22 3 22 -8 0 -11 -9 -16 -30 -16 -16 0 -30 -5 -30 -11 0 -6 -6 -9 -13 -6 -8
3 -20 1 -28 -4 -11 -7 -10 -9 4 -9 15 0 16 -3 6 -22 -7 -13 -16 -36 -20 -53
l-7 -30 -1 30 c-1 18 -11 40 -26 54 -14 13 -27 22 -28 20 -2 -2 -9 -13 -17
-23 -11 -14 -11 -17 -2 -12 7 4 25 5 39 1 22 -5 25 -10 21 -40 -2 -19 0 -35 4
-35 4 0 8 -18 8 -39 0 -22 5 -43 10 -46 6 -4 10 14 10 47 1 72 15 130 37 146
22 16 62 27 70 19 3 -3 12 -36 19 -73 8 -37 17 -70 19 -73 12 -11 12 9 0 82
l-12 79 30 18 c17 10 59 22 94 26 74 7 210 -10 260 -34 32 -15 34 -20 30 -49
-6 -32 6 -45 17 -20 3 6 4 1 1 -13 l-5 -25 13 25 c29 60 104 109 95 63 -2 -11
-11 -17 -22 -15 -18 3 -18 2 -2 -13 9 -9 16 -23 16 -31 0 -7 7 -32 16 -54 14
-34 18 -37 30 -25 8 7 14 22 13 32 0 15 -2 14 -9 -4 -5 -13 -11 -23 -12 -23
-2 0 -4 17 -5 37 -1 27 1 33 8 23 7 -11 8 -8 4 10 -4 19 0 31 14 44 11 10 18
22 16 27 -18 28 198 39 279 15 27 -8 55 -12 64 -9 13 4 14 3 3 -5 -10 -7 -10
-11 -1 -17 8 -5 10 -26 6 -69 -4 -33 -2 -67 3 -75 6 -10 9 -2 9 25 -1 65 5
113 13 108 5 -3 6 2 3 10 -4 9 2 16 18 19 20 4 19 4 -5 6 -23 1 -32 8 -44 39
-18 44 -60 81 -100 86 -15 2 -61 0 -101 -5z m95 -22 c3 -4 -12 -7 -35 -7 -22
0 -43 4 -46 9 -6 9 71 8 81 -2z m-387 -118 c0 -6 -4 -7 -10 -4 -5 3 -10 11
-10 16 0 6 5 7 10 4 6 -3 10 -11 10 -16z m97 -31 c-3 -7 -5 -2 -5 12 0 14 2
19 5 13 2 -7 2 -19 0 -25z"/>
<path d="M1020 2417 c0 -8 7 -20 15 -27 12 -10 15 -10 15 3 0 8 -7 20 -15 27
-12 10 -15 10 -15 -3z"/>
<path d="M1153 2403 c4 -3 10 -3 14 0 3 4 0 7 -7 7 -7 0 -10 -3 -7 -7z"/>
<path d="M2482 2380 c0 -14 2 -19 5 -12 2 6 2 18 0 25 -3 6 -5 1 -5 -13z"/>
<path d="M2283 2383 c4 -3 10 -3 14 0 3 4 0 7 -7 7 -7 0 -10 -3 -7 -7z"/>
<path d="M1398 2346 c-49 -15 -58 -26 -22 -26 17 0 36 6 43 13 10 10 14 8 22
-6 8 -14 21 -17 62 -16 84 4 102 18 46 38 -40 14 -102 13 -151 -3z m129 -9
c-2 -7 -16 -13 -31 -15 -17 -2 -26 0 -22 6 3 6 1 12 -5 14 -7 2 5 4 25 5 24 1
36 -3 33 -10z"/>
<path d="M1906 2343 c-13 -13 -5 -23 17 -23 13 0 28 5 34 11 8 8 13 7 18 -2 5
-8 4 -10 -3 -5 -7 4 -12 2 -12 -3 0 -6 9 -11 20 -11 11 0 20 7 20 15 0 9 9 15
25 15 27 0 32 -9 13 -28 -9 -9 -2 -12 33 -12 24 0 55 -3 69 -7 22 -6 23 -5 12
10 -21 25 -101 46 -173 46 -37 0 -70 -3 -73 -6z m21 -10 c-4 -3 -10 -3 -14 0
-3 4 0 7 7 7 7 0 10 -3 7 -7z"/>
<path d="M2241 2328 c-5 -13 -11 -34 -15 -48 -5 -21 -3 -20 9 5 8 17 14 36 15
43 0 6 6 12 14 12 8 0 13 -8 12 -17 -1 -13 8 -19 31 -21 25 -3 34 -9 39 -28
10 -40 -2 -215 -19 -261 -13 -37 -13 -43 1 -48 18 -7 15 -10 31 42 8 23 11 49
8 57 -4 10 2 25 13 36 12 12 19 32 18 53 -2 44 26 83 69 98 23 7 31 15 25 21
-7 7 -21 2 -44 -13 -18 -13 -36 -28 -40 -34 -4 -5 -8 2 -8 16 0 32 26 57 68
65 18 4 32 5 32 3 0 -2 7 -22 15 -44 8 -23 14 -31 15 -20 0 11 -10 37 -23 57
l-22 37 -47 -29 c-34 -21 -48 -37 -49 -53 -1 -49 -9 -110 -14 -115 -3 -3 -6
12 -6 34 -4 108 -10 127 -53 154 -43 26 -64 25 -75 -2z"/>
<path d="M1647 2288 c-9 -31 -2 -33 11 -3 6 14 8 25 3 25 -5 0 -11 -10 -14
-22z"/>
<path d="M1666 2275 c-9 -26 -7 -32 5 -12 6 10 9 21 6 23 -2 3 -7 -2 -11 -11z"/>
<path d="M1625 2228 c-18 -40 -51 -49 -175 -46 -92 2 -122 7 -144 21 -33 22
-44 17 -17 -7 26 -23 140 -39 231 -31 79 7 112 21 131 56 6 13 7 19 1 15 -6
-3 -12 -2 -14 4 -2 6 -8 0 -13 -12z m15 -12 c0 -2 -8 -10 -17 -17 -16 -13 -17
-12 -4 4 13 16 21 21 21 13z"/>
<path d="M1841 2224 c0 -11 3 -14 6 -6 3 7 2 16 -1 19 -3 4 -6 -2 -5 -13z"/>
<path d="M2187 2211 c-3 -11 -1 -23 3 -26 14 -8 22 13 12 31 -8 14 -10 14 -15
-5z"/>
<path d="M1820 2214 c0 -24 48 -51 111 -62 81 -15 189 -16 189 -2 0 6 -36 10
-87 10 -53 1 -104 7 -128 16 -22 8 -46 16 -53 18 -8 1 -18 9 -23 17 -5 8 -9 9
-9 3z m55 -42 c-3 -3 -11 0 -18 7 -9 10 -8 11 6 5 10 -3 15 -9 12 -12z"/>
<path d="M2522 2200 c0 -14 2 -19 5 -12 2 6 2 18 0 25 -3 6 -5 1 -5 -13z"/>
<path d="M2153 2173 c-15 -5 -17 -23 -4 -23 5 0 11 7 15 15 3 8 4 15 3 14 -1
0 -8 -3 -14 -6z"/>
<path d="M2511 2154 c0 -11 3 -14 6 -6 3 7 2 16 -1 19 -3 4 -6 -2 -5 -13z"/>
<path d="M1040 2120 c0 -7 3 -10 7 -7 3 4 3 10 0 14 -4 3 -7 0 -7 -7z"/>
<path d="M2500 2110 c0 -7 3 -10 7 -7 3 4 3 10 0 14 -4 3 -7 0 -7 -7z"/>
<path d="M2490 2080 c0 -7 3 -10 7 -7 3 4 3 10 0 14 -4 3 -7 0 -7 -7z"/>
<path d="M2480 2050 c0 -7 3 -10 7 -7 3 4 3 10 0 14 -4 3 -7 0 -7 -7z"/>
<path d="M1070 2000 c0 -7 3 -10 7 -7 3 4 3 10 0 14 -4 3 -7 0 -7 -7z"/>
<path d="M1603 1993 c4 -3 10 -3 14 0 3 4 0 7 -7 7 -7 0 -10 -3 -7 -7z"/>
<path d="M1756 1991 c-5 -8 49 -21 84 -21 11 1 10 4 -4 15 -22 16 -72 20 -80
6z"/>
<path d="M2460 1980 c0 -7 3 -10 7 -7 3 4 3 10 0 14 -4 3 -7 0 -7 -7z"/>
<path d="M2450 1950 c0 -7 3 -10 7 -7 3 4 3 10 0 14 -4 3 -7 0 -7 -7z"/>
<path d="M1080 1940 c0 -7 3 -10 7 -7 3 4 3 10 0 14 -4 3 -7 0 -7 -7z"/>
<path d="M2413 1894 c-17 -19 -27 -34 -22 -34 12 0 59 49 59 61 0 12 0 12 -37
-27z"/>
<path d="M2320 1910 c0 -5 5 -10 11 -10 5 0 7 5 4 10 -3 6 -8 10 -11 10 -2 0
-4 -4 -4 -10z"/>
<path d="M1136 1868 c10 -14 21 -24 23 -22 3 3 -6 15 -18 27 l-24 22 19 -27z"/>
<path d="M2316 1863 c-3 -16 -8 -43 -11 -60 -8 -38 -23 -52 -36 -32 -6 9 -8 4
-3 -16 4 -23 3 -26 -5 -15 -9 13 -11 13 -11 -2 0 -10 5 -18 10 -18 23 0 8 -19
-19 -25 -18 -4 -28 -11 -25 -19 2 -6 -11 -25 -31 -40 -19 -16 -35 -34 -35 -40
0 -26 -103 -97 -147 -102 -28 -3 -135 -44 -143 -55 -6 -8 -65 -21 -97 -21 -24
0 -28 -6 -15 -23 12 -17 92 -30 92 -16 0 5 18 6 40 4 22 -2 40 0 40 5 0 6 7
13 16 16 10 4 13 2 8 -6 -10 -16 47 -1 60 17 10 11 39 21 87 29 9 1 24 9 33
18 11 12 26 15 50 11 31 -5 34 -3 29 15 -4 17 -1 21 17 19 25 -2 55 -40 45
-56 -7 -12 21 -71 35 -71 5 0 12 -9 15 -20 3 -11 11 -20 16 -20 21 0 89 -54
89 -70 0 -9 -19 -39 -42 -66 -33 -38 -35 -42 -9 -19 31 29 77 94 70 98 -41 27
-78 60 -75 66 3 5 -6 13 -20 20 -33 15 -61 79 -75 172 -10 68 -9 80 11 134 12
33 29 84 38 114 10 34 22 56 33 58 15 4 16 8 6 24 -17 27 -35 23 -41 -8z"/>
<path d="M1493 1853 c4 -3 10 -3 14 0 3 4 0 7 -7 7 -7 0 -10 -3 -7 -7z"/>
<path d="M1520 1839 c0 -21 -1 -21 -27 -5 l-28 17 24 -20 c31 -27 41 -26 41 4
0 14 -2 25 -5 25 -3 0 -5 -10 -5 -21z"/>
<path d="M1874 1820 c-1 -27 1 -29 25 -24 57 14 91 55 43 53 -14 0 -13 -2 3
-8 19 -8 19 -8 -2 -19 -12 -7 -26 -12 -32 -12 -15 0 -14 27 2 33 6 3 1 6 -13
6 -21 1 -25 -4 -26 -29z"/>
<path d="M1170 1800 c0 -7 3 -10 7 -7 3 4 3 10 0 14 -4 3 -7 0 -7 -7z"/>
<path d="M1810 1784 c-22 -12 -22 -14 -5 -14 24 0 51 16 39 22 -5 3 -20 -1
-34 -8z"/>
<path d="M1190 1750 c0 -7 3 -10 7 -7 3 4 3 10 0 14 -4 3 -7 0 -7 -7z"/>
<path d="M1220 1684 c0 -6 7 -19 16 -30 14 -18 14 -18 3 6 -14 31 -19 36 -19
24z"/>
<path d="M1250 1626 c0 -2 8 -10 18 -17 15 -13 16 -12 3 4 -13 16 -21 21 -21
13z"/>
<path d="M1290 1577 c0 -2 15 -16 33 -33 l32 -29 -29 33 c-28 30 -36 37 -36
29z"/>
<path d="M1366 1488 c10 -14 21 -24 23 -22 3 3 -6 15 -18 27 l-24 22 19 -27z"/>
<path d="M1390 1440 c0 -7 3 -10 7 -7 3 4 3 10 0 14 -4 3 -7 0 -7 -7z"/>
<path d="M1648 1413 c6 -2 18 -2 25 0 6 3 1 5 -13 5 -14 0 -19 -2 -12 -5z"/>
<path d="M1402 1375 c0 -16 2 -22 5 -12 2 9 2 23 0 30 -3 6 -5 -1 -5 -18z"/>
<path d="M1409 1242 c5 -34 6 -35 9 -8 2 16 0 32 -5 37 -5 5 -7 -7 -4 -29z"/>
<path d="M2614 1236 c11 -9 24 -16 30 -16 12 0 7 5 -24 19 -24 11 -24 11 -6
-3z"/>
<path d="M1410 1170 c0 -7 3 -10 7 -7 3 4 3 10 0 14 -4 3 -7 0 -7 -7z"/>
<path d="M2760 1150 c8 -6 24 -15 35 -21 13 -7 12 -3 -5 10 -14 11 -29 21 -35
21 -5 0 -3 -5 5 -10z"/>
<path d="M2295 1108 l-40 -43 43 40 c39 36 47 45 39 45 -2 0 -21 -19 -42 -42z"/>
<path d="M1405 1082 c2 -40 11 -75 24 -98 12 -19 17 -32 11 -29 -5 3 -10 1
-10 -4 0 -6 5 -11 10 -11 6 0 10 -7 10 -15 0 -9 12 -20 28 -26 15 -6 35 -15
44 -20 39 -20 34 -7 -12 37 -67 62 -91 104 -101 172 l-8 57 4 -63z"/>
<path d="M2825 1110 c3 -5 8 -10 11 -10 3 0 2 5 -1 10 -3 6 -8 10 -11 10 -3 0
-2 -4 1 -10z"/>
<path d="M2855 1090 c3 -5 8 -10 11 -10 3 0 2 5 -1 10 -3 6 -8 10 -11 10 -3 0
-2 -4 1 -10z"/>
<path d="M2885 1070 c3 -5 8 -10 11 -10 3 0 2 5 -1 10 -3 6 -8 10 -11 10 -3 0
-2 -4 1 -10z"/>
<path d="M2224 1048 c-4 -7 -3 -8 4 -4 12 7 16 16 8 16 -3 0 -8 -5 -12 -12z"/>
<path d="M2194 1028 c-4 -7 -3 -8 4 -4 12 7 16 16 8 16 -3 0 -8 -5 -12 -12z"/>
<path d="M3000 976 c25 -26 54 -52 65 -58 11 -6 18 -9 15 -6 -3 2 -32 29 -65
58 l-60 54 45 -48z"/>
<path d="M1953 913 c4 -3 10 -3 14 0 3 4 0 7 -7 7 -7 0 -10 -3 -7 -7z"/>
<path d="M1868 883 c7 -3 16 -2 19 1 4 3 -2 6 -13 5 -11 0 -14 -3 -6 -6z"/>
<path d="M1828 873 c7 -3 16 -2 19 1 4 3 -2 6 -13 5 -11 0 -14 -3 -6 -6z"/>
<path d="M1595 860 c30 -8 122 -13 114 -6 -2 2 -35 6 -74 9 -42 3 -58 2 -40
-3z"/>
<path d="M1758 863 c7 -3 16 -2 19 1 4 3 -2 6 -13 5 -11 0 -14 -3 -6 -6z"/>
<path d="M760 670 c0 -7 3 -10 7 -7 3 4 3 10 0 14 -4 3 -7 0 -7 -7z"/>
</g>
<g transform="translate(0.000000,360.000000) scale(0.100000,-0.100000)" fill="#AA877A" stroke="none">
<path d="M1395 2815 c-11 -8 -29 -15 -40 -15 -22 0 -49 -21 -80 -59 l-20 -25
35 26 c61 44 126 77 148 75 13 -1 22 -10 25 -24 2 -13 0 -23 -6 -23 -6 0 -8
-3 -4 -6 13 -13 25 8 18 33 -8 32 -47 41 -76 18z"/>
<path d="M1523 2802 c10 -10 17 -22 17 -26 0 -4 9 -17 21 -29 l20 -22 -7 29
c-4 16 -15 37 -25 47 -25 25 -48 25 -26 1z"/>
<path d="M1729 2803 c-13 -17 -13 -17 5 -3 17 14 18 13 12 -7 -4 -13 -2 -24 5
-29 8 -4 9 -3 5 4 -4 7 -2 12 4 12 7 0 10 6 7 14 -3 8 -1 17 6 20 7 2 2 5 -9
5 -12 1 -28 -7 -35 -16z"/>
<path d="M1663 2779 c-18 -12 -33 -23 -33 -25 0 -11 20 -2 46 21 35 30 30 32
-13 4z"/>
<path d="M1984 2785 c-21 -5 -39 -16 -41 -22 -3 -9 6 -9 37 2 60 21 91 19 97
-5 3 -13 14 -20 29 -20 16 0 24 -6 24 -18 0 -9 21 -40 47 -67 39 -42 43 -50
27 -53 -43 -7 -45 -10 -27 -47 15 -31 15 -37 3 -45 -16 -10 -16 -11 25 -36 31
-20 45 -53 23 -55 -13 0 19 -17 35 -18 5 -1 7 24 5 56 -2 43 -7 57 -20 61 -14
3 -15 7 -5 23 9 15 6 28 -16 73 -15 30 -39 61 -52 70 -14 9 -25 22 -25 29 0 6
-9 27 -21 46 -16 27 -23 31 -30 20 -8 -12 -11 -11 -20 3 -11 19 -36 20 -95 3z"/>
<path d="M1581 2768 c1 -7 5 -24 9 -38 8 -24 8 -24 9 7 1 17 -3 35 -9 38 -5 3
-10 0 -9 -7z"/>
<path d="M1780 2750 c0 -5 7 -10 16 -10 8 0 12 5 9 10 -3 6 -10 10 -16 10 -5
0 -9 -4 -9 -10z"/>
<path d="M1874 2749 c-3 -6 -18 -8 -33 -5 -22 5 -23 5 -7 -5 13 -8 24 -8 40
-1 11 6 30 13 41 15 15 4 13 5 -7 6 -15 0 -30 -4 -34 -10z"/>
<path d="M1251 2694 c0 -11 3 -14 6 -6 3 7 2 16 -1 19 -3 4 -6 -2 -5 -13z"/>
<path d="M1225 2639 c-4 -6 -5 -12 -2 -15 2 -3 7 2 10 11 7 17 1 20 -8 4z"/>
<path d="M1204 2598 c-4 -7 -3 -8 4 -4 7 4 12 9 12 12 0 8 -9 4 -16 -8z"/>
<path d="M1164 2538 c-4 -7 -3 -8 4 -4 7 4 12 9 12 12 0 8 -9 4 -16 -8z"/>
<path d="M1463 2543 c9 -2 23 -2 30 0 6 3 -1 5 -18 5 -16 0 -22 -2 -12 -5z"/>
<path d="M2013 2533 c9 -2 23 -2 30 0 6 3 -1 5 -18 5 -16 0 -22 -2 -12 -5z"/>
<path d="M2098 2533 c7 -3 16 -2 19 1 4 3 -2 6 -13 5 -11 0 -14 -3 -6 -6z"/>
<path d="M2134 2528 c-4 -7 -3 -8 4 -4 12 7 16 16 8 16 -3 0 -8 -5 -12 -12z"/>
<path d="M1860 2494 c-29 -15 -60 -51 -60 -68 0 -6 9 4 20 22 11 17 26 32 34
32 7 0 19 7 26 15 15 18 13 17 -20 -1z"/>
<path d="M1141 2484 c0 -11 3 -14 6 -6 3 7 2 16 -1 19 -3 4 -6 -2 -5 -13z"/>
<path d="M1620 2496 c0 -2 7 -7 16 -10 8 -3 12 -2 9 4 -6 10 -25 14 -25 6z"/>
<path d="M1290 2480 c0 -7 3 -10 7 -7 3 4 3 10 0 14 -4 3 -7 0 -7 -7z"/>
<path d="M1368 2473 c7 -3 16 -2 19 1 4 3 -2 6 -13 5 -11 0 -14 -3 -6 -6z"/>
<path d="M1408 2473 c7 -3 16 -2 19 1 4 3 -2 6 -13 5 -11 0 -14 -3 -6 -6z"/>
<path d="M1443 2473 c4 -3 10 -3 14 0 3 4 0 7 -7 7 -7 0 -10 -3 -7 -7z"/>
<path d="M1483 2463 c4 -3 10 -3 14 0 3 4 0 7 -7 7 -7 0 -10 -3 -7 -7z"/>
<path d="M1670 2451 c0 -6 4 -13 10 -16 6 -3 7 1 4 9 -7 18 -14 21 -14 7z"/>
<path d="M1945 2450 c28 -12 37 -12 30 0 -3 6 -16 10 -28 9 -21 0 -21 -1 -2
-9z"/>
<path d="M2003 2443 c9 -2 23 -2 30 0 6 3 -1 5 -18 5 -16 0 -22 -2 -12 -5z"/>
<path d="M1418 2433 c7 -3 16 -2 19 1 4 3 -2 6 -13 5 -11 0 -14 -3 -6 -6z"/>
<path d="M1863 2433 c4 -3 10 -3 14 0 3 4 0 7 -7 7 -7 0 -10 -3 -7 -7z"/>
<path d="M1494 2417 c44 -29 66 -49 60 -58 -3 -5 -2 -9 3 -8 20 3 34 -2 28
-11 -3 -5 3 -10 14 -10 12 0 21 5 21 10 0 6 9 10 20 10 11 0 20 6 20 13 0 7
-15 12 -39 12 -38 1 -111 32 -111 47 0 5 -8 8 -17 7 -17 0 -17 -1 1 -12z"/>
<path d="M1296 2401 c-9 -13 4 -41 19 -41 13 0 41 28 34 34 -12 10 -48 15 -53
7z"/>
<path d="M1900 2395 c0 -8 -4 -15 -9 -15 -5 0 -11 -10 -13 -22 -2 -15 -11 -24
-24 -26 -16 -2 -21 -8 -17 -23 4 -12 11 -18 20 -15 7 3 23 0 33 -6 16 -10 23
-9 37 5 10 10 14 17 8 16 -5 -1 -20 -1 -33 0 -29 1 -24 21 9 38 22 11 22 13 4
13 -13 1 -7 6 18 17 20 8 37 19 37 24 0 6 -8 5 -19 -1 -13 -7 -22 -7 -26 0 -9
15 -25 12 -25 -5z"/>
<path d="M2045 2398 c42 -15 59 -29 45 -38 -7 -4 -1 -9 15 -12 l26 -5 -26 27
c-25 26 -25 29 -8 33 10 3 -4 5 -32 5 -47 0 -48 0 -20 -10z"/>
<path d="M1175 2359 c-16 -6 -14 -8 13 -8 33 -1 41 4 20 12 -7 2 -22 1 -33 -4z"/>
<path d="M1413 2363 c4 -3 10 -3 14 0 3 4 0 7 -7 7 -7 0 -10 -3 -7 -7z"/>
<path d="M1322 2344 c-18 -13 -21 -19 -11 -30 7 -9 28 -13 53 -12 l41 1 -42 4
c-50 5 -58 26 -15 41 15 6 20 11 12 11 -9 1 -26 -6 -38 -15z"/>
<path d="M1230 2340 c0 -7 3 -10 7 -7 3 4 3 10 0 14 -4 3 -7 0 -7 -7z"/>
<path d="M1760 2340 c0 -7 3 -10 7 -7 3 4 3 10 0 14 -4 3 -7 0 -7 -7z"/>
<path d="M1062 2286 c4 -19 2 -26 -7 -22 -9 3 -14 -8 -17 -33 -4 -46 1 -71 14
-71 5 0 7 12 3 30 -5 21 -2 35 9 46 19 18 21 60 5 70 -8 5 -10 -1 -7 -20z"/>
<path d="M1493 2303 c4 -3 10 -3 14 0 3 4 0 7 -7 7 -7 0 -10 -3 -7 -7z"/>
<path d="M1554 2298 c-4 -7 -3 -8 4 -4 12 7 16 16 8 16 -3 0 -8 -5 -12 -12z"/>
<path d="M1530 2290 c0 -7 3 -10 7 -7 3 4 3 10 0 14 -4 3 -7 0 -7 -7z"/>
<path d="M2087 2278 c7 -8 10 -17 8 -20 -3 -3 12 -8 34 -12 22 -3 45 -14 51
-24 10 -16 11 -15 8 2 -3 20 -43 48 -88 61 -21 7 -23 6 -13 -7z"/>
<path d="M1780 2250 c0 -21 17 -46 25 -38 4 4 0 17 -9 30 -10 14 -16 17 -16 8z"/>
<path d="M1010 2245 c0 -5 5 -17 10 -25 5 -8 10 -10 10 -5 0 6 -5 17 -10 25
-5 8 -10 11 -10 5z"/>
<path d="M2221 2219 c-6 -20 -21 -45 -32 -57 -16 -18 -31 -22 -76 -22 -83 0
-60 -8 28 -11 l76 -2 -3 -51 c-3 -74 -8 -96 -32 -145 -16 -33 -19 -48 -11 -57
8 -10 8 -22 0 -45 -6 -17 -8 -41 -5 -53 3 -14 -1 -28 -10 -35 -9 -7 -13 -17
-10 -22 3 -5 -6 -24 -19 -41 -13 -18 -27 -41 -30 -50 -4 -10 -15 -18 -26 -18
-11 0 -25 -9 -31 -20 -7 -13 -21 -20 -41 -20 -20 0 -40 -10 -58 -27 -34 -34
-101 -71 -161 -89 l-45 -14 40 6 c47 6 116 37 165 73 21 15 45 24 61 23 14 -2
33 4 42 12 9 9 19 16 22 16 4 0 22 15 42 33 46 43 93 138 88 178 -2 17 0 41 5
53 5 13 4 29 -2 40 -7 12 -7 25 0 40 13 26 26 78 23 90 -1 5 5 16 12 25 20 23
39 86 36 118 -2 16 0 33 4 40 4 6 2 24 -4 39 -7 21 -12 25 -18 15 -7 -11 -9
-11 -13 0 -3 8 -10 -2 -17 -22z"/>
<path d="M2511 2234 c0 -11 3 -14 6 -6 3 7 2 16 -1 19 -3 4 -6 -2 -5 -13z"/>
<path d="M1295 2210 c3 -5 8 -10 11 -10 3 0 2 5 -1 10 -3 6 -8 10 -11 10 -3 0
-2 -4 1 -10z"/>
<path d="M1799 2193 c-1 -5 0 -34 1 -66 2 -49 -2 -63 -22 -84 l-23 -26 23 14
c21 13 25 12 42 -11 16 -21 21 -23 44 -12 35 16 43 40 23 74 -9 15 -12 28 -8
28 17 0 40 -36 43 -67 2 -24 6 -30 17 -24 17 11 8 39 -24 73 -14 15 -25 32
-25 38 0 5 -7 10 -16 10 -8 0 -13 -4 -10 -9 9 -14 -22 -34 -40 -27 -13 5 -16
16 -12 51 3 25 2 45 -3 45 -5 0 -10 -3 -10 -7z m78 -148 c-2 -5 -13 -11 -25
-13 -20 -3 -21 -1 -10 29 10 30 12 31 25 13 7 -10 12 -23 10 -29z"/>
<path d="M1120 2180 c0 -7 3 -10 7 -7 3 4 3 10 0 14 -4 3 -7 0 -7 -7z"/>
<path d="M1393 2183 c4 -3 10 -3 14 0 3 4 0 7 -7 7 -7 0 -10 -3 -7 -7z"/>
<path d="M2430 2167 c0 -13 5 -28 11 -34 8 -8 8 -17 -1 -33 -6 -12 -9 -28 -6
-35 2 -7 -2 -16 -10 -19 -8 -3 -14 -11 -14 -17 0 -7 8 -5 20 6 13 12 18 25 14
38 -4 13 -2 17 5 13 7 -5 11 4 11 23 0 17 -5 31 -10 31 -6 0 -8 11 -4 25 4 15
2 25 -5 25 -6 0 -11 -10 -11 -23z"/>
<path d="M1563 2163 c4 -3 10 -3 14 0 3 4 0 7 -7 7 -7 0 -10 -3 -7 -7z"/>
<path d="M1836 2161 c-4 -7 -5 -15 -2 -18 9 -9 19 4 14 18 -4 11 -6 11 -12 0z"/>
<path d="M1090 2150 c0 -7 3 -10 7 -7 3 4 3 10 0 14 -4 3 -7 0 -7 -7z"/>
<path d="M1433 2153 c9 -2 23 -2 30 0 6 3 -1 5 -18 5 -16 0 -22 -2 -12 -5z"/>
<path d="M1913 2143 c4 -3 10 -3 14 0 3 4 0 7 -7 7 -7 0 -10 -3 -7 -7z"/>
<path d="M2008 2133 c7 -3 16 -2 19 1 4 3 -2 6 -13 5 -11 0 -14 -3 -6 -6z"/>
<path d="M2472 2088 c-6 -29 -14 -64 -17 -78 -4 -17 -1 -14 9 9 9 18 18 43 21
55 2 11 7 31 11 44 3 12 2 22 -3 22 -5 0 -14 -24 -21 -52z"/>
<path d="M1091 2094 c0 -11 3 -14 6 -6 3 7 2 16 -1 19 -3 4 -6 -2 -5 -13z"/>
<path d="M1131 2094 c0 -11 3 -14 6 -6 3 7 2 16 -1 19 -3 4 -6 -2 -5 -13z"/>
<path d="M1105 2060 c3 -5 8 -10 11 -10 3 0 2 5 -1 10 -3 6 -8 10 -11 10 -3 0
-2 -4 1 -10z"/>
<path d="M1086 2023 c9 -38 12 -40 27 -18 13 16 14 16 20 1 4 -9 2 -27 -3 -41
-11 -30 -4 -55 17 -55 10 0 12 6 7 23 -11 35 -13 86 -3 93 5 3 9 11 9 17 0 7
-4 6 -10 -3 -8 -12 -10 -12 -10 -1 0 10 -3 11 -14 2 -10 -8 -16 -9 -21 -1 -13
21 -25 9 -19 -17z"/>
<path d="M1447 2007 c-17 -23 -21 -34 -12 -34 8 0 12 4 9 9 -3 4 -1 8 5 8 11
0 35 39 28 46 -2 3 -16 -11 -30 -29z"/>
<path d="M1564 1988 c-4 -7 -3 -8 4 -4 12 7 16 16 8 16 -3 0 -8 -5 -12 -12z"/>
<path d="M1902 1980 c-7 -12 -23 -25 -35 -30 -17 -7 -18 -9 -4 -9 19 -1 60 35
55 50 -2 5 -9 0 -16 -11z"/>
<path d="M1585 1975 c6 -2 32 -5 59 -8 30 -3 43 -1 35 4 -8 5 -34 8 -59 8 -25
0 -40 -2 -35 -4z"/>
<path d="M1980 1946 c0 -14 5 -28 10 -31 18 -11 11 -23 -10 -18 -11 3 -18 9
-15 13 3 5 1 11 -5 15 -5 3 -19 -6 -32 -20 -13 -16 -33 -25 -52 -26 -19 -1
-10 -5 24 -10 35 -5 56 -4 59 2 1 6 12 3 22 -7 17 -16 19 -16 19 -1 0 24 27
21 35 -3 8 -26 25 -16 24 13 -1 18 -2 19 -6 4 -4 -15 -10 -12 -34 20 -30 40
-37 59 -16 47 8 -5 8 -2 -2 9 -7 9 -15 17 -17 17 -2 0 -4 -11 -4 -24z"/>
<path d="M2378 1963 c6 -2 9 -9 6 -14 -3 -6 0 -16 6 -25 10 -11 16 -12 27 -3
11 10 11 15 -3 30 -10 11 -24 19 -33 18 -10 0 -12 -2 -3 -6z"/>
<path d="M1394 1948 c-4 -7 -3 -8 4 -4 12 7 16 16 8 16 -3 0 -8 -5 -12 -12z"/>
<path d="M1703 1953 c4 -3 10 -3 14 0 3 4 0 7 -7 7 -7 0 -10 -3 -7 -7z"/>
<path d="M1803 1953 c4 -3 10 -3 14 0 3 4 0 7 -7 7 -7 0 -10 -3 -7 -7z"/>
<path d="M1373 1915 c-3 -9 -3 -18 -1 -21 3 -3 8 4 11 16 6 23 -1 27 -10 5z"/>
<path d="M2035 1910 c3 -5 8 -10 11 -10 3 0 2 5 -1 10 -3 6 -8 10 -11 10 -3 0
-2 -4 1 -10z"/>
<path d="M1370 1873 c0 -4 5 -15 10 -23 8 -13 10 -13 10 2 0 9 -4 20 -10 23
-5 3 -10 3 -10 -2z"/>
<path d="M1773 1873 c4 -3 10 -3 14 0 3 4 0 7 -7 7 -7 0 -10 -3 -7 -7z"/>
<path d="M1808 1873 c6 -2 18 -2 25 0 6 3 1 5 -13 5 -14 0 -19 -2 -12 -5z"/>
<path d="M1713 1863 c4 -3 10 -3 14 0 3 4 0 7 -7 7 -7 0 -10 -3 -7 -7z"/>
<path d="M1445 1849 c-4 -6 -5 -12 -2 -15 2 -3 7 2 10 11 7 17 1 20 -8 4z"/>
<path d="M1808 1833 c7 -3 16 -2 19 1 4 3 -2 6 -13 5 -11 0 -14 -3 -6 -6z"/>
<path d="M1953 1804 c-15 -20 -35 -45 -43 -55 -8 -11 -26 -21 -40 -23 -14 -2
-33 -7 -43 -11 -21 -9 -46 9 -28 19 17 11 13 26 -4 20 -8 -4 -12 -10 -9 -16 3
-5 -3 -12 -15 -15 -11 -3 -18 -9 -15 -14 3 -5 -3 -6 -12 -2 -14 5 -16 3 -11
-11 4 -10 7 -21 7 -26 0 -4 8 -7 18 -5 9 1 16 8 15 14 -2 6 6 11 18 11 11 0
29 5 40 11 16 8 25 7 38 -5 15 -14 19 -14 34 4 9 11 17 25 17 30 0 6 4 10 9
10 10 0 27 39 23 52 -1 4 10 16 25 27 14 12 21 21 15 21 -6 0 -24 -16 -39 -36z"/>
<path d="M1547 1819 c7 -7 15 -10 18 -7 3 3 -2 9 -12 12 -14 6 -15 5 -6 -5z"/>
<path d="M1515 1790 c3 -5 8 -10 11 -10 2 0 4 5 4 10 0 6 -5 10 -11 10 -5 0
-7 -4 -4 -10z"/>
<path d="M1594 1788 c-4 -7 -3 -8 4 -4 12 7 16 16 8 16 -3 0 -8 -5 -12 -12z"/>
<path d="M1615 1760 c46 -12 112 -20 95 -11 -8 5 -40 11 -70 14 -38 4 -46 3
-25 -3z"/>
<path d="M1750 1750 c0 -5 5 -10 11 -10 5 0 7 5 4 10 -3 6 -8 10 -11 10 -2 0
-4 -4 -4 -10z"/>
<path d="M1687 1684 c-14 -14 -6 -25 16 -22 12 2 22 7 22 13 0 12 -28 18 -38
9z"/>
<path d="M1312 1574 c14 -15 39 -28 54 -29 26 -3 27 -2 10 8 -10 7 -26 20 -35
30 -8 9 -24 17 -35 17 -19 0 -19 -2 6 -26z"/>
<path d="M1401 1537 c2 -1 13 -9 24 -17 19 -14 19 -14 6 3 -7 9 -18 17 -24 17
-6 0 -8 -1 -6 -3z"/>
<path d="M1450 1505 c0 -9 87 -42 125 -48 l40 -6 -35 11 c-19 6 -54 19 -77 29
-44 20 -53 22 -53 14z"/>
<path d="M1415 1407 c10 -46 14 -52 36 -49 23 2 23 2 5 -12 -11 -9 -16 -22
-12 -31 5 -14 10 -12 33 10 33 31 62 29 124 -10 47 -31 65 -36 134 -40 57 -3
227 20 256 35 26 14 153 24 145 12 -3 -6 8 -15 24 -21 21 -7 30 -17 30 -31 0
-24 22 -50 42 -50 7 0 23 -7 35 -15 14 -10 24 -12 28 -5 12 20 27 10 22 -15
-4 -25 -4 -25 16 -8 14 13 18 14 12 3 -4 -8 3 -4 16 9 17 17 20 25 11 28 -7 3
-21 13 -30 23 -9 9 -32 20 -50 23 -39 8 -64 31 -81 74 -8 20 -22 34 -39 39
-41 11 -57 10 -93 -8 -19 -9 -54 -22 -79 -28 -25 -7 -65 -18 -90 -26 -25 -7
-80 -15 -123 -18 -63 -4 -86 -1 -120 14 -23 11 -49 24 -57 29 -8 5 -32 17 -52
27 -21 10 -38 23 -38 27 0 5 -7 6 -16 3 -9 -4 -13 -2 -8 5 4 7 0 9 -13 5 -13
-4 -29 3 -50 24 l-30 29 12 -52z"/>
<path d="M1638 1443 c12 -2 32 -2 45 0 12 2 2 4 -23 4 -25 0 -35 -2 -22 -4z"/>
<path d="M1450 1221 c0 -17 12 -41 20 -41 10 0 1 38 -11 46 -5 3 -9 1 -9 -5z"/>
<path d="M1416 1135 c-10 -27 -7 -43 14 -91 11 -24 27 -44 34 -44 7 0 19 -14
26 -30 7 -17 17 -33 23 -37 5 -3 8 -2 6 3 -13 25 -32 66 -62 137 -24 55 -36
74 -41 62z m34 -78 c0 -5 -4 -5 -10 -2 -5 3 -10 14 -10 23 0 15 2 15 10 2 5
-8 10 -19 10 -23z"/>
<path d="M2284 1108 l-29 -33 33 29 c30 28 37 36 29 36 -2 0 -16 -15 -33 -32z"/>
<path d="M1525 910 c3 -4 22 -11 42 -15 21 -3 49 -9 63 -11 22 -5 23 -4 7 6
-21 13 -118 30 -112 20z"/>
<path d="M1668 873 c7 -3 16 -2 19 1 4 3 -2 6 -13 5 -11 0 -14 -3 -6 -6z"/>
</g>
<g transform="translate(0.000000,360.000000) scale(0.100000,-0.100000)" fill="#3A3F44" fill-opacity="0.365" stroke="none">
<path d="M2110 3365 c0 -2 5 -15 11 -29 7 -14 9 -32 5 -42 -6 -16 -8 -16 -25
1 -12 10 -27 14 -40 10 -13 -4 -31 1 -48 14 -39 28 -145 41 -327 41 -142 0
-161 -2 -228 -26 -68 -24 -119 -55 -158 -94 -9 -9 -47 -38 -84 -65 -49 -34
-76 -63 -98 -102 -17 -30 -44 -67 -60 -83 -29 -29 -69 -109 -82 -164 -5 -20
-2 -34 10 -47 14 -16 15 -26 6 -76 -17 -87 0 -286 26 -316 14 -16 14 -20 -1
-46 -24 -40 -22 -127 4 -196 11 -31 29 -97 39 -147 16 -78 24 -96 54 -127 19
-20 42 -54 50 -76 35 -100 78 -175 136 -240 34 -38 68 -83 75 -100 7 -16 15
-60 19 -97 6 -61 4 -69 -16 -88 -22 -20 -118 -70 -268 -138 -120 -55 -276
-213 -331 -337 -20 -45 -53 -248 -47 -290 2 -11 10 40 19 113 13 103 23 145
45 187 38 77 106 158 195 235 61 52 99 74 190 113 63 26 139 65 169 85 l55 38
-3 74 c-2 40 -9 87 -17 104 -7 17 -44 68 -82 113 -55 65 -78 103 -109 180 -22
55 -53 114 -72 135 -27 30 -37 54 -52 125 -10 48 -27 112 -39 141 -25 63 -27
143 -5 181 15 25 15 31 -1 77 -23 64 -34 223 -22 298 7 42 6 65 -2 78 -6 10
-11 29 -11 43 0 34 51 134 85 165 15 14 36 43 46 65 29 59 37 68 120 122 42
27 92 66 112 85 20 20 62 46 94 59 50 20 81 24 217 27 197 5 307 -9 354 -45
25 -18 37 -22 45 -14 8 8 20 4 43 -14 18 -14 36 -25 39 -25 4 0 4 20 1 45 -4
25 -5 45 -1 45 3 0 15 -21 26 -47 20 -46 21 -47 35 -28 15 20 15 20 30 1 8
-11 14 -32 14 -48 0 -18 5 -28 15 -28 10 0 15 -11 15 -35 0 -25 6 -37 23 -46
12 -7 25 -17 29 -23 4 -6 8 -37 8 -70 0 -61 0 -62 50 -42 17 6 53 -24 88 -72
15 -21 22 -46 22 -75 0 -23 5 -48 11 -54 14 -14 17 -96 7 -188 -14 -127 -20
-200 -14 -194 7 7 25 171 31 288 3 50 1 89 -5 96 -6 7 -12 31 -14 53 -8 76
-85 168 -132 156 -20 -5 -24 -2 -24 15 0 12 5 21 10 21 6 0 10 5 10 10 0 6 -5
9 -11 8 -7 -2 -16 11 -20 28 -5 18 -20 39 -34 48 -22 15 -25 22 -19 52 5 30 3
36 -13 40 -11 3 -23 19 -29 36 -11 38 -40 60 -53 39 -7 -11 -10 -9 -16 8 -8
25 -53 81 -66 81 -5 0 -9 -2 -9 -5z"/>
<path d="M2491 2358 c-1 -15 9 -43 20 -63 18 -29 21 -46 16 -88 -4 -29 -9 -63
-11 -77 -3 -14 1 -7 8 15 20 54 19 114 0 150 -9 17 -20 44 -24 60 l-8 30 -1
-27z"/>
<path d="M2500 2090 c0 -7 3 -10 7 -7 3 4 3 10 0 14 -4 3 -7 0 -7 -7z"/>
<path d="M2471 1992 c-12 -42 -30 -88 -40 -100 -9 -13 -34 -29 -55 -36 -38
-13 -39 -16 -78 -127 -38 -112 -39 -115 -28 -188 11 -77 38 -153 61 -167 7 -4
40 -15 73 -24 126 -34 479 -259 646 -412 198 -181 277 -276 402 -484 89 -148
106 -198 87 -252 -9 -27 -6 -44 22 -118 18 -48 35 -82 37 -76 2 6 -4 26 -12
44 -37 78 -45 117 -34 149 19 56 -4 119 -107 284 -63 102 -130 193 -203 276
-60 68 -129 140 -153 159 -24 19 -69 58 -100 86 -62 57 -237 177 -327 224 -31
17 -86 49 -122 72 -36 23 -91 47 -125 55 -93 22 -112 47 -135 182 -11 61 -10
68 27 182 36 111 40 118 68 123 48 10 74 44 101 134 14 46 24 86 21 88 -2 2
-14 -31 -26 -74z"/>
<path d="M721 461 c0 -13 -8 -90 -15 -170 -18 -177 -24 -291 -15 -291 3 0 7
33 8 72 1 40 8 142 17 226 8 84 13 161 11 170 -3 11 -5 9 -6 -7z"/>
</g>
<g transform="translate(0.000000,360.000000) scale(0.100000,-0.100000)" fill="#9D5F53" stroke="none">
<path d="M1449 2875 c-3 -2 -23 -7 -44 -11 -21 -3 -50 -11 -64 -16 -23 -10
-23 -12 -7 -16 10 -2 21 0 25 5 3 5 17 9 31 10 14 1 42 4 62 5 29 3 38 0 41
-14 3 -10 1 -18 -4 -18 -5 0 -9 -5 -9 -12 0 -7 6 -6 18 4 26 23 52 30 52 13 0
-7 4 -16 9 -19 5 -4 7 3 4 14 -7 28 -19 33 -43 20 -16 -9 -20 -8 -20 4 0 9 -9
20 -19 26 -22 11 -26 12 -32 5z"/>
<path d="M1772 2863 c-18 -9 -30 -18 -28 -21 3 -3 11 0 18 6 7 5 24 12 38 14
14 1 20 6 15 10 -6 4 -25 0 -43 -9z"/>
<path d="M2044 2839 c-3 -5 4 -9 15 -9 12 0 21 -5 21 -12 0 -6 6 -3 14 7 13
18 14 18 27 -3 8 -12 19 -22 26 -22 10 0 10 6 1 25 -9 21 -17 24 -55 23 -24 0
-46 -4 -49 -9z"/>
<path d="M1686 2831 c-3 -4 6 -6 19 -3 14 2 25 6 25 8 0 8 -39 4 -44 -5z"/>
<path d="M2004 2818 c-4 -7 -3 -8 4 -4 7 4 12 9 12 12 0 8 -9 4 -16 -8z"/>
<path d="M1294 2808 c-4 -7 -3 -8 4 -4 7 4 12 9 12 12 0 8 -9 4 -16 -8z"/>
<path d="M1641 2798 c-1 -11 -9 -18 -21 -18 -15 0 -20 -6 -19 -27 0 -16 3 -21
6 -13 3 8 14 22 26 31 11 9 17 22 14 30 -4 10 -6 9 -6 -3z"/>
<path d="M1973 2803 c4 -3 10 -3 14 0 3 4 0 7 -7 7 -7 0 -10 -3 -7 -7z"/>
<path d="M1920 2790 c-18 -12 -2 -12 25 0 13 6 15 9 5 9 -8 0 -22 -4 -30 -9z"/>
<path d="M1863 2775 c0 -8 7 -15 15 -15 12 0 12 3 2 15 -7 8 -13 15 -15 15 -1
0 -2 -7 -2 -15z"/>
<path d="M2145 2780 c3 -5 8 -10 11 -10 3 0 2 5 -1 10 -3 6 -8 10 -11 10 -3 0
-2 -4 1 -10z"/>
<path d="M1808 2773 c6 -2 18 -2 25 0 6 3 1 5 -13 5 -14 0 -19 -2 -12 -5z"/>
<path d="M2175 2729 c-22 -8 -20 -10 13 -14 12 -1 22 1 22 6 0 13 -14 17 -35
8z"/>
<path d="M2220 2660 c0 -7 3 -10 7 -7 3 4 3 10 0 14 -4 3 -7 0 -7 -7z"/>
<path d="M2240 2662 c0 -7 6 -25 14 -40 8 -15 14 -29 13 -32 -1 -10 26 -85 34
-94 10 -11 -23 96 -44 144 -9 19 -16 29 -17 22z"/>
<path d="M1595 2470 c4 -6 11 -8 16 -5 14 9 11 15 -7 15 -8 0 -12 -5 -9 -10z"/>
<path d="M1893 2473 c4 -3 10 -3 14 0 3 4 0 7 -7 7 -7 0 -10 -3 -7 -7z"/>
<path d="M2310 2465 c0 -11 5 -27 10 -35 8 -12 10 -12 10 5 0 11 -5 27 -10 35
-8 12 -10 12 -10 -5z"/>
<path d="M1923 2463 c4 -3 10 -3 14 0 3 4 0 7 -7 7 -7 0 -10 -3 -7 -7z"/>
<path d="M1834 2358 c-4 -7 -3 -8 4 -4 12 7 16 16 8 16 -3 0 -8 -5 -12 -12z"/>
<path d="M1383 2343 c4 -3 10 -3 14 0 3 4 0 7 -7 7 -7 0 -10 -3 -7 -7z"/>
<path d="M1345 2330 c-7 -11 22 -26 32 -16 4 3 -1 6 -11 6 -9 0 -14 5 -11 10
3 6 4 10 1 10 -3 0 -8 -5 -11 -10z"/>
<path d="M1890 2330 c0 -7 3 -10 7 -7 3 4 3 10 0 14 -4 3 -7 0 -7 -7z"/>
<path d="M2259 2319 c-15 -29 1 -44 38 -34 l28 8 -25 7 c-15 4 -24 13 -24 23
2 23 -3 21 -17 -4z"/>
<path d="M1574 2318 c-4 -7 -3 -8 4 -4 12 7 16 16 8 16 -3 0 -8 -5 -12 -12z"/>
<path d="M2148 2308 c10 -13 10 -17 0 -21 -8 -4 -7 -6 5 -6 9 -1 17 3 17 8 0
5 -8 15 -17 22 -16 13 -17 12 -5 -3z"/>
<path d="M1027 2285 c-4 -8 -2 -17 3 -20 6 -4 10 -4 10 -1 0 2 3 11 6 20 3 9
2 16 -4 16 -5 0 -12 -7 -15 -15z"/>
<path d="M2108 2293 c7 -3 16 -2 19 1 4 3 -2 6 -13 5 -11 0 -14 -3 -6 -6z"/>
<path d="M2419 2283 c-13 -17 -13 -17 6 -3 11 8 22 16 24 17 2 2 0 3 -6 3 -6
0 -17 -8 -24 -17z"/>
<path d="M2437 2265 c-15 -14 -24 -25 -18 -25 6 0 8 -8 5 -17 -4 -13 -3 -15 4
-5 7 11 12 11 25 -2 20 -20 28 -20 21 -1 -4 8 -1 15 4 15 6 0 12 -6 15 -12 2
-7 3 -5 2 4 -2 10 1 20 5 23 5 3 8 14 7 25 -2 28 -35 25 -70 -5z m57 6 c3 -5
-8 -14 -26 -20 -42 -15 -44 -14 -17 9 27 22 35 24 43 11z"/>
<path d="M2342 2183 c-1 -13 -6 -23 -12 -23 -13 0 -13 -57 0 -65 13 -8 22 34
17 76 -2 19 -5 24 -5 12z"/>
<path d="M2184 2168 c-4 -7 -3 -8 4 -4 12 7 16 16 8 16 -3 0 -8 -5 -12 -12z"/>
<path d="M1113 2125 c0 -22 2 -30 4 -17 2 12 2 30 0 40 -3 9 -5 -1 -4 -23z"/>
<path d="M1903 2153 c4 -3 10 -3 14 0 3 4 0 7 -7 7 -7 0 -10 -3 -7 -7z"/>
<path d="M2401 2136 c0 -10 -9 -25 -18 -32 -17 -13 -17 -13 0 -14 20 0 31 20
24 47 -4 17 -5 17 -6 -1z"/>
<path d="M1120 2070 c0 -7 3 -10 7 -7 3 4 3 10 0 14 -4 3 -7 0 -7 -7z"/>
<path d="M2320 2061 c0 -10 -6 -21 -14 -24 -9 -4 -12 -14 -9 -27 4 -13 -2 -27
-16 -39 -18 -16 -29 -41 -17 -41 16 0 35 14 30 22 -4 6 2 8 12 6 11 -2 18 -10
16 -17 -1 -7 3 -19 9 -27 9 -11 8 -14 -3 -14 -8 0 -20 6 -28 13 -12 10 -12 9
-1 -5 17 -23 47 -23 55 -2 9 24 -2 52 -21 56 -9 2 -17 13 -18 25 -1 12 1 20 5
18 3 -2 11 14 17 36 8 31 8 39 -3 39 -8 0 -14 -9 -14 -19z"/>
<path d="M2364 2026 l-11 -34 29 26 c28 27 40 55 14 33 -9 -8 -15 -8 -18 -1
-1 5 -8 -5 -14 -24z"/>
<path d="M2413 2016 c-24 -11 -31 -26 -12 -26 17 0 49 20 49 30 0 12 -8 11
-37 -4z"/>
<path d="M1618 1998 c9 -9 15 -9 24 0 9 9 7 12 -12 12 -19 0 -21 -3 -12 -12z"/>
<path d="M1778 2003 c7 -3 16 -2 19 1 4 3 -2 6 -13 5 -11 0 -14 -3 -6 -6z"/>
<path d="M1590 1990 c0 -7 3 -10 7 -7 3 4 3 10 0 14 -4 3 -7 0 -7 -7z"/>
<path d="M1667 1989 c7 -7 15 -10 18 -7 3 3 -2 9 -12 12 -14 6 -15 5 -6 -5z"/>
<path d="M1747 1993 c-13 -12 -7 -23 11 -22 10 0 12 3 4 6 -6 2 -10 9 -6 14 6
10 0 12 -9 2z"/>
<path d="M1860 1979 c-29 -15 -31 -18 -13 -19 19 0 53 23 53 36 0 5 3 6 -40
-17z"/>
<path d="M1703 1973 c4 -3 10 -3 14 0 3 4 0 7 -7 7 -7 0 -10 -3 -7 -7z"/>
<path d="M1785 1850 c-14 -5 -7 -7 25 -6 25 1 51 -3 59 -8 11 -8 13 -8 8 1 -5
7 2 13 20 16 16 2 1 4 -32 5 -33 0 -69 -3 -80 -8z"/>
<path d="M1465 1840 c3 -5 8 -10 11 -10 3 0 2 5 -1 10 -3 6 -8 10 -11 10 -3 0
-2 -4 1 -10z"/>
<path d="M1733 1843 c4 -3 10 -3 14 0 3 4 0 7 -7 7 -7 0 -10 -3 -7 -7z"/>
<path d="M2283 1838 c-1 -7 -3 -28 -6 -45 -2 -18 0 -33 5 -33 10 0 28 44 28
71 0 21 -26 27 -27 7z"/>
<path d="M1527 1817 c-3 -8 1 -14 9 -14 16 0 19 13 5 21 -5 3 -11 0 -14 -7z"/>
<path d="M1861 1785 c-22 -8 -30 -14 -20 -18 9 -3 5 -6 -9 -6 -19 -1 -21 -3
-10 -15 7 -8 15 -10 16 -5 2 6 10 5 18 -2 11 -9 15 -7 21 7 4 11 16 27 28 36
24 21 7 22 -44 3z"/>
<path d="M1615 1780 c3 -5 8 -10 11 -10 3 0 2 5 -1 10 -3 6 -8 10 -11 10 -3 0
-2 -4 1 -10z"/>
<path d="M1780 1770 c0 -5 5 -10 11 -10 5 0 7 5 4 10 -3 6 -8 10 -11 10 -2 0
-4 -4 -4 -10z"/>
<path d="M2247 1753 c-4 -3 -7 -15 -7 -25 0 -10 -7 -21 -15 -25 -9 -3 -22 -18
-30 -32 -24 -47 -124 -141 -156 -148 -29 -6 -46 -19 -35 -30 6 -7 92 42 124
70 12 11 22 26 22 33 0 6 16 24 35 40 20 15 33 34 31 40 -3 8 7 15 25 19 28 6
41 25 18 25 -6 0 -9 9 -6 20 5 21 4 24 -6 13z"/>
<path d="M2203 1488 c5 -18 2 -20 -29 -15 -24 4 -39 1 -50 -11 -9 -9 -24 -17
-33 -18 -48 -8 -77 -18 -87 -29 -13 -18 -70 -33 -60 -17 5 8 2 10 -8 6 -9 -3
-16 -10 -16 -16 0 -5 -18 -7 -40 -5 -22 2 -40 1 -40 -4 0 -6 -19 -5 -77 3 -7
1 -15 9 -18 18 -5 17 -65 27 -65 10 0 -5 7 -10 15 -10 16 0 21 -16 8 -23 -12
-6 -54 19 -46 26 3 4 -1 7 -10 7 -10 0 -14 -5 -11 -15 4 -8 14 -15 24 -15 11
0 22 -5 25 -10 4 -7 13 -6 27 1 14 8 23 8 31 0 8 -8 6 -11 -7 -11 -9 0 -15 -4
-12 -8 8 -13 139 -2 211 19 22 6 55 13 73 16 18 3 35 9 38 14 3 5 15 9 28 9
12 0 28 6 35 13 9 7 12 8 7 0 -4 -8 3 -8 29 0 32 9 37 8 68 -23 25 -24 33 -39
30 -59 -4 -20 -2 -23 6 -11 10 13 15 8 12 -12 -1 -8 15 -12 33 -9 19 4 46 -11
46 -26 0 -13 2 -14 17 -2 11 10 14 10 9 2 -5 -9 0 -13 14 -13 12 0 19 -4 16
-8 -3 -5 1 -9 7 -9 28 0 14 36 -23 61 -22 14 -44 26 -49 26 -5 0 -13 9 -16 20
-3 11 -10 20 -15 20 -14 0 -42 59 -35 71 10 16 -20 54 -45 56 -18 2 -21 -2
-17 -19z"/>
<path d="M1936 1485 c-25 -19 -17 -19 25 0 24 10 28 14 14 14 -11 0 -29 -6
-39 -14z"/>
<path d="M1833 1440 c-30 -12 -29 -18 2 -12 14 2 25 8 25 13 0 5 -1 9 -2 8 -2
0 -13 -4 -25 -9z"/>
<path d="M1600 1420 c0 -7 3 -10 7 -7 3 4 3 10 0 14 -4 3 -7 0 -7 -7z"/>
<path d="M1770 1420 c-8 -5 -10 -10 -5 -10 6 0 17 5 25 10 8 5 11 10 5 10 -5
0 -17 -5 -25 -10z"/>
<path d="M1495 930 c3 -5 8 -10 11 -10 3 0 2 5 -1 10 -3 6 -8 10 -11 10 -3 0
-2 -4 1 -10z"/>
</g>
<g transform="translate(0.000000,360.000000) scale(0.100000,-0.100000)" fill="#D8C7BE" stroke="none">
<path d="M1590 2583 c0 -5 12 -16 25 -26 24 -17 25 -17 25 1 0 11 -7 23 -16
26 -21 8 -34 8 -34 -1z"/>
<path d="M1663 2563 c4 -3 10 -3 14 0 3 4 0 7 -7 7 -7 0 -10 -3 -7 -7z"/>
<path d="M1715 2550 c-3 -5 1 -10 9 -10 9 0 16 -4 16 -10 0 -5 9 -10 19 -10
24 0 39 19 17 21 -24 2 -30 4 -43 12 -6 4 -14 3 -18 -3z"/>
<path d="M1655 2540 c-3 -5 -1 -10 4 -10 6 0 11 5 11 10 0 6 -2 10 -4 10 -3 0
-8 -4 -11 -10z"/>
<path d="M1280 2131 c0 -17 18 -21 24 -6 3 9 0 15 -9 15 -8 0 -15 -4 -15 -9z"/>
<path d="M1371 2123 c-6 -10 -11 -12 -11 -5 0 6 -5 12 -10 12 -7 0 -7 -6 -1
-19 11 -20 5 -31 -17 -31 -9 0 -13 7 -9 20 3 11 1 20 -4 20 -9 0 -13 -15 -10
-34 1 -5 -5 -6 -13 -3 -8 3 -20 -1 -27 -9 -10 -12 -9 -13 5 -8 14 6 21 -5 17
-28 -2 -12 4 -10 29 12 12 11 27 17 31 14 13 -7 50 6 44 15 -2 5 7 13 20 19
16 7 23 17 19 27 -8 21 -51 19 -63 -2z"/>
<path d="M1692 2104 c-19 -21 -11 -50 13 -46 30 5 38 18 26 41 -14 25 -21 26
-39 5z"/>
<path d="M2000 2083 c0 -18 41 -43 68 -43 10 0 12 6 7 18 -4 9 -8 23 -8 30 0
7 -14 12 -34 12 -25 0 -33 -4 -33 -17z"/>
<path d="M1331 2021 c-8 -6 -9 -11 -3 -15 6 -3 14 -1 17 5 9 14 2 20 -14 10z"/>
<path d="M1301 2012 c-1 -8 -6 -10 -13 -6 -10 5 -10 4 -1 -6 15 -16 28 -8 20
12 -4 11 -6 11 -6 0z"/>
<path d="M1580 1824 c0 -9 6 -14 13 -11 6 2 20 -2 29 -11 12 -10 41 -15 85
-16 62 -1 68 1 68 19 0 13 -8 21 -22 23 -13 2 -23 -2 -23 -9 0 -9 -3 -9 -14 1
-8 6 -35 10 -60 9 -25 -2 -48 0 -52 4 -12 12 -24 8 -24 -9z"/>
<path d="M1623 1553 c4 -3 10 -3 14 0 3 4 0 7 -7 7 -7 0 -10 -3 -7 -7z"/>
</g>
<g transform="translate(0.000000,360.000000) scale(0.100000,-0.100000)" fill="#717E89" fill-opacity="0.957" stroke="none">
<path d="M1453 3310 c-34 -8 -88 -39 -81 -46 3 -2 22 5 43 16 22 11 45 20 52
20 6 0 15 5 18 10 3 6 5 10 3 9 -2 -1 -18 -4 -35 -9z"/>
<path d="M1285 1590 c3 -5 8 -10 11 -10 3 0 2 5 -1 10 -3 6 -8 10 -11 10 -3 0
-2 -4 1 -10z"/>
<path d="M1350 1516 c0 -2 8 -10 18 -17 15 -13 16 -12 3 4 -13 16 -21 21 -21
13z"/>
<path d="M1390 1459 c0 -5 5 -7 10 -4 6 3 10 8 10 11 0 2 -4 4 -10 4 -5 0 -10
-5 -10 -11z"/>
<path d="M1401 1414 c0 -11 3 -14 6 -6 3 7 2 16 -1 19 -3 4 -6 -2 -5 -13z"/>
<path d="M1412 1295 c0 -16 2 -22 5 -12 2 9 2 23 0 30 -3 6 -5 -1 -5 -18z"/>
</g>
</svg>